<svg width="314" height="140" viewBox="0 0 314 140" fill="none" xmlns="http://www.w3.org/2000/svg">
<path fill-rule="evenodd" clip-rule="evenodd" d="M0.113281 25.4993C0.113281 11.4167 11.5295 0.000549316 25.6121 0.000549316H137.169C151.252 0.000549316 162.668 11.4167 162.668 25.4993V52.5914C162.668 58.1658 167.187 62.6848 172.761 62.6848V62.6848C178.336 62.6848 182.855 58.1658 182.855 52.5914V25.4993C182.855 11.4167 194.271 0.000549316 208.354 0.000549316H320.973C335.056 0.000549316 346.472 11.4167 346.472 25.4993V113.683C346.472 127.765 335.056 139.181 320.973 139.181H208.354C194.271 139.181 182.855 127.765 182.855 113.683V89.7773C182.855 84.2029 178.336 79.684 172.761 79.684V79.684C167.187 79.684 162.668 84.2029 162.668 89.7773V113.683C162.668 127.765 151.252 139.181 137.169 139.181H25.6121C11.5295 139.181 0.113281 127.765 0.113281 113.683V25.4993Z" fill="white"/>
<path d="M17.6385 34.2922C17.6385 33.2709 17.8666 32.3586 18.3227 31.5554C18.7888 30.7422 19.4185 30.1125 20.2118 29.6663C21.015 29.2102 21.9124 28.9821 22.904 28.9821C24.0642 28.9821 25.0806 29.2796 25.9533 29.8746C26.8259 30.4695 27.4357 31.2926 27.7828 32.3437H25.388C25.15 31.8479 24.8129 31.476 24.3766 31.2281C23.9502 30.9802 23.4544 30.8563 22.8891 30.8563C22.2843 30.8563 21.7438 31 21.2678 31.2876C20.8018 31.5653 20.4349 31.9619 20.1672 32.4776C19.9093 32.9932 19.7804 33.5981 19.7804 34.2922C19.7804 34.9764 19.9093 35.5813 20.1672 36.1069C20.4349 36.6225 20.8018 37.0241 21.2678 37.3117C21.7438 37.5894 22.2843 37.7282 22.8891 37.7282C23.4544 37.7282 23.9502 37.6042 24.3766 37.3563C24.8129 37.0985 25.15 36.7217 25.388 36.2259H27.7828C27.4357 37.2869 26.8259 38.1149 25.9533 38.7099C25.0905 39.2949 24.0741 39.5875 22.904 39.5875C21.9124 39.5875 21.015 39.3644 20.2118 38.9181C19.4185 38.462 18.7888 37.8323 18.3227 37.0291C17.8666 36.2259 17.6385 35.3136 17.6385 34.2922ZM34.351 31.1389C34.9757 31.1389 35.531 31.2777 36.0169 31.5554C36.5028 31.8231 36.8796 32.2247 37.1473 32.7602C37.425 33.2857 37.5638 33.9204 37.5638 34.6641V39.4982H35.4814V34.9467C35.4814 34.2922 35.3178 33.7915 34.9905 33.4444C34.6633 33.0874 34.2171 32.9089 33.6519 32.9089C33.0767 32.9089 32.6206 33.0874 32.2834 33.4444C31.9562 33.7915 31.7926 34.2922 31.7926 34.9467V39.4982H29.7102V28.4913H31.7926V32.2842C32.0603 31.9272 32.4173 31.6496 32.8635 31.4512C33.3098 31.243 33.8056 31.1389 34.351 31.1389ZM47.3531 35.1996C47.3531 35.497 47.3332 35.7648 47.2936 36.0028H41.2695C41.3191 36.5977 41.5273 37.0638 41.8942 37.401C42.2611 37.7381 42.7123 37.9067 43.2478 37.9067C44.0212 37.9067 44.5716 37.5745 44.8988 36.9101H47.1448C46.9068 37.7034 46.4507 38.3579 45.7764 38.8735C45.1021 39.3792 44.2741 39.6321 43.2924 39.6321C42.4991 39.6321 41.7851 39.4586 41.1505 39.1115C40.5258 38.7545 40.0349 38.2537 39.6779 37.6092C39.3309 36.9646 39.1573 36.2209 39.1573 35.378C39.1573 34.5253 39.3309 33.7766 39.6779 33.132C40.025 32.4875 40.5109 31.9917 41.1356 31.6446C41.7603 31.2975 42.4793 31.124 43.2924 31.124C44.0758 31.124 44.7749 31.2926 45.3897 31.6297C46.0144 31.9669 46.4953 32.4478 46.8325 33.0725C47.1795 33.6873 47.3531 34.3963 47.3531 35.1996ZM45.1963 34.6046C45.1864 34.0691 44.993 33.6427 44.6162 33.3254C44.2394 32.9982 43.7783 32.8345 43.2329 32.8345C42.7172 32.8345 42.2809 32.9932 41.9239 33.3105C41.5769 33.6179 41.3637 34.0493 41.2844 34.6046H45.1963ZM48.4863 35.378C48.4863 34.5253 48.6598 33.7815 49.0069 33.1469C49.354 32.5024 49.8349 32.0065 50.4497 31.6595C51.0645 31.3025 51.7686 31.124 52.5619 31.124C53.5832 31.124 54.4261 31.3818 55.0905 31.8975C55.7648 32.4032 56.216 33.1172 56.444 34.0394H54.198C54.079 33.6824 53.8758 33.4047 53.5882 33.2064C53.3105 32.9982 52.9635 32.894 52.547 32.894C51.952 32.894 51.481 33.1122 51.1339 33.5485C50.7869 33.9749 50.6133 34.5848 50.6133 35.378C50.6133 36.1614 50.7869 36.7713 51.1339 37.2076C51.481 37.634 51.952 37.8472 52.547 37.8472C53.3899 37.8472 53.9402 37.4704 54.198 36.7167H56.444C56.216 37.6092 55.7648 38.3182 55.0905 38.8438C54.4162 39.3693 53.5733 39.6321 52.5619 39.6321C51.7686 39.6321 51.0645 39.4586 50.4497 39.1115C49.8349 38.7545 49.354 38.2587 49.0069 37.6241C48.6598 36.9795 48.4863 36.2308 48.4863 35.378ZM62.9971 39.4982L60.2007 35.9879V39.4982H58.1183V28.4913H60.2007V34.7533L62.9674 31.2579H65.6745L62.0452 35.3929L65.7042 39.4982H62.9971ZM73.2899 33.3105V35.0657H66.9832V33.3105H73.2899ZM76.8301 30.2762C76.4632 30.2762 76.1558 30.1621 75.9079 29.9341C75.6699 29.6961 75.5509 29.4035 75.5509 29.0565C75.5509 28.7094 75.6699 28.4218 75.9079 28.1938C76.1558 27.9558 76.4632 27.8368 76.8301 27.8368C77.197 27.8368 77.4994 27.9558 77.7374 28.1938C77.9853 28.4218 78.1093 28.7094 78.1093 29.0565C78.1093 29.4035 77.9853 29.6961 77.7374 29.9341C77.4994 30.1621 77.197 30.2762 76.8301 30.2762ZM77.8564 31.2579V39.4982H75.774V31.2579H77.8564ZM84.629 31.1389C85.6107 31.1389 86.404 31.4512 87.0089 32.076C87.6138 32.6908 87.9162 33.5535 87.9162 34.6641V39.4982H85.8338V34.9467C85.8338 34.2922 85.6702 33.7915 85.3429 33.4444C85.0157 33.0874 84.5695 32.9089 84.0043 32.9089C83.4291 32.9089 82.973 33.0874 82.6358 33.4444C82.3086 33.7915 82.145 34.2922 82.145 34.9467V39.4982H80.0626V31.2579H82.145V32.2842C82.4226 31.9272 82.7747 31.6496 83.2011 31.4512C83.6374 31.243 84.1133 31.1389 84.629 31.1389Z" fill="#6E737A"/>
<g clip-path="url(#clip0_2026_7828)">
<path d="M147.799 33.4661C147.799 28.4785 143.756 24.4353 138.769 24.4353C133.781 24.4353 129.738 28.4785 129.738 33.4661C129.738 38.4537 133.781 42.497 138.769 42.497C143.756 42.497 147.799 38.4537 147.799 33.4661Z" fill="#3DDB74"/>
<path d="M134.44 33.6641L137.195 36.419L143.099 30.515" stroke="#F9F8FF" stroke-width="2.1249" stroke-linecap="round" stroke-linejoin="round"/>
</g>
<path d="M17.7299 65.2969V63.104H21.8267V75.4965H19.3788V65.2969H17.7299ZM24.0758 73.0826V71.2127L29.6345 63.257H32.4054V71.0087H33.9013V73.0826H32.4054V75.4965H30.0255V73.0826H24.0758ZM30.1785 65.8069L26.6936 71.0087H30.1785V65.8069ZM36.7424 75.6155C36.3118 75.6155 35.9548 75.4851 35.6715 75.2245C35.3995 74.9525 35.2635 74.6182 35.2635 74.2215C35.2635 73.8249 35.3995 73.4962 35.6715 73.2356C35.9548 72.9636 36.3118 72.8276 36.7424 72.8276C37.1617 72.8276 37.5074 72.9636 37.7794 73.2356C38.0514 73.4962 38.1874 73.8249 38.1874 74.2215C38.1874 74.6182 38.0514 74.9525 37.7794 75.2245C37.5074 75.4851 37.1617 75.6155 36.7424 75.6155ZM36.7424 68.5778C36.3118 68.5778 35.9548 68.4475 35.6715 68.1868C35.3995 67.9148 35.2635 67.5805 35.2635 67.1839C35.2635 66.7872 35.3995 66.4586 35.6715 66.1979C35.9548 65.9259 36.3118 65.7899 36.7424 65.7899C37.1617 65.7899 37.5074 65.9259 37.7794 66.1979C38.0514 66.4586 38.1874 66.7872 38.1874 67.1839C38.1874 67.5805 38.0514 67.9148 37.7794 68.1868C37.5074 68.4475 37.1617 68.5778 36.7424 68.5778ZM39.8821 69.1388C39.8821 67.1782 40.2334 65.6426 40.936 64.532C41.65 63.4214 42.8286 62.8661 44.4719 62.8661C46.1151 62.8661 47.2881 63.4214 47.9907 64.532C48.7047 65.6426 49.0617 67.1782 49.0617 69.1388C49.0617 71.1107 48.7047 72.6576 47.9907 73.7795C47.2881 74.9015 46.1151 75.4625 44.4719 75.4625C42.8286 75.4625 41.65 74.9015 40.936 73.7795C40.2334 72.6576 39.8821 71.1107 39.8821 69.1388ZM46.7158 69.1388C46.7158 68.3001 46.6591 67.5975 46.5458 67.0309C46.4438 66.4529 46.2285 65.9826 45.8998 65.6199C45.5825 65.2573 45.1065 65.076 44.4719 65.076C43.8372 65.076 43.3556 65.2573 43.0269 65.6199C42.7096 65.9826 42.4943 66.4529 42.381 67.0309C42.279 67.5975 42.228 68.3001 42.228 69.1388C42.228 70.0001 42.279 70.7254 42.381 71.3147C42.483 71.8926 42.6983 72.3629 43.0269 72.7256C43.3556 73.0769 43.8372 73.2526 44.4719 73.2526C45.1065 73.2526 45.5882 73.0769 45.9168 72.7256C46.2455 72.3629 46.4608 71.8926 46.5628 71.3147C46.6648 70.7254 46.7158 70.0001 46.7158 69.1388ZM50.8718 69.1388C50.8718 67.1782 51.2231 65.6426 51.9258 64.532C52.6397 63.4214 53.8183 62.8661 55.4616 62.8661C57.1048 62.8661 58.2778 63.4214 58.9804 64.532C59.6944 65.6426 60.0514 67.1782 60.0514 69.1388C60.0514 71.1107 59.6944 72.6576 58.9804 73.7795C58.2778 74.9015 57.1048 75.4625 55.4616 75.4625C53.8183 75.4625 52.6397 74.9015 51.9258 73.7795C51.2231 72.6576 50.8718 71.1107 50.8718 69.1388ZM57.7055 69.1388C57.7055 68.3001 57.6488 67.5975 57.5355 67.0309C57.4335 66.4529 57.2182 65.9826 56.8895 65.6199C56.5722 65.2573 56.0962 65.076 55.4616 65.076C54.827 65.076 54.3453 65.2573 54.0167 65.6199C53.6993 65.9826 53.484 66.4529 53.3707 67.0309C53.2687 67.5975 53.2177 68.3001 53.2177 69.1388C53.2177 70.0001 53.2687 70.7254 53.3707 71.3147C53.4727 71.8926 53.688 72.3629 54.0167 72.7256C54.3453 73.0769 54.827 73.2526 55.4616 73.2526C56.0962 73.2526 56.5779 73.0769 56.9065 72.7256C57.2352 72.3629 57.4505 71.8926 57.5525 71.3147C57.6545 70.7254 57.7055 70.0001 57.7055 69.1388Z" fill="#212935"/>
<path d="M17.6916 88.7779V87.452H20.3435V96.7463H18.8773V88.7779H17.6916ZM23.2709 94.7701C24.0869 94.0647 24.7286 93.4867 25.1961 93.0362C25.672 92.5772 26.0673 92.1012 26.3818 91.6083C26.6962 91.1153 26.8535 90.6223 26.8535 90.1293C26.8535 89.6194 26.7302 89.2199 26.4837 88.9309C26.2458 88.6419 25.8675 88.4974 25.3491 88.4974C24.8476 88.4974 24.4566 88.6589 24.1761 88.9819C23.9041 89.2964 23.7596 89.7214 23.7426 90.2568H22.3402C22.3657 89.2879 22.6547 88.5484 23.2072 88.0384C23.7681 87.52 24.4778 87.2607 25.3363 87.2607C26.2628 87.2607 26.9852 87.5157 27.5037 88.0257C28.0307 88.5357 28.2942 89.2156 28.2942 90.0656C28.2942 90.6776 28.1369 91.2683 27.8224 91.8378C27.5164 92.3987 27.1467 92.9045 26.7132 93.3549C26.2883 93.7969 25.7443 94.3111 25.0813 94.8976L24.5076 95.4076H28.5491V96.6188H22.3529V95.5606L23.2709 94.7701ZM30.7312 96.8355C30.4677 96.8355 30.2467 96.7463 30.0682 96.5678C29.8897 96.3893 29.8005 96.1683 29.8005 95.9048C29.8005 95.6413 29.8897 95.4203 30.0682 95.2418C30.2467 95.0634 30.4677 94.9741 30.7312 94.9741C30.9862 94.9741 31.2029 95.0634 31.3814 95.2418C31.5599 95.4203 31.6491 95.6413 31.6491 95.9048C31.6491 96.1683 31.5599 96.3893 31.3814 96.5678C31.2029 96.7463 30.9862 96.8355 30.7312 96.8355ZM36.3024 93.2019C36.3024 92.4965 36.4469 91.8718 36.7359 91.3278C37.0333 90.7838 37.4328 90.3631 37.9343 90.0656C38.4443 89.7596 39.0052 89.6066 39.6172 89.6066C40.1697 89.6066 40.6499 89.7171 41.0579 89.9381C41.4744 90.1506 41.8059 90.4183 42.0524 90.7413V89.7214H43.5185V96.7463H42.0524V95.7008C41.8059 96.0323 41.4701 96.3085 41.0452 96.5295C40.6202 96.7505 40.1357 96.861 39.5917 96.861C38.9882 96.861 38.4358 96.708 37.9343 96.402C37.4328 96.0876 37.0333 95.6541 36.7359 95.1016C36.4469 94.5406 36.3024 93.9074 36.3024 93.2019ZM42.0524 93.2274C42.0524 92.743 41.9504 92.3222 41.7464 91.9653C41.5509 91.6083 41.2916 91.3363 40.9687 91.1493C40.6457 90.9623 40.2972 90.8688 39.9232 90.8688C39.5492 90.8688 39.2007 90.9623 38.8778 91.1493C38.5548 91.3278 38.2913 91.5955 38.0873 91.9525C37.8918 92.301 37.7941 92.7175 37.7941 93.2019C37.7941 93.6864 37.8918 94.1114 38.0873 94.4769C38.2913 94.8424 38.5548 95.1229 38.8778 95.3183C39.2092 95.5053 39.5577 95.5988 39.9232 95.5988C40.2972 95.5988 40.6457 95.5053 40.9687 95.3183C41.2916 95.1314 41.5509 94.8594 41.7464 94.5024C41.9504 94.1369 42.0524 93.7119 42.0524 93.2274ZM51.917 89.7214V96.7463H50.4636V95.9176C50.2341 96.2066 49.9323 96.436 49.5584 96.606C49.1929 96.7675 48.8019 96.8483 48.3854 96.8483C47.8329 96.8483 47.3357 96.7335 46.8937 96.504C46.4603 96.2745 46.116 95.9346 45.861 95.4841C45.6145 95.0336 45.4913 94.4896 45.4913 93.8522V89.7214H46.932V93.6354C46.932 94.2644 47.0892 94.7489 47.4037 95.0889C47.7182 95.4203 48.1474 95.5861 48.6914 95.5861C49.2354 95.5861 49.6646 95.4203 49.9791 95.0889C50.3021 94.7489 50.4636 94.2644 50.4636 93.6354V89.7214H51.917ZM56.7926 89.6066C57.3365 89.6066 57.8168 89.7171 58.2332 89.9381C58.6582 90.1506 58.9897 90.4183 59.2277 90.7413V89.7214H60.6939V96.861C60.6939 97.507 60.5579 98.0807 60.2859 98.5822C60.0139 99.0922 59.6187 99.4916 59.1002 99.7806C58.5902 100.07 57.9782 100.214 57.2643 100.214C56.3123 100.214 55.5219 99.9889 54.8929 99.5384C54.2639 99.0964 53.9069 98.4929 53.8219 97.728H55.2626C55.3731 98.0935 55.6069 98.3867 55.9638 98.6077C56.3293 98.8372 56.7628 98.9519 57.2643 98.9519C57.8508 98.9519 58.3225 98.7734 58.6795 98.4164C59.0449 98.0595 59.2277 97.541 59.2277 96.861V95.6881C58.9812 96.0196 58.6455 96.3 58.2205 96.5295C57.804 96.7505 57.328 96.861 56.7926 96.861C56.1806 96.861 55.6196 96.708 55.1096 96.402C54.6082 96.0876 54.2087 95.6541 53.9112 95.1016C53.6222 94.5406 53.4777 93.9074 53.4777 93.2019C53.4777 92.4965 53.6222 91.8718 53.9112 91.3278C54.2087 90.7838 54.6082 90.3631 55.1096 90.0656C55.6196 89.7596 56.1806 89.6066 56.7926 89.6066ZM59.2277 93.2274C59.2277 92.743 59.1257 92.3222 58.9217 91.9653C58.7262 91.6083 58.467 91.3363 58.144 91.1493C57.821 90.9623 57.4725 90.8688 57.0985 90.8688C56.7246 90.8688 56.3761 90.9623 56.0531 91.1493C55.7301 91.3278 55.4666 91.5955 55.2626 91.9525C55.0671 92.301 54.9694 92.7175 54.9694 93.2019C54.9694 93.6864 55.0671 94.1114 55.2626 94.4769C55.4666 94.8424 55.7301 95.1229 56.0531 95.3183C56.3846 95.5053 56.7331 95.5988 57.0985 95.5988C57.4725 95.5988 57.821 95.5053 58.144 95.3183C58.467 95.1314 58.7262 94.8594 58.9217 94.5024C59.1257 94.1369 59.2277 93.7119 59.2277 93.2274ZM69.0923 89.7214V96.7463H67.6389V95.9176C67.4094 96.2066 67.1077 96.436 66.7337 96.606C66.3682 96.7675 65.9772 96.8483 65.5607 96.8483C65.0083 96.8483 64.511 96.7335 64.0691 96.504C63.6356 96.2745 63.2914 95.9346 63.0364 95.4841C62.7899 95.0336 62.6666 94.4896 62.6666 93.8522V89.7214H64.1073V93.6354C64.1073 94.2644 64.2646 94.7489 64.579 95.0889C64.8935 95.4203 65.3228 95.5861 65.8667 95.5861C66.4107 95.5861 66.8399 95.4203 67.1544 95.0889C67.4774 94.7489 67.6389 94.2644 67.6389 93.6354V89.7214H69.0923ZM73.6874 96.861C73.1349 96.861 72.6377 96.7633 72.1957 96.5678C71.7622 96.3638 71.418 96.0918 71.163 95.7518C70.908 95.4033 70.772 95.0166 70.755 94.5916H72.2595C72.285 94.8891 72.4252 95.1399 72.6802 95.3438C72.9437 95.5393 73.2709 95.6371 73.6619 95.6371C74.0699 95.6371 74.3844 95.5606 74.6054 95.4076C74.8348 95.2461 74.9496 95.0421 74.9496 94.7956C74.9496 94.5321 74.8221 94.3366 74.5671 94.2091C74.3206 94.0817 73.9254 93.9414 73.3814 93.7884C72.8544 93.6439 72.4252 93.5037 72.0937 93.3677C71.7622 93.2317 71.4733 93.0235 71.2268 92.743C70.9888 92.4625 70.8698 92.0927 70.8698 91.6338C70.8698 91.2598 70.9803 90.9198 71.2013 90.6138C71.4223 90.2993 71.7367 90.0528 72.1447 89.8744C72.5612 89.6959 73.0372 89.6066 73.5727 89.6066C74.3716 89.6066 75.0133 89.8106 75.4978 90.2186C75.9908 90.6181 76.2543 91.1663 76.2883 91.8633H74.8348C74.8093 91.5488 74.6818 91.298 74.4524 91.111C74.2229 90.9241 73.9126 90.8306 73.5217 90.8306C73.1392 90.8306 72.8459 90.9028 72.6419 91.0473C72.438 91.1918 72.336 91.383 72.336 91.621C72.336 91.808 72.404 91.9653 72.54 92.0927C72.6759 92.2202 72.8417 92.3222 73.0372 92.3987C73.2327 92.4667 73.5217 92.556 73.9041 92.6665C74.4141 92.8025 74.8306 92.9427 75.1536 93.0872C75.4851 93.2232 75.7698 93.4272 76.0078 93.6992C76.2458 93.9712 76.369 94.3324 76.3775 94.7829C76.3775 95.1824 76.267 95.5393 76.046 95.8538C75.825 96.1683 75.5106 96.4148 75.1026 96.5933C74.7031 96.7718 74.2314 96.861 73.6874 96.861ZM79.7711 90.9071V94.7956C79.7711 95.0591 79.8306 95.2503 79.9496 95.3693C80.0771 95.4798 80.2896 95.5351 80.5871 95.5351H81.4796V96.7463H80.3321C79.6777 96.7463 79.1762 96.5933 78.8277 96.2873C78.4792 95.9813 78.305 95.4841 78.305 94.7956V90.9071H77.4763V89.7214H78.305V87.9747H79.7711V89.7214H81.4796V90.9071H79.7711ZM86.998 94.7701C87.8139 94.0647 88.4556 93.4867 88.9231 93.0362C89.3991 92.5772 89.7943 92.1012 90.1088 91.6083C90.4233 91.1153 90.5805 90.6223 90.5805 90.1293C90.5805 89.6194 90.4573 89.2199 90.2108 88.9309C89.9728 88.6419 89.5946 88.4974 89.0761 88.4974C88.5746 88.4974 88.1837 88.6589 87.9032 88.9819C87.6312 89.2964 87.4867 89.7214 87.4697 90.2568H86.0673C86.0928 89.2879 86.3817 88.5484 86.9342 88.0384C87.4952 87.52 88.2049 87.2607 89.0634 87.2607C89.9898 87.2607 90.7123 87.5157 91.2308 88.0257C91.7577 88.5357 92.0212 89.2156 92.0212 90.0656C92.0212 90.6776 91.864 91.2683 91.5495 91.8378C91.2435 92.3987 90.8738 92.9045 90.4403 93.3549C90.0153 93.7969 89.4713 94.3111 88.8084 94.8976L88.2347 95.4076H92.2762V96.6188H86.08V95.5606L86.998 94.7701ZM93.6805 91.978C93.6805 90.5076 93.927 89.3601 94.42 88.5357C94.9215 87.7027 95.7799 87.2862 96.9954 87.2862C98.2108 87.2862 99.065 87.7027 99.558 88.5357C100.059 89.3601 100.31 90.5076 100.31 91.978C100.31 93.4654 100.059 94.6299 99.558 95.4713C99.065 96.3043 98.2108 96.7208 96.9954 96.7208C95.7799 96.7208 94.9215 96.3043 94.42 95.4713C93.927 94.6299 93.6805 93.4654 93.6805 91.978ZM98.8823 91.978C98.8823 91.2895 98.8356 90.7073 98.7421 90.2313C98.6571 89.7554 98.4786 89.3686 98.2066 89.0711C97.9346 88.7652 97.5309 88.6122 96.9954 88.6122C96.4599 88.6122 96.0562 88.7652 95.7842 89.0711C95.5122 89.3686 95.3295 89.7554 95.236 90.2313C95.151 90.7073 95.1085 91.2895 95.1085 91.978C95.1085 92.692 95.151 93.2912 95.236 93.7757C95.321 94.2601 95.4995 94.6511 95.7714 94.9486C96.0519 95.2461 96.4599 95.3948 96.9954 95.3948C97.5309 95.3948 97.9346 95.2461 98.2066 94.9486C98.4871 94.6511 98.6698 94.2601 98.7548 93.7757C98.8398 93.2912 98.8823 92.692 98.8823 91.978ZM102.779 94.7701C103.595 94.0647 104.237 93.4867 104.704 93.0362C105.18 92.5772 105.575 92.1012 105.89 91.6083C106.204 91.1153 106.361 90.6223 106.361 90.1293C106.361 89.6194 106.238 89.2199 105.992 88.9309C105.754 88.6419 105.375 88.4974 104.857 88.4974C104.356 88.4974 103.965 88.6589 103.684 88.9819C103.412 89.2964 103.268 89.7214 103.251 90.2568H101.848C101.874 89.2879 102.163 88.5484 102.715 88.0384C103.276 87.52 103.986 87.2607 104.844 87.2607C105.771 87.2607 106.493 87.5157 107.012 88.0257C107.539 88.5357 107.802 89.2156 107.802 90.0656C107.802 90.6776 107.645 91.2683 107.33 91.8378C107.024 92.3987 106.655 92.9045 106.221 93.3549C105.796 93.7969 105.252 94.3111 104.589 94.8976L104.016 95.4076H108.057V96.6188H101.861V95.5606L102.779 94.7701ZM110.265 94.7701C111.081 94.0647 111.722 93.4867 112.19 93.0362C112.666 92.5772 113.061 92.1012 113.375 91.6083C113.69 91.1153 113.847 90.6223 113.847 90.1293C113.847 89.6194 113.724 89.2199 113.477 88.9309C113.239 88.6419 112.861 88.4974 112.343 88.4974C111.841 88.4974 111.45 88.6589 111.17 88.9819C110.898 89.2964 110.753 89.7214 110.736 90.2568H109.334C109.359 89.2879 109.648 88.5484 110.201 88.0384C110.762 87.52 111.472 87.2607 112.33 87.2607C113.256 87.2607 113.979 87.5157 114.497 88.0257C115.024 88.5357 115.288 89.2156 115.288 90.0656C115.288 90.6776 115.131 91.2683 114.816 91.8378C114.51 92.3987 114.14 92.9045 113.707 93.3549C113.282 93.7969 112.738 94.3111 112.075 94.8976L111.501 95.4076H115.543V96.6188H109.347V95.5606L110.265 94.7701Z" fill="#9A9A9A"/>
<path d="M25.9915 113.097L22.7277 121.996H20.5603L17.2964 113.097H19.2088L21.6567 120.173L24.0918 113.097H25.9915ZM27.9669 114.091C27.6524 114.091 27.3889 113.994 27.1764 113.798C26.9724 113.594 26.8704 113.343 26.8704 113.046C26.8704 112.748 26.9724 112.502 27.1764 112.306C27.3889 112.102 27.6524 112.001 27.9669 112.001C28.2813 112.001 28.5406 112.102 28.7446 112.306C28.9571 112.502 29.0633 112.748 29.0633 113.046C29.0633 113.343 28.9571 113.594 28.7446 113.798C28.5406 113.994 28.2813 114.091 27.9669 114.091ZM28.8466 114.933V121.996H27.0617V114.933H28.8466ZM37.176 118.311C37.176 118.566 37.159 118.796 37.125 119H31.9615C32.004 119.51 32.1825 119.909 32.497 120.198C32.8115 120.487 33.1982 120.632 33.6572 120.632C34.3201 120.632 34.7919 120.347 35.0724 119.778H36.9975C36.7935 120.458 36.4025 121.019 35.8246 121.461C35.2466 121.894 34.5369 122.111 33.6954 122.111C33.0155 122.111 32.4035 121.962 31.8595 121.665C31.324 121.359 30.9033 120.929 30.5973 120.377C30.2998 119.824 30.1511 119.187 30.1511 118.464C30.1511 117.733 30.2998 117.092 30.5973 116.539C30.8948 115.987 31.3113 115.562 31.8468 115.264C32.3822 114.967 32.9985 114.818 33.6954 114.818C34.3669 114.818 34.9661 114.963 35.4931 115.252C36.0286 115.541 36.4408 115.953 36.7298 116.488C37.0273 117.015 37.176 117.623 37.176 118.311ZM35.3273 117.801C35.3188 117.343 35.1531 116.977 34.8301 116.705C34.5071 116.425 34.1119 116.284 33.6444 116.284C33.2024 116.284 32.8285 116.42 32.5225 116.692C32.225 116.956 32.0423 117.326 31.9743 117.801H35.3273ZM48.2704 114.933L46.205 121.996H44.2798L42.9921 117.062L41.7044 121.996H39.7665L37.6884 114.933H39.4988L40.7482 120.313L42.0997 114.933H43.9866L45.3125 120.3L46.562 114.933H48.2704ZM51.8151 118.439C51.8151 117.725 51.9553 117.092 52.2358 116.539C52.5248 115.987 52.9158 115.562 53.4088 115.264C53.9018 114.967 54.45 114.818 55.0535 114.818C55.5124 114.818 55.9502 114.92 56.3666 115.124C56.7831 115.32 57.1146 115.583 57.3611 115.915V112.561H59.1715V121.996H57.3611V120.951C57.1401 121.299 56.8299 121.58 56.4304 121.792C56.0309 122.005 55.5677 122.111 55.0407 122.111C54.4457 122.111 53.9018 121.958 53.4088 121.652C52.9158 121.346 52.5248 120.917 52.2358 120.364C51.9553 119.803 51.8151 119.161 51.8151 118.439ZM57.3738 118.464C57.3738 118.031 57.2888 117.661 57.1189 117.355C56.9489 117.041 56.7194 116.803 56.4304 116.641C56.1414 116.471 55.8312 116.386 55.4997 116.386C55.1682 116.386 54.8622 116.467 54.5817 116.629C54.3012 116.79 54.0717 117.028 53.8933 117.343C53.7233 117.648 53.6383 118.014 53.6383 118.439C53.6383 118.864 53.7233 119.238 53.8933 119.561C54.0717 119.875 54.3012 120.118 54.5817 120.288C54.8707 120.458 55.1767 120.543 55.4997 120.543C55.8312 120.543 56.1414 120.462 56.4304 120.3C56.7194 120.13 56.9489 119.892 57.1189 119.586C57.2888 119.272 57.3738 118.898 57.3738 118.464ZM67.4807 118.311C67.4807 118.566 67.4637 118.796 67.4297 119H62.2662C62.3087 119.51 62.4872 119.909 62.8017 120.198C63.1162 120.487 63.5029 120.632 63.9619 120.632C64.6249 120.632 65.0966 120.347 65.3771 119.778H67.3022C67.0982 120.458 66.7073 121.019 66.1293 121.461C65.5513 121.894 64.8416 122.111 64.0001 122.111C63.3202 122.111 62.7082 121.962 62.1642 121.665C61.6288 121.359 61.208 120.929 60.902 120.377C60.6046 119.824 60.4558 119.187 60.4558 118.464C60.4558 117.733 60.6046 117.092 60.902 116.539C61.1995 115.987 61.616 115.562 62.1515 115.264C62.687 114.967 63.3032 114.818 64.0001 114.818C64.6716 114.818 65.2708 114.963 65.7978 115.252C66.3333 115.541 66.7455 115.953 67.0345 116.488C67.332 117.015 67.4807 117.623 67.4807 118.311ZM65.6321 117.801C65.6236 117.343 65.4578 116.977 65.1348 116.705C64.8119 116.425 64.4166 116.284 63.9491 116.284C63.5072 116.284 63.1332 116.42 62.8272 116.692C62.5297 116.956 62.347 117.326 62.279 117.801H65.6321ZM70.8617 116.399V119.816C70.8617 120.054 70.917 120.228 71.0275 120.339C71.1464 120.441 71.3419 120.492 71.6139 120.492H72.4426V121.996H71.3207C69.8163 121.996 69.064 121.265 69.064 119.803V116.399H68.2226V114.933H69.064V113.186H70.8617V114.933H72.4426V116.399H70.8617ZM73.2675 118.439C73.2675 117.725 73.4077 117.092 73.6882 116.539C73.9772 115.987 74.3639 115.562 74.8484 115.264C75.3414 114.967 75.8896 114.818 76.4931 114.818C77.02 114.818 77.479 114.924 77.87 115.137C78.2695 115.349 78.5882 115.617 78.8262 115.94V114.933H80.6239V121.996H78.8262V120.963C78.5967 121.295 78.278 121.571 77.87 121.792C77.4705 122.005 77.0073 122.111 76.4803 122.111C75.8853 122.111 75.3414 121.958 74.8484 121.652C74.3639 121.346 73.9772 120.917 73.6882 120.364C73.4077 119.803 73.2675 119.161 73.2675 118.439ZM78.8262 118.464C78.8262 118.031 78.7412 117.661 78.5712 117.355C78.4012 117.041 78.1717 116.803 77.8827 116.641C77.5938 116.471 77.2835 116.386 76.952 116.386C76.6206 116.386 76.3146 116.467 76.0341 116.629C75.7536 116.79 75.5241 117.028 75.3456 117.343C75.1756 117.648 75.0906 118.014 75.0906 118.439C75.0906 118.864 75.1756 119.238 75.3456 119.561C75.5241 119.875 75.7536 120.118 76.0341 120.288C76.3231 120.458 76.6291 120.543 76.952 120.543C77.2835 120.543 77.5938 120.462 77.8827 120.3C78.1717 120.13 78.4012 119.892 78.5712 119.586C78.7412 119.272 78.8262 118.898 78.8262 118.464ZM83.2724 114.091C82.9579 114.091 82.6944 113.994 82.4819 113.798C82.2779 113.594 82.1759 113.343 82.1759 113.046C82.1759 112.748 82.2779 112.502 82.4819 112.306C82.6944 112.102 82.9579 112.001 83.2724 112.001C83.5868 112.001 83.8461 112.102 84.0501 112.306C84.2626 112.502 84.3688 112.748 84.3688 113.046C84.3688 113.343 84.2626 113.594 84.0501 113.798C83.8461 113.994 83.5868 114.091 83.2724 114.091ZM84.1521 114.933V121.996H82.3671V114.933H84.1521ZM87.7005 112.561V121.996H85.9156V112.561H87.7005ZM91.5421 116.399V119.816C91.5421 120.054 91.5974 120.228 91.7079 120.339C91.8269 120.441 92.0224 120.492 92.2943 120.492H93.1231V121.996H92.0011C90.4967 121.996 89.7445 121.265 89.7445 119.803V116.399H88.903V114.933H89.7445V113.186H91.5421V114.933H93.1231V116.399H91.5421ZM97.1097 122.111C96.5318 122.111 96.0133 122.009 95.5543 121.805C95.0953 121.592 94.7298 121.308 94.4579 120.951C94.1944 120.594 94.0499 120.198 94.0244 119.765H95.822C95.856 120.037 95.9878 120.262 96.2173 120.441C96.4553 120.619 96.7485 120.708 97.097 120.708C97.437 120.708 97.7005 120.64 97.8874 120.504C98.0829 120.368 98.1807 120.194 98.1807 119.982C98.1807 119.752 98.0617 119.582 97.8237 119.472C97.5942 119.353 97.2245 119.225 96.7145 119.089C96.1875 118.962 95.754 118.83 95.4141 118.694C95.0826 118.558 94.7936 118.35 94.5471 118.069C94.3091 117.789 94.1901 117.41 94.1901 116.935C94.1901 116.544 94.3006 116.187 94.5216 115.864C94.7511 115.541 95.0741 115.286 95.4906 115.099C95.9155 114.912 96.4128 114.818 96.9822 114.818C97.8237 114.818 98.4952 115.031 98.9966 115.456C99.4981 115.872 99.7744 116.437 99.8254 117.151H98.1169C98.0914 116.871 97.9724 116.65 97.76 116.488C97.556 116.318 97.2797 116.233 96.9312 116.233C96.6083 116.233 96.3575 116.293 96.179 116.412C96.009 116.531 95.924 116.697 95.924 116.909C95.924 117.147 96.043 117.33 96.281 117.457C96.519 117.576 96.8887 117.699 97.3902 117.827C97.9002 117.954 98.3209 118.086 98.6524 118.222C98.9839 118.358 99.2686 118.571 99.5066 118.86C99.7531 119.14 99.8806 119.514 99.8891 119.982C99.8891 120.39 99.7744 120.755 99.5449 121.078C99.3239 121.401 99.0009 121.656 98.5759 121.843C98.1594 122.022 97.6707 122.111 97.1097 122.111Z" fill="#6562AC"/>
<path d="M17.1179 123.271H100.476V123.908H17.1179V123.271Z" fill="#6562AC"/>
<path d="M137.178 121.746L141.428 117.496L137.178 113.246" stroke="#6562AC" stroke-width="2.1249" stroke-linecap="round"/>
<path d="M200.363 34.2922C200.363 33.2709 200.591 32.3586 201.047 31.5554C201.513 30.7422 202.143 30.1125 202.936 29.6663C203.739 29.2102 204.637 28.9821 205.628 28.9821C206.789 28.9821 207.805 29.2796 208.678 29.8746C209.55 30.4695 210.16 31.2926 210.507 32.3437H208.112C207.874 31.8479 207.537 31.476 207.101 31.2281C206.675 30.9802 206.179 30.8563 205.614 30.8563C205.009 30.8563 204.468 31 203.992 31.2876C203.526 31.5653 203.159 31.9619 202.892 32.4776C202.634 32.9932 202.505 33.5981 202.505 34.2922C202.505 34.9764 202.634 35.5813 202.892 36.1069C203.159 36.6225 203.526 37.0241 203.992 37.3117C204.468 37.5894 205.009 37.7282 205.614 37.7282C206.179 37.7282 206.675 37.6042 207.101 37.3563C207.537 37.0985 207.874 36.7217 208.112 36.2259H210.507C210.16 37.2869 209.55 38.1149 208.678 38.7099C207.815 39.2949 206.798 39.5875 205.628 39.5875C204.637 39.5875 203.739 39.3644 202.936 38.9181C202.143 38.462 201.513 37.8323 201.047 37.0291C200.591 36.2259 200.363 35.3136 200.363 34.2922ZM217.075 31.1389C217.7 31.1389 218.255 31.2777 218.741 31.5554C219.227 31.8231 219.604 32.2247 219.872 32.7602C220.149 33.2857 220.288 33.9204 220.288 34.6641V39.4982H218.206V34.9467C218.206 34.2922 218.042 33.7915 217.715 33.4444C217.388 33.0874 216.941 32.9089 216.376 32.9089C215.801 32.9089 215.345 33.0874 215.008 33.4444C214.681 33.7915 214.517 34.2922 214.517 34.9467V39.4982H212.435V28.4913H214.517V32.2842C214.785 31.9272 215.142 31.6496 215.588 31.4512C216.034 31.243 216.53 31.1389 217.075 31.1389ZM230.077 35.1996C230.077 35.497 230.058 35.7648 230.018 36.0028H223.994C224.043 36.5977 224.252 37.0638 224.619 37.401C224.985 37.7381 225.437 37.9067 225.972 37.9067C226.746 37.9067 227.296 37.5745 227.623 36.9101H229.869C229.631 37.7034 229.175 38.3579 228.501 38.8735C227.826 39.3792 226.998 39.6321 226.017 39.6321C225.223 39.6321 224.509 39.4586 223.875 39.1115C223.25 38.7545 222.759 38.2537 222.402 37.6092C222.055 36.9646 221.882 36.2209 221.882 35.378C221.882 34.5253 222.055 33.7766 222.402 33.132C222.749 32.4875 223.235 31.9917 223.86 31.6446C224.485 31.2975 225.204 31.124 226.017 31.124C226.8 31.124 227.499 31.2926 228.114 31.6297C228.739 31.9669 229.22 32.4478 229.557 33.0725C229.904 33.6873 230.077 34.3963 230.077 35.1996ZM227.921 34.6046C227.911 34.0691 227.717 33.6427 227.341 33.3254C226.964 32.9982 226.503 32.8345 225.957 32.8345C225.442 32.8345 225.005 32.9932 224.648 33.3105C224.301 33.6179 224.088 34.0493 224.009 34.6046H227.921ZM231.211 35.378C231.211 34.5253 231.384 33.7815 231.731 33.1469C232.078 32.5024 232.559 32.0065 233.174 31.6595C233.789 31.3025 234.493 31.124 235.286 31.124C236.308 31.124 237.15 31.3818 237.815 31.8975C238.489 32.4032 238.94 33.1172 239.168 34.0394H236.922C236.803 33.6824 236.6 33.4047 236.313 33.2064C236.035 32.9982 235.688 32.894 235.271 32.894C234.676 32.894 234.205 33.1122 233.858 33.5485C233.511 33.9749 233.338 34.5848 233.338 35.378C233.338 36.1614 233.511 36.7713 233.858 37.2076C234.205 37.634 234.676 37.8472 235.271 37.8472C236.114 37.8472 236.665 37.4704 236.922 36.7167H239.168C238.94 37.6092 238.489 38.3182 237.815 38.8438C237.141 39.3693 236.298 39.6321 235.286 39.6321C234.493 39.6321 233.789 39.4586 233.174 39.1115C232.559 38.7545 232.078 38.2587 231.731 37.6241C231.384 36.9795 231.211 36.2308 231.211 35.378ZM245.721 39.4982L242.925 35.9879V39.4982H240.843V28.4913H242.925V34.7533L245.692 31.2579H248.399L244.77 35.3929L248.429 39.4982H245.721ZM256.014 33.3105V35.0657H249.708V33.3105H256.014ZM262.157 39.6321C261.364 39.6321 260.65 39.4586 260.016 39.1115C259.381 38.7545 258.88 38.2537 258.513 37.6092C258.156 36.9646 257.978 36.2209 257.978 35.378C257.978 34.5352 258.161 33.7915 258.528 33.1469C258.905 32.5024 259.416 32.0065 260.06 31.6595C260.705 31.3025 261.424 31.124 262.217 31.124C263.01 31.124 263.729 31.3025 264.374 31.6595C265.018 32.0065 265.524 32.5024 265.891 33.1469C266.268 33.7915 266.456 34.5352 266.456 35.378C266.456 36.2209 266.263 36.9646 265.876 37.6092C265.499 38.2537 264.984 38.7545 264.329 39.1115C263.685 39.4586 262.961 39.6321 262.157 39.6321ZM262.157 37.8174C262.534 37.8174 262.886 37.7282 263.214 37.5497C263.551 37.3613 263.818 37.0836 264.017 36.7167C264.215 36.3498 264.314 35.9036 264.314 35.378C264.314 34.5947 264.106 33.9947 263.69 33.5783C263.283 33.1519 262.782 32.9387 262.187 32.9387C261.592 32.9387 261.091 33.1519 260.685 33.5783C260.288 33.9947 260.09 34.5947 260.09 35.378C260.09 36.1614 260.283 36.7663 260.67 37.1927C261.067 37.6092 261.562 37.8174 262.157 37.8174ZM275.912 31.2579V39.4982H273.814V38.457C273.547 38.814 273.195 39.0966 272.758 39.3049C272.332 39.5032 271.866 39.6024 271.36 39.6024C270.716 39.6024 270.145 39.4685 269.65 39.2007C269.154 38.9231 268.762 38.5215 268.474 37.9959C268.197 37.4605 268.058 36.8258 268.058 36.092V31.2579H270.14V35.7945C270.14 36.449 270.304 36.9547 270.631 37.3117C270.959 37.6588 271.405 37.8323 271.97 37.8323C272.545 37.8323 272.996 37.6588 273.324 37.3117C273.651 36.9547 273.814 36.449 273.814 35.7945V31.2579H275.912ZM280.54 32.9684V36.9547C280.54 37.2324 280.604 37.4357 280.733 37.5646C280.872 37.6836 281.1 37.7431 281.417 37.7431H282.384V39.4982H281.075C279.32 39.4982 278.442 38.6454 278.442 36.9399V32.9684H277.461V31.2579H278.442V29.2201H280.54V31.2579H282.384V32.9684H280.54Z" fill="#6E737A"/>
<path d="M314.59 38.2478L318.839 33.998L314.59 29.7482" stroke="#6562AC" stroke-width="2.1249" stroke-linecap="round"/>
<path d="M200.582 110.121C200.633 109.33 200.934 108.714 201.487 108.272C202.048 107.83 202.762 107.609 203.629 107.609C204.224 107.609 204.738 107.715 205.172 107.928C205.605 108.14 205.932 108.429 206.153 108.795C206.374 109.16 206.485 109.572 206.485 110.031C206.485 110.558 206.344 111.009 206.064 111.383C205.784 111.757 205.448 112.007 205.057 112.135V112.186C205.558 112.339 205.949 112.619 206.23 113.027C206.51 113.427 206.65 113.941 206.65 114.57C206.65 115.072 206.536 115.518 206.306 115.909C206.077 116.3 205.737 116.61 205.286 116.839C204.836 117.06 204.296 117.171 203.667 117.171C202.749 117.171 201.993 116.937 201.398 116.47C200.811 115.994 200.497 115.314 200.454 114.43H201.857C201.891 114.88 202.065 115.25 202.379 115.539C202.694 115.819 203.119 115.96 203.654 115.96C204.173 115.96 204.572 115.819 204.853 115.539C205.133 115.25 205.274 114.88 205.274 114.43C205.274 113.835 205.082 113.414 204.7 113.168C204.326 112.913 203.748 112.785 202.966 112.785H202.634V111.587H202.979C203.667 111.578 204.19 111.463 204.547 111.242C204.912 111.021 205.095 110.673 205.095 110.197C205.095 109.789 204.963 109.466 204.7 109.228C204.436 108.982 204.062 108.858 203.578 108.858C203.102 108.858 202.732 108.982 202.469 109.228C202.205 109.466 202.048 109.764 201.997 110.121H200.582ZM208.113 109.152V107.826H210.765V117.12H209.299V109.152H208.113ZM213.667 117.209C213.404 117.209 213.183 117.12 213.004 116.941C212.826 116.763 212.737 116.542 212.737 116.278C212.737 116.015 212.826 115.794 213.004 115.616C213.183 115.437 213.404 115.348 213.667 115.348C213.922 115.348 214.139 115.437 214.317 115.616C214.496 115.794 214.585 116.015 214.585 116.278C214.585 116.542 214.496 116.763 214.317 116.941C214.139 117.12 213.922 117.209 213.667 117.209ZM222.273 117.235C221.72 117.235 221.223 117.137 220.781 116.941C220.348 116.737 220.003 116.465 219.748 116.125C219.493 115.777 219.357 115.39 219.34 114.965H220.845C220.87 115.263 221.011 115.514 221.266 115.718C221.529 115.913 221.856 116.011 222.247 116.011C222.655 116.011 222.97 115.934 223.191 115.781C223.42 115.62 223.535 115.416 223.535 115.169C223.535 114.906 223.407 114.71 223.152 114.583C222.906 114.455 222.511 114.315 221.967 114.162C221.44 114.018 221.011 113.877 220.679 113.741C220.348 113.605 220.059 113.397 219.812 113.117C219.574 112.836 219.455 112.466 219.455 112.007C219.455 111.633 219.566 111.293 219.787 110.987C220.008 110.673 220.322 110.427 220.73 110.248C221.147 110.07 221.623 109.98 222.158 109.98C222.957 109.98 223.599 110.184 224.083 110.592C224.576 110.992 224.84 111.54 224.874 112.237H223.42C223.395 111.922 223.267 111.672 223.038 111.485C222.808 111.298 222.498 111.204 222.107 111.204C221.725 111.204 221.431 111.276 221.227 111.421C221.023 111.565 220.921 111.757 220.921 111.995C220.921 112.182 220.989 112.339 221.125 112.466C221.261 112.594 221.427 112.696 221.623 112.772C221.818 112.84 222.107 112.93 222.489 113.04C222.999 113.176 223.416 113.316 223.739 113.461C224.07 113.597 224.355 113.801 224.593 114.073C224.831 114.345 224.954 114.706 224.963 115.157C224.963 115.556 224.852 115.913 224.631 116.227C224.41 116.542 224.096 116.788 223.688 116.967C223.288 117.145 222.817 117.235 222.273 117.235ZM233.099 113.435C233.099 113.699 233.082 113.937 233.048 114.149H227.681C227.723 114.71 227.932 115.161 228.306 115.501C228.679 115.841 229.138 116.011 229.682 116.011C230.464 116.011 231.017 115.684 231.34 115.029H232.908C232.696 115.675 232.309 116.206 231.748 116.623C231.195 117.031 230.507 117.235 229.682 117.235C229.011 117.235 228.408 117.086 227.872 116.788C227.345 116.482 226.929 116.057 226.623 115.514C226.325 114.961 226.176 114.324 226.176 113.601C226.176 112.879 226.321 112.245 226.61 111.701C226.907 111.149 227.32 110.724 227.847 110.427C228.382 110.129 228.994 109.98 229.682 109.98C230.345 109.98 230.936 110.125 231.455 110.414C231.973 110.703 232.377 111.111 232.666 111.638C232.955 112.156 233.099 112.755 233.099 113.435ZM231.582 112.976C231.574 112.441 231.382 112.012 231.008 111.689C230.634 111.366 230.171 111.204 229.619 111.204C229.117 111.204 228.688 111.366 228.331 111.689C227.974 112.003 227.762 112.432 227.694 112.976H231.582ZM236.111 111.128C236.357 110.805 236.693 110.533 237.118 110.312C237.543 110.091 238.023 109.98 238.558 109.98C239.17 109.98 239.727 110.133 240.229 110.439C240.739 110.737 241.138 111.157 241.427 111.701C241.716 112.245 241.861 112.87 241.861 113.576C241.861 114.281 241.716 114.914 241.427 115.475C241.138 116.028 240.739 116.461 240.229 116.776C239.727 117.082 239.17 117.235 238.558 117.235C238.023 117.235 237.547 117.128 237.13 116.916C236.714 116.695 236.374 116.423 236.111 116.1V120.46H234.657V110.095H236.111V111.128ZM240.382 113.576C240.382 113.091 240.28 112.675 240.076 112.326C239.88 111.969 239.617 111.701 239.285 111.523C238.962 111.336 238.614 111.242 238.24 111.242C237.874 111.242 237.526 111.336 237.194 111.523C236.871 111.71 236.608 111.982 236.404 112.339C236.208 112.696 236.111 113.117 236.111 113.601C236.111 114.086 236.208 114.511 236.404 114.876C236.608 115.233 236.871 115.505 237.194 115.692C237.526 115.879 237.874 115.972 238.24 115.972C238.614 115.972 238.962 115.879 239.285 115.692C239.617 115.497 239.88 115.216 240.076 114.851C240.28 114.485 240.382 114.06 240.382 113.576ZM245.121 111.281V115.169C245.121 115.433 245.18 115.624 245.299 115.743C245.427 115.853 245.639 115.909 245.937 115.909H246.829V117.12H245.682C245.027 117.12 244.526 116.967 244.178 116.661C243.829 116.355 243.655 115.858 243.655 115.169V111.281H242.826V110.095H243.655V108.348H245.121V110.095H246.829V111.281H245.121ZM254.735 113.435C254.735 113.699 254.718 113.937 254.684 114.149H249.316C249.359 114.71 249.567 115.161 249.941 115.501C250.315 115.841 250.774 116.011 251.318 116.011C252.1 116.011 252.653 115.684 252.975 115.029H254.544C254.331 115.675 253.944 116.206 253.383 116.623C252.831 117.031 252.143 117.235 251.318 117.235C250.647 117.235 250.043 117.086 249.508 116.788C248.981 116.482 248.564 116.057 248.258 115.514C247.961 114.961 247.812 114.324 247.812 113.601C247.812 112.879 247.956 112.245 248.245 111.701C248.543 111.149 248.955 110.724 249.482 110.427C250.018 110.129 250.63 109.98 251.318 109.98C251.981 109.98 252.572 110.125 253.09 110.414C253.609 110.703 254.012 111.111 254.301 111.638C254.59 112.156 254.735 112.755 254.735 113.435ZM253.218 112.976C253.209 112.441 253.018 112.012 252.644 111.689C252.27 111.366 251.807 111.204 251.254 111.204C250.753 111.204 250.324 111.366 249.967 111.689C249.61 112.003 249.397 112.432 249.329 112.976H253.218ZM264.797 109.98C265.349 109.98 265.842 110.095 266.276 110.325C266.717 110.554 267.062 110.894 267.308 111.344C267.563 111.795 267.691 112.339 267.691 112.976V117.12H266.25V113.193C266.25 112.564 266.093 112.084 265.778 111.752C265.464 111.412 265.035 111.242 264.491 111.242C263.947 111.242 263.513 111.412 263.19 111.752C262.876 112.084 262.718 112.564 262.718 113.193V117.12H261.278V113.193C261.278 112.564 261.121 112.084 260.806 111.752C260.492 111.412 260.062 111.242 259.518 111.242C258.974 111.242 258.541 111.412 258.218 111.752C257.903 112.084 257.746 112.564 257.746 113.193V117.12H256.293V110.095H257.746V110.898C257.984 110.609 258.286 110.384 258.651 110.223C259.017 110.061 259.408 109.98 259.824 109.98C260.385 109.98 260.887 110.099 261.329 110.337C261.771 110.575 262.111 110.919 262.349 111.37C262.561 110.945 262.893 110.609 263.343 110.363C263.794 110.108 264.278 109.98 264.797 109.98ZM271.121 111.14C271.368 110.8 271.703 110.524 272.128 110.312C272.562 110.091 273.042 109.98 273.569 109.98C274.189 109.98 274.75 110.129 275.252 110.427C275.753 110.724 276.149 111.149 276.438 111.701C276.727 112.245 276.871 112.87 276.871 113.576C276.871 114.281 276.727 114.914 276.438 115.475C276.149 116.028 275.749 116.461 275.239 116.776C274.738 117.082 274.181 117.235 273.569 117.235C273.025 117.235 272.541 117.128 272.116 116.916C271.699 116.703 271.368 116.431 271.121 116.1V117.12H269.668V107.685H271.121V111.14ZM275.392 113.576C275.392 113.091 275.29 112.675 275.086 112.326C274.891 111.969 274.627 111.701 274.296 111.523C273.973 111.336 273.624 111.242 273.25 111.242C272.885 111.242 272.536 111.336 272.205 111.523C271.882 111.71 271.618 111.982 271.414 112.339C271.219 112.696 271.121 113.117 271.121 113.601C271.121 114.086 271.219 114.511 271.414 114.876C271.618 115.233 271.882 115.505 272.205 115.692C272.536 115.879 272.885 115.972 273.25 115.972C273.624 115.972 273.973 115.879 274.296 115.692C274.627 115.497 274.891 115.216 275.086 114.851C275.29 114.485 275.392 114.06 275.392 113.576ZM284.874 113.435C284.874 113.699 284.857 113.937 284.823 114.149H279.456C279.498 114.71 279.707 115.161 280.081 115.501C280.455 115.841 280.913 116.011 281.457 116.011C282.239 116.011 282.792 115.684 283.115 115.029H284.683C284.471 115.675 284.084 116.206 283.523 116.623C282.97 117.031 282.282 117.235 281.457 117.235C280.786 117.235 280.183 117.086 279.647 116.788C279.12 116.482 278.704 116.057 278.398 115.514C278.1 114.961 277.951 114.324 277.951 113.601C277.951 112.879 278.096 112.245 278.385 111.701C278.682 111.149 279.095 110.724 279.622 110.427C280.157 110.129 280.769 109.98 281.457 109.98C282.12 109.98 282.711 110.125 283.23 110.414C283.748 110.703 284.152 111.111 284.441 111.638C284.73 112.156 284.874 112.755 284.874 113.435ZM283.357 112.976C283.349 112.441 283.157 112.012 282.783 111.689C282.409 111.366 281.946 111.204 281.394 111.204C280.892 111.204 280.463 111.366 280.106 111.689C279.749 112.003 279.537 112.432 279.469 112.976H283.357ZM287.886 111.115C288.098 110.758 288.379 110.482 288.727 110.286C289.084 110.082 289.505 109.98 289.989 109.98V111.485H289.619C289.05 111.485 288.617 111.629 288.319 111.918C288.03 112.207 287.886 112.709 287.886 113.423V117.12H286.432V110.095H287.886V111.115ZM295.504 115.144C296.32 114.438 296.962 113.86 297.429 113.41C297.905 112.951 298.3 112.475 298.615 111.982C298.929 111.489 299.087 110.996 299.087 110.503C299.087 109.993 298.963 109.594 298.717 109.305C298.479 109.016 298.101 108.871 297.582 108.871C297.081 108.871 296.69 109.033 296.409 109.356C296.137 109.67 295.993 110.095 295.976 110.63H294.573C294.599 109.662 294.888 108.922 295.44 108.412C296.001 107.894 296.711 107.634 297.569 107.634C298.496 107.634 299.218 107.889 299.737 108.399C300.264 108.909 300.527 109.589 300.527 110.439C300.527 111.051 300.37 111.642 300.056 112.211C299.75 112.772 299.38 113.278 298.946 113.729C298.521 114.171 297.977 114.685 297.314 115.271L296.741 115.781H300.782V116.992H294.586V115.934L295.504 115.144ZM302.187 112.352C302.187 110.881 302.433 109.734 302.926 108.909C303.428 108.076 304.286 107.66 305.501 107.66C306.717 107.66 307.571 108.076 308.064 108.909C308.566 109.734 308.816 110.881 308.816 112.352C308.816 113.839 308.566 115.004 308.064 115.845C307.571 116.678 306.717 117.094 305.501 117.094C304.286 117.094 303.428 116.678 302.926 115.845C302.433 115.004 302.187 113.839 302.187 112.352ZM307.388 112.352C307.388 111.663 307.342 111.081 307.248 110.605C307.163 110.129 306.985 109.742 306.713 109.445C306.441 109.139 306.037 108.986 305.501 108.986C304.966 108.986 304.562 109.139 304.29 109.445C304.018 109.742 303.836 110.129 303.742 110.605C303.657 111.081 303.615 111.663 303.615 112.352C303.615 113.066 303.657 113.665 303.742 114.149C303.827 114.634 304.005 115.025 304.277 115.322C304.558 115.62 304.966 115.768 305.501 115.768C306.037 115.768 306.441 115.62 306.713 115.322C306.993 115.025 307.176 114.634 307.261 114.149C307.346 113.665 307.388 113.066 307.388 112.352ZM311.285 115.144C312.101 114.438 312.743 113.86 313.21 113.41C313.686 112.951 314.081 112.475 314.396 111.982C314.71 111.489 314.867 110.996 314.867 110.503C314.867 109.993 314.744 109.594 314.498 109.305C314.26 109.016 313.881 108.871 313.363 108.871C312.862 108.871 312.471 109.033 312.19 109.356C311.918 109.67 311.774 110.095 311.757 110.63H310.354C310.38 109.662 310.669 108.922 311.221 108.412C311.782 107.894 312.492 107.634 313.35 107.634C314.277 107.634 314.999 107.889 315.518 108.399C316.045 108.909 316.308 109.589 316.308 110.439C316.308 111.051 316.151 111.642 315.836 112.211C315.53 112.772 315.161 113.278 314.727 113.729C314.302 114.171 313.758 114.685 313.095 115.271L312.522 115.781H316.563V116.992H310.367V115.934L311.285 115.144ZM318.771 115.144C319.587 114.438 320.228 113.86 320.696 113.41C321.172 112.951 321.567 112.475 321.882 111.982C322.196 111.489 322.353 110.996 322.353 110.503C322.353 109.993 322.23 109.594 321.984 109.305C321.746 109.016 321.367 108.871 320.849 108.871C320.347 108.871 319.956 109.033 319.676 109.356C319.404 109.67 319.259 110.095 319.242 110.63H317.84C317.865 109.662 318.154 108.922 318.707 108.412C319.268 107.894 319.978 107.634 320.836 107.634C321.763 107.634 322.485 107.889 323.003 108.399C323.53 108.909 323.794 109.589 323.794 110.439C323.794 111.051 323.637 111.642 323.322 112.211C323.016 112.772 322.646 113.278 322.213 113.729C321.788 114.171 321.244 114.685 320.581 115.271L320.007 115.781H324.049V116.992H317.853V115.934L318.771 115.144Z" fill="#9A9A9A"/>
<path d="M200.454 85.4843V83.2914H204.551V95.6838H202.103V85.4843H200.454ZM206.902 89.3261C206.902 87.3655 207.253 85.8299 207.956 84.7193C208.67 83.6087 209.849 83.0534 211.492 83.0534C213.135 83.0534 214.308 83.6087 215.011 84.7193C215.725 85.8299 216.082 87.3655 216.082 89.3261C216.082 91.298 215.725 92.8449 215.011 93.9669C214.308 95.0888 213.135 95.6498 211.492 95.6498C209.849 95.6498 208.67 95.0888 207.956 93.9669C207.253 92.8449 206.902 91.298 206.902 89.3261ZM213.736 89.3261C213.736 88.4875 213.679 87.7848 213.566 87.2182C213.464 86.6402 213.248 86.1699 212.92 85.8072C212.603 85.4446 212.127 85.2633 211.492 85.2633C210.857 85.2633 210.376 85.4446 210.047 85.8072C209.73 86.1699 209.514 86.6402 209.401 87.2182C209.299 87.7848 209.248 88.4875 209.248 89.3261C209.248 90.1874 209.299 90.9127 209.401 91.502C209.503 92.0799 209.718 92.5503 210.047 92.9129C210.376 93.2642 210.857 93.4399 211.492 93.4399C212.127 93.4399 212.608 93.2642 212.937 92.9129C213.265 92.5503 213.481 92.0799 213.583 91.502C213.685 90.9127 213.736 90.1874 213.736 89.3261ZM219.218 95.8028C218.787 95.8028 218.43 95.6724 218.147 95.4118C217.875 95.1398 217.739 94.8055 217.739 94.4088C217.739 94.0122 217.875 93.6835 218.147 93.4229C218.43 93.1509 218.787 93.0149 219.218 93.0149C219.637 93.0149 219.983 93.1509 220.255 93.4229C220.527 93.6835 220.663 94.0122 220.663 94.4088C220.663 94.8055 220.527 95.1398 220.255 95.4118C219.983 95.6724 219.637 95.8028 219.218 95.8028ZM219.218 88.7651C218.787 88.7651 218.43 88.6348 218.147 88.3741C217.875 88.1021 217.739 87.7678 217.739 87.3712C217.739 86.9745 217.875 86.6459 218.147 86.3852C218.43 86.1132 218.787 85.9772 219.218 85.9772C219.637 85.9772 219.983 86.1132 220.255 86.3852C220.527 86.6459 220.663 86.9745 220.663 87.3712C220.663 87.7678 220.527 88.1021 220.255 88.3741C219.983 88.6348 219.637 88.7651 219.218 88.7651ZM222.357 89.3261C222.357 87.3655 222.709 85.8299 223.411 84.7193C224.125 83.6087 225.304 83.0534 226.947 83.0534C228.59 83.0534 229.763 83.6087 230.466 84.7193C231.18 85.8299 231.537 87.3655 231.537 89.3261C231.537 91.298 231.18 92.8449 230.466 93.9669C229.763 95.0888 228.59 95.6498 226.947 95.6498C225.304 95.6498 224.125 95.0888 223.411 93.9669C222.709 92.8449 222.357 91.298 222.357 89.3261ZM229.191 89.3261C229.191 88.4875 229.134 87.7848 229.021 87.2182C228.919 86.6402 228.704 86.1699 228.375 85.8072C228.058 85.4446 227.582 85.2633 226.947 85.2633C226.313 85.2633 225.831 85.4446 225.502 85.8072C225.185 86.1699 224.97 86.6402 224.856 87.2182C224.754 87.7848 224.703 88.4875 224.703 89.3261C224.703 90.1874 224.754 90.9127 224.856 91.502C224.958 92.0799 225.174 92.5503 225.502 92.9129C225.831 93.2642 226.313 93.4399 226.947 93.4399C227.582 93.4399 228.064 93.2642 228.392 92.9129C228.721 92.5503 228.936 92.0799 229.038 91.502C229.14 90.9127 229.191 90.1874 229.191 89.3261ZM233.347 89.3261C233.347 87.3655 233.698 85.8299 234.401 84.7193C235.115 83.6087 236.294 83.0534 237.937 83.0534C239.58 83.0534 240.753 83.6087 241.456 84.7193C242.17 85.8299 242.527 87.3655 242.527 89.3261C242.527 91.298 242.17 92.8449 241.456 93.9669C240.753 95.0888 239.58 95.6498 237.937 95.6498C236.294 95.6498 235.115 95.0888 234.401 93.9669C233.698 92.8449 233.347 91.298 233.347 89.3261ZM240.181 89.3261C240.181 88.4875 240.124 87.7848 240.011 87.2182C239.909 86.6402 239.694 86.1699 239.365 85.8072C239.048 85.4446 238.572 85.2633 237.937 85.2633C237.302 85.2633 236.821 85.4446 236.492 85.8072C236.175 86.1699 235.959 86.6402 235.846 87.2182C235.744 87.7848 235.693 88.4875 235.693 89.3261C235.693 90.1874 235.744 90.9127 235.846 91.502C235.948 92.0799 236.163 92.5503 236.492 92.9129C236.821 93.2642 237.302 93.4399 237.937 93.4399C238.572 93.4399 239.053 93.2642 239.382 92.9129C239.711 92.5503 239.926 92.0799 240.028 91.502C240.13 90.9127 240.181 90.1874 240.181 89.3261Z" fill="#212935"/>
<defs>
<clipPath id="clip0_2026_7828">
<rect width="18.0616" height="18.0616" fill="white" transform="translate(129.742 24.437)"/>
</clipPath>
</defs>
</svg>
