<svg width="301" height="417" viewBox="0 0 301 417" fill="none" xmlns="http://www.w3.org/2000/svg">
<path d="M256.557 0.277832H44.4422C20.1035 0.277832 0.373047 14.9576 0.373047 33.0661V383.619C0.373047 401.727 20.1035 416.407 44.4422 416.407H256.557C280.896 416.407 300.626 401.727 300.626 383.619V33.0661C300.626 14.9576 280.896 0.277832 256.557 0.277832Z" fill="white"/>
<path d="M256.558 416.698H44.4425C32.5674 416.698 21.4035 413.259 13.0128 407.016C4.62202 400.773 0 392.467 0 383.632V33.066C0 24.2308 4.62202 15.9246 13.0128 9.68173C21.4035 3.43886 32.5674 0 44.4425 0H256.558C268.433 0 279.597 3.43886 287.987 9.68173C296.378 15.9246 301 24.2308 301 33.066V383.619C301 392.454 296.378 400.76 287.987 407.003C279.597 413.246 268.433 416.685 256.558 416.685V416.698ZM44.4425 0.568736C20.3547 0.568736 0.74663 15.1442 0.74663 33.0792V383.632C0.74663 401.554 20.3369 416.142 44.4425 416.142H256.558C280.645 416.142 300.253 401.567 300.253 383.632V33.066C300.253 15.1442 280.663 0.555507 256.558 0.555507H44.4425V0.568736Z" fill="#3B3B73"/>
<path d="M290.477 30.5001V387.838C290.477 396.303 282.442 403.167 272.523 403.167H28.4802C18.5606 403.167 10.5254 396.303 10.5254 387.838V30.5001C10.5254 22.0352 18.5606 15.1707 28.4802 15.1707H272.523C282.442 15.1707 290.477 22.0352 290.477 30.5001Z" fill="#F5F5F5"/>
</svg>
