<svg width="115" height="60" viewBox="0 0 115 60" fill="none" xmlns="http://www.w3.org/2000/svg">
<rect x="0.390625" y="0.336426" width="114.359" height="58.9778" rx="8.63089" fill="#EAEBEC"/>
<path d="M8.16415 28.7991C8.42962 29.0659 8.85123 29.092 9.13751 28.8514C11.5683 26.8428 15.0974 26.8428 17.5334 28.8462C17.8249 29.0868 18.2517 29.0659 18.5171 28.7991C18.8242 28.4905 18.8034 27.9779 18.4651 27.7006C15.493 25.2578 11.1935 25.2578 8.21621 27.7006C7.87787 27.9726 7.85185 28.4853 8.16415 28.7991ZM12.2033 32.8582L12.9685 33.6272C13.1715 33.8312 13.4994 33.8312 13.7024 33.6272L14.4676 32.8582C14.7122 32.6124 14.6601 32.1887 14.3478 32.0265C13.7128 31.697 12.9529 31.697 12.3126 32.0265C12.0159 32.1887 11.9587 32.6124 12.2033 32.8582ZM10.2618 30.9071C10.5169 31.1635 10.9177 31.1896 11.2144 30.9751C12.4844 30.0702 14.1917 30.0702 15.4617 30.9751C15.7584 31.1844 16.1592 31.1635 16.4143 30.9071L16.4195 30.9019C16.7318 30.5881 16.711 30.0545 16.3518 29.7982C14.5613 28.4957 12.12 28.4957 10.3243 29.7982C9.96513 30.0597 9.94431 30.5881 10.2618 30.9071Z" fill="#212935"/>
<path d="M36.3727 26.7969L34.4092 33.8253H32.7477L31.4287 28.8208L30.0491 33.8253L28.3978 33.8354L26.5047 26.7969H28.0151L29.2537 32.2545L30.6835 26.7969H32.2543L33.6036 32.2243L34.8522 26.7969H36.3727ZM38.0081 27.5823C37.7597 27.5823 37.5516 27.5051 37.3838 27.3507C37.2227 27.1896 37.1422 26.9916 37.1422 26.7566C37.1422 26.5217 37.2227 26.327 37.3838 26.1726C37.5516 26.0115 37.7597 25.9309 38.0081 25.9309C38.2565 25.9309 38.4612 26.0115 38.6224 26.1726C38.7902 26.327 38.8741 26.5217 38.8741 26.7566C38.8741 26.9916 38.7902 27.1896 38.6224 27.3507C38.4612 27.5051 38.2565 27.5823 38.0081 27.5823ZM38.7029 28.2469V33.8253H37.2932V28.2469H38.7029ZM44.4356 26.7969V27.9347H41.5054V29.7372H43.7509V30.8549H41.5054V33.8253H40.0957V26.7969H44.4356ZM46.1502 27.5823C45.9018 27.5823 45.6937 27.5051 45.5259 27.3507C45.3647 27.1896 45.2842 26.9916 45.2842 26.7566C45.2842 26.5217 45.3647 26.327 45.5259 26.1726C45.6937 26.0115 45.9018 25.9309 46.1502 25.9309C46.3985 25.9309 46.6033 26.0115 46.7644 26.1726C46.9322 26.327 47.0161 26.5217 47.0161 26.7566C47.0161 26.9916 46.9322 27.1896 46.7644 27.3507C46.6033 27.5051 46.3985 27.5823 46.1502 27.5823ZM46.8449 28.2469V33.8253H45.4352V28.2469H46.8449Z" fill="#212935"/>
<path d="M98.9314 32.7023L101.808 29.8253L98.9314 26.9483" stroke="#6562AC" stroke-width="1.43848" stroke-linecap="round"/>
</svg>
