<svg width="295" height="168" viewBox="0 0 295 168" fill="none" xmlns="http://www.w3.org/2000/svg">
<g filter="url(#filter0_d_2026_4066)">
<rect x="19.9961" y="15.5105" width="255" height="129" rx="19.3603" fill="white"/>
</g>
<path d="M41.1241 48.5105V40.1105H42.4081L47.6761 46.5785H47.0401V40.1105H48.5881V48.5105H47.3041L42.0361 42.0425H42.6721V48.5105H41.1241ZM53.7149 48.5945C53.0589 48.5945 52.4749 48.4545 51.9629 48.1745C51.4509 47.8865 51.0469 47.4945 50.7509 46.9985C50.4549 46.5025 50.3069 45.9385 50.3069 45.3065C50.3069 44.6665 50.4549 44.1025 50.7509 43.6145C51.0469 43.1185 51.4509 42.7305 51.9629 42.4505C52.4749 42.1705 53.0589 42.0305 53.7149 42.0305C54.3789 42.0305 54.9669 42.1705 55.4789 42.4505C55.9989 42.7305 56.4029 43.1145 56.6909 43.6025C56.9869 44.0905 57.1349 44.6585 57.1349 45.3065C57.1349 45.9385 56.9869 46.5025 56.6909 46.9985C56.4029 47.4945 55.9989 47.8865 55.4789 48.1745C54.9669 48.4545 54.3789 48.5945 53.7149 48.5945ZM53.7149 47.3105C54.0829 47.3105 54.4109 47.2305 54.6989 47.0705C54.9869 46.9105 55.2109 46.6785 55.3709 46.3745C55.5389 46.0705 55.6229 45.7145 55.6229 45.3065C55.6229 44.8905 55.5389 44.5345 55.3709 44.2385C55.2109 43.9345 54.9869 43.7025 54.6989 43.5425C54.4109 43.3825 54.0869 43.3025 53.7269 43.3025C53.3589 43.3025 53.0309 43.3825 52.7429 43.5425C52.4629 43.7025 52.2389 43.9345 52.0709 44.2385C51.9029 44.5345 51.8189 44.8905 51.8189 45.3065C51.8189 45.7145 51.9029 46.0705 52.0709 46.3745C52.2389 46.6785 52.4629 46.9105 52.7429 47.0705C53.0309 47.2305 53.3549 47.3105 53.7149 47.3105ZM61.1213 48.5945C60.4173 48.5945 59.8733 48.4145 59.4893 48.0545C59.1053 47.6865 58.9133 47.1465 58.9133 46.4345V40.6865H60.4133V46.3985C60.4133 46.7025 60.4893 46.9385 60.6413 47.1065C60.8013 47.2745 61.0213 47.3585 61.3013 47.3585C61.6373 47.3585 61.9173 47.2705 62.1413 47.0945L62.5613 48.1625C62.3853 48.3065 62.1693 48.4145 61.9133 48.4865C61.6573 48.5585 61.3933 48.5945 61.1213 48.5945ZM57.8573 43.3505V42.1505H62.1293V43.3505H57.8573ZM66.7363 48.5945C66.0243 48.5945 65.4003 48.4545 64.8643 48.1745C64.3363 47.8865 63.9243 47.4945 63.6283 46.9985C63.3403 46.5025 63.1963 45.9385 63.1963 45.3065C63.1963 44.6665 63.3363 44.1025 63.6163 43.6145C63.9043 43.1185 64.2963 42.7305 64.7923 42.4505C65.2963 42.1705 65.8683 42.0305 66.5083 42.0305C67.1323 42.0305 67.6883 42.1665 68.1763 42.4385C68.6643 42.7105 69.0483 43.0945 69.3283 43.5905C69.6083 44.0865 69.7483 44.6705 69.7483 45.3425C69.7483 45.4065 69.7443 45.4785 69.7363 45.5585C69.7363 45.6385 69.7323 45.7145 69.7243 45.7865H64.3843V44.7905H68.9323L68.3443 45.1025C68.3523 44.7345 68.2763 44.4105 68.1163 44.1305C67.9563 43.8505 67.7363 43.6305 67.4563 43.4705C67.1843 43.3105 66.8683 43.2305 66.5083 43.2305C66.1403 43.2305 65.8163 43.3105 65.5363 43.4705C65.2643 43.6305 65.0483 43.8545 64.8883 44.1425C64.7363 44.4225 64.6603 44.7545 64.6603 45.1385V45.3785C64.6603 45.7625 64.7483 46.1025 64.9243 46.3985C65.1003 46.6945 65.3483 46.9225 65.6683 47.0825C65.9883 47.2425 66.3563 47.3225 66.7723 47.3225C67.1323 47.3225 67.4563 47.2665 67.7443 47.1545C68.0323 47.0425 68.2883 46.8665 68.5123 46.6265L69.3163 47.5505C69.0283 47.8865 68.6643 48.1465 68.2243 48.3305C67.7923 48.5065 67.2963 48.5945 66.7363 48.5945ZM71.8092 44.0225C71.5372 44.0225 71.3052 43.9305 71.1132 43.7465C70.9212 43.5545 70.8252 43.3145 70.8252 43.0265C70.8252 42.7225 70.9212 42.4825 71.1132 42.3065C71.3052 42.1225 71.5372 42.0305 71.8092 42.0305C72.0812 42.0305 72.3132 42.1225 72.5052 42.3065C72.6972 42.4825 72.7932 42.7225 72.7932 43.0265C72.7932 43.3145 72.6972 43.5545 72.5052 43.7465C72.3132 43.9305 72.0812 44.0225 71.8092 44.0225ZM71.8092 48.5945C71.5372 48.5945 71.3052 48.5025 71.1132 48.3185C70.9212 48.1265 70.8252 47.8865 70.8252 47.5985C70.8252 47.2945 70.9212 47.0545 71.1132 46.8785C71.3052 46.6945 71.5372 46.6025 71.8092 46.6025C72.0812 46.6025 72.3132 46.6945 72.5052 46.8785C72.6972 47.0545 72.7932 47.2945 72.7932 47.5985C72.7932 47.8865 72.6972 48.1265 72.5052 48.3185C72.3132 48.5025 72.0812 48.5945 71.8092 48.5945Z" fill="#5E5873"/>
<path d="M41.1361 70.5105V63.5105H41.8761V70.5105H41.1361ZM45.6637 70.5605C45.1703 70.5605 44.7903 70.4272 44.5237 70.1605C44.257 69.8938 44.1237 69.5172 44.1237 69.0305V64.1005H44.8337V68.9905C44.8337 69.2972 44.9103 69.5338 45.0637 69.7005C45.2237 69.8672 45.4503 69.9505 45.7437 69.9505C46.057 69.9505 46.317 69.8605 46.5237 69.6805L46.7737 70.1905C46.6337 70.3172 46.4637 70.4105 46.2637 70.4705C46.0703 70.5305 45.8703 70.5605 45.6637 70.5605ZM43.1837 65.8505V65.2605H46.4337V65.8505H43.1837ZM51.7534 70.5105L49.7734 65.2605H50.4534L52.2534 70.1305H51.9434L53.7934 65.2605H54.4034L56.2334 70.1305H55.9234L57.7534 65.2605H58.4034L56.4134 70.5105H55.7434L53.9834 65.9305H54.1934L52.4234 70.5105H51.7534ZM62.6062 70.5105V69.3505L62.5762 69.1605V67.2205C62.5762 66.7738 62.4495 66.4305 62.1962 66.1905C61.9495 65.9505 61.5795 65.8305 61.0862 65.8305C60.7462 65.8305 60.4228 65.8872 60.1162 66.0005C59.8095 66.1138 59.5495 66.2638 59.3362 66.4505L59.0162 65.9205C59.2828 65.6938 59.6028 65.5205 59.9762 65.4005C60.3495 65.2738 60.7428 65.2105 61.1562 65.2105C61.8362 65.2105 62.3595 65.3805 62.7262 65.7205C63.0995 66.0538 63.2862 66.5638 63.2862 67.2505V70.5105H62.6062ZM60.7962 70.5605C60.4028 70.5605 60.0595 70.4972 59.7662 70.3705C59.4795 70.2372 59.2595 70.0572 59.1062 69.8305C58.9528 69.5972 58.8762 69.3305 58.8762 69.0305C58.8762 68.7572 58.9395 68.5105 59.0662 68.2905C59.1995 68.0638 59.4128 67.8838 59.7062 67.7505C60.0062 67.6105 60.4062 67.5405 60.9062 67.5405H62.7162V68.0705H60.9262C60.4195 68.0705 60.0662 68.1605 59.8662 68.3405C59.6728 68.5205 59.5762 68.7438 59.5762 69.0105C59.5762 69.3105 59.6928 69.5505 59.9262 69.7305C60.1595 69.9105 60.4862 70.0005 60.9062 70.0005C61.3062 70.0005 61.6495 69.9105 61.9362 69.7305C62.2295 69.5438 62.4428 69.2772 62.5762 68.9305L62.7362 69.4205C62.6028 69.7672 62.3695 70.0438 62.0362 70.2505C61.7095 70.4572 61.2962 70.5605 60.7962 70.5605ZM66.6246 70.5605C66.1913 70.5605 65.7813 70.5005 65.3946 70.3805C65.0079 70.2538 64.7046 70.0972 64.4846 69.9105L64.8046 69.3505C65.0179 69.5105 65.2913 69.6505 65.6246 69.7705C65.9579 69.8838 66.3079 69.9405 66.6746 69.9405C67.1746 69.9405 67.5346 69.8638 67.7546 69.7105C67.9746 69.5505 68.0846 69.3405 68.0846 69.0805C68.0846 68.8872 68.0213 68.7372 67.8946 68.6305C67.7746 68.5172 67.6146 68.4338 67.4146 68.3805C67.2146 68.3205 66.9913 68.2705 66.7446 68.2305C66.4979 68.1905 66.2513 68.1438 66.0046 68.0905C65.7646 68.0372 65.5446 67.9605 65.3446 67.8605C65.1446 67.7538 64.9813 67.6105 64.8546 67.4305C64.7346 67.2505 64.6746 67.0105 64.6746 66.7105C64.6746 66.4238 64.7546 66.1672 64.9146 65.9405C65.0746 65.7138 65.3079 65.5372 65.6146 65.4105C65.9279 65.2772 66.3079 65.2105 66.7546 65.2105C67.0946 65.2105 67.4346 65.2572 67.7746 65.3505C68.1146 65.4372 68.3946 65.5538 68.6146 65.7005L68.3046 66.2705C68.0713 66.1105 67.8213 65.9972 67.5546 65.9305C67.2879 65.8572 67.0213 65.8205 66.7546 65.8205C66.2813 65.8205 65.9313 65.9038 65.7046 66.0705C65.4846 66.2305 65.3746 66.4372 65.3746 66.6905C65.3746 66.8905 65.4346 67.0472 65.5546 67.1605C65.6813 67.2738 65.8446 67.3638 66.0446 67.4305C66.2513 67.4905 66.4746 67.5405 66.7146 67.5805C66.9613 67.6205 67.2046 67.6705 67.4446 67.7305C67.6913 67.7838 67.9146 67.8605 68.1146 67.9605C68.3213 68.0538 68.4846 68.1905 68.6046 68.3705C68.7313 68.5438 68.7946 68.7738 68.7946 69.0605C68.7946 69.3672 68.7079 69.6338 68.5346 69.8605C68.3679 70.0805 68.1213 70.2538 67.7946 70.3805C67.4746 70.5005 67.0846 70.5605 66.6246 70.5605ZM76.0046 70.5105V69.3505L75.9746 69.1605V67.2205C75.9746 66.7738 75.8479 66.4305 75.5946 66.1905C75.3479 65.9505 74.9779 65.8305 74.4846 65.8305C74.1446 65.8305 73.8213 65.8872 73.5146 66.0005C73.2079 66.1138 72.9479 66.2638 72.7346 66.4505L72.4146 65.9205C72.6813 65.6938 73.0013 65.5205 73.3746 65.4005C73.7479 65.2738 74.1413 65.2105 74.5546 65.2105C75.2346 65.2105 75.7579 65.3805 76.1246 65.7205C76.4979 66.0538 76.6846 66.5638 76.6846 67.2505V70.5105H76.0046ZM74.1946 70.5605C73.8013 70.5605 73.4579 70.4972 73.1646 70.3705C72.8779 70.2372 72.6579 70.0572 72.5046 69.8305C72.3513 69.5972 72.2746 69.3305 72.2746 69.0305C72.2746 68.7572 72.3379 68.5105 72.4646 68.2905C72.5979 68.0638 72.8113 67.8838 73.1046 67.7505C73.4046 67.6105 73.8046 67.5405 74.3046 67.5405H76.1146V68.0705H74.3246C73.8179 68.0705 73.4646 68.1605 73.2646 68.3405C73.0713 68.5205 72.9746 68.7438 72.9746 69.0105C72.9746 69.3105 73.0913 69.5505 73.3246 69.7305C73.5579 69.9105 73.8846 70.0005 74.3046 70.0005C74.7046 70.0005 75.0479 69.9105 75.3346 69.7305C75.6279 69.5438 75.8413 69.2772 75.9746 68.9305L76.1346 69.4205C76.0013 69.7672 75.7679 70.0438 75.4346 70.2505C75.1079 70.4572 74.6946 70.5605 74.1946 70.5605ZM83.9402 70.5605C83.4869 70.5605 83.0769 70.4572 82.7102 70.2505C82.3436 70.0372 82.0502 69.7338 81.8302 69.3405C81.6169 68.9405 81.5102 68.4538 81.5102 67.8805C81.5102 67.3072 81.6169 66.8238 81.8302 66.4305C82.0436 66.0305 82.3336 65.7272 82.7002 65.5205C83.0669 65.3138 83.4802 65.2105 83.9402 65.2105C84.4402 65.2105 84.8869 65.3238 85.2802 65.5505C85.6802 65.7705 85.9936 66.0838 86.2202 66.4905C86.4469 66.8905 86.5602 67.3538 86.5602 67.8805C86.5602 68.4138 86.4469 68.8805 86.2202 69.2805C85.9936 69.6805 85.6802 69.9938 85.2802 70.2205C84.8869 70.4472 84.4402 70.5605 83.9402 70.5605ZM81.2302 72.4505V65.2605H81.9102V66.8405L81.8402 67.8905L81.9402 68.9505V72.4505H81.2302ZM83.8902 69.9305C84.2636 69.9305 84.5969 69.8472 84.8902 69.6805C85.1836 69.5072 85.4169 69.2672 85.5902 68.9605C85.7636 68.6472 85.8502 68.2872 85.8502 67.8805C85.8502 67.4738 85.7636 67.1172 85.5902 66.8105C85.4169 66.5038 85.1836 66.2638 84.8902 66.0905C84.5969 65.9172 84.2636 65.8305 83.8902 65.8305C83.5169 65.8305 83.1802 65.9172 82.8802 66.0905C82.5869 66.2638 82.3536 66.5038 82.1802 66.8105C82.0136 67.1172 81.9302 67.4738 81.9302 67.8805C81.9302 68.2872 82.0136 68.6472 82.1802 68.9605C82.3536 69.2672 82.5869 69.5072 82.8802 69.6805C83.1802 69.8472 83.5169 69.9305 83.8902 69.9305ZM88.0076 70.5105V63.0905H88.7176V70.5105H88.0076ZM92.9231 70.5605C92.3765 70.5605 91.8965 70.4472 91.4831 70.2205C91.0698 69.9872 90.7465 69.6705 90.5131 69.2705C90.2798 68.8638 90.1631 68.4005 90.1631 67.8805C90.1631 67.3605 90.2731 66.9005 90.4931 66.5005C90.7198 66.1005 91.0265 65.7872 91.4131 65.5605C91.8065 65.3272 92.2465 65.2105 92.7331 65.2105C93.2265 65.2105 93.6631 65.3238 94.0431 65.5505C94.4298 65.7705 94.7331 66.0838 94.9531 66.4905C95.1731 66.8905 95.2831 67.3538 95.2831 67.8805C95.2831 67.9138 95.2798 67.9505 95.2731 67.9905C95.2731 68.0238 95.2731 68.0605 95.2731 68.1005H90.7031V67.5705H94.8931L94.6131 67.7805C94.6131 67.4005 94.5298 67.0638 94.3631 66.7705C94.2031 66.4705 93.9831 66.2372 93.7031 66.0705C93.4231 65.9038 93.0998 65.8205 92.7331 65.8205C92.3731 65.8205 92.0498 65.9038 91.7631 66.0705C91.4765 66.2372 91.2531 66.4705 91.0931 66.7705C90.9331 67.0705 90.8531 67.4138 90.8531 67.8005V67.9105C90.8531 68.3105 90.9398 68.6638 91.1131 68.9705C91.2931 69.2705 91.5398 69.5072 91.8531 69.6805C92.1731 69.8472 92.5365 69.9305 92.9431 69.9305C93.2631 69.9305 93.5598 69.8738 93.8331 69.7605C94.1131 69.6472 94.3531 69.4738 94.5531 69.2405L94.9531 69.7005C94.7198 69.9805 94.4265 70.1938 94.0731 70.3405C93.7265 70.4872 93.3431 70.5605 92.9231 70.5605ZM99.8718 70.5105V69.3505L99.8418 69.1605V67.2205C99.8418 66.7738 99.7151 66.4305 99.4618 66.1905C99.2151 65.9505 98.8451 65.8305 98.3518 65.8305C98.0118 65.8305 97.6885 65.8872 97.3818 66.0005C97.0751 66.1138 96.8151 66.2638 96.6018 66.4505L96.2818 65.9205C96.5485 65.6938 96.8685 65.5205 97.2418 65.4005C97.6151 65.2738 98.0085 65.2105 98.4218 65.2105C99.1018 65.2105 99.6251 65.3805 99.9918 65.7205C100.365 66.0538 100.552 66.5638 100.552 67.2505V70.5105H99.8718ZM98.0618 70.5605C97.6685 70.5605 97.3251 70.4972 97.0318 70.3705C96.7451 70.2372 96.5251 70.0572 96.3718 69.8305C96.2185 69.5972 96.1418 69.3305 96.1418 69.0305C96.1418 68.7572 96.2051 68.5105 96.3318 68.2905C96.4651 68.0638 96.6785 67.8838 96.9718 67.7505C97.2718 67.6105 97.6718 67.5405 98.1718 67.5405H99.9818V68.0705H98.1918C97.6851 68.0705 97.3318 68.1605 97.1318 68.3405C96.9385 68.5205 96.8418 68.7438 96.8418 69.0105C96.8418 69.3105 96.9585 69.5505 97.1918 69.7305C97.4251 69.9105 97.7518 70.0005 98.1718 70.0005C98.5718 70.0005 98.9151 69.9105 99.2018 69.7305C99.4951 69.5438 99.7085 69.2772 99.8418 68.9305L100.002 69.4205C99.8685 69.7672 99.6351 70.0438 99.3018 70.2505C98.9751 70.4572 98.5618 70.5605 98.0618 70.5605ZM103.89 70.5605C103.457 70.5605 103.047 70.5005 102.66 70.3805C102.274 70.2538 101.97 70.0972 101.75 69.9105L102.07 69.3505C102.284 69.5105 102.557 69.6505 102.89 69.7705C103.224 69.8838 103.574 69.9405 103.94 69.9405C104.44 69.9405 104.8 69.8638 105.02 69.7105C105.24 69.5505 105.35 69.3405 105.35 69.0805C105.35 68.8872 105.287 68.7372 105.16 68.6305C105.04 68.5172 104.88 68.4338 104.68 68.3805C104.48 68.3205 104.257 68.2705 104.01 68.2305C103.764 68.1905 103.517 68.1438 103.27 68.0905C103.03 68.0372 102.81 67.9605 102.61 67.8605C102.41 67.7538 102.247 67.6105 102.12 67.4305C102 67.2505 101.94 67.0105 101.94 66.7105C101.94 66.4238 102.02 66.1672 102.18 65.9405C102.34 65.7138 102.574 65.5372 102.88 65.4105C103.194 65.2772 103.574 65.2105 104.02 65.2105C104.36 65.2105 104.7 65.2572 105.04 65.3505C105.38 65.4372 105.66 65.5538 105.88 65.7005L105.57 66.2705C105.337 66.1105 105.087 65.9972 104.82 65.9305C104.554 65.8572 104.287 65.8205 104.02 65.8205C103.547 65.8205 103.197 65.9038 102.97 66.0705C102.75 66.2305 102.64 66.4372 102.64 66.6905C102.64 66.8905 102.7 67.0472 102.82 67.1605C102.947 67.2738 103.11 67.3638 103.31 67.4305C103.517 67.4905 103.74 67.5405 103.98 67.5805C104.227 67.6205 104.47 67.6705 104.71 67.7305C104.957 67.7838 105.18 67.8605 105.38 67.9605C105.587 68.0538 105.75 68.1905 105.87 68.3705C105.997 68.5438 106.06 68.7738 106.06 69.0605C106.06 69.3672 105.974 69.6338 105.8 69.8605C105.634 70.0805 105.387 70.2538 105.06 70.3805C104.74 70.5005 104.35 70.5605 103.89 70.5605ZM109.533 70.5605C109.086 70.5605 108.696 70.4772 108.363 70.3105C108.03 70.1438 107.77 69.8938 107.583 69.5605C107.403 69.2272 107.313 68.8105 107.313 68.3105V65.2605H108.023V68.2305C108.023 68.7905 108.16 69.2138 108.433 69.5005C108.713 69.7805 109.103 69.9205 109.603 69.9205C109.97 69.9205 110.286 69.8472 110.553 69.7005C110.826 69.5472 111.033 69.3272 111.173 69.0405C111.32 68.7538 111.393 68.4105 111.393 68.0105V65.2605H112.103V70.5105H111.423V69.0705L111.533 69.3305C111.366 69.7172 111.106 70.0205 110.753 70.2405C110.406 70.4538 110 70.5605 109.533 70.5605ZM114.082 70.5105V65.2605H114.762V66.6905L114.692 66.4405C114.838 66.0405 115.085 65.7372 115.432 65.5305C115.778 65.3172 116.208 65.2105 116.722 65.2105V65.9005C116.695 65.9005 116.668 65.9005 116.642 65.9005C116.615 65.8938 116.588 65.8905 116.562 65.8905C116.008 65.8905 115.575 66.0605 115.262 66.4005C114.948 66.7338 114.792 67.2105 114.792 67.8305V70.5105H114.082ZM120.199 70.5605C119.652 70.5605 119.172 70.4472 118.759 70.2205C118.345 69.9872 118.022 69.6705 117.789 69.2705C117.555 68.8638 117.439 68.4005 117.439 67.8805C117.439 67.3605 117.549 66.9005 117.769 66.5005C117.995 66.1005 118.302 65.7872 118.689 65.5605C119.082 65.3272 119.522 65.2105 120.009 65.2105C120.502 65.2105 120.939 65.3238 121.319 65.5505C121.705 65.7705 122.009 66.0838 122.229 66.4905C122.449 66.8905 122.559 67.3538 122.559 67.8805C122.559 67.9138 122.555 67.9505 122.549 67.9905C122.549 68.0238 122.549 68.0605 122.549 68.1005H117.979V67.5705H122.169L121.889 67.7805C121.889 67.4005 121.805 67.0638 121.639 66.7705C121.479 66.4705 121.259 66.2372 120.979 66.0705C120.699 65.9038 120.375 65.8205 120.009 65.8205C119.649 65.8205 119.325 65.9038 119.039 66.0705C118.752 66.2372 118.529 66.4705 118.369 66.7705C118.209 67.0705 118.129 67.4138 118.129 67.8005V67.9105C118.129 68.3105 118.215 68.6638 118.389 68.9705C118.569 69.2705 118.815 69.5072 119.129 69.6805C119.449 69.8472 119.812 69.9305 120.219 69.9305C120.539 69.9305 120.835 69.8738 121.109 69.7605C121.389 69.6472 121.629 69.4738 121.829 69.2405L122.229 69.7005C121.995 69.9805 121.702 70.1938 121.349 70.3405C121.002 70.4872 120.619 70.5605 120.199 70.5605ZM128.281 70.5605C127.788 70.5605 127.408 70.4272 127.141 70.1605C126.874 69.8938 126.741 69.5172 126.741 69.0305V64.1005H127.451V68.9905C127.451 69.2972 127.528 69.5338 127.681 69.7005C127.841 69.8672 128.068 69.9505 128.361 69.9505C128.674 69.9505 128.934 69.8605 129.141 69.6805L129.391 70.1905C129.251 70.3172 129.081 70.4105 128.881 70.4705C128.688 70.5305 128.488 70.5605 128.281 70.5605ZM125.801 65.8505V65.2605H129.051V65.8505H125.801ZM132.638 70.5605C132.131 70.5605 131.674 70.4472 131.268 70.2205C130.868 69.9872 130.551 69.6705 130.318 69.2705C130.084 68.8638 129.968 68.4005 129.968 67.8805C129.968 67.3538 130.084 66.8905 130.318 66.4905C130.551 66.0905 130.868 65.7772 131.268 65.5505C131.668 65.3238 132.124 65.2105 132.638 65.2105C133.158 65.2105 133.618 65.3238 134.018 65.5505C134.424 65.7772 134.741 66.0905 134.968 66.4905C135.201 66.8905 135.318 67.3538 135.318 67.8805C135.318 68.4005 135.201 68.8638 134.968 69.2705C134.741 69.6705 134.424 69.9872 134.018 70.2205C133.611 70.4472 133.151 70.5605 132.638 70.5605ZM132.638 69.9305C133.018 69.9305 133.354 69.8472 133.648 69.6805C133.941 69.5072 134.171 69.2672 134.338 68.9605C134.511 68.6472 134.598 68.2872 134.598 67.8805C134.598 67.4672 134.511 67.1072 134.338 66.8005C134.171 66.4938 133.941 66.2572 133.648 66.0905C133.354 65.9172 133.021 65.8305 132.648 65.8305C132.274 65.8305 131.941 65.9172 131.648 66.0905C131.354 66.2572 131.121 66.4938 130.948 66.8005C130.774 67.1072 130.688 67.4672 130.688 67.8805C130.688 68.2872 130.774 68.6472 130.948 68.9605C131.121 69.2672 131.354 69.5072 131.648 69.6805C131.941 69.8472 132.271 69.9305 132.638 69.9305ZM142.095 70.5605C141.635 70.5605 141.221 70.4572 140.855 70.2505C140.488 70.0372 140.198 69.7305 139.985 69.3305C139.771 68.9305 139.665 68.4472 139.665 67.8805C139.665 67.3072 139.771 66.8238 139.985 66.4305C140.205 66.0305 140.498 65.7272 140.865 65.5205C141.231 65.3138 141.641 65.2105 142.095 65.2105C142.595 65.2105 143.041 65.3238 143.435 65.5505C143.835 65.7705 144.148 66.0805 144.375 66.4805C144.601 66.8805 144.715 67.3472 144.715 67.8805C144.715 68.4072 144.601 68.8738 144.375 69.2805C144.148 69.6805 143.835 69.9938 143.435 70.2205C143.041 70.4472 142.595 70.5605 142.095 70.5605ZM139.385 70.5105V63.0905H140.095V66.8105L139.995 67.8705L140.065 68.9305V70.5105H139.385ZM142.045 69.9305C142.418 69.9305 142.751 69.8472 143.045 69.6805C143.338 69.5072 143.571 69.2672 143.745 68.9605C143.918 68.6472 144.005 68.2872 144.005 67.8805C144.005 67.4672 143.918 67.1072 143.745 66.8005C143.571 66.4938 143.338 66.2572 143.045 66.0905C142.751 65.9172 142.418 65.8305 142.045 65.8305C141.671 65.8305 141.335 65.9172 141.035 66.0905C140.741 66.2572 140.508 66.4938 140.335 66.8005C140.168 67.1072 140.085 67.4672 140.085 67.8805C140.085 68.2872 140.168 68.6472 140.335 68.9605C140.508 69.2672 140.741 69.5072 141.035 69.6805C141.335 69.8472 141.671 69.9305 142.045 69.9305ZM148.392 70.5605C147.845 70.5605 147.365 70.4472 146.952 70.2205C146.539 69.9872 146.215 69.6705 145.982 69.2705C145.749 68.8638 145.632 68.4005 145.632 67.8805C145.632 67.3605 145.742 66.9005 145.962 66.5005C146.189 66.1005 146.495 65.7872 146.882 65.5605C147.275 65.3272 147.715 65.2105 148.202 65.2105C148.695 65.2105 149.132 65.3238 149.512 65.5505C149.899 65.7705 150.202 66.0838 150.422 66.4905C150.642 66.8905 150.752 67.3538 150.752 67.8805C150.752 67.9138 150.749 67.9505 150.742 67.9905C150.742 68.0238 150.742 68.0605 150.742 68.1005H146.172V67.5705H150.362L150.082 67.7805C150.082 67.4005 149.999 67.0638 149.832 66.7705C149.672 66.4705 149.452 66.2372 149.172 66.0705C148.892 65.9038 148.569 65.8205 148.202 65.8205C147.842 65.8205 147.519 65.9038 147.232 66.0705C146.945 66.2372 146.722 66.4705 146.562 66.7705C146.402 67.0705 146.322 67.4138 146.322 67.8005V67.9105C146.322 68.3105 146.409 68.6638 146.582 68.9705C146.762 69.2705 147.009 69.5072 147.322 69.6805C147.642 69.8472 148.005 69.9305 148.412 69.9305C148.732 69.9305 149.029 69.8738 149.302 69.7605C149.582 69.6472 149.822 69.4738 150.022 69.2405L150.422 69.7005C150.189 69.9805 149.895 70.1938 149.542 70.3405C149.195 70.4872 148.812 70.5605 148.392 70.5605ZM154.854 72.5005C154.608 72.5005 154.371 72.4605 154.144 72.3805C153.924 72.3005 153.734 72.1805 153.574 72.0205L153.904 71.4905C154.038 71.6172 154.181 71.7138 154.334 71.7805C154.494 71.8538 154.671 71.8905 154.864 71.8905C155.098 71.8905 155.298 71.8238 155.464 71.6905C155.638 71.5638 155.801 71.3372 155.954 71.0105L156.294 70.2405L156.374 70.1305L158.534 65.2605H159.234L156.604 71.1405C156.458 71.4805 156.294 71.7505 156.114 71.9505C155.941 72.1505 155.751 72.2905 155.544 72.3705C155.338 72.4572 155.108 72.5005 154.854 72.5005ZM156.254 70.6605L153.834 65.2605H154.574L156.714 70.0805L156.254 70.6605ZM162.228 70.5605C161.721 70.5605 161.264 70.4472 160.858 70.2205C160.458 69.9872 160.141 69.6705 159.908 69.2705C159.674 68.8638 159.558 68.4005 159.558 67.8805C159.558 67.3538 159.674 66.8905 159.908 66.4905C160.141 66.0905 160.458 65.7772 160.858 65.5505C161.258 65.3238 161.714 65.2105 162.228 65.2105C162.748 65.2105 163.208 65.3238 163.608 65.5505C164.014 65.7772 164.331 66.0905 164.558 66.4905C164.791 66.8905 164.908 67.3538 164.908 67.8805C164.908 68.4005 164.791 68.8638 164.558 69.2705C164.331 69.6705 164.014 69.9872 163.608 70.2205C163.201 70.4472 162.741 70.5605 162.228 70.5605ZM162.228 69.9305C162.608 69.9305 162.944 69.8472 163.238 69.6805C163.531 69.5072 163.761 69.2672 163.928 68.9605C164.101 68.6472 164.188 68.2872 164.188 67.8805C164.188 67.4672 164.101 67.1072 163.928 66.8005C163.761 66.4938 163.531 66.2572 163.238 66.0905C162.944 65.9172 162.611 65.8305 162.238 65.8305C161.864 65.8305 161.531 65.9172 161.238 66.0905C160.944 66.2572 160.711 66.4938 160.538 66.8005C160.364 67.1072 160.278 67.4672 160.278 67.8805C160.278 68.2872 160.364 68.6472 160.538 68.9605C160.711 69.2672 160.944 69.5072 161.238 69.6805C161.531 69.8472 161.861 69.9305 162.228 69.9305ZM168.527 70.5605C168.081 70.5605 167.691 70.4772 167.357 70.3105C167.024 70.1438 166.764 69.8938 166.577 69.5605C166.397 69.2272 166.307 68.8105 166.307 68.3105V65.2605H167.017V68.2305C167.017 68.7905 167.154 69.2138 167.427 69.5005C167.707 69.7805 168.097 69.9205 168.597 69.9205C168.964 69.9205 169.281 69.8472 169.547 69.7005C169.821 69.5472 170.027 69.3272 170.167 69.0405C170.314 68.7538 170.387 68.4105 170.387 68.0105V65.2605H171.097V70.5105H170.417V69.0705L170.527 69.3305C170.361 69.7172 170.101 70.0205 169.747 70.2405C169.401 70.4538 168.994 70.5605 168.527 70.5605ZM173.076 70.5105V65.2605H173.756V66.6905L173.686 66.4405C173.833 66.0405 174.079 65.7372 174.426 65.5305C174.773 65.3172 175.203 65.2105 175.716 65.2105V65.9005C175.689 65.9005 175.663 65.9005 175.636 65.9005C175.609 65.8938 175.583 65.8905 175.556 65.8905C175.003 65.8905 174.569 66.0605 174.256 66.4005C173.943 66.7338 173.786 67.2105 173.786 67.8305V70.5105H173.076ZM182.387 65.2105C182.813 65.2105 183.187 65.2938 183.507 65.4605C183.833 65.6205 184.087 65.8672 184.267 66.2005C184.453 66.5338 184.547 66.9538 184.547 67.4605V70.5105H183.837V67.5305C183.837 66.9772 183.697 66.5605 183.417 66.2805C183.143 65.9938 182.757 65.8505 182.257 65.8505C181.883 65.8505 181.557 65.9272 181.277 66.0805C181.003 66.2272 180.79 66.4438 180.637 66.7305C180.49 67.0105 180.417 67.3505 180.417 67.7505V70.5105H179.707V63.0905H180.417V66.7005L180.277 66.4305C180.443 66.0505 180.71 65.7538 181.077 65.5405C181.443 65.3205 181.88 65.2105 182.387 65.2105ZM188.605 70.5605C188.098 70.5605 187.641 70.4472 187.235 70.2205C186.835 69.9872 186.518 69.6705 186.285 69.2705C186.051 68.8638 185.935 68.4005 185.935 67.8805C185.935 67.3538 186.051 66.8905 186.285 66.4905C186.518 66.0905 186.835 65.7772 187.235 65.5505C187.635 65.3238 188.091 65.2105 188.605 65.2105C189.125 65.2105 189.585 65.3238 189.985 65.5505C190.391 65.7772 190.708 66.0905 190.935 66.4905C191.168 66.8905 191.285 67.3538 191.285 67.8805C191.285 68.4005 191.168 68.8638 190.935 69.2705C190.708 69.6705 190.391 69.9872 189.985 70.2205C189.578 70.4472 189.118 70.5605 188.605 70.5605ZM188.605 69.9305C188.985 69.9305 189.321 69.8472 189.615 69.6805C189.908 69.5072 190.138 69.2672 190.305 68.9605C190.478 68.6472 190.565 68.2872 190.565 67.8805C190.565 67.4672 190.478 67.1072 190.305 66.8005C190.138 66.4938 189.908 66.2572 189.615 66.0905C189.321 65.9172 188.988 65.8305 188.615 65.8305C188.241 65.8305 187.908 65.9172 187.615 66.0905C187.321 66.2572 187.088 66.4938 186.915 66.8005C186.741 67.1072 186.655 67.4672 186.655 67.8805C186.655 68.2872 186.741 68.6472 186.915 68.9605C187.088 69.2672 187.321 69.5072 187.615 69.6805C187.908 69.8472 188.238 69.9305 188.605 69.9305ZM194.144 70.5605C193.711 70.5605 193.301 70.5005 192.914 70.3805C192.527 70.2538 192.224 70.0972 192.004 69.9105L192.324 69.3505C192.537 69.5105 192.811 69.6505 193.144 69.7705C193.477 69.8838 193.827 69.9405 194.194 69.9405C194.694 69.9405 195.054 69.8638 195.274 69.7105C195.494 69.5505 195.604 69.3405 195.604 69.0805C195.604 68.8872 195.541 68.7372 195.414 68.6305C195.294 68.5172 195.134 68.4338 194.934 68.3805C194.734 68.3205 194.511 68.2705 194.264 68.2305C194.017 68.1905 193.771 68.1438 193.524 68.0905C193.284 68.0372 193.064 67.9605 192.864 67.8605C192.664 67.7538 192.501 67.6105 192.374 67.4305C192.254 67.2505 192.194 67.0105 192.194 66.7105C192.194 66.4238 192.274 66.1672 192.434 65.9405C192.594 65.7138 192.827 65.5372 193.134 65.4105C193.447 65.2772 193.827 65.2105 194.274 65.2105C194.614 65.2105 194.954 65.2572 195.294 65.3505C195.634 65.4372 195.914 65.5538 196.134 65.7005L195.824 66.2705C195.591 66.1105 195.341 65.9972 195.074 65.9305C194.807 65.8572 194.541 65.8205 194.274 65.8205C193.801 65.8205 193.451 65.9038 193.224 66.0705C193.004 66.2305 192.894 66.4372 192.894 66.6905C192.894 66.8905 192.954 67.0472 193.074 67.1605C193.201 67.2738 193.364 67.3638 193.564 67.4305C193.771 67.4905 193.994 67.5405 194.234 67.5805C194.481 67.6205 194.724 67.6705 194.964 67.7305C195.211 67.7838 195.434 67.8605 195.634 67.9605C195.841 68.0538 196.004 68.1905 196.124 68.3705C196.251 68.5438 196.314 68.7738 196.314 69.0605C196.314 69.3672 196.227 69.6338 196.054 69.8605C195.887 70.0805 195.641 70.2538 195.314 70.3805C194.994 70.5005 194.604 70.5605 194.144 70.5605ZM199.277 70.5605C198.784 70.5605 198.404 70.4272 198.137 70.1605C197.87 69.8938 197.737 69.5172 197.737 69.0305V64.1005H198.447V68.9905C198.447 69.2972 198.524 69.5338 198.677 69.7005C198.837 69.8672 199.064 69.9505 199.357 69.9505C199.67 69.9505 199.93 69.8605 200.137 69.6805L200.387 70.1905C200.247 70.3172 200.077 70.4105 199.877 70.4705C199.684 70.5305 199.484 70.5605 199.277 70.5605ZM196.797 65.8505V65.2605H200.047V65.8505H196.797ZM201.347 71.9705L201.787 70.1205L201.867 70.5505C201.714 70.5505 201.584 70.5005 201.477 70.4005C201.377 70.3005 201.327 70.1705 201.327 70.0105C201.327 69.8505 201.377 69.7205 201.477 69.6205C201.584 69.5205 201.71 69.4705 201.857 69.4705C202.01 69.4705 202.134 69.5238 202.227 69.6305C202.327 69.7372 202.377 69.8638 202.377 70.0105C202.377 70.0638 202.374 70.1172 202.367 70.1705C202.36 70.2238 202.347 70.2838 202.327 70.3505C202.307 70.4172 202.28 70.4972 202.247 70.5905L201.827 71.9705H201.347ZM206.633 70.5105V64.6005C206.633 64.1338 206.77 63.7572 207.043 63.4705C207.317 63.1838 207.71 63.0405 208.223 63.0405C208.423 63.0405 208.617 63.0672 208.803 63.1205C208.99 63.1738 209.147 63.2572 209.273 63.3705L209.033 63.9005C208.933 63.8138 208.817 63.7505 208.683 63.7105C208.55 63.6638 208.407 63.6405 208.253 63.6405C207.953 63.6405 207.723 63.7238 207.563 63.8905C207.403 64.0572 207.323 64.3038 207.323 64.6305V65.4305L207.343 65.7605V70.5105H206.633ZM205.693 65.8505V65.2605H208.943V65.8505H205.693ZM211.954 70.5605C211.448 70.5605 210.991 70.4472 210.584 70.2205C210.184 69.9872 209.868 69.6705 209.634 69.2705C209.401 68.8638 209.284 68.4005 209.284 67.8805C209.284 67.3538 209.401 66.8905 209.634 66.4905C209.868 66.0905 210.184 65.7772 210.584 65.5505C210.984 65.3238 211.441 65.2105 211.954 65.2105C212.474 65.2105 212.934 65.3238 213.334 65.5505C213.741 65.7772 214.058 66.0905 214.284 66.4905C214.518 66.8905 214.634 67.3538 214.634 67.8805C214.634 68.4005 214.518 68.8638 214.284 69.2705C214.058 69.6705 213.741 69.9872 213.334 70.2205C212.928 70.4472 212.468 70.5605 211.954 70.5605ZM211.954 69.9305C212.334 69.9305 212.671 69.8472 212.964 69.6805C213.258 69.5072 213.488 69.2672 213.654 68.9605C213.828 68.6472 213.914 68.2872 213.914 67.8805C213.914 67.4672 213.828 67.1072 213.654 66.8005C213.488 66.4938 213.258 66.2572 212.964 66.0905C212.671 65.9172 212.338 65.8305 211.964 65.8305C211.591 65.8305 211.258 65.9172 210.964 66.0905C210.671 66.2572 210.438 66.4938 210.264 66.8005C210.091 67.1072 210.004 67.4672 210.004 67.8805C210.004 68.2872 210.091 68.6472 210.264 68.9605C210.438 69.2672 210.671 69.5072 210.964 69.6805C211.258 69.8472 211.588 69.9305 211.954 69.9305ZM216.084 70.5105V65.2605H216.764V66.6905L216.694 66.4405C216.84 66.0405 217.087 65.7372 217.434 65.5305C217.78 65.3172 218.21 65.2105 218.724 65.2105V65.9005C218.697 65.9005 218.67 65.9005 218.644 65.9005C218.617 65.8938 218.59 65.8905 218.564 65.8905C218.01 65.8905 217.577 66.0605 217.264 66.4005C216.95 66.7338 216.794 67.2105 216.794 67.8305V70.5105H216.084ZM225.395 65.2105C225.821 65.2105 226.195 65.2938 226.515 65.4605C226.841 65.6205 227.095 65.8672 227.275 66.2005C227.461 66.5338 227.555 66.9538 227.555 67.4605V70.5105H226.845V67.5305C226.845 66.9772 226.705 66.5605 226.425 66.2805C226.151 65.9938 225.765 65.8505 225.265 65.8505C224.891 65.8505 224.565 65.9272 224.285 66.0805C224.011 66.2272 223.798 66.4438 223.645 66.7305C223.498 67.0105 223.425 67.3505 223.425 67.7505V70.5105H222.715V65.2605H223.395V66.7005L223.285 66.4305C223.451 66.0505 223.718 65.7538 224.085 65.5405C224.451 65.3205 224.888 65.2105 225.395 65.2105ZM231.702 70.5605C231.156 70.5605 230.676 70.4472 230.262 70.2205C229.849 69.9872 229.526 69.6705 229.292 69.2705C229.059 68.8638 228.942 68.4005 228.942 67.8805C228.942 67.3605 229.052 66.9005 229.272 66.5005C229.499 66.1005 229.806 65.7872 230.192 65.5605C230.586 65.3272 231.026 65.2105 231.512 65.2105C232.006 65.2105 232.442 65.3238 232.822 65.5505C233.209 65.7705 233.512 66.0838 233.732 66.4905C233.952 66.8905 234.062 67.3538 234.062 67.8805C234.062 67.9138 234.059 67.9505 234.052 67.9905C234.052 68.0238 234.052 68.0605 234.052 68.1005H229.482V67.5705H233.672L233.392 67.7805C233.392 67.4005 233.309 67.0638 233.142 66.7705C232.982 66.4705 232.762 66.2372 232.482 66.0705C232.202 65.9038 231.879 65.8205 231.512 65.8205C231.152 65.8205 230.829 65.9038 230.542 66.0705C230.256 66.2372 230.032 66.4705 229.872 66.7705C229.712 67.0705 229.632 67.4138 229.632 67.8005V67.9105C229.632 68.3105 229.719 68.6638 229.892 68.9705C230.072 69.2705 230.319 69.5072 230.632 69.6805C230.952 69.8472 231.316 69.9305 231.722 69.9305C232.042 69.9305 232.339 69.8738 232.612 69.7605C232.892 69.6472 233.132 69.4738 233.332 69.2405L233.732 69.7005C233.499 69.9805 233.206 70.1938 232.852 70.3405C232.506 70.4872 232.122 70.5605 231.702 70.5605ZM234.561 70.5105L236.781 67.6305L236.771 67.9805L234.661 65.2605H235.461L237.191 67.5105L236.891 67.5005L238.621 65.2605H239.401L237.271 68.0105L237.281 67.6305L239.521 70.5105H238.711L236.881 68.1105L237.161 68.1505L235.361 70.5105H234.561ZM242.363 70.5605C241.87 70.5605 241.49 70.4272 241.223 70.1605C240.956 69.8938 240.823 69.5172 240.823 69.0305V64.1005H241.533V68.9905C241.533 69.2972 241.61 69.5338 241.763 69.7005C241.923 69.8672 242.15 69.9505 242.443 69.9505C242.756 69.9505 243.016 69.8605 243.223 69.6805L243.473 70.1905C243.333 70.3172 243.163 70.4105 242.963 70.4705C242.77 70.5305 242.57 70.5605 242.363 70.5605ZM239.883 65.8505V65.2605H243.133V65.8505H239.883ZM43.6961 88.5605C43.2361 88.5605 42.8228 88.4572 42.4561 88.2505C42.0894 88.0372 41.7994 87.7305 41.5861 87.3305C41.3728 86.9305 41.2661 86.4472 41.2661 85.8805C41.2661 85.3072 41.3728 84.8238 41.5861 84.4305C41.8061 84.0305 42.0994 83.7272 42.4661 83.5205C42.8328 83.3138 43.2428 83.2105 43.6961 83.2105C44.1961 83.2105 44.6428 83.3238 45.0361 83.5505C45.4361 83.7705 45.7494 84.0805 45.9761 84.4805C46.2028 84.8805 46.3161 85.3472 46.3161 85.8805C46.3161 86.4072 46.2028 86.8738 45.9761 87.2805C45.7494 87.6805 45.4361 87.9938 45.0361 88.2205C44.6428 88.4472 44.1961 88.5605 43.6961 88.5605ZM40.9861 88.5105V81.0905H41.6961V84.8105L41.5961 85.8705L41.6661 86.9305V88.5105H40.9861ZM43.6461 87.9305C44.0194 87.9305 44.3528 87.8472 44.6461 87.6805C44.9394 87.5072 45.1728 87.2672 45.3461 86.9605C45.5194 86.6472 45.6061 86.2872 45.6061 85.8805C45.6061 85.4672 45.5194 85.1072 45.3461 84.8005C45.1728 84.4938 44.9394 84.2572 44.6461 84.0905C44.3528 83.9172 44.0194 83.8305 43.6461 83.8305C43.2728 83.8305 42.9361 83.9172 42.6361 84.0905C42.3428 84.2572 42.1094 84.4938 41.9361 84.8005C41.7694 85.1072 41.6861 85.4672 41.6861 85.8805C41.6861 86.2872 41.7694 86.6472 41.9361 86.9605C42.1094 87.2672 42.3428 87.5072 42.6361 87.6805C42.9361 87.8472 43.2728 87.9305 43.6461 87.9305ZM49.9034 88.5605C49.3968 88.5605 48.9401 88.4472 48.5334 88.2205C48.1334 87.9872 47.8168 87.6705 47.5834 87.2705C47.3501 86.8638 47.2334 86.4005 47.2334 85.8805C47.2334 85.3538 47.3501 84.8905 47.5834 84.4905C47.8168 84.0905 48.1334 83.7772 48.5334 83.5505C48.9334 83.3238 49.3901 83.2105 49.9034 83.2105C50.4234 83.2105 50.8834 83.3238 51.2834 83.5505C51.6901 83.7772 52.0068 84.0905 52.2334 84.4905C52.4668 84.8905 52.5834 85.3538 52.5834 85.8805C52.5834 86.4005 52.4668 86.8638 52.2334 87.2705C52.0068 87.6705 51.6901 87.9872 51.2834 88.2205C50.8768 88.4472 50.4168 88.5605 49.9034 88.5605ZM49.9034 87.9305C50.2834 87.9305 50.6201 87.8472 50.9134 87.6805C51.2068 87.5072 51.4368 87.2672 51.6034 86.9605C51.7768 86.6472 51.8634 86.2872 51.8634 85.8805C51.8634 85.4672 51.7768 85.1072 51.6034 84.8005C51.4368 84.4938 51.2068 84.2572 50.9134 84.0905C50.6201 83.9172 50.2868 83.8305 49.9134 83.8305C49.5401 83.8305 49.2068 83.9172 48.9134 84.0905C48.6201 84.2572 48.3868 84.4938 48.2134 84.8005C48.0401 85.1072 47.9534 85.4672 47.9534 85.8805C47.9534 86.2872 48.0401 86.6472 48.2134 86.9605C48.3868 87.2672 48.6201 87.5072 48.9134 87.6805C49.2068 87.8472 49.5368 87.9305 49.9034 87.9305ZM56.173 88.5605C55.6663 88.5605 55.2096 88.4472 54.803 88.2205C54.403 87.9872 54.0863 87.6705 53.853 87.2705C53.6196 86.8638 53.503 86.4005 53.503 85.8805C53.503 85.3538 53.6196 84.8905 53.853 84.4905C54.0863 84.0905 54.403 83.7772 54.803 83.5505C55.203 83.3238 55.6596 83.2105 56.173 83.2105C56.693 83.2105 57.153 83.3238 57.553 83.5505C57.9596 83.7772 58.2763 84.0905 58.503 84.4905C58.7363 84.8905 58.853 85.3538 58.853 85.8805C58.853 86.4005 58.7363 86.8638 58.503 87.2705C58.2763 87.6705 57.9596 87.9872 57.553 88.2205C57.1463 88.4472 56.6863 88.5605 56.173 88.5605ZM56.173 87.9305C56.553 87.9305 56.8896 87.8472 57.183 87.6805C57.4763 87.5072 57.7063 87.2672 57.873 86.9605C58.0463 86.6472 58.133 86.2872 58.133 85.8805C58.133 85.4672 58.0463 85.1072 57.873 84.8005C57.7063 84.4938 57.4763 84.2572 57.183 84.0905C56.8896 83.9172 56.5563 83.8305 56.183 83.8305C55.8096 83.8305 55.4763 83.9172 55.183 84.0905C54.8896 84.2572 54.6563 84.4938 54.483 84.8005C54.3096 85.1072 54.223 85.4672 54.223 85.8805C54.223 86.2872 54.3096 86.6472 54.483 86.9605C54.6563 87.2672 54.8896 87.5072 55.183 87.6805C55.4763 87.8472 55.8063 87.9305 56.173 87.9305ZM60.8625 87.1505L60.8825 86.2405L64.1525 83.2605H65.0225L62.7125 85.4705L62.3125 85.8105L60.8625 87.1505ZM60.3025 88.5105V81.0905H61.0125V88.5105H60.3025ZM64.3725 88.5105L62.1825 85.7805L62.6425 85.2305L65.2425 88.5105H64.3725ZM66.3084 88.5105V83.2605H67.0184V88.5105H66.3084ZM66.6684 82.1005C66.5217 82.1005 66.3984 82.0505 66.2984 81.9505C66.1984 81.8505 66.1484 81.7305 66.1484 81.5905C66.1484 81.4505 66.1984 81.3338 66.2984 81.2405C66.3984 81.1405 66.5217 81.0905 66.6684 81.0905C66.815 81.0905 66.9384 81.1372 67.0384 81.2305C67.1384 81.3238 67.1884 81.4405 67.1884 81.5805C67.1884 81.7272 67.1384 81.8505 67.0384 81.9505C66.945 82.0505 66.8217 82.1005 66.6684 82.1005ZM71.6739 83.2105C72.1006 83.2105 72.4739 83.2938 72.7939 83.4605C73.1206 83.6205 73.3739 83.8672 73.5539 84.2005C73.7406 84.5338 73.8339 84.9538 73.8339 85.4605V88.5105H73.1239V85.5305C73.1239 84.9772 72.9839 84.5605 72.7039 84.2805C72.4306 83.9938 72.0439 83.8505 71.5439 83.8505C71.1706 83.8505 70.8439 83.9272 70.5639 84.0805C70.2906 84.2272 70.0772 84.4438 69.9239 84.7305C69.7772 85.0105 69.7039 85.3505 69.7039 85.7505V88.5105H68.9939V83.2605H69.6739V84.7005L69.5639 84.4305C69.7306 84.0505 69.9972 83.7538 70.3639 83.5405C70.7306 83.3205 71.1672 83.2105 71.6739 83.2105ZM77.9917 90.5005C77.5117 90.5005 77.0517 90.4305 76.6117 90.2905C76.1717 90.1505 75.8151 89.9505 75.5417 89.6905L75.9017 89.1505C76.1484 89.3705 76.4517 89.5438 76.8117 89.6705C77.1784 89.8038 77.5651 89.8705 77.9717 89.8705C78.6384 89.8705 79.1284 89.7138 79.4417 89.4005C79.7551 89.0938 79.9117 88.6138 79.9117 87.9605V86.6505L80.0117 85.7505L79.9417 84.8505V83.2605H80.6217V87.8705C80.6217 88.7772 80.3984 89.4405 79.9517 89.8605C79.5117 90.2872 78.8584 90.5005 77.9917 90.5005ZM77.8617 88.3105C77.3617 88.3105 76.9117 88.2038 76.5117 87.9905C76.1117 87.7705 75.7951 87.4672 75.5617 87.0805C75.3351 86.6938 75.2217 86.2505 75.2217 85.7505C75.2217 85.2505 75.3351 84.8105 75.5617 84.4305C75.7951 84.0438 76.1117 83.7438 76.5117 83.5305C76.9117 83.3172 77.3617 83.2105 77.8617 83.2105C78.3284 83.2105 78.7484 83.3072 79.1217 83.5005C79.4951 83.6938 79.7917 83.9805 80.0117 84.3605C80.2317 84.7405 80.3417 85.2038 80.3417 85.7505C80.3417 86.2972 80.2317 86.7605 80.0117 87.1405C79.7917 87.5205 79.4951 87.8105 79.1217 88.0105C78.7484 88.2105 78.3284 88.3105 77.8617 88.3105ZM77.9317 87.6805C78.3184 87.6805 78.6617 87.6005 78.9617 87.4405C79.2617 87.2738 79.4984 87.0472 79.6717 86.7605C79.8451 86.4672 79.9317 86.1305 79.9317 85.7505C79.9317 85.3705 79.8451 85.0372 79.6717 84.7505C79.4984 84.4638 79.2617 84.2405 78.9617 84.0805C78.6617 83.9138 78.3184 83.8305 77.9317 83.8305C77.5517 83.8305 77.2084 83.9138 76.9017 84.0805C76.6017 84.2405 76.3651 84.4638 76.1917 84.7505C76.0251 85.0372 75.9417 85.3705 75.9417 85.7505C75.9417 86.1305 76.0251 86.4672 76.1917 86.7605C76.3651 87.0472 76.6017 87.2738 76.9017 87.4405C77.2084 87.6005 77.5517 87.6805 77.9317 87.6805ZM86.2846 88.5105L84.3046 83.2605H84.9846L86.7846 88.1305H86.4746L88.3246 83.2605H88.9346L90.7646 88.1305H90.4546L92.2846 83.2605H92.9346L90.9446 88.5105H90.2746L88.5146 83.9305H88.7246L86.9546 88.5105H86.2846ZM96.0872 88.5605C95.5405 88.5605 95.0605 88.4472 94.6472 88.2205C94.2339 87.9872 93.9105 87.6705 93.6772 87.2705C93.4439 86.8638 93.3272 86.4005 93.3272 85.8805C93.3272 85.3605 93.4372 84.9005 93.6572 84.5005C93.8839 84.1005 94.1905 83.7872 94.5772 83.5605C94.9705 83.3272 95.4105 83.2105 95.8972 83.2105C96.3905 83.2105 96.8272 83.3238 97.2072 83.5505C97.5939 83.7705 97.8972 84.0838 98.1172 84.4905C98.3372 84.8905 98.4472 85.3538 98.4472 85.8805C98.4472 85.9138 98.4439 85.9505 98.4372 85.9905C98.4372 86.0238 98.4372 86.0605 98.4372 86.1005H93.8672V85.5705H98.0572L97.7772 85.7805C97.7772 85.4005 97.6939 85.0638 97.5272 84.7705C97.3672 84.4705 97.1472 84.2372 96.8672 84.0705C96.5872 83.9038 96.2639 83.8205 95.8972 83.8205C95.5372 83.8205 95.2139 83.9038 94.9272 84.0705C94.6405 84.2372 94.4172 84.4705 94.2572 84.7705C94.0972 85.0705 94.0172 85.4138 94.0172 85.8005V85.9105C94.0172 86.3105 94.1039 86.6638 94.2772 86.9705C94.4572 87.2705 94.7039 87.5072 95.0172 87.6805C95.3372 87.8472 95.7005 87.9305 96.1072 87.9305C96.4272 87.9305 96.7239 87.8738 96.9972 87.7605C97.2772 87.6472 97.5172 87.4738 97.7172 87.2405L98.1172 87.7005C97.8839 87.9805 97.5905 88.1938 97.2372 88.3405C96.8905 88.4872 96.5072 88.5605 96.0872 88.5605ZM104.65 88.5605C104.143 88.5605 103.686 88.4472 103.28 88.2205C102.88 87.9872 102.563 87.6705 102.33 87.2705C102.096 86.8638 101.98 86.4005 101.98 85.8805C101.98 85.3538 102.096 84.8905 102.33 84.4905C102.563 84.0905 102.88 83.7772 103.28 83.5505C103.68 83.3238 104.136 83.2105 104.65 83.2105C105.17 83.2105 105.63 83.3238 106.03 83.5505C106.436 83.7772 106.753 84.0905 106.98 84.4905C107.213 84.8905 107.33 85.3538 107.33 85.8805C107.33 86.4005 107.213 86.8638 106.98 87.2705C106.753 87.6705 106.436 87.9872 106.03 88.2205C105.623 88.4472 105.163 88.5605 104.65 88.5605ZM104.65 87.9305C105.03 87.9305 105.366 87.8472 105.66 87.6805C105.953 87.5072 106.183 87.2672 106.35 86.9605C106.523 86.6472 106.61 86.2872 106.61 85.8805C106.61 85.4672 106.523 85.1072 106.35 84.8005C106.183 84.4938 105.953 84.2572 105.66 84.0905C105.366 83.9172 105.033 83.8305 104.66 83.8305C104.286 83.8305 103.953 83.9172 103.66 84.0905C103.366 84.2572 103.133 84.4938 102.96 84.8005C102.786 85.1072 102.7 85.4672 102.7 85.8805C102.7 86.2872 102.786 86.6472 102.96 86.9605C103.133 87.2672 103.366 87.5072 103.66 87.6805C103.953 87.8472 104.283 87.9305 104.65 87.9305ZM108.899 88.5105V82.6005C108.899 82.1338 109.036 81.7572 109.309 81.4705C109.582 81.1838 109.976 81.0405 110.489 81.0405C110.689 81.0405 110.882 81.0672 111.069 81.1205C111.256 81.1738 111.412 81.2572 111.539 81.3705L111.299 81.9005C111.199 81.8138 111.082 81.7505 110.949 81.7105C110.816 81.6638 110.672 81.6405 110.519 81.6405C110.219 81.6405 109.989 81.7238 109.829 81.8905C109.669 82.0572 109.589 82.3038 109.589 82.6305V83.4305L109.609 83.7605V88.5105H108.899ZM107.959 83.8505V83.2605H111.209V83.8505H107.959ZM112.307 88.5105V82.6005C112.307 82.1338 112.444 81.7572 112.717 81.4705C112.991 81.1838 113.384 81.0405 113.897 81.0405C114.097 81.0405 114.291 81.0672 114.477 81.1205C114.664 81.1738 114.821 81.2572 114.947 81.3705L114.707 81.9005C114.607 81.8138 114.491 81.7505 114.357 81.7105C114.224 81.6638 114.081 81.6405 113.927 81.6405C113.627 81.6405 113.397 81.7238 113.237 81.8905C113.077 82.0572 112.997 82.3038 112.997 82.6305V83.4305L113.017 83.7605V88.5105H112.307ZM111.367 83.8505V83.2605H114.617V83.8505H111.367ZM117.718 88.5605C117.171 88.5605 116.691 88.4472 116.278 88.2205C115.865 87.9872 115.541 87.6705 115.308 87.2705C115.075 86.8638 114.958 86.4005 114.958 85.8805C114.958 85.3605 115.068 84.9005 115.288 84.5005C115.515 84.1005 115.821 83.7872 116.208 83.5605C116.601 83.3272 117.041 83.2105 117.528 83.2105C118.021 83.2105 118.458 83.3238 118.838 83.5505C119.225 83.7705 119.528 84.0838 119.748 84.4905C119.968 84.8905 120.078 85.3538 120.078 85.8805C120.078 85.9138 120.075 85.9505 120.068 85.9905C120.068 86.0238 120.068 86.0605 120.068 86.1005H115.498V85.5705H119.688L119.408 85.7805C119.408 85.4005 119.325 85.0638 119.158 84.7705C118.998 84.4705 118.778 84.2372 118.498 84.0705C118.218 83.9038 117.895 83.8205 117.528 83.8205C117.168 83.8205 116.845 83.9038 116.558 84.0705C116.271 84.2372 116.048 84.4705 115.888 84.7705C115.728 85.0705 115.648 85.4138 115.648 85.8005V85.9105C115.648 86.3105 115.735 86.6638 115.908 86.9705C116.088 87.2705 116.335 87.5072 116.648 87.6805C116.968 87.8472 117.331 87.9305 117.738 87.9305C118.058 87.9305 118.355 87.8738 118.628 87.7605C118.908 87.6472 119.148 87.4738 119.348 87.2405L119.748 87.7005C119.515 87.9805 119.221 88.1938 118.868 88.3405C118.521 88.4872 118.138 88.5605 117.718 88.5605ZM121.523 88.5105V83.2605H122.203V84.6905L122.133 84.4405C122.28 84.0405 122.527 83.7372 122.873 83.5305C123.22 83.3172 123.65 83.2105 124.163 83.2105V83.9005C124.137 83.9005 124.11 83.9005 124.083 83.9005C124.057 83.8938 124.03 83.8905 124.003 83.8905C123.45 83.8905 123.017 84.0605 122.703 84.4005C122.39 84.7338 122.233 85.2105 122.233 85.8305V88.5105H121.523ZM128.904 88.5105V81.8105L129.224 82.1505H127.254V81.5105H129.624V88.5105H128.904ZM134.087 88.5705C133.547 88.5705 133.067 88.4305 132.647 88.1505C132.227 87.8638 131.897 87.4572 131.657 86.9305C131.417 86.3972 131.297 85.7572 131.297 85.0105C131.297 84.2638 131.417 83.6272 131.657 83.1005C131.897 82.5672 132.227 82.1605 132.647 81.8805C133.067 81.5938 133.547 81.4505 134.087 81.4505C134.627 81.4505 135.107 81.5938 135.527 81.8805C135.947 82.1605 136.277 82.5672 136.517 83.1005C136.764 83.6272 136.887 84.2638 136.887 85.0105C136.887 85.7572 136.764 86.3972 136.517 86.9305C136.277 87.4572 135.947 87.8638 135.527 88.1505C135.107 88.4305 134.627 88.5705 134.087 88.5705ZM134.087 87.9105C134.501 87.9105 134.861 87.8005 135.167 87.5805C135.474 87.3538 135.714 87.0272 135.887 86.6005C136.061 86.1672 136.147 85.6372 136.147 85.0105C136.147 84.3838 136.061 83.8572 135.887 83.4305C135.714 82.9972 135.474 82.6705 135.167 82.4505C134.861 82.2238 134.501 82.1105 134.087 82.1105C133.687 82.1105 133.331 82.2238 133.017 82.4505C132.704 82.6705 132.461 82.9972 132.287 83.4305C132.114 83.8572 132.027 84.3838 132.027 85.0105C132.027 85.6372 132.114 86.1672 132.287 86.6005C132.461 87.0272 132.704 87.3538 133.017 87.5805C133.331 87.8005 133.687 87.9105 134.087 87.9105ZM138.858 88.5105L143.638 81.5105H144.228L139.448 88.5105H138.858ZM139.398 85.2605C139.085 85.2605 138.808 85.1838 138.568 85.0305C138.328 84.8705 138.142 84.6472 138.008 84.3605C137.882 84.0738 137.818 83.7405 137.818 83.3605C137.818 82.9805 137.882 82.6472 138.008 82.3605C138.142 82.0738 138.328 81.8538 138.568 81.7005C138.808 81.5405 139.085 81.4605 139.398 81.4605C139.712 81.4605 139.985 81.5405 140.218 81.7005C140.458 81.8538 140.645 82.0738 140.778 82.3605C140.912 82.6472 140.978 82.9805 140.978 83.3605C140.978 83.7405 140.912 84.0738 140.778 84.3605C140.645 84.6472 140.458 84.8705 140.218 85.0305C139.985 85.1838 139.712 85.2605 139.398 85.2605ZM139.398 84.8105C139.725 84.8105 139.985 84.6838 140.178 84.4305C140.378 84.1705 140.478 83.8138 140.478 83.3605C140.478 82.9072 140.378 82.5538 140.178 82.3005C139.985 82.0405 139.725 81.9105 139.398 81.9105C139.065 81.9105 138.802 82.0405 138.608 82.3005C138.415 82.5538 138.318 82.9072 138.318 83.3605C138.318 83.8138 138.415 84.1705 138.608 84.4305C138.802 84.6838 139.065 84.8105 139.398 84.8105ZM143.688 88.5605C143.382 88.5605 143.108 88.4838 142.868 88.3305C142.628 88.1705 142.442 87.9472 142.308 87.6605C142.175 87.3738 142.108 87.0405 142.108 86.6605C142.108 86.2805 142.175 85.9472 142.308 85.6605C142.442 85.3738 142.628 85.1538 142.868 85.0005C143.108 84.8405 143.382 84.7605 143.688 84.7605C144.008 84.7605 144.285 84.8405 144.518 85.0005C144.758 85.1538 144.942 85.3738 145.068 85.6605C145.202 85.9472 145.268 86.2805 145.268 86.6605C145.268 87.0405 145.202 87.3738 145.068 87.6605C144.942 87.9472 144.758 88.1705 144.518 88.3305C144.285 88.4838 144.008 88.5605 143.688 88.5605ZM143.688 88.1105C144.015 88.1105 144.275 87.9838 144.468 87.7305C144.668 87.4705 144.768 87.1138 144.768 86.6605C144.768 86.2072 144.668 85.8538 144.468 85.6005C144.275 85.3405 144.015 85.2105 143.688 85.2105C143.362 85.2105 143.098 85.3405 142.898 85.6005C142.705 85.8538 142.608 86.2072 142.608 86.6605C142.608 87.1138 142.705 87.4705 142.898 87.7305C143.098 87.9838 143.362 88.1105 143.688 88.1105ZM151.387 88.5605C150.887 88.5605 150.437 88.4472 150.037 88.2205C149.643 87.9938 149.333 87.6805 149.107 87.2805C148.88 86.8738 148.767 86.4072 148.767 85.8805C148.767 85.3472 148.88 84.8805 149.107 84.4805C149.333 84.0805 149.643 83.7705 150.037 83.5505C150.437 83.3238 150.887 83.2105 151.387 83.2105C151.847 83.2105 152.257 83.3138 152.617 83.5205C152.983 83.7272 153.273 84.0305 153.487 84.4305C153.707 84.8238 153.817 85.3072 153.817 85.8805C153.817 86.4472 153.71 86.9305 153.497 87.3305C153.283 87.7305 152.993 88.0372 152.627 88.2505C152.267 88.4572 151.853 88.5605 151.387 88.5605ZM151.437 87.9305C151.81 87.9305 152.143 87.8472 152.437 87.6805C152.737 87.5072 152.97 87.2672 153.137 86.9605C153.31 86.6472 153.397 86.2872 153.397 85.8805C153.397 85.4672 153.31 85.1072 153.137 84.8005C152.97 84.4938 152.737 84.2572 152.437 84.0905C152.143 83.9172 151.81 83.8305 151.437 83.8305C151.07 83.8305 150.74 83.9172 150.447 84.0905C150.153 84.2572 149.92 84.4938 149.747 84.8005C149.573 85.1072 149.487 85.4672 149.487 85.8805C149.487 86.2872 149.573 86.6472 149.747 86.9605C149.92 87.2672 150.153 87.5072 150.447 87.6805C150.74 87.8472 151.07 87.9305 151.437 87.9305ZM153.417 88.5105V86.9305L153.487 85.8705L153.387 84.8105V81.0905H154.097V88.5105H153.417ZM156.074 88.5105V83.2605H156.784V88.5105H156.074ZM156.434 82.1005C156.287 82.1005 156.164 82.0505 156.064 81.9505C155.964 81.8505 155.914 81.7305 155.914 81.5905C155.914 81.4505 155.964 81.3338 156.064 81.2405C156.164 81.1405 156.287 81.0905 156.434 81.0905C156.581 81.0905 156.704 81.1372 156.804 81.2305C156.904 81.3238 156.954 81.4405 156.954 81.5805C156.954 81.7272 156.904 81.8505 156.804 81.9505C156.711 82.0505 156.587 82.1005 156.434 82.1005ZM160.17 88.5605C159.736 88.5605 159.326 88.5005 158.94 88.3805C158.553 88.2538 158.25 88.0972 158.03 87.9105L158.35 87.3505C158.563 87.5105 158.836 87.6505 159.17 87.7705C159.503 87.8838 159.853 87.9405 160.22 87.9405C160.72 87.9405 161.08 87.8638 161.3 87.7105C161.52 87.5505 161.63 87.3405 161.63 87.0805C161.63 86.8872 161.566 86.7372 161.44 86.6305C161.32 86.5172 161.16 86.4338 160.96 86.3805C160.76 86.3205 160.536 86.2705 160.29 86.2305C160.043 86.1905 159.796 86.1438 159.55 86.0905C159.31 86.0372 159.09 85.9605 158.89 85.8605C158.69 85.7538 158.526 85.6105 158.4 85.4305C158.28 85.2505 158.22 85.0105 158.22 84.7105C158.22 84.4238 158.3 84.1672 158.46 83.9405C158.62 83.7138 158.853 83.5372 159.16 83.4105C159.473 83.2772 159.853 83.2105 160.3 83.2105C160.64 83.2105 160.98 83.2572 161.32 83.3505C161.66 83.4372 161.94 83.5538 162.16 83.7005L161.85 84.2705C161.616 84.1105 161.366 83.9972 161.1 83.9305C160.833 83.8572 160.566 83.8205 160.3 83.8205C159.826 83.8205 159.476 83.9038 159.25 84.0705C159.03 84.2305 158.92 84.4372 158.92 84.6905C158.92 84.8905 158.98 85.0472 159.1 85.1605C159.226 85.2738 159.39 85.3638 159.59 85.4305C159.796 85.4905 160.02 85.5405 160.26 85.5805C160.506 85.6205 160.75 85.6705 160.99 85.7305C161.236 85.7838 161.46 85.8605 161.66 85.9605C161.866 86.0538 162.03 86.1905 162.15 86.3705C162.276 86.5438 162.34 86.7738 162.34 87.0605C162.34 87.3672 162.253 87.6338 162.08 87.8605C161.913 88.0805 161.666 88.2538 161.34 88.3805C161.02 88.5005 160.63 88.5605 160.17 88.5605ZM165.822 88.5605C165.302 88.5605 164.836 88.4472 164.422 88.2205C164.016 87.9872 163.696 87.6705 163.462 87.2705C163.229 86.8638 163.112 86.4005 163.112 85.8805C163.112 85.3538 163.229 84.8905 163.462 84.4905C163.696 84.0905 164.016 83.7772 164.422 83.5505C164.836 83.3238 165.302 83.2105 165.822 83.2105C166.269 83.2105 166.672 83.2972 167.032 83.4705C167.392 83.6438 167.676 83.9038 167.882 84.2505L167.352 84.6105C167.172 84.3438 166.949 84.1472 166.682 84.0205C166.416 83.8938 166.126 83.8305 165.812 83.8305C165.439 83.8305 165.102 83.9172 164.802 84.0905C164.502 84.2572 164.266 84.4938 164.092 84.8005C163.919 85.1072 163.832 85.4672 163.832 85.8805C163.832 86.2938 163.919 86.6538 164.092 86.9605C164.266 87.2672 164.502 87.5072 164.802 87.6805C165.102 87.8472 165.439 87.9305 165.812 87.9305C166.126 87.9305 166.416 87.8672 166.682 87.7405C166.949 87.6138 167.172 87.4205 167.352 87.1605L167.882 87.5205C167.676 87.8605 167.392 88.1205 167.032 88.3005C166.672 88.4738 166.269 88.5605 165.822 88.5605ZM171.329 88.5605C170.823 88.5605 170.366 88.4472 169.959 88.2205C169.559 87.9872 169.243 87.6705 169.009 87.2705C168.776 86.8638 168.659 86.4005 168.659 85.8805C168.659 85.3538 168.776 84.8905 169.009 84.4905C169.243 84.0905 169.559 83.7772 169.959 83.5505C170.359 83.3238 170.816 83.2105 171.329 83.2105C171.849 83.2105 172.309 83.3238 172.709 83.5505C173.116 83.7772 173.433 84.0905 173.659 84.4905C173.893 84.8905 174.009 85.3538 174.009 85.8805C174.009 86.4005 173.893 86.8638 173.659 87.2705C173.433 87.6705 173.116 87.9872 172.709 88.2205C172.303 88.4472 171.843 88.5605 171.329 88.5605ZM171.329 87.9305C171.709 87.9305 172.046 87.8472 172.339 87.6805C172.633 87.5072 172.863 87.2672 173.029 86.9605C173.203 86.6472 173.289 86.2872 173.289 85.8805C173.289 85.4672 173.203 85.1072 173.029 84.8005C172.863 84.4938 172.633 84.2572 172.339 84.0905C172.046 83.9172 171.713 83.8305 171.339 83.8305C170.966 83.8305 170.633 83.9172 170.339 84.0905C170.046 84.2572 169.813 84.4938 169.639 84.8005C169.466 85.1072 169.379 85.4672 169.379 85.8805C169.379 86.2872 169.466 86.6472 169.639 86.9605C169.813 87.2672 170.046 87.5072 170.339 87.6805C170.633 87.8472 170.963 87.9305 171.329 87.9305ZM177.629 88.5605C177.182 88.5605 176.792 88.4772 176.459 88.3105C176.125 88.1438 175.865 87.8938 175.679 87.5605C175.499 87.2272 175.409 86.8105 175.409 86.3105V83.2605H176.119V86.2305C176.119 86.7905 176.255 87.2138 176.529 87.5005C176.809 87.7805 177.199 87.9205 177.699 87.9205C178.065 87.9205 178.382 87.8472 178.649 87.7005C178.922 87.5472 179.129 87.3272 179.269 87.0405C179.415 86.7538 179.489 86.4105 179.489 86.0105V83.2605H180.199V88.5105H179.519V87.0705L179.629 87.3305C179.462 87.7172 179.202 88.0205 178.849 88.2405C178.502 88.4538 178.095 88.5605 177.629 88.5605ZM184.858 83.2105C185.284 83.2105 185.658 83.2938 185.978 83.4605C186.304 83.6205 186.558 83.8672 186.738 84.2005C186.924 84.5338 187.018 84.9538 187.018 85.4605V88.5105H186.308V85.5305C186.308 84.9772 186.168 84.5605 185.888 84.2805C185.614 83.9938 185.228 83.8505 184.728 83.8505C184.354 83.8505 184.028 83.9272 183.748 84.0805C183.474 84.2272 183.261 84.4438 183.108 84.7305C182.961 85.0105 182.888 85.3505 182.888 85.7505V88.5105H182.178V83.2605H182.858V84.7005L182.748 84.4305C182.914 84.0505 183.181 83.7538 183.548 83.5405C183.914 83.3205 184.351 83.2105 184.858 83.2105ZM190.595 88.5605C190.102 88.5605 189.722 88.4272 189.455 88.1605C189.189 87.8938 189.055 87.5172 189.055 87.0305V82.1005H189.765V86.9905C189.765 87.2972 189.842 87.5338 189.995 87.7005C190.155 87.8672 190.382 87.9505 190.675 87.9505C190.989 87.9505 191.249 87.8605 191.455 87.6805L191.705 88.1905C191.565 88.3172 191.395 88.4105 191.195 88.4705C191.002 88.5305 190.802 88.5605 190.595 88.5605ZM188.115 83.8505V83.2605H191.365V83.8505H188.115ZM196.965 88.5105L194.635 83.2605H195.375L197.515 88.1305H197.165L199.335 83.2605H200.035L197.695 88.5105H196.965ZM201.035 88.5105V83.2605H201.745V88.5105H201.035ZM201.395 82.1005C201.248 82.1005 201.125 82.0505 201.025 81.9505C200.925 81.8505 200.875 81.7305 200.875 81.5905C200.875 81.4505 200.925 81.3338 201.025 81.2405C201.125 81.1405 201.248 81.0905 201.395 81.0905C201.542 81.0905 201.665 81.1372 201.765 81.2305C201.865 81.3238 201.915 81.4405 201.915 81.5805C201.915 81.7272 201.865 81.8505 201.765 81.9505C201.672 82.0505 201.548 82.1005 201.395 82.1005ZM207.01 88.5105V87.3505L206.98 87.1605V85.2205C206.98 84.7738 206.854 84.4305 206.6 84.1905C206.354 83.9505 205.984 83.8305 205.49 83.8305C205.15 83.8305 204.827 83.8872 204.52 84.0005C204.214 84.1138 203.954 84.2638 203.74 84.4505L203.42 83.9205C203.687 83.6938 204.007 83.5205 204.38 83.4005C204.754 83.2738 205.147 83.2105 205.56 83.2105C206.24 83.2105 206.764 83.3805 207.13 83.7205C207.504 84.0538 207.69 84.5638 207.69 85.2505V88.5105H207.01ZM205.2 88.5605C204.807 88.5605 204.464 88.4972 204.17 88.3705C203.884 88.2372 203.664 88.0572 203.51 87.8305C203.357 87.5972 203.28 87.3305 203.28 87.0305C203.28 86.7572 203.344 86.5105 203.47 86.2905C203.604 86.0638 203.817 85.8838 204.11 85.7505C204.41 85.6105 204.81 85.5405 205.31 85.5405H207.12V86.0705H205.33C204.824 86.0705 204.47 86.1605 204.27 86.3405C204.077 86.5205 203.98 86.7438 203.98 87.0105C203.98 87.3105 204.097 87.5505 204.33 87.7305C204.564 87.9105 204.89 88.0005 205.31 88.0005C205.71 88.0005 206.054 87.9105 206.34 87.7305C206.634 87.5438 206.847 87.2772 206.98 86.9305L207.14 87.4205C207.007 87.7672 206.774 88.0438 206.44 88.2505C206.114 88.4572 205.7 88.5605 205.2 88.5605ZM214.376 88.5605C213.869 88.5605 213.413 88.4472 213.006 88.2205C212.606 87.9872 212.289 87.6705 212.056 87.2705C211.823 86.8638 211.706 86.4005 211.706 85.8805C211.706 85.3538 211.823 84.8905 212.056 84.4905C212.289 84.0905 212.606 83.7772 213.006 83.5505C213.406 83.3238 213.863 83.2105 214.376 83.2105C214.896 83.2105 215.356 83.3238 215.756 83.5505C216.163 83.7772 216.479 84.0905 216.706 84.4905C216.939 84.8905 217.056 85.3538 217.056 85.8805C217.056 86.4005 216.939 86.8638 216.706 87.2705C216.479 87.6705 216.163 87.9872 215.756 88.2205C215.349 88.4472 214.889 88.5605 214.376 88.5605ZM214.376 87.9305C214.756 87.9305 215.093 87.8472 215.386 87.6805C215.679 87.5072 215.909 87.2672 216.076 86.9605C216.249 86.6472 216.336 86.2872 216.336 85.8805C216.336 85.4672 216.249 85.1072 216.076 84.8005C215.909 84.4938 215.679 84.2572 215.386 84.0905C215.093 83.9172 214.759 83.8305 214.386 83.8305C214.013 83.8305 213.679 83.9172 213.386 84.0905C213.093 84.2572 212.859 84.4938 212.686 84.8005C212.513 85.1072 212.426 85.4672 212.426 85.8805C212.426 86.2872 212.513 86.6472 212.686 86.9605C212.859 87.2672 213.093 87.5072 213.386 87.6805C213.679 87.8472 214.009 87.9305 214.376 87.9305ZM220.676 88.5605C220.229 88.5605 219.839 88.4772 219.506 88.3105C219.172 88.1438 218.912 87.8938 218.726 87.5605C218.546 87.2272 218.456 86.8105 218.456 86.3105V83.2605H219.166V86.2305C219.166 86.7905 219.302 87.2138 219.576 87.5005C219.856 87.7805 220.246 87.9205 220.746 87.9205C221.112 87.9205 221.429 87.8472 221.696 87.7005C221.969 87.5472 222.176 87.3272 222.316 87.0405C222.462 86.7538 222.536 86.4105 222.536 86.0105V83.2605H223.246V88.5105H222.566V87.0705L222.676 87.3305C222.509 87.7172 222.249 88.0205 221.896 88.2405C221.549 88.4538 221.142 88.5605 220.676 88.5605ZM225.224 88.5105V83.2605H225.904V84.6905L225.834 84.4405C225.981 84.0405 226.228 83.7372 226.574 83.5305C226.921 83.3172 227.351 83.2105 227.864 83.2105V83.9005C227.838 83.9005 227.811 83.9005 227.784 83.9005C227.758 83.8938 227.731 83.8905 227.704 83.8905C227.151 83.8905 226.718 84.0605 226.404 84.4005C226.091 84.7338 225.934 85.2105 225.934 85.8305V88.5105H225.224ZM42.0561 106.51L40.0761 101.26H40.7561L42.5561 106.13H42.2461L44.0961 101.26H44.7061L46.5361 106.13H46.2261L48.0561 101.26H48.7061L46.7161 106.51H46.0461L44.2861 101.93H44.4961L42.7261 106.51H42.0561ZM51.8587 106.56C51.312 106.56 50.832 106.447 50.4187 106.22C50.0053 105.987 49.682 105.67 49.4487 105.27C49.2153 104.864 49.0987 104.4 49.0987 103.88C49.0987 103.36 49.2087 102.9 49.4287 102.5C49.6553 102.1 49.962 101.787 50.3487 101.56C50.742 101.327 51.182 101.21 51.6687 101.21C52.162 101.21 52.5987 101.324 52.9787 101.55C53.3653 101.77 53.6687 102.084 53.8887 102.49C54.1087 102.89 54.2187 103.354 54.2187 103.88C54.2187 103.914 54.2153 103.95 54.2087 103.99C54.2087 104.024 54.2087 104.06 54.2087 104.1H49.6387V103.57H53.8287L53.5487 103.78C53.5487 103.4 53.4653 103.064 53.2987 102.77C53.1387 102.47 52.9187 102.237 52.6387 102.07C52.3587 101.904 52.0353 101.82 51.6687 101.82C51.3087 101.82 50.9853 101.904 50.6987 102.07C50.412 102.237 50.1887 102.47 50.0287 102.77C49.8687 103.07 49.7887 103.414 49.7887 103.8V103.91C49.7887 104.31 49.8753 104.664 50.0487 104.97C50.2287 105.27 50.4753 105.507 50.7887 105.68C51.1087 105.847 51.472 105.93 51.8787 105.93C52.1987 105.93 52.4953 105.874 52.7687 105.76C53.0487 105.647 53.2887 105.474 53.4887 105.24L53.8887 105.7C53.6553 105.98 53.362 106.194 53.0087 106.34C52.662 106.487 52.2787 106.56 51.8587 106.56ZM58.3738 106.56C57.9138 106.56 57.5005 106.457 57.1338 106.25C56.7672 106.037 56.4772 105.73 56.2638 105.33C56.0505 104.93 55.9438 104.447 55.9438 103.88C55.9438 103.307 56.0505 102.824 56.2638 102.43C56.4838 102.03 56.7772 101.727 57.1438 101.52C57.5105 101.314 57.9205 101.21 58.3738 101.21C58.8738 101.21 59.3205 101.324 59.7138 101.55C60.1138 101.77 60.4272 102.08 60.6538 102.48C60.8805 102.88 60.9938 103.347 60.9938 103.88C60.9938 104.407 60.8805 104.874 60.6538 105.28C60.4272 105.68 60.1138 105.994 59.7138 106.22C59.3205 106.447 58.8738 106.56 58.3738 106.56ZM55.6638 106.51V99.0905H56.3738V102.81L56.2738 103.87L56.3438 104.93V106.51H55.6638ZM58.3238 105.93C58.6972 105.93 59.0305 105.847 59.3238 105.68C59.6172 105.507 59.8505 105.267 60.0238 104.96C60.1972 104.647 60.2838 104.287 60.2838 103.88C60.2838 103.467 60.1972 103.107 60.0238 102.8C59.8505 102.494 59.6172 102.257 59.3238 102.09C59.0305 101.917 58.6972 101.83 58.3238 101.83C57.9505 101.83 57.6138 101.917 57.3138 102.09C57.0205 102.257 56.7872 102.494 56.6138 102.8C56.4472 103.107 56.3638 103.467 56.3638 103.88C56.3638 104.287 56.4472 104.647 56.6138 104.96C56.7872 105.267 57.0205 105.507 57.3138 105.68C57.6138 105.847 57.9505 105.93 58.3238 105.93ZM63.8512 106.56C63.4178 106.56 63.0078 106.5 62.6212 106.38C62.2345 106.254 61.9312 106.097 61.7112 105.91L62.0312 105.35C62.2445 105.51 62.5178 105.65 62.8512 105.77C63.1845 105.884 63.5345 105.94 63.9012 105.94C64.4012 105.94 64.7612 105.864 64.9812 105.71C65.2012 105.55 65.3112 105.34 65.3112 105.08C65.3112 104.887 65.2478 104.737 65.1212 104.63C65.0012 104.517 64.8412 104.434 64.6412 104.38C64.4412 104.32 64.2178 104.27 63.9712 104.23C63.7245 104.19 63.4778 104.144 63.2312 104.09C62.9912 104.037 62.7712 103.96 62.5712 103.86C62.3712 103.754 62.2078 103.61 62.0812 103.43C61.9612 103.25 61.9012 103.01 61.9012 102.71C61.9012 102.424 61.9812 102.167 62.1412 101.94C62.3012 101.714 62.5345 101.537 62.8412 101.41C63.1545 101.277 63.5345 101.21 63.9812 101.21C64.3212 101.21 64.6612 101.257 65.0012 101.35C65.3412 101.437 65.6212 101.554 65.8412 101.7L65.5312 102.27C65.2978 102.11 65.0478 101.997 64.7812 101.93C64.5145 101.857 64.2478 101.82 63.9812 101.82C63.5078 101.82 63.1578 101.904 62.9312 102.07C62.7112 102.23 62.6012 102.437 62.6012 102.69C62.6012 102.89 62.6612 103.047 62.7812 103.16C62.9078 103.274 63.0712 103.364 63.2712 103.43C63.4778 103.49 63.7012 103.54 63.9412 103.58C64.1878 103.62 64.4312 103.67 64.6712 103.73C64.9178 103.784 65.1412 103.86 65.3412 103.96C65.5478 104.054 65.7112 104.19 65.8312 104.37C65.9578 104.544 66.0212 104.774 66.0212 105.06C66.0212 105.367 65.9345 105.634 65.7612 105.86C65.5945 106.08 65.3478 106.254 65.0212 106.38C64.7012 106.5 64.3112 106.56 63.8512 106.56ZM67.324 106.51V101.26H68.034V106.51H67.324ZM67.684 100.1C67.5373 100.1 67.414 100.05 67.314 99.9505C67.214 99.8505 67.164 99.7305 67.164 99.5905C67.164 99.4505 67.214 99.3338 67.314 99.2405C67.414 99.1405 67.5373 99.0905 67.684 99.0905C67.8307 99.0905 67.954 99.1372 68.054 99.2305C68.154 99.3238 68.204 99.4405 68.204 99.5805C68.204 99.7272 68.154 99.8505 68.054 99.9505C67.9607 100.05 67.8373 100.1 67.684 100.1ZM71.6695 106.56C71.1762 106.56 70.7962 106.427 70.5295 106.16C70.2629 105.894 70.1295 105.517 70.1295 105.03V100.1H70.8395V104.99C70.8395 105.297 70.9162 105.534 71.0695 105.7C71.2295 105.867 71.4562 105.95 71.7495 105.95C72.0629 105.95 72.3229 105.86 72.5295 105.68L72.7795 106.19C72.6395 106.317 72.4695 106.41 72.2695 106.47C72.0762 106.53 71.8762 106.56 71.6695 106.56ZM69.1895 101.85V101.26H72.4395V101.85H69.1895ZM76.1165 106.56C75.5698 106.56 75.0898 106.447 74.6765 106.22C74.2632 105.987 73.9398 105.67 73.7065 105.27C73.4732 104.864 73.3565 104.4 73.3565 103.88C73.3565 103.36 73.4665 102.9 73.6865 102.5C73.9132 102.1 74.2198 101.787 74.6065 101.56C74.9998 101.327 75.4398 101.21 75.9265 101.21C76.4198 101.21 76.8565 101.324 77.2365 101.55C77.6232 101.77 77.9265 102.084 78.1465 102.49C78.3665 102.89 78.4765 103.354 78.4765 103.88C78.4765 103.914 78.4732 103.95 78.4665 103.99C78.4665 104.024 78.4665 104.06 78.4665 104.1H73.8965V103.57H78.0865L77.8065 103.78C77.8065 103.4 77.7232 103.064 77.5565 102.77C77.3965 102.47 77.1765 102.237 76.8965 102.07C76.6165 101.904 76.2932 101.82 75.9265 101.82C75.5665 101.82 75.2432 101.904 74.9565 102.07C74.6698 102.237 74.4465 102.47 74.2865 102.77C74.1265 103.07 74.0465 103.414 74.0465 103.8V103.91C74.0465 104.31 74.1332 104.664 74.3065 104.97C74.4865 105.27 74.7332 105.507 75.0465 105.68C75.3665 105.847 75.7298 105.93 76.1365 105.93C76.4565 105.93 76.7532 105.874 77.0265 105.76C77.3065 105.647 77.5465 105.474 77.7465 105.24L78.1465 105.7C77.9132 105.98 77.6198 106.194 77.2665 106.34C76.9198 106.487 76.5365 106.56 76.1165 106.56ZM85.8288 106.51V105.35L85.7988 105.16V103.22C85.7988 102.774 85.6722 102.43 85.4188 102.19C85.1722 101.95 84.8022 101.83 84.3088 101.83C83.9688 101.83 83.6455 101.887 83.3388 102C83.0322 102.114 82.7722 102.264 82.5588 102.45L82.2388 101.92C82.5055 101.694 82.8255 101.52 83.1988 101.4C83.5722 101.274 83.9655 101.21 84.3788 101.21C85.0588 101.21 85.5822 101.38 85.9488 101.72C86.3222 102.054 86.5088 102.564 86.5088 103.25V106.51H85.8288ZM84.0188 106.56C83.6255 106.56 83.2822 106.497 82.9888 106.37C82.7022 106.237 82.4822 106.057 82.3288 105.83C82.1755 105.597 82.0988 105.33 82.0988 105.03C82.0988 104.757 82.1622 104.51 82.2888 104.29C82.4222 104.064 82.6355 103.884 82.9288 103.75C83.2288 103.61 83.6288 103.54 84.1288 103.54H85.9388V104.07H84.1488C83.6422 104.07 83.2888 104.16 83.0888 104.34C82.8955 104.52 82.7988 104.744 82.7988 105.01C82.7988 105.31 82.9155 105.55 83.1488 105.73C83.3822 105.91 83.7088 106 84.1288 106C84.5288 106 84.8722 105.91 85.1588 105.73C85.4522 105.544 85.6655 105.277 85.7988 104.93L85.9588 105.42C85.8255 105.767 85.5922 106.044 85.2588 106.25C84.9322 106.457 84.5188 106.56 84.0188 106.56ZM91.1473 106.56C90.6939 106.56 90.2839 106.457 89.9173 106.25C89.5506 106.037 89.2573 105.734 89.0373 105.34C88.8239 104.94 88.7173 104.454 88.7173 103.88C88.7173 103.307 88.8239 102.824 89.0373 102.43C89.2506 102.03 89.5406 101.727 89.9073 101.52C90.2739 101.314 90.6873 101.21 91.1473 101.21C91.6473 101.21 92.0939 101.324 92.4873 101.55C92.8873 101.77 93.2006 102.084 93.4273 102.49C93.6539 102.89 93.7673 103.354 93.7673 103.88C93.7673 104.414 93.6539 104.88 93.4273 105.28C93.2006 105.68 92.8873 105.994 92.4873 106.22C92.0939 106.447 91.6473 106.56 91.1473 106.56ZM88.4373 108.45V101.26H89.1173V102.84L89.0473 103.89L89.1473 104.95V108.45H88.4373ZM91.0973 105.93C91.4706 105.93 91.8039 105.847 92.0973 105.68C92.3906 105.507 92.6239 105.267 92.7973 104.96C92.9706 104.647 93.0573 104.287 93.0573 103.88C93.0573 103.474 92.9706 103.117 92.7973 102.81C92.6239 102.504 92.3906 102.264 92.0973 102.09C91.8039 101.917 91.4706 101.83 91.0973 101.83C90.7239 101.83 90.3873 101.917 90.0873 102.09C89.7939 102.264 89.5606 102.504 89.3873 102.81C89.2206 103.117 89.1373 103.474 89.1373 103.88C89.1373 104.287 89.2206 104.647 89.3873 104.96C89.5606 105.267 89.7939 105.507 90.0873 105.68C90.3873 105.847 90.7239 105.93 91.0973 105.93ZM98.4753 106.51V105.35L98.4453 105.16V103.22C98.4453 102.774 98.3186 102.43 98.0653 102.19C97.8186 101.95 97.4486 101.83 96.9553 101.83C96.6153 101.83 96.292 101.887 95.9853 102C95.6786 102.114 95.4186 102.264 95.2053 102.45L94.8853 101.92C95.152 101.694 95.472 101.52 95.8453 101.4C96.2186 101.274 96.612 101.21 97.0253 101.21C97.7053 101.21 98.2286 101.38 98.5953 101.72C98.9686 102.054 99.1553 102.564 99.1553 103.25V106.51H98.4753ZM96.6653 106.56C96.272 106.56 95.9286 106.497 95.6353 106.37C95.3486 106.237 95.1286 106.057 94.9753 105.83C94.822 105.597 94.7453 105.33 94.7453 105.03C94.7453 104.757 94.8086 104.51 94.9353 104.29C95.0686 104.064 95.282 103.884 95.5753 103.75C95.8753 103.61 96.2753 103.54 96.7753 103.54H98.5853V104.07H96.7953C96.2886 104.07 95.9353 104.16 95.7353 104.34C95.542 104.52 95.4453 104.744 95.4453 105.01C95.4453 105.31 95.562 105.55 95.7953 105.73C96.0286 105.91 96.3553 106 96.7753 106C97.1753 106 97.5186 105.91 97.8053 105.73C98.0986 105.544 98.312 105.277 98.4453 104.93L98.6053 105.42C98.472 105.767 98.2386 106.044 97.9053 106.25C97.5786 106.457 97.1653 106.56 96.6653 106.56ZM101.084 106.51V101.26H101.764V102.69L101.694 102.44C101.84 102.04 102.087 101.737 102.434 101.53C102.78 101.317 103.21 101.21 103.724 101.21V101.9C103.697 101.9 103.67 101.9 103.644 101.9C103.617 101.894 103.59 101.89 103.564 101.89C103.01 101.89 102.577 102.06 102.264 102.4C101.95 102.734 101.794 103.21 101.794 103.83V106.51H101.084ZM106.904 106.56C106.411 106.56 106.031 106.427 105.764 106.16C105.497 105.894 105.364 105.517 105.364 105.03V100.1H106.074V104.99C106.074 105.297 106.151 105.534 106.304 105.7C106.464 105.867 106.691 105.95 106.984 105.95C107.297 105.95 107.557 105.86 107.764 105.68L108.014 106.19C107.874 106.317 107.704 106.41 107.504 106.47C107.311 106.53 107.111 106.56 106.904 106.56ZM104.424 101.85V101.26H107.674V101.85H104.424ZM115.866 101.21C116.293 101.21 116.663 101.294 116.976 101.46C117.296 101.62 117.543 101.867 117.716 102.2C117.896 102.534 117.986 102.954 117.986 103.46V106.51H117.276V103.53C117.276 102.977 117.143 102.56 116.876 102.28C116.616 101.994 116.246 101.85 115.766 101.85C115.406 101.85 115.093 101.927 114.826 102.08C114.566 102.227 114.363 102.444 114.216 102.73C114.076 103.01 114.006 103.35 114.006 103.75V106.51H113.296V103.53C113.296 102.977 113.163 102.56 112.896 102.28C112.63 101.994 112.256 101.85 111.776 101.85C111.423 101.85 111.113 101.927 110.846 102.08C110.58 102.227 110.373 102.444 110.226 102.73C110.086 103.01 110.016 103.35 110.016 103.75V106.51H109.306V101.26H109.986V102.68L109.876 102.43C110.036 102.05 110.293 101.754 110.646 101.54C111.006 101.32 111.43 101.21 111.916 101.21C112.43 101.21 112.866 101.34 113.226 101.6C113.586 101.854 113.82 102.237 113.926 102.75L113.646 102.64C113.8 102.214 114.07 101.87 114.456 101.61C114.85 101.344 115.32 101.21 115.866 101.21ZM122.142 106.56C121.595 106.56 121.115 106.447 120.702 106.22C120.289 105.987 119.965 105.67 119.732 105.27C119.499 104.864 119.382 104.4 119.382 103.88C119.382 103.36 119.492 102.9 119.712 102.5C119.939 102.1 120.245 101.787 120.632 101.56C121.025 101.327 121.465 101.21 121.952 101.21C122.445 101.21 122.882 101.324 123.262 101.55C123.649 101.77 123.952 102.084 124.172 102.49C124.392 102.89 124.502 103.354 124.502 103.88C124.502 103.914 124.499 103.95 124.492 103.99C124.492 104.024 124.492 104.06 124.492 104.1H119.922V103.57H124.112L123.832 103.78C123.832 103.4 123.749 103.064 123.582 102.77C123.422 102.47 123.202 102.237 122.922 102.07C122.642 101.904 122.319 101.82 121.952 101.82C121.592 101.82 121.269 101.904 120.982 102.07C120.695 102.237 120.472 102.47 120.312 102.77C120.152 103.07 120.072 103.414 120.072 103.8V103.91C120.072 104.31 120.159 104.664 120.332 104.97C120.512 105.27 120.759 105.507 121.072 105.68C121.392 105.847 121.755 105.93 122.162 105.93C122.482 105.93 122.779 105.874 123.052 105.76C123.332 105.647 123.572 105.474 123.772 105.24L124.172 105.7C123.939 105.98 123.645 106.194 123.292 106.34C122.945 106.487 122.562 106.56 122.142 106.56ZM128.627 101.21C129.054 101.21 129.427 101.294 129.747 101.46C130.074 101.62 130.327 101.867 130.507 102.2C130.694 102.534 130.787 102.954 130.787 103.46V106.51H130.077V103.53C130.077 102.977 129.937 102.56 129.657 102.28C129.384 101.994 128.997 101.85 128.497 101.85C128.124 101.85 127.797 101.927 127.517 102.08C127.244 102.227 127.03 102.444 126.877 102.73C126.73 103.01 126.657 103.35 126.657 103.75V106.51H125.947V101.26H126.627V102.7L126.517 102.43C126.684 102.05 126.95 101.754 127.317 101.54C127.684 101.32 128.12 101.21 128.627 101.21ZM134.365 106.56C133.872 106.56 133.492 106.427 133.225 106.16C132.958 105.894 132.825 105.517 132.825 105.03V100.1H133.535V104.99C133.535 105.297 133.612 105.534 133.765 105.7C133.925 105.867 134.152 105.95 134.445 105.95C134.758 105.95 135.018 105.86 135.225 105.68L135.475 106.19C135.335 106.317 135.165 106.41 134.965 106.47C134.772 106.53 134.572 106.56 134.365 106.56ZM131.885 101.85V101.26H135.135V101.85H131.885ZM139.447 101.21C139.874 101.21 140.247 101.294 140.567 101.46C140.894 101.62 141.147 101.867 141.327 102.2C141.514 102.534 141.607 102.954 141.607 103.46V106.51H140.897V103.53C140.897 102.977 140.757 102.56 140.477 102.28C140.204 101.994 139.817 101.85 139.317 101.85C138.944 101.85 138.617 101.927 138.337 102.08C138.064 102.227 137.851 102.444 137.697 102.73C137.551 103.01 137.477 103.35 137.477 103.75V106.51H136.767V99.0905H137.477V102.7L137.337 102.43C137.504 102.05 137.771 101.754 138.137 101.54C138.504 101.32 138.941 101.21 139.447 101.21ZM145.665 106.56C145.158 106.56 144.702 106.447 144.295 106.22C143.895 105.987 143.578 105.67 143.345 105.27C143.112 104.864 142.995 104.4 142.995 103.88C142.995 103.354 143.112 102.89 143.345 102.49C143.578 102.09 143.895 101.777 144.295 101.55C144.695 101.324 145.152 101.21 145.665 101.21C146.185 101.21 146.645 101.324 147.045 101.55C147.452 101.777 147.768 102.09 147.995 102.49C148.228 102.89 148.345 103.354 148.345 103.88C148.345 104.4 148.228 104.864 147.995 105.27C147.768 105.67 147.452 105.987 147.045 106.22C146.638 106.447 146.178 106.56 145.665 106.56ZM145.665 105.93C146.045 105.93 146.382 105.847 146.675 105.68C146.968 105.507 147.198 105.267 147.365 104.96C147.538 104.647 147.625 104.287 147.625 103.88C147.625 103.467 147.538 103.107 147.365 102.8C147.198 102.494 146.968 102.257 146.675 102.09C146.382 101.917 146.048 101.83 145.675 101.83C145.302 101.83 144.968 101.917 144.675 102.09C144.382 102.257 144.148 102.494 143.975 102.8C143.802 103.107 143.715 103.467 143.715 103.88C143.715 104.287 143.802 104.647 143.975 104.96C144.148 105.267 144.382 105.507 144.675 105.68C144.968 105.847 145.298 105.93 145.665 105.93ZM149.795 106.51V99.0905H150.505V106.51H149.795ZM154.57 106.56C154.07 106.56 153.62 106.447 153.22 106.22C152.827 105.994 152.517 105.68 152.29 105.28C152.064 104.874 151.95 104.407 151.95 103.88C151.95 103.347 152.064 102.88 152.29 102.48C152.517 102.08 152.827 101.77 153.22 101.55C153.62 101.324 154.07 101.21 154.57 101.21C155.03 101.21 155.44 101.314 155.8 101.52C156.167 101.727 156.457 102.03 156.67 102.43C156.89 102.824 157 103.307 157 103.88C157 104.447 156.894 104.93 156.68 105.33C156.467 105.73 156.177 106.037 155.81 106.25C155.45 106.457 155.037 106.56 154.57 106.56ZM154.62 105.93C154.994 105.93 155.327 105.847 155.62 105.68C155.92 105.507 156.154 105.267 156.32 104.96C156.494 104.647 156.58 104.287 156.58 103.88C156.58 103.467 156.494 103.107 156.32 102.8C156.154 102.494 155.92 102.257 155.62 102.09C155.327 101.917 154.994 101.83 154.62 101.83C154.254 101.83 153.924 101.917 153.63 102.09C153.337 102.257 153.104 102.494 152.93 102.8C152.757 103.107 152.67 103.467 152.67 103.88C152.67 104.287 152.757 104.647 152.93 104.96C153.104 105.267 153.337 105.507 153.63 105.68C153.924 105.847 154.254 105.93 154.62 105.93ZM156.6 106.51V104.93L156.67 103.87L156.57 102.81V99.0905H157.28V106.51H156.6ZM159.258 106.51V101.26H159.968V106.51H159.258ZM159.618 100.1C159.471 100.1 159.348 100.05 159.248 99.9505C159.148 99.8505 159.098 99.7305 159.098 99.5905C159.098 99.4505 159.148 99.3338 159.248 99.2405C159.348 99.1405 159.471 99.0905 159.618 99.0905C159.764 99.0905 159.888 99.1372 159.988 99.2305C160.088 99.3238 160.138 99.4405 160.138 99.5805C160.138 99.7272 160.088 99.8505 159.988 99.9505C159.894 100.05 159.771 100.1 159.618 100.1ZM164.623 101.21C165.05 101.21 165.423 101.294 165.743 101.46C166.07 101.62 166.323 101.867 166.503 102.2C166.69 102.534 166.783 102.954 166.783 103.46V106.51H166.073V103.53C166.073 102.977 165.933 102.56 165.653 102.28C165.38 101.994 164.993 101.85 164.493 101.85C164.12 101.85 163.793 101.927 163.513 102.08C163.24 102.227 163.026 102.444 162.873 102.73C162.726 103.01 162.653 103.35 162.653 103.75V106.51H161.943V101.26H162.623V102.7L162.513 102.43C162.68 102.05 162.946 101.754 163.313 101.54C163.68 101.32 164.116 101.21 164.623 101.21ZM170.941 108.5C170.461 108.5 170.001 108.43 169.561 108.29C169.121 108.15 168.764 107.95 168.491 107.69L168.851 107.15C169.098 107.37 169.401 107.544 169.761 107.67C170.128 107.804 170.514 107.87 170.921 107.87C171.588 107.87 172.078 107.714 172.391 107.4C172.704 107.094 172.861 106.614 172.861 105.96V104.65L172.961 103.75L172.891 102.85V101.26H173.571V105.87C173.571 106.777 173.348 107.44 172.901 107.86C172.461 108.287 171.808 108.5 170.941 108.5ZM170.811 106.31C170.311 106.31 169.861 106.204 169.461 105.99C169.061 105.77 168.744 105.467 168.511 105.08C168.284 104.694 168.171 104.25 168.171 103.75C168.171 103.25 168.284 102.81 168.511 102.43C168.744 102.044 169.061 101.744 169.461 101.53C169.861 101.317 170.311 101.21 170.811 101.21C171.278 101.21 171.698 101.307 172.071 101.5C172.444 101.694 172.741 101.98 172.961 102.36C173.181 102.74 173.291 103.204 173.291 103.75C173.291 104.297 173.181 104.76 172.961 105.14C172.741 105.52 172.444 105.81 172.071 106.01C171.698 106.21 171.278 106.31 170.811 106.31ZM170.881 105.68C171.268 105.68 171.611 105.6 171.911 105.44C172.211 105.274 172.448 105.047 172.621 104.76C172.794 104.467 172.881 104.13 172.881 103.75C172.881 103.37 172.794 103.037 172.621 102.75C172.448 102.464 172.211 102.24 171.911 102.08C171.611 101.914 171.268 101.83 170.881 101.83C170.501 101.83 170.158 101.914 169.851 102.08C169.551 102.24 169.314 102.464 169.141 102.75C168.974 103.037 168.891 103.37 168.891 103.75C168.891 104.13 168.974 104.467 169.141 104.76C169.314 105.047 169.551 105.274 169.851 105.44C170.158 105.6 170.501 105.68 170.881 105.68ZM176.957 106.56C176.523 106.56 176.113 106.5 175.727 106.38C175.34 106.254 175.037 106.097 174.817 105.91L175.137 105.35C175.35 105.51 175.623 105.65 175.957 105.77C176.29 105.884 176.64 105.94 177.007 105.94C177.507 105.94 177.867 105.864 178.087 105.71C178.307 105.55 178.417 105.34 178.417 105.08C178.417 104.887 178.353 104.737 178.227 104.63C178.107 104.517 177.947 104.434 177.747 104.38C177.547 104.32 177.323 104.27 177.077 104.23C176.83 104.19 176.583 104.144 176.337 104.09C176.097 104.037 175.877 103.96 175.677 103.86C175.477 103.754 175.313 103.61 175.187 103.43C175.067 103.25 175.007 103.01 175.007 102.71C175.007 102.424 175.087 102.167 175.247 101.94C175.407 101.714 175.64 101.537 175.947 101.41C176.26 101.277 176.64 101.21 177.087 101.21C177.427 101.21 177.767 101.257 178.107 101.35C178.447 101.437 178.727 101.554 178.947 101.7L178.637 102.27C178.403 102.11 178.153 101.997 177.887 101.93C177.62 101.857 177.353 101.82 177.087 101.82C176.613 101.82 176.263 101.904 176.037 102.07C175.817 102.23 175.707 102.437 175.707 102.69C175.707 102.89 175.767 103.047 175.887 103.16C176.013 103.274 176.177 103.364 176.377 103.43C176.583 103.49 176.807 103.54 177.047 103.58C177.293 103.62 177.537 103.67 177.777 103.73C178.023 103.784 178.247 103.86 178.447 103.96C178.653 104.054 178.817 104.19 178.937 104.37C179.063 104.544 179.127 104.774 179.127 105.06C179.127 105.367 179.04 105.634 178.867 105.86C178.7 106.08 178.453 106.254 178.127 106.38C177.807 106.5 177.417 106.56 176.957 106.56ZM180.499 106.56C180.353 106.56 180.226 106.507 180.119 106.4C180.019 106.294 179.969 106.164 179.969 106.01C179.969 105.85 180.019 105.72 180.119 105.62C180.226 105.52 180.353 105.47 180.499 105.47C180.646 105.47 180.769 105.52 180.869 105.62C180.976 105.72 181.029 105.85 181.029 106.01C181.029 106.164 180.976 106.294 180.869 106.4C180.769 106.507 180.646 106.56 180.499 106.56ZM184.582 106.56C184.062 106.56 183.595 106.447 183.182 106.22C182.775 105.987 182.455 105.67 182.222 105.27C181.989 104.864 181.872 104.4 181.872 103.88C181.872 103.354 181.989 102.89 182.222 102.49C182.455 102.09 182.775 101.777 183.182 101.55C183.595 101.324 184.062 101.21 184.582 101.21C185.029 101.21 185.432 101.297 185.792 101.47C186.152 101.644 186.435 101.904 186.642 102.25L186.112 102.61C185.932 102.344 185.709 102.147 185.442 102.02C185.175 101.894 184.885 101.83 184.572 101.83C184.199 101.83 183.862 101.917 183.562 102.09C183.262 102.257 183.025 102.494 182.852 102.8C182.679 103.107 182.592 103.467 182.592 103.88C182.592 104.294 182.679 104.654 182.852 104.96C183.025 105.267 183.262 105.507 183.562 105.68C183.862 105.847 184.199 105.93 184.572 105.93C184.885 105.93 185.175 105.867 185.442 105.74C185.709 105.614 185.932 105.42 186.112 105.16L186.642 105.52C186.435 105.86 186.152 106.12 185.792 106.3C185.432 106.474 185.029 106.56 184.582 106.56ZM190.089 106.56C189.582 106.56 189.126 106.447 188.719 106.22C188.319 105.987 188.002 105.67 187.769 105.27C187.536 104.864 187.419 104.4 187.419 103.88C187.419 103.354 187.536 102.89 187.769 102.49C188.002 102.09 188.319 101.777 188.719 101.55C189.119 101.324 189.576 101.21 190.089 101.21C190.609 101.21 191.069 101.324 191.469 101.55C191.876 101.777 192.192 102.09 192.419 102.49C192.652 102.89 192.769 103.354 192.769 103.88C192.769 104.4 192.652 104.864 192.419 105.27C192.192 105.67 191.876 105.987 191.469 106.22C191.062 106.447 190.602 106.56 190.089 106.56ZM190.089 105.93C190.469 105.93 190.806 105.847 191.099 105.68C191.392 105.507 191.622 105.267 191.789 104.96C191.962 104.647 192.049 104.287 192.049 103.88C192.049 103.467 191.962 103.107 191.789 102.8C191.622 102.494 191.392 102.257 191.099 102.09C190.806 101.917 190.472 101.83 190.099 101.83C189.726 101.83 189.392 101.917 189.099 102.09C188.806 102.257 188.572 102.494 188.399 102.8C188.226 103.107 188.139 103.467 188.139 103.88C188.139 104.287 188.226 104.647 188.399 104.96C188.572 105.267 188.806 105.507 189.099 105.68C189.392 105.847 189.722 105.93 190.089 105.93ZM200.779 101.21C201.205 101.21 201.575 101.294 201.889 101.46C202.209 101.62 202.455 101.867 202.629 102.2C202.809 102.534 202.899 102.954 202.899 103.46V106.51H202.189V103.53C202.189 102.977 202.055 102.56 201.789 102.28C201.529 101.994 201.159 101.85 200.679 101.85C200.319 101.85 200.005 101.927 199.739 102.08C199.479 102.227 199.275 102.444 199.129 102.73C198.989 103.01 198.919 103.35 198.919 103.75V106.51H198.209V103.53C198.209 102.977 198.075 102.56 197.809 102.28C197.542 101.994 197.169 101.85 196.689 101.85C196.335 101.85 196.025 101.927 195.759 102.08C195.492 102.227 195.285 102.444 195.139 102.73C194.999 103.01 194.929 103.35 194.929 103.75V106.51H194.219V101.26H194.899V102.68L194.789 102.43C194.949 102.05 195.205 101.754 195.559 101.54C195.919 101.32 196.342 101.21 196.829 101.21C197.342 101.21 197.779 101.34 198.139 101.6C198.499 101.854 198.732 102.237 198.839 102.75L198.559 102.64C198.712 102.214 198.982 101.87 199.369 101.61C199.762 101.344 200.232 101.21 200.779 101.21ZM208.511 106.51L206.531 101.26H207.211L209.011 106.13H208.701L210.551 101.26H211.161L212.991 106.13H212.681L214.511 101.26H215.161L213.171 106.51H212.501L210.741 101.93H210.951L209.181 106.51H208.511ZM216.23 106.51V101.26H216.94V106.51H216.23ZM216.59 100.1C216.444 100.1 216.32 100.05 216.22 99.9505C216.12 99.8505 216.07 99.7305 216.07 99.5905C216.07 99.4505 216.12 99.3338 216.22 99.2405C216.32 99.1405 216.444 99.0905 216.59 99.0905C216.737 99.0905 216.86 99.1372 216.96 99.2305C217.06 99.3238 217.11 99.4405 217.11 99.5805C217.11 99.7272 217.06 99.8505 216.96 99.9505C216.867 100.05 216.744 100.1 216.59 100.1ZM220.576 106.56C220.082 106.56 219.702 106.427 219.436 106.16C219.169 105.894 219.036 105.517 219.036 105.03V100.1H219.746V104.99C219.746 105.297 219.822 105.534 219.976 105.7C220.136 105.867 220.362 105.95 220.656 105.95C220.969 105.95 221.229 105.86 221.436 105.68L221.686 106.19C221.546 106.317 221.376 106.41 221.176 106.47C220.982 106.53 220.782 106.56 220.576 106.56ZM218.096 101.85V101.26H221.346V101.85H218.096ZM225.658 101.21C226.085 101.21 226.458 101.294 226.778 101.46C227.105 101.62 227.358 101.867 227.538 102.2C227.725 102.534 227.818 102.954 227.818 103.46V106.51H227.108V103.53C227.108 102.977 226.968 102.56 226.688 102.28C226.415 101.994 226.028 101.85 225.528 101.85C225.155 101.85 224.828 101.927 224.548 102.08C224.275 102.227 224.062 102.444 223.908 102.73C223.762 103.01 223.688 103.35 223.688 103.75V106.51H222.978V99.0905H223.688V102.7L223.548 102.43C223.715 102.05 223.982 101.754 224.348 101.54C224.715 101.32 225.152 101.21 225.658 101.21ZM43.1661 124.56C42.6461 124.56 42.1794 124.447 41.7661 124.22C41.3594 123.987 41.0394 123.67 40.8061 123.27C40.5728 122.864 40.4561 122.4 40.4561 121.88C40.4561 121.354 40.5728 120.89 40.8061 120.49C41.0394 120.09 41.3594 119.777 41.7661 119.55C42.1794 119.324 42.6461 119.21 43.1661 119.21C43.6128 119.21 44.0161 119.297 44.3761 119.47C44.7361 119.644 45.0194 119.904 45.2261 120.25L44.6961 120.61C44.5161 120.344 44.2928 120.147 44.0261 120.02C43.7594 119.894 43.4694 119.83 43.1561 119.83C42.7828 119.83 42.4461 119.917 42.1461 120.09C41.8461 120.257 41.6094 120.494 41.4361 120.8C41.2628 121.107 41.1761 121.467 41.1761 121.88C41.1761 122.294 41.2628 122.654 41.4361 122.96C41.6094 123.267 41.8461 123.507 42.1461 123.68C42.4461 123.847 42.7828 123.93 43.1561 123.93C43.4694 123.93 43.7594 123.867 44.0261 123.74C44.2928 123.614 44.5161 123.42 44.6961 123.16L45.2261 123.52C45.0194 123.86 44.7361 124.12 44.3761 124.3C44.0161 124.474 43.6128 124.56 43.1661 124.56ZM48.673 124.56C48.1663 124.56 47.7096 124.447 47.303 124.22C46.903 123.987 46.5863 123.67 46.353 123.27C46.1196 122.864 46.003 122.4 46.003 121.88C46.003 121.354 46.1196 120.89 46.353 120.49C46.5863 120.09 46.903 119.777 47.303 119.55C47.703 119.324 48.1596 119.21 48.673 119.21C49.193 119.21 49.653 119.324 50.053 119.55C50.4596 119.777 50.7763 120.09 51.003 120.49C51.2363 120.89 51.353 121.354 51.353 121.88C51.353 122.4 51.2363 122.864 51.003 123.27C50.7763 123.67 50.4596 123.987 50.053 124.22C49.6463 124.447 49.1863 124.56 48.673 124.56ZM48.673 123.93C49.053 123.93 49.3896 123.847 49.683 123.68C49.9763 123.507 50.2063 123.267 50.373 122.96C50.5463 122.647 50.633 122.287 50.633 121.88C50.633 121.467 50.5463 121.107 50.373 120.8C50.2063 120.494 49.9763 120.257 49.683 120.09C49.3896 119.917 49.0563 119.83 48.683 119.83C48.3096 119.83 47.9763 119.917 47.683 120.09C47.3896 120.257 47.1563 120.494 46.983 120.8C46.8096 121.107 46.723 121.467 46.723 121.88C46.723 122.287 46.8096 122.647 46.983 122.96C47.1563 123.267 47.3896 123.507 47.683 123.68C47.9763 123.847 48.3063 123.93 48.673 123.93ZM54.9725 124.56C54.5258 124.56 54.1358 124.477 53.8025 124.31C53.4692 124.144 53.2092 123.894 53.0225 123.56C52.8425 123.227 52.7525 122.81 52.7525 122.31V119.26H53.4625V122.23C53.4625 122.79 53.5992 123.214 53.8725 123.5C54.1525 123.78 54.5425 123.92 55.0425 123.92C55.4092 123.92 55.7258 123.847 55.9925 123.7C56.2658 123.547 56.4725 123.327 56.6125 123.04C56.7592 122.754 56.8325 122.41 56.8325 122.01V119.26H57.5425V124.51H56.8625V123.07L56.9725 123.33C56.8058 123.717 56.5458 124.02 56.1925 124.24C55.8458 124.454 55.4392 124.56 54.9725 124.56ZM62.2313 124.56C61.7779 124.56 61.3679 124.457 61.0013 124.25C60.6346 124.037 60.3413 123.734 60.1213 123.34C59.9079 122.94 59.8013 122.454 59.8013 121.88C59.8013 121.307 59.9079 120.824 60.1213 120.43C60.3346 120.03 60.6246 119.727 60.9913 119.52C61.3579 119.314 61.7713 119.21 62.2313 119.21C62.7313 119.21 63.1779 119.324 63.5713 119.55C63.9713 119.77 64.2846 120.084 64.5113 120.49C64.7379 120.89 64.8513 121.354 64.8513 121.88C64.8513 122.414 64.7379 122.88 64.5113 123.28C64.2846 123.68 63.9713 123.994 63.5713 124.22C63.1779 124.447 62.7313 124.56 62.2313 124.56ZM59.5213 126.45V119.26H60.2013V120.84L60.1313 121.89L60.2313 122.95V126.45H59.5213ZM62.1813 123.93C62.5546 123.93 62.8879 123.847 63.1813 123.68C63.4746 123.507 63.7079 123.267 63.8813 122.96C64.0546 122.647 64.1413 122.287 64.1413 121.88C64.1413 121.474 64.0546 121.117 63.8813 120.81C63.7079 120.504 63.4746 120.264 63.1813 120.09C62.8879 119.917 62.5546 119.83 62.1813 119.83C61.8079 119.83 61.4713 119.917 61.1712 120.09C60.8779 120.264 60.6446 120.504 60.4713 120.81C60.3046 121.117 60.2213 121.474 60.2213 121.88C60.2213 122.287 60.3046 122.647 60.4713 122.96C60.6446 123.267 60.8779 123.507 61.1712 123.68C61.4713 123.847 61.8079 123.93 62.1813 123.93ZM68.4386 124.56C67.9319 124.56 67.4753 124.447 67.0686 124.22C66.6686 123.987 66.3519 123.67 66.1186 123.27C65.8853 122.864 65.7686 122.4 65.7686 121.88C65.7686 121.354 65.8853 120.89 66.1186 120.49C66.3519 120.09 66.6686 119.777 67.0686 119.55C67.4686 119.324 67.9253 119.21 68.4386 119.21C68.9586 119.21 69.4186 119.324 69.8186 119.55C70.2253 119.777 70.5419 120.09 70.7686 120.49C71.0019 120.89 71.1186 121.354 71.1186 121.88C71.1186 122.4 71.0019 122.864 70.7686 123.27C70.5419 123.67 70.2253 123.987 69.8186 124.22C69.4119 124.447 68.9519 124.56 68.4386 124.56ZM68.4386 123.93C68.8186 123.93 69.1553 123.847 69.4486 123.68C69.7419 123.507 69.9719 123.267 70.1386 122.96C70.3119 122.647 70.3986 122.287 70.3986 121.88C70.3986 121.467 70.3119 121.107 70.1386 120.8C69.9719 120.494 69.7419 120.257 69.4486 120.09C69.1553 119.917 68.8219 119.83 68.4486 119.83C68.0753 119.83 67.7419 119.917 67.4486 120.09C67.1553 120.257 66.9219 120.494 66.7486 120.8C66.5753 121.107 66.4886 121.467 66.4886 121.88C66.4886 122.287 66.5753 122.647 66.7486 122.96C66.9219 123.267 67.1553 123.507 67.4486 123.68C67.7419 123.847 68.0719 123.93 68.4386 123.93ZM75.2481 119.21C75.6748 119.21 76.0481 119.294 76.3681 119.46C76.6948 119.62 76.9481 119.867 77.1281 120.2C77.3148 120.534 77.4081 120.954 77.4081 121.46V124.51H76.6981V121.53C76.6981 120.977 76.5581 120.56 76.2781 120.28C76.0048 119.994 75.6181 119.85 75.1181 119.85C74.7448 119.85 74.4181 119.927 74.1381 120.08C73.8648 120.227 73.6515 120.444 73.4981 120.73C73.3515 121.01 73.2781 121.35 73.2781 121.75V124.51H72.5681V119.26H73.2481V120.7L73.1381 120.43C73.3048 120.05 73.5715 119.754 73.9381 119.54C74.3048 119.32 74.7415 119.21 75.2481 119.21ZM85.0331 124.51L85.8931 117.51H86.4331L85.5731 124.51H85.0331ZM81.2431 122.61V122.06H87.2931V122.61H81.2431ZM82.4331 124.51L83.2931 117.51H83.8431L82.9731 124.51H82.4331ZM81.5631 119.96V119.41H87.6131V119.96H81.5631ZM90.996 124.56C90.496 124.56 90.046 124.447 89.646 124.22C89.2527 123.994 88.9427 123.68 88.716 123.28C88.4893 122.874 88.376 122.407 88.376 121.88C88.376 121.347 88.4893 120.88 88.716 120.48C88.9427 120.08 89.2527 119.77 89.646 119.55C90.046 119.324 90.496 119.21 90.996 119.21C91.456 119.21 91.866 119.314 92.226 119.52C92.5927 119.727 92.8827 120.03 93.096 120.43C93.316 120.824 93.426 121.307 93.426 121.88C93.426 122.447 93.3193 122.93 93.106 123.33C92.8927 123.73 92.6027 124.037 92.236 124.25C91.876 124.457 91.4627 124.56 90.996 124.56ZM91.046 123.93C91.4193 123.93 91.7527 123.847 92.046 123.68C92.346 123.507 92.5793 123.267 92.746 122.96C92.9193 122.647 93.006 122.287 93.006 121.88C93.006 121.467 92.9193 121.107 92.746 120.8C92.5793 120.494 92.346 120.257 92.046 120.09C91.7527 119.917 91.4193 119.83 91.046 119.83C90.6793 119.83 90.3493 119.917 90.056 120.09C89.7627 120.257 89.5293 120.494 89.356 120.8C89.1827 121.107 89.096 121.467 89.096 121.88C89.096 122.287 89.1827 122.647 89.356 122.96C89.5293 123.267 89.7627 123.507 90.056 123.68C90.3493 123.847 90.6793 123.93 91.046 123.93ZM93.026 124.51V122.93L93.096 121.87L92.996 120.81V117.09H93.706V124.51H93.026ZM95.6834 124.51V119.26H96.3934V124.51H95.6834ZM96.0434 118.1C95.8967 118.1 95.7734 118.05 95.6734 117.95C95.5734 117.85 95.5234 117.73 95.5234 117.59C95.5234 117.45 95.5734 117.334 95.6734 117.24C95.7734 117.14 95.8967 117.09 96.0434 117.09C96.19 117.09 96.3134 117.137 96.4134 117.23C96.5134 117.324 96.5634 117.44 96.5634 117.58C96.5634 117.727 96.5134 117.85 96.4134 117.95C96.32 118.05 96.1967 118.1 96.0434 118.1ZM99.7789 124.56C99.3456 124.56 98.9356 124.5 98.5489 124.38C98.1622 124.254 97.8589 124.097 97.6389 123.91L97.9589 123.35C98.1722 123.51 98.4456 123.65 98.7789 123.77C99.1122 123.884 99.4622 123.94 99.8289 123.94C100.329 123.94 100.689 123.864 100.909 123.71C101.129 123.55 101.239 123.34 101.239 123.08C101.239 122.887 101.176 122.737 101.049 122.63C100.929 122.517 100.769 122.434 100.569 122.38C100.369 122.32 100.146 122.27 99.8989 122.23C99.6522 122.19 99.4056 122.144 99.1589 122.09C98.9189 122.037 98.6989 121.96 98.4989 121.86C98.2989 121.754 98.1356 121.61 98.0089 121.43C97.8889 121.25 97.8289 121.01 97.8289 120.71C97.8289 120.424 97.9089 120.167 98.0689 119.94C98.2289 119.714 98.4622 119.537 98.7689 119.41C99.0822 119.277 99.4622 119.21 99.9089 119.21C100.249 119.21 100.589 119.257 100.929 119.35C101.269 119.437 101.549 119.554 101.769 119.7L101.459 120.27C101.226 120.11 100.976 119.997 100.709 119.93C100.442 119.857 100.176 119.82 99.9089 119.82C99.4356 119.82 99.0856 119.904 98.8589 120.07C98.6389 120.23 98.5289 120.437 98.5289 120.69C98.5289 120.89 98.5889 121.047 98.7089 121.16C98.8356 121.274 98.9989 121.364 99.1989 121.43C99.4056 121.49 99.6289 121.54 99.8689 121.58C100.116 121.62 100.359 121.67 100.599 121.73C100.846 121.784 101.069 121.86 101.269 121.96C101.476 122.054 101.639 122.19 101.759 122.37C101.886 122.544 101.949 122.774 101.949 123.06C101.949 123.367 101.862 123.634 101.689 123.86C101.522 124.08 101.276 124.254 100.949 124.38C100.629 124.5 100.239 124.56 99.7789 124.56ZM105.432 124.56C104.912 124.56 104.445 124.447 104.032 124.22C103.625 123.987 103.305 123.67 103.072 123.27C102.838 122.864 102.722 122.4 102.722 121.88C102.722 121.354 102.838 120.89 103.072 120.49C103.305 120.09 103.625 119.777 104.032 119.55C104.445 119.324 104.912 119.21 105.432 119.21C105.878 119.21 106.282 119.297 106.642 119.47C107.002 119.644 107.285 119.904 107.492 120.25L106.962 120.61C106.782 120.344 106.558 120.147 106.292 120.02C106.025 119.894 105.735 119.83 105.422 119.83C105.048 119.83 104.712 119.917 104.412 120.09C104.112 120.257 103.875 120.494 103.702 120.8C103.528 121.107 103.442 121.467 103.442 121.88C103.442 122.294 103.528 122.654 103.702 122.96C103.875 123.267 104.112 123.507 104.412 123.68C104.712 123.847 105.048 123.93 105.422 123.93C105.735 123.93 106.025 123.867 106.292 123.74C106.558 123.614 106.782 123.42 106.962 123.16L107.492 123.52C107.285 123.86 107.002 124.12 106.642 124.3C106.282 124.474 105.878 124.56 105.432 124.56ZM110.939 124.56C110.432 124.56 109.975 124.447 109.569 124.22C109.169 123.987 108.852 123.67 108.619 123.27C108.385 122.864 108.269 122.4 108.269 121.88C108.269 121.354 108.385 120.89 108.619 120.49C108.852 120.09 109.169 119.777 109.569 119.55C109.969 119.324 110.425 119.21 110.939 119.21C111.459 119.21 111.919 119.324 112.319 119.55C112.725 119.777 113.042 120.09 113.269 120.49C113.502 120.89 113.619 121.354 113.619 121.88C113.619 122.4 113.502 122.864 113.269 123.27C113.042 123.67 112.725 123.987 112.319 124.22C111.912 124.447 111.452 124.56 110.939 124.56ZM110.939 123.93C111.319 123.93 111.655 123.847 111.949 123.68C112.242 123.507 112.472 123.267 112.639 122.96C112.812 122.647 112.899 122.287 112.899 121.88C112.899 121.467 112.812 121.107 112.639 120.8C112.472 120.494 112.242 120.257 111.949 120.09C111.655 119.917 111.322 119.83 110.949 119.83C110.575 119.83 110.242 119.917 109.949 120.09C109.655 120.257 109.422 120.494 109.249 120.8C109.075 121.107 108.989 121.467 108.989 121.88C108.989 122.287 109.075 122.647 109.249 122.96C109.422 123.267 109.655 123.507 109.949 123.68C110.242 123.847 110.572 123.93 110.939 123.93ZM117.238 124.56C116.791 124.56 116.401 124.477 116.068 124.31C115.735 124.144 115.475 123.894 115.288 123.56C115.108 123.227 115.018 122.81 115.018 122.31V119.26H115.728V122.23C115.728 122.79 115.865 123.214 116.138 123.5C116.418 123.78 116.808 123.92 117.308 123.92C117.675 123.92 117.991 123.847 118.258 123.7C118.531 123.547 118.738 123.327 118.878 123.04C119.025 122.754 119.098 122.41 119.098 122.01V119.26H119.808V124.51H119.128V123.07L119.238 123.33C119.071 123.717 118.811 124.02 118.458 124.24C118.111 124.454 117.705 124.56 117.238 124.56ZM124.467 119.21C124.894 119.21 125.267 119.294 125.587 119.46C125.914 119.62 126.167 119.867 126.347 120.2C126.534 120.534 126.627 120.954 126.627 121.46V124.51H125.917V121.53C125.917 120.977 125.777 120.56 125.497 120.28C125.224 119.994 124.837 119.85 124.337 119.85C123.964 119.85 123.637 119.927 123.357 120.08C123.084 120.227 122.87 120.444 122.717 120.73C122.57 121.01 122.497 121.35 122.497 121.75V124.51H121.787V119.26H122.467V120.7L122.357 120.43C122.524 120.05 122.79 119.754 123.157 119.54C123.524 119.32 123.96 119.21 124.467 119.21ZM130.205 124.56C129.711 124.56 129.331 124.427 129.065 124.16C128.798 123.894 128.665 123.517 128.665 123.03V118.1H129.375V122.99C129.375 123.297 129.451 123.534 129.605 123.7C129.765 123.867 129.991 123.95 130.285 123.95C130.598 123.95 130.858 123.86 131.065 123.68L131.315 124.19C131.175 124.317 131.005 124.41 130.805 124.47C130.611 124.53 130.411 124.56 130.205 124.56ZM127.725 119.85V119.26H130.975V119.85H127.725ZM133.142 124.51V117.81L133.462 118.15H131.492V117.51H133.862V124.51H133.142ZM138.326 124.57C137.786 124.57 137.306 124.43 136.886 124.15C136.466 123.864 136.136 123.457 135.896 122.93C135.656 122.397 135.536 121.757 135.536 121.01C135.536 120.264 135.656 119.627 135.896 119.1C136.136 118.567 136.466 118.16 136.886 117.88C137.306 117.594 137.786 117.45 138.326 117.45C138.866 117.45 139.346 117.594 139.766 117.88C140.186 118.16 140.516 118.567 140.756 119.1C141.002 119.627 141.126 120.264 141.126 121.01C141.126 121.757 141.002 122.397 140.756 122.93C140.516 123.457 140.186 123.864 139.766 124.15C139.346 124.43 138.866 124.57 138.326 124.57ZM138.326 123.91C138.739 123.91 139.099 123.8 139.406 123.58C139.712 123.354 139.952 123.027 140.126 122.6C140.299 122.167 140.386 121.637 140.386 121.01C140.386 120.384 140.299 119.857 140.126 119.43C139.952 118.997 139.712 118.67 139.406 118.45C139.099 118.224 138.739 118.11 138.326 118.11C137.926 118.11 137.569 118.224 137.256 118.45C136.942 118.67 136.699 118.997 136.526 119.43C136.352 119.857 136.266 120.384 136.266 121.01C136.266 121.637 136.352 122.167 136.526 122.6C136.699 123.027 136.942 123.354 137.256 123.58C137.569 123.8 137.926 123.91 138.326 123.91ZM142.589 124.56C142.443 124.56 142.316 124.507 142.209 124.4C142.109 124.294 142.059 124.164 142.059 124.01C142.059 123.85 142.109 123.72 142.209 123.62C142.316 123.52 142.443 123.47 142.589 123.47C142.736 123.47 142.859 123.52 142.959 123.62C143.066 123.72 143.119 123.85 143.119 124.01C143.119 124.164 143.066 124.294 142.959 124.4C142.859 124.507 142.736 124.56 142.589 124.56Z" fill="#6E6B7B"/>
<defs>
<filter id="filter0_d_2026_4066" x="0.635759" y="0.0222309" width="293.721" height="167.721" filterUnits="userSpaceOnUse" color-interpolation-filters="sRGB">
<feFlood flood-opacity="0" result="BackgroundImageFix"/>
<feColorMatrix in="SourceAlpha" type="matrix" values="0 0 0 0 0 0 0 0 0 0 0 0 0 0 0 0 0 0 127 0" result="hardAlpha"/>
<feOffset dy="3.87207"/>
<feGaussianBlur stdDeviation="9.68017"/>
<feComposite in2="hardAlpha" operator="out"/>
<feColorMatrix type="matrix" values="0 0 0 0 0 0 0 0 0 0 0 0 0 0 0 0 0 0 0.05 0"/>
<feBlend mode="normal" in2="BackgroundImageFix" result="effect1_dropShadow_2026_4066"/>
<feBlend mode="normal" in="SourceGraphic" in2="effect1_dropShadow_2026_4066" result="shape"/>
</filter>
</defs>
</svg>
