<svg width="127" height="141" viewBox="0 0 127 141" fill="none" xmlns="http://www.w3.org/2000/svg">
<rect width="126.269" height="140.42" rx="14.5695" fill="white"/>
<path d="M14.314 20.0196C13.9178 20.0196 13.5368 19.9561 13.171 19.8291C12.8104 19.697 12.531 19.5294 12.3329 19.3262L12.5538 18.8919C12.7418 19.0748 12.9932 19.2297 13.3082 19.3567C13.6282 19.4786 13.9635 19.5396 14.314 19.5396C14.6492 19.5396 14.921 19.4989 15.1293 19.4176C15.3426 19.3313 15.4976 19.217 15.5941 19.0748C15.6957 18.9325 15.7465 18.775 15.7465 18.6023C15.7465 18.3941 15.6855 18.2264 15.5636 18.0994C15.4468 17.9724 15.2918 17.8734 15.0988 17.8023C14.9058 17.7261 14.6924 17.66 14.4587 17.6042C14.2251 17.5483 13.9914 17.4899 13.7577 17.4289C13.5241 17.3629 13.3082 17.2765 13.1101 17.1698C12.917 17.0632 12.7596 16.9235 12.6376 16.7507C12.5208 16.573 12.4624 16.3418 12.4624 16.0574C12.4624 15.7932 12.531 15.5519 12.6681 15.3335C12.8104 15.11 13.0262 14.9322 13.3158 14.8001C13.6053 14.663 13.9762 14.5944 14.4283 14.5944C14.728 14.5944 15.0251 14.6376 15.3198 14.7239C15.6144 14.8052 15.8684 14.9195 16.0817 15.0668L15.8913 15.5164C15.6627 15.364 15.4188 15.2522 15.1598 15.1811C14.9058 15.11 14.6594 15.0744 14.4207 15.0744C14.1006 15.0744 13.8365 15.1176 13.6282 15.204C13.4199 15.2903 13.265 15.4071 13.1634 15.5545C13.0669 15.6967 13.0186 15.8592 13.0186 16.0421C13.0186 16.2504 13.077 16.418 13.1939 16.545C13.3158 16.672 13.4733 16.7711 13.6663 16.8422C13.8644 16.9133 14.0803 16.9768 14.314 17.0327C14.5476 17.0886 14.7788 17.1495 15.0074 17.2155C15.241 17.2816 15.4544 17.3679 15.6474 17.4746C15.8455 17.5762 16.003 17.7134 16.1198 17.8861C16.2418 18.0588 16.3027 18.2848 16.3027 18.5642C16.3027 18.8233 16.2316 19.0646 16.0894 19.2881C15.9471 19.5065 15.7287 19.6843 15.4341 19.8215C15.1445 19.9536 14.7712 20.0196 14.314 20.0196ZM19.1466 20.012C18.8063 20.012 18.5091 19.9485 18.2551 19.8215C18.0012 19.6945 17.803 19.504 17.6608 19.25C17.5236 18.996 17.4551 18.6785 17.4551 18.2975V15.9735H17.9961V18.2366C17.9961 18.6633 18.1002 18.9859 18.3085 19.2043C18.5218 19.4176 18.819 19.5243 19.2 19.5243C19.4794 19.5243 19.7207 19.4684 19.9239 19.3567C20.1321 19.2398 20.2896 19.0722 20.3963 18.8538C20.508 18.6354 20.5639 18.3737 20.5639 18.069V15.9735H21.1049V19.9739H20.5868V18.8766L20.6706 19.0748C20.5436 19.3694 20.3455 19.6005 20.0762 19.7681C19.8121 19.9307 19.5022 20.012 19.1466 20.012ZM24.7538 20.012C24.4033 20.012 24.0883 19.9332 23.8089 19.7758C23.5296 19.6132 23.3086 19.3795 23.146 19.0748C22.9835 18.77 22.9022 18.4017 22.9022 17.9699C22.9022 17.533 22.9835 17.1648 23.146 16.865C23.3137 16.5603 23.5372 16.3291 23.8166 16.1717C24.0959 16.0142 24.4084 15.9354 24.7538 15.9354C25.1348 15.9354 25.4751 16.0218 25.7748 16.1945C26.0796 16.3621 26.3184 16.5984 26.4911 16.9031C26.6638 17.2079 26.7501 17.5635 26.7501 17.9699C26.7501 18.3712 26.6638 18.7268 26.4911 19.0367C26.3184 19.3414 26.0796 19.5802 25.7748 19.7529C25.4751 19.9256 25.1348 20.012 24.7538 20.012ZM22.6888 19.9739V14.3201H23.2298V17.1546L23.1536 17.9623L23.207 18.77V19.9739H22.6888ZM24.7157 19.5319C25.0002 19.5319 25.2541 19.4684 25.4777 19.3414C25.7012 19.2094 25.879 19.0265 26.011 18.7928C26.1431 18.5541 26.2091 18.2798 26.2091 17.9699C26.2091 17.655 26.1431 17.3806 26.011 17.147C25.879 16.9133 25.7012 16.733 25.4777 16.606C25.2541 16.4739 25.0002 16.4079 24.7157 16.4079C24.4312 16.4079 24.1747 16.4739 23.9461 16.606C23.7226 16.733 23.5448 16.9133 23.4127 17.147C23.2857 17.3806 23.2222 17.655 23.2222 17.9699C23.2222 18.2798 23.2857 18.5541 23.4127 18.7928C23.5448 19.0265 23.7226 19.2094 23.9461 19.3414C24.1747 19.4684 24.4312 19.5319 24.7157 19.5319ZM29.194 20.012C28.8181 20.012 28.5286 19.9104 28.3254 19.7072C28.1222 19.504 28.0206 19.217 28.0206 18.8462V15.0897H28.5616V18.8157C28.5616 19.0494 28.62 19.2297 28.7369 19.3567C28.8588 19.4837 29.0315 19.5472 29.255 19.5472C29.4937 19.5472 29.6919 19.4786 29.8493 19.3414L30.0398 19.73C29.9331 19.8266 29.8036 19.8977 29.6512 19.9434C29.5039 19.9891 29.3515 20.012 29.194 20.012ZM27.3044 16.4231V15.9735H29.7808V16.4231H27.3044ZM32.5901 20.012C32.204 20.012 31.8561 19.9256 31.5462 19.7529C31.2414 19.5751 31.0001 19.3338 30.8223 19.029C30.6445 18.7192 30.5556 18.3661 30.5556 17.9699C30.5556 17.5686 30.6445 17.2155 30.8223 16.9108C31.0001 16.606 31.2414 16.3672 31.5462 16.1945C31.851 16.0218 32.199 15.9354 32.5901 15.9354C32.9863 15.9354 33.3368 16.0218 33.6416 16.1945C33.9515 16.3672 34.1928 16.606 34.3655 16.9108C34.5433 17.2155 34.6322 17.5686 34.6322 17.9699C34.6322 18.3661 34.5433 18.7192 34.3655 19.029C34.1928 19.3338 33.9515 19.5751 33.6416 19.7529C33.3317 19.9256 32.9812 20.012 32.5901 20.012ZM32.5901 19.5319C32.8796 19.5319 33.1362 19.4684 33.3597 19.3414C33.5832 19.2094 33.7584 19.0265 33.8854 18.7928C34.0175 18.5541 34.0836 18.2798 34.0836 17.9699C34.0836 17.655 34.0175 17.3806 33.8854 17.147C33.7584 16.9133 33.5832 16.733 33.3597 16.606C33.1362 16.4739 32.8822 16.4079 32.5977 16.4079C32.3132 16.4079 32.0593 16.4739 31.8357 16.606C31.6122 16.733 31.4344 16.9133 31.3024 17.147C31.1703 17.3806 31.1043 17.655 31.1043 17.9699C31.1043 18.2798 31.1703 18.5541 31.3024 18.7928C31.4344 19.0265 31.6122 19.2094 31.8357 19.3414C32.0593 19.4684 32.3107 19.5319 32.5901 19.5319ZM37.0777 20.012C36.7018 20.012 36.4123 19.9104 36.2091 19.7072C36.0059 19.504 35.9043 19.217 35.9043 18.8462V15.0897H36.4453V18.8157C36.4453 19.0494 36.5037 19.2297 36.6206 19.3567C36.7425 19.4837 36.9152 19.5472 37.1387 19.5472C37.3774 19.5472 37.5756 19.4786 37.733 19.3414L37.9235 19.73C37.8168 19.8266 37.6873 19.8977 37.5349 19.9434C37.3876 19.9891 37.2352 20.012 37.0777 20.012ZM35.1881 16.4231V15.9735H37.6645V16.4231H35.1881ZM41.4914 19.9739V19.09L41.4686 18.9452V17.467C41.4686 17.1267 41.3721 16.865 41.179 16.6822C40.9911 16.4993 40.7091 16.4079 40.3332 16.4079C40.0742 16.4079 39.8278 16.451 39.5941 16.5374C39.3605 16.6238 39.1624 16.738 38.9998 16.8803L38.756 16.4764C38.9592 16.3037 39.203 16.1717 39.4875 16.0802C39.7719 15.9837 40.0716 15.9354 40.3866 15.9354C40.9047 15.9354 41.3035 16.065 41.5829 16.324C41.8673 16.578 42.0096 16.9666 42.0096 17.4899V19.9739H41.4914ZM40.1123 20.012C39.8126 20.012 39.551 19.9637 39.3274 19.8672C39.109 19.7656 38.9414 19.6285 38.8245 19.4557C38.7077 19.2779 38.6493 19.0748 38.6493 18.8462C38.6493 18.6379 38.6976 18.4499 38.7941 18.2823C38.8957 18.1096 39.0582 17.9724 39.2817 17.8708C39.5103 17.7642 39.8151 17.7108 40.1961 17.7108H41.5753V18.1147H40.2113C39.8253 18.1147 39.556 18.1833 39.4036 18.3204C39.2563 18.4576 39.1827 18.6277 39.1827 18.8309C39.1827 19.0595 39.2716 19.2424 39.4494 19.3795C39.6272 19.5167 39.8761 19.5853 40.1961 19.5853C40.5009 19.5853 40.7625 19.5167 40.9809 19.3795C41.2044 19.2373 41.367 19.0341 41.4686 18.77L41.5905 19.1433C41.4889 19.4075 41.3111 19.6183 41.0571 19.7758C40.8082 19.9332 40.4933 20.012 40.1123 20.012ZM43.5552 19.9739V14.3201H44.0962V19.9739H43.5552ZM45.731 16.766C45.6193 16.766 45.5227 16.7253 45.4415 16.6441C45.3653 16.5628 45.3272 16.4637 45.3272 16.3469C45.3272 16.225 45.3653 16.1259 45.4415 16.0497C45.5227 15.9735 45.6193 15.9354 45.731 15.9354C45.8428 15.9354 45.9368 15.9735 46.0129 16.0497C46.0942 16.1259 46.1349 16.225 46.1349 16.3469C46.1349 16.4637 46.0942 16.5628 46.0129 16.6441C45.9368 16.7253 45.8428 16.766 45.731 16.766ZM45.731 20.012C45.6193 20.012 45.5227 19.9713 45.4415 19.8901C45.3653 19.8088 45.3272 19.7097 45.3272 19.5929C45.3272 19.471 45.3653 19.3719 45.4415 19.2957C45.5227 19.2195 45.6193 19.1814 45.731 19.1814C45.8428 19.1814 45.9368 19.2195 46.0129 19.2957C46.0942 19.3719 46.1349 19.471 46.1349 19.5929C46.1349 19.7097 46.0942 19.8088 46.0129 19.8901C45.9368 19.9713 45.8428 20.012 45.731 20.012Z" fill="#6E6B7B"/>
<path d="M13.3882 47.187V41.8532H13.952V47.187H13.3882ZM17.6915 43.1486C18.0166 43.1486 18.301 43.2121 18.5449 43.3391C18.7938 43.461 18.9868 43.6489 19.124 43.9029C19.2662 44.1569 19.3373 44.4769 19.3373 44.863V47.187H18.7963V44.9163C18.7963 44.4947 18.6896 44.1772 18.4763 43.9639C18.268 43.7455 17.9734 43.6362 17.5924 43.6362C17.3079 43.6362 17.059 43.6947 16.8457 43.8115C16.6374 43.9232 16.4748 44.0883 16.358 44.3068C16.2463 44.5201 16.1904 44.7792 16.1904 45.084V47.187H15.6494V43.1867H16.1675V44.2839L16.0837 44.0782C16.2107 43.7886 16.4139 43.5626 16.6933 43.4C16.9727 43.2324 17.3054 43.1486 17.6915 43.1486ZM22.5359 47.2251C22.1397 47.2251 21.7841 47.1388 21.4692 46.966C21.1593 46.7882 20.9155 46.547 20.7377 46.2422C20.5599 45.9323 20.471 45.5793 20.471 45.183C20.471 44.7817 20.5599 44.4287 20.7377 44.1239C20.9155 43.8191 21.1593 43.5804 21.4692 43.4076C21.7841 43.2349 22.1397 43.1486 22.5359 43.1486C22.8763 43.1486 23.1836 43.2146 23.4579 43.3467C23.7322 43.4788 23.9481 43.6769 24.1056 43.941L23.7017 44.2153C23.5646 44.0121 23.3944 43.8623 23.1912 43.7658C22.988 43.6693 22.767 43.621 22.5283 43.621C22.2438 43.621 21.9873 43.687 21.7587 43.8191C21.5301 43.9461 21.3498 44.1264 21.2177 44.3601C21.0856 44.5938 21.0196 44.8681 21.0196 45.183C21.0196 45.498 21.0856 45.7723 21.2177 46.006C21.3498 46.2396 21.5301 46.4225 21.7587 46.5546C21.9873 46.6816 22.2438 46.7451 22.5283 46.7451C22.767 46.7451 22.988 46.6968 23.1912 46.6003C23.3944 46.5038 23.5646 46.3565 23.7017 46.1584L24.1056 46.4327C23.9481 46.6917 23.7322 46.8898 23.4579 47.027C23.1836 47.1591 22.8763 47.2251 22.5359 47.2251ZM25.4467 47.2251C25.3349 47.2251 25.2384 47.1845 25.1571 47.1032C25.0809 47.0219 25.0428 46.9229 25.0428 46.806C25.0428 46.6841 25.0809 46.5851 25.1571 46.5089C25.2384 46.4327 25.3349 46.3946 25.4467 46.3946C25.5584 46.3946 25.6524 46.4327 25.7286 46.5089C25.8099 46.5851 25.8505 46.6841 25.8505 46.806C25.8505 46.9229 25.8099 47.0219 25.7286 47.1032C25.6524 47.1845 25.5584 47.2251 25.4467 47.2251ZM30.7853 47.187L28.4232 41.8532H29.0328L31.2425 46.8746H30.9072L33.1322 41.8532H33.7036L31.3415 47.187H30.7853ZM33.5368 47.187L35.9751 41.8532H36.5314L38.9697 47.187H38.3753L36.1351 42.1809H36.3637L34.1235 47.187H33.5368ZM34.4969 45.7621L34.6645 45.3049H37.7658L37.9334 45.7621H34.4969ZM40.6966 47.187V42.3409H38.8222V41.8532H43.1349V42.3409H41.2605V47.187H40.6966ZM43.9765 43.9791C43.8648 43.9791 43.7682 43.9385 43.687 43.8572C43.6108 43.7759 43.5727 43.6769 43.5727 43.56C43.5727 43.4381 43.6108 43.3391 43.687 43.2629C43.7682 43.1867 43.8648 43.1486 43.9765 43.1486C44.0883 43.1486 44.1823 43.1867 44.2584 43.2629C44.3397 43.3391 44.3804 43.4381 44.3804 43.56C44.3804 43.6769 44.3397 43.7759 44.2584 43.8572C44.1823 43.9385 44.0883 43.9791 43.9765 43.9791ZM43.9765 47.2251C43.8648 47.2251 43.7682 47.1845 43.687 47.1032C43.6108 47.0219 43.5727 46.9229 43.5727 46.806C43.5727 46.6841 43.6108 46.5851 43.687 46.5089C43.7682 46.4327 43.8648 46.3946 43.9765 46.3946C44.0883 46.3946 44.1823 46.4327 44.2584 46.5089C44.3397 46.5851 44.3804 46.6841 44.3804 46.806C44.3804 46.9229 44.3397 47.0219 44.2584 47.1032C44.1823 47.1845 44.0883 47.2251 43.9765 47.2251Z" fill="#6E6B7B"/>
<path d="M80.8194 19.9739V19.311L82.9377 17.2994C83.1155 17.1317 83.2476 16.9844 83.3339 16.8574C83.4203 16.7304 83.4762 16.6136 83.5016 16.5069C83.532 16.3952 83.5473 16.291 83.5473 16.1945C83.5473 15.9507 83.4635 15.7627 83.2958 15.6307C83.1282 15.4935 82.8818 15.4249 82.5567 15.4249C82.2976 15.4249 82.0614 15.4706 81.8481 15.5621C81.6398 15.6535 81.4595 15.7932 81.3071 15.9812L80.6137 15.4478C80.822 15.1684 81.1014 14.9525 81.4519 14.8001C81.8074 14.6426 82.2037 14.5639 82.6405 14.5639C83.0266 14.5639 83.3619 14.6274 83.6463 14.7544C83.9359 14.8763 84.1568 15.0516 84.3092 15.2801C84.4667 15.5087 84.5455 15.7805 84.5455 16.0955C84.5455 16.2682 84.5226 16.4409 84.4769 16.6136C84.4312 16.7812 84.3448 16.959 84.2178 17.147C84.0908 17.3349 83.9054 17.5457 83.6616 17.7794L81.8405 19.5091L81.6347 19.1357H84.7512V19.9739H80.8194ZM87.624 20.0501C87.2024 20.0501 86.8214 19.9434 86.4811 19.73C86.1458 19.5167 85.8817 19.2068 85.6886 18.8004C85.4956 18.389 85.3991 17.8912 85.3991 17.307C85.3991 16.7228 85.4956 16.2275 85.6886 15.8211C85.8817 15.4097 86.1458 15.0973 86.4811 14.8839C86.8214 14.6706 87.2024 14.5639 87.624 14.5639C88.0507 14.5639 88.4317 14.6706 88.767 14.8839C89.1023 15.0973 89.3664 15.4097 89.5594 15.8211C89.7576 16.2275 89.8566 16.7228 89.8566 17.307C89.8566 17.8912 89.7576 18.389 89.5594 18.8004C89.3664 19.2068 89.1023 19.5167 88.767 19.73C88.4317 19.9434 88.0507 20.0501 87.624 20.0501ZM87.624 19.189C87.873 19.189 88.0888 19.123 88.2717 18.9909C88.4546 18.8538 88.5968 18.6455 88.6984 18.3661C88.8051 18.0867 88.8584 17.7337 88.8584 17.307C88.8584 16.8752 88.8051 16.5222 88.6984 16.2478C88.5968 15.9685 88.4546 15.7627 88.2717 15.6307C88.0888 15.4935 87.873 15.4249 87.624 15.4249C87.3853 15.4249 87.1719 15.4935 86.984 15.6307C86.8011 15.7627 86.6563 15.9685 86.5497 16.2478C86.4481 16.5222 86.3973 16.8752 86.3973 17.307C86.3973 17.7337 86.4481 18.0867 86.5497 18.3661C86.6563 18.6455 86.8011 18.8538 86.984 18.9909C87.1719 19.123 87.3853 19.189 87.624 19.189ZM92.8272 20.0501C92.4055 20.0501 92.0246 19.9434 91.6842 19.73C91.3489 19.5167 91.0848 19.2068 90.8918 18.8004C90.6987 18.389 90.6022 17.8912 90.6022 17.307C90.6022 16.7228 90.6987 16.2275 90.8918 15.8211C91.0848 15.4097 91.3489 15.0973 91.6842 14.8839C92.0246 14.6706 92.4055 14.5639 92.8272 14.5639C93.2539 14.5639 93.6348 14.6706 93.9701 14.8839C94.3054 15.0973 94.5695 15.4097 94.7626 15.8211C94.9607 16.2275 95.0597 16.7228 95.0597 17.307C95.0597 17.8912 94.9607 18.389 94.7626 18.8004C94.5695 19.2068 94.3054 19.5167 93.9701 19.73C93.6348 19.9434 93.2539 20.0501 92.8272 20.0501ZM92.8272 19.189C93.0761 19.189 93.292 19.123 93.4748 18.9909C93.6577 18.8538 93.7999 18.6455 93.9015 18.3661C94.0082 18.0867 94.0615 17.7337 94.0615 17.307C94.0615 16.8752 94.0082 16.5222 93.9015 16.2478C93.7999 15.9685 93.6577 15.7627 93.4748 15.6307C93.292 15.4935 93.0761 15.4249 92.8272 15.4249C92.5884 15.4249 92.3751 15.4935 92.1871 15.6307C92.0042 15.7627 91.8595 15.9685 91.7528 16.2478C91.6512 16.5222 91.6004 16.8752 91.6004 17.307C91.6004 17.7337 91.6512 18.0867 91.7528 18.3661C91.8595 18.6455 92.0042 18.8538 92.1871 18.9909C92.3751 19.123 92.5884 19.189 92.8272 19.189ZM95.7541 21.1244L96.1961 19.4405L96.3256 20.0044C96.1478 20.0044 95.998 19.951 95.876 19.8443C95.7592 19.7326 95.7008 19.5827 95.7008 19.3948C95.7008 19.2017 95.7592 19.0494 95.876 18.9376C95.998 18.8208 96.1453 18.7623 96.318 18.7623C96.4958 18.7623 96.6431 18.8208 96.7599 18.9376C96.8768 19.0544 96.9352 19.2068 96.9352 19.3948C96.9352 19.4456 96.9301 19.5015 96.9199 19.5624C96.9098 19.6183 96.892 19.6843 96.8666 19.7605C96.8463 19.8367 96.8107 19.9332 96.7599 20.0501L96.3713 21.1244H95.7541ZM99.7882 20.0501C99.3665 20.0501 98.9856 19.9434 98.6452 19.73C98.3099 19.5167 98.0458 19.2068 97.8528 18.8004C97.6597 18.389 97.5632 17.8912 97.5632 17.307C97.5632 16.7228 97.6597 16.2275 97.8528 15.8211C98.0458 15.4097 98.3099 15.0973 98.6452 14.8839C98.9856 14.6706 99.3665 14.5639 99.7882 14.5639C100.215 14.5639 100.596 14.6706 100.931 14.8839C101.266 15.0973 101.531 15.4097 101.724 15.8211C101.922 16.2275 102.021 16.7228 102.021 17.307C102.021 17.8912 101.922 18.389 101.724 18.8004C101.531 19.2068 101.266 19.5167 100.931 19.73C100.596 19.9434 100.215 20.0501 99.7882 20.0501ZM99.7882 19.189C100.037 19.189 100.253 19.123 100.436 18.9909C100.619 18.8538 100.761 18.6455 100.863 18.3661C100.969 18.0867 101.023 17.7337 101.023 17.307C101.023 16.8752 100.969 16.5222 100.863 16.2478C100.761 15.9685 100.619 15.7627 100.436 15.6307C100.253 15.4935 100.037 15.4249 99.7882 15.4249C99.5494 15.4249 99.3361 15.4935 99.1481 15.6307C98.9652 15.7627 98.8205 15.9685 98.7138 16.2478C98.6122 16.5222 98.5614 16.8752 98.5614 17.307C98.5614 17.7337 98.6122 18.0867 98.7138 18.3661C98.8205 18.6455 98.9652 18.8538 99.1481 18.9909C99.3361 19.123 99.5494 19.189 99.7882 19.189ZM104.991 20.0501C104.57 20.0501 104.189 19.9434 103.848 19.73C103.513 19.5167 103.249 19.2068 103.056 18.8004C102.863 18.389 102.766 17.8912 102.766 17.307C102.766 16.7228 102.863 16.2275 103.056 15.8211C103.249 15.4097 103.513 15.0973 103.848 14.8839C104.189 14.6706 104.57 14.5639 104.991 14.5639C105.418 14.5639 105.799 14.6706 106.134 14.8839C106.469 15.0973 106.734 15.4097 106.927 15.8211C107.125 16.2275 107.224 16.7228 107.224 17.307C107.224 17.8912 107.125 18.389 106.927 18.8004C106.734 19.2068 106.469 19.5167 106.134 19.73C105.799 19.9434 105.418 20.0501 104.991 20.0501ZM104.991 19.189C105.24 19.189 105.456 19.123 105.639 18.9909C105.822 18.8538 105.964 18.6455 106.066 18.3661C106.172 18.0867 106.226 17.7337 106.226 17.307C106.226 16.8752 106.172 16.5222 106.066 16.2478C105.964 15.9685 105.822 15.7627 105.639 15.6307C105.456 15.4935 105.24 15.4249 104.991 15.4249C104.753 15.4249 104.539 15.4935 104.351 15.6307C104.168 15.7627 104.024 15.9685 103.917 16.2478C103.815 16.5222 103.765 16.8752 103.765 17.307C103.765 17.7337 103.815 18.0867 103.917 18.3661C104.024 18.6455 104.168 18.8538 104.351 18.9909C104.539 19.123 104.753 19.189 104.991 19.189ZM107.863 18.0994V17.5661H111.962V18.0994H107.863ZM107.863 17.0479V16.5145H111.962V17.0479H107.863ZM111.474 20.0501C111.063 20.0501 110.682 19.984 110.332 19.852C109.986 19.7148 109.686 19.5243 109.432 19.2805C109.178 19.0316 108.98 18.7395 108.838 18.4042C108.696 18.069 108.625 17.7032 108.625 17.307C108.625 16.9108 108.696 16.545 108.838 16.2098C108.98 15.8745 109.178 15.5849 109.432 15.3411C109.686 15.0922 109.986 14.9017 110.332 14.7696C110.682 14.6325 111.063 14.5639 111.474 14.5639C111.911 14.5639 112.31 14.6401 112.671 14.7925C113.037 14.9398 113.341 15.1608 113.585 15.4554L112.953 16.0574C112.76 15.8491 112.544 15.6942 112.305 15.5926C112.066 15.4859 111.807 15.4325 111.528 15.4325C111.248 15.4325 110.992 15.4783 110.758 15.5697C110.53 15.6611 110.329 15.7907 110.156 15.9583C109.989 16.1259 109.857 16.324 109.76 16.5526C109.664 16.7812 109.615 17.0327 109.615 17.307C109.615 17.5813 109.664 17.8327 109.76 18.0613C109.857 18.2899 109.989 18.488 110.156 18.6557C110.329 18.8233 110.53 18.9528 110.758 19.0443C110.992 19.1357 111.248 19.1814 111.528 19.1814C111.807 19.1814 112.066 19.1306 112.305 19.029C112.544 18.9224 112.76 18.7623 112.953 18.549L113.585 19.1586C113.341 19.4481 113.037 19.6691 112.671 19.8215C112.31 19.9739 111.911 20.0501 111.474 20.0501Z" fill="#6E6B7B"/>
<path d="M14.3597 33.5803L11.9976 28.2465H12.6072L14.8169 33.2679H14.4816L16.7066 28.2465H17.278L14.9159 33.5803H14.3597ZM17.1112 33.5803L19.5495 28.2465H20.1058L22.5441 33.5803H21.9497L19.7095 28.5742H19.9381L17.698 33.5803H17.1112ZM18.0713 32.1554L18.2389 31.6983H21.3402L21.5078 32.1554H18.0713ZM24.271 33.5803V28.7342H22.3966V28.2465H26.7093V28.7342H24.8349V33.5803H24.271ZM30.5644 35.0585C30.285 34.5963 30.0666 34.0629 29.9091 33.4584C29.7567 32.8488 29.6805 32.1935 29.6805 31.4925C29.6805 30.7915 29.7567 30.1362 29.9091 29.5266C30.0666 28.912 30.285 28.3786 30.5644 27.9265H31.0825C30.7828 28.4497 30.5618 29.006 30.4196 29.5952C30.2825 30.1794 30.2139 30.8118 30.2139 31.4925C30.2139 32.1732 30.2825 32.8082 30.4196 33.3974C30.5618 33.9816 30.7828 34.5353 31.0825 35.0585H30.5644ZM32.8721 33.5803V28.4751L33.116 28.7342H31.6149V28.2465H33.4208V33.5803H32.8721ZM36.8978 33.626C36.4864 33.626 36.1206 33.5194 35.8006 33.306C35.4806 33.0876 35.2291 32.7777 35.0463 32.3764C34.8634 31.97 34.7719 31.4824 34.7719 30.9134C34.7719 30.3445 34.8634 29.8594 35.0463 29.4581C35.2291 29.0517 35.4806 28.7418 35.8006 28.5285C36.1206 28.31 36.4864 28.2008 36.8978 28.2008C37.3093 28.2008 37.675 28.31 37.9951 28.5285C38.3151 28.7418 38.5665 29.0517 38.7494 29.4581C38.9374 29.8594 39.0314 30.3445 39.0314 30.9134C39.0314 31.4824 38.9374 31.97 38.7494 32.3764C38.5665 32.7777 38.3151 33.0876 37.9951 33.306C37.675 33.5194 37.3093 33.626 36.8978 33.626ZM36.8978 33.1231C37.2128 33.1231 37.4871 33.0393 37.7208 32.8717C37.9544 32.699 38.1373 32.4501 38.2694 32.125C38.4015 31.7948 38.4675 31.3909 38.4675 30.9134C38.4675 30.4359 38.4015 30.0346 38.2694 29.7095C38.1373 29.3793 37.9544 29.1304 37.7208 28.9628C37.4871 28.7901 37.2128 28.7037 36.8978 28.7037C36.5931 28.7037 36.3213 28.7901 36.0825 28.9628C35.8438 29.1304 35.6584 29.3793 35.5263 29.7095C35.3942 30.0346 35.3282 30.4359 35.3282 30.9134C35.3282 31.3909 35.3942 31.7948 35.5263 32.125C35.6584 32.4501 35.8438 32.699 36.0825 32.8717C36.3213 33.0393 36.5931 33.1231 36.8978 33.1231ZM40.6095 33.5803L44.2517 28.2465H44.7012L41.059 33.5803H40.6095ZM41.0209 31.1039C40.7822 31.1039 40.5714 31.0455 40.3885 30.9287C40.2056 30.8068 40.0634 30.6366 39.9618 30.4182C39.8653 30.1997 39.817 29.9457 39.817 29.6562C39.817 29.3666 39.8653 29.1126 39.9618 28.8942C40.0634 28.6758 40.2056 28.5081 40.3885 28.3913C40.5714 28.2694 40.7822 28.2084 41.0209 28.2084C41.2597 28.2084 41.4679 28.2694 41.6457 28.3913C41.8286 28.5081 41.9708 28.6758 42.0724 28.8942C42.174 29.1126 42.2248 29.3666 42.2248 29.6562C42.2248 29.9457 42.174 30.1997 42.0724 30.4182C41.9708 30.6366 41.8286 30.8068 41.6457 30.9287C41.4679 31.0455 41.2597 31.1039 41.0209 31.1039ZM41.0209 30.761C41.2698 30.761 41.4679 30.6645 41.6153 30.4715C41.7677 30.2734 41.8438 30.0016 41.8438 29.6562C41.8438 29.3108 41.7677 29.0415 41.6153 28.8485C41.4679 28.6504 41.2698 28.5513 41.0209 28.5513C40.7669 28.5513 40.5663 28.6504 40.419 28.8485C40.2717 29.0415 40.198 29.3108 40.198 29.6562C40.198 30.0016 40.2717 30.2734 40.419 30.4715C40.5663 30.6645 40.7669 30.761 41.0209 30.761ZM44.2898 33.6184C44.0561 33.6184 43.8478 33.56 43.665 33.4432C43.4821 33.3213 43.3398 33.1511 43.2383 32.9326C43.1367 32.7142 43.0859 32.4602 43.0859 32.1707C43.0859 31.8811 43.1367 31.6271 43.2383 31.4087C43.3398 31.1903 43.4821 31.0226 43.665 30.9058C43.8478 30.7839 44.0561 30.7229 44.2898 30.7229C44.5336 30.7229 44.7444 30.7839 44.9222 30.9058C45.1051 31.0226 45.2448 31.1903 45.3413 31.4087C45.4429 31.6271 45.4937 31.8811 45.4937 32.1707C45.4937 32.4602 45.4429 32.7142 45.3413 32.9326C45.2448 33.1511 45.1051 33.3213 44.9222 33.4432C44.7444 33.56 44.5336 33.6184 44.2898 33.6184ZM44.2898 33.2755C44.5387 33.2755 44.7368 33.179 44.8841 32.986C45.0365 32.7879 45.1127 32.5161 45.1127 32.1707C45.1127 31.8253 45.0365 31.556 44.8841 31.363C44.7368 31.1649 44.5387 31.0658 44.2898 31.0658C44.0409 31.0658 43.8402 31.1649 43.6878 31.363C43.5405 31.556 43.4668 31.8253 43.4668 32.1707C43.4668 32.5161 43.5405 32.7879 43.6878 32.986C43.8402 33.179 44.0409 33.2755 44.2898 33.2755ZM46.5648 35.0585H46.0466C46.3514 34.5353 46.5724 33.9816 46.7096 33.3974C46.8518 32.8082 46.9229 32.1732 46.9229 31.4925C46.9229 30.8118 46.8518 30.1794 46.7096 29.5952C46.5724 29.006 46.3514 28.4497 46.0466 27.9265H46.5648C46.8543 28.3786 47.0753 28.912 47.2277 29.5266C47.3801 30.1362 47.4563 30.7915 47.4563 31.4925C47.4563 32.1935 47.3801 32.8488 47.2277 33.4584C47.0753 34.0629 46.8543 34.5963 46.5648 35.0585ZM49.1334 30.3724C49.0216 30.3724 48.9251 30.3318 48.8438 30.2505C48.7676 30.1692 48.7295 30.0702 48.7295 29.9534C48.7295 29.8314 48.7676 29.7324 48.8438 29.6562C48.9251 29.58 49.0216 29.5419 49.1334 29.5419C49.2451 29.5419 49.3391 29.58 49.4153 29.6562C49.4966 29.7324 49.5372 29.8314 49.5372 29.9534C49.5372 30.0702 49.4966 30.1692 49.4153 30.2505C49.3391 30.3318 49.2451 30.3724 49.1334 30.3724ZM49.1334 33.6184C49.0216 33.6184 48.9251 33.5778 48.8438 33.4965C48.7676 33.4152 48.7295 33.3162 48.7295 33.1993C48.7295 33.0774 48.7676 32.9784 48.8438 32.9022C48.9251 32.826 49.0216 32.7879 49.1334 32.7879C49.2451 32.7879 49.3391 32.826 49.4153 32.9022C49.4966 32.9784 49.5372 33.0774 49.5372 33.1993C49.5372 33.3162 49.4966 33.4152 49.4153 33.4965C49.3391 33.5778 49.2451 33.6184 49.1334 33.6184Z" fill="#6E6B7B"/>
<path d="M85.7179 33.635V32.9721L87.8361 30.9605C88.0139 30.7929 88.146 30.6456 88.2324 30.5186C88.3187 30.3916 88.3746 30.2747 88.4 30.1681C88.4305 30.0563 88.4457 29.9522 88.4457 29.8556C88.4457 29.6118 88.3619 29.4239 88.1943 29.2918C88.0266 29.1546 87.7803 29.0861 87.4551 29.0861C87.1961 29.0861 86.9599 29.1318 86.7465 29.2232C86.5382 29.3146 86.3579 29.4543 86.2055 29.6423L85.5121 29.1089C85.7204 28.8295 85.9998 28.6136 86.3503 28.4612C86.7059 28.3038 87.1021 28.225 87.539 28.225C87.925 28.225 88.2603 28.2885 88.5448 28.4155C88.8343 28.5374 89.0553 28.7127 89.2077 28.9413C89.3652 29.1699 89.4439 29.4416 89.4439 29.7566C89.4439 29.9293 89.421 30.102 89.3753 30.2747C89.3296 30.4424 89.2432 30.6202 89.1162 30.8081C88.9892 30.9961 88.8038 31.2069 88.56 31.4405L86.7389 33.1702L86.5332 32.7968H89.6496V33.635H85.7179ZM92.5225 33.7112C92.1009 33.7112 91.7199 33.6045 91.3795 33.3912C91.0443 33.1778 90.7801 32.868 90.5871 32.4616C90.394 32.0501 90.2975 31.5523 90.2975 30.9681C90.2975 30.3839 90.394 29.8887 90.5871 29.4823C90.7801 29.0708 91.0443 28.7584 91.3795 28.5451C91.7199 28.3317 92.1009 28.225 92.5225 28.225C92.9492 28.225 93.3302 28.3317 93.6654 28.5451C94.0007 28.7584 94.2648 29.0708 94.4579 29.4823C94.656 29.8887 94.755 30.3839 94.755 30.9681C94.755 31.5523 94.656 32.0501 94.4579 32.4616C94.2648 32.868 94.0007 33.1778 93.6654 33.3912C93.3302 33.6045 92.9492 33.7112 92.5225 33.7112ZM92.5225 32.8502C92.7714 32.8502 92.9873 32.7841 93.1702 32.6521C93.353 32.5149 93.4953 32.3066 93.5969 32.0273C93.7035 31.7479 93.7569 31.3948 93.7569 30.9681C93.7569 30.5363 93.7035 30.1833 93.5969 29.909C93.4953 29.6296 93.353 29.4239 93.1702 29.2918C92.9873 29.1546 92.7714 29.0861 92.5225 29.0861C92.2837 29.0861 92.0704 29.1546 91.8824 29.2918C91.6996 29.4239 91.5548 29.6296 91.4481 29.909C91.3465 30.1833 91.2957 30.5363 91.2957 30.9681C91.2957 31.3948 91.3465 31.7479 91.4481 32.0273C91.5548 32.3066 91.6996 32.5149 91.8824 32.6521C92.0704 32.7841 92.2837 32.8502 92.5225 32.8502ZM95.4495 34.7856L95.8914 33.1016L96.0209 33.6655C95.8431 33.6655 95.6933 33.6122 95.5714 33.5055C95.4545 33.3937 95.3961 33.2439 95.3961 33.0559C95.3961 32.8629 95.4545 32.7105 95.5714 32.5987C95.6933 32.4819 95.8406 32.4235 96.0133 32.4235C96.1911 32.4235 96.3384 32.4819 96.4553 32.5987C96.5721 32.7156 96.6305 32.868 96.6305 33.0559C96.6305 33.1067 96.6254 33.1626 96.6153 33.2235C96.6051 33.2794 96.5873 33.3455 96.5619 33.4217C96.5416 33.4979 96.506 33.5944 96.4553 33.7112L96.0666 34.7856H95.4495ZM99.4835 33.7112C99.0619 33.7112 98.6809 33.6045 98.3405 33.3912C98.0053 33.1778 97.7411 32.868 97.5481 32.4616C97.355 32.0501 97.2585 31.5523 97.2585 30.9681C97.2585 30.3839 97.355 29.8887 97.5481 29.4823C97.7411 29.0708 98.0053 28.7584 98.3405 28.5451C98.6809 28.3317 99.0619 28.225 99.4835 28.225C99.9102 28.225 100.291 28.3317 100.626 28.5451C100.962 28.7584 101.226 29.0708 101.419 29.4823C101.617 29.8887 101.716 30.3839 101.716 30.9681C101.716 31.5523 101.617 32.0501 101.419 32.4616C101.226 32.868 100.962 33.1778 100.626 33.3912C100.291 33.6045 99.9102 33.7112 99.4835 33.7112ZM99.4835 32.8502C99.7324 32.8502 99.9483 32.7841 100.131 32.6521C100.314 32.5149 100.456 32.3066 100.558 32.0273C100.665 31.7479 100.718 31.3948 100.718 30.9681C100.718 30.5363 100.665 30.1833 100.558 29.909C100.456 29.6296 100.314 29.4239 100.131 29.2918C99.9483 29.1546 99.7324 29.0861 99.4835 29.0861C99.2447 29.0861 99.0314 29.1546 98.8434 29.2918C98.6606 29.4239 98.5158 29.6296 98.4091 29.909C98.3075 30.1833 98.2567 30.5363 98.2567 30.9681C98.2567 31.3948 98.3075 31.7479 98.4091 32.0273C98.5158 32.3066 98.6606 32.5149 98.8434 32.6521C99.0314 32.7841 99.2447 32.8502 99.4835 32.8502ZM104.687 33.7112C104.265 33.7112 103.884 33.6045 103.544 33.3912C103.208 33.1778 102.944 32.868 102.751 32.4616C102.558 32.0501 102.462 31.5523 102.462 30.9681C102.462 30.3839 102.558 29.8887 102.751 29.4823C102.944 29.0708 103.208 28.7584 103.544 28.5451C103.884 28.3317 104.265 28.225 104.687 28.225C105.113 28.225 105.494 28.3317 105.83 28.5451C106.165 28.7584 106.429 29.0708 106.622 29.4823C106.82 29.8887 106.919 30.3839 106.919 30.9681C106.919 31.5523 106.82 32.0501 106.622 32.4616C106.429 32.868 106.165 33.1778 105.83 33.3912C105.494 33.6045 105.113 33.7112 104.687 33.7112ZM104.687 32.8502C104.936 32.8502 105.151 32.7841 105.334 32.6521C105.517 32.5149 105.659 32.3066 105.761 32.0273C105.868 31.7479 105.921 31.3948 105.921 30.9681C105.921 30.5363 105.868 30.1833 105.761 29.909C105.659 29.6296 105.517 29.4239 105.334 29.2918C105.151 29.1546 104.936 29.0861 104.687 29.0861C104.448 29.0861 104.234 29.1546 104.047 29.2918C103.864 29.4239 103.719 29.6296 103.612 29.909C103.511 30.1833 103.46 30.5363 103.46 30.9681C103.46 31.3948 103.511 31.7479 103.612 32.0273C103.719 32.3066 103.864 32.5149 104.047 32.6521C104.234 32.7841 104.448 32.8502 104.687 32.8502ZM107.558 31.7606V31.2272H111.657V31.7606H107.558ZM107.558 30.709V30.1757H111.657V30.709H107.558ZM111.17 33.7112C110.758 33.7112 110.377 33.6452 110.027 33.5131C109.681 33.3759 109.382 33.1854 109.128 32.9416C108.874 32.6927 108.676 32.4006 108.533 32.0654C108.391 31.7301 108.32 31.3643 108.32 30.9681C108.32 30.5719 108.391 30.2061 108.533 29.8709C108.676 29.5356 108.874 29.2461 109.128 29.0022C109.382 28.7533 109.681 28.5628 110.027 28.4308C110.377 28.2936 110.758 28.225 111.17 28.225C111.607 28.225 112.005 28.3012 112.366 28.4536C112.732 28.6009 113.037 28.8219 113.28 29.1165L112.648 29.7185C112.455 29.5102 112.239 29.3553 112 29.2537C111.762 29.147 111.503 29.0937 111.223 29.0937C110.944 29.0937 110.687 29.1394 110.454 29.2308C110.225 29.3223 110.024 29.4518 109.852 29.6194C109.684 29.7871 109.552 29.9852 109.455 30.2138C109.359 30.4424 109.311 30.6938 109.311 30.9681C109.311 31.2424 109.359 31.4939 109.455 31.7225C109.552 31.9511 109.684 32.1492 109.852 32.3168C110.024 32.4844 110.225 32.614 110.454 32.7054C110.687 32.7968 110.944 32.8426 111.223 32.8426C111.503 32.8426 111.762 32.7918 112 32.6902C112.239 32.5835 112.455 32.4235 112.648 32.2101L113.28 32.8197C113.037 33.1093 112.732 33.3302 112.366 33.4826C112.005 33.635 111.607 33.7112 111.17 33.7112Z" fill="#6E6B7B"/>
<path d="M80.2744 47.187V46.5241L82.3927 44.5125C82.5704 44.3449 82.7025 44.1976 82.7889 44.0706C82.8752 43.9436 82.9311 43.8267 82.9565 43.7201C82.987 43.6083 83.0022 43.5042 83.0022 43.4076C83.0022 43.1638 82.9184 42.9759 82.7508 42.8438C82.5831 42.7066 82.3368 42.6381 82.0117 42.6381C81.7526 42.6381 81.5164 42.6838 81.303 42.7752C81.0948 42.8666 80.9144 43.0063 80.762 43.1943L80.0686 42.6609C80.2769 42.3815 80.5563 42.1656 80.9068 42.0132C81.2624 41.8558 81.6586 41.777 82.0955 41.777C82.4815 41.777 82.8168 41.8405 83.1013 41.9675C83.3908 42.0894 83.6118 42.2647 83.7642 42.4933C83.9217 42.7219 84.0004 42.9936 84.0004 43.3086C84.0004 43.4813 83.9775 43.654 83.9318 43.8267C83.8861 43.9944 83.7998 44.1722 83.6728 44.3601C83.5458 44.5481 83.3604 44.7589 83.1165 44.9925L81.2954 46.7222L81.0897 46.3488H84.2061V47.187H80.2744ZM84.7855 47.187V46.5241L86.9037 44.5125C87.0815 44.3449 87.2136 44.1976 87.3 44.0706C87.3863 43.9436 87.4422 43.8267 87.4676 43.7201C87.4981 43.6083 87.5133 43.5042 87.5133 43.4076C87.5133 43.1638 87.4295 42.9759 87.2619 42.8438C87.0942 42.7066 86.8479 42.6381 86.5228 42.6381C86.2637 42.6381 86.0275 42.6838 85.8141 42.7752C85.6059 42.8666 85.4255 43.0063 85.2731 43.1943L84.5797 42.6609C84.788 42.3815 85.0674 42.1656 85.4179 42.0132C85.7735 41.8558 86.1697 41.777 86.6066 41.777C86.9926 41.777 87.3279 41.8405 87.6124 41.9675C87.9019 42.0894 88.1229 42.2647 88.2753 42.4933C88.4328 42.7219 88.5115 42.9936 88.5115 43.3086C88.5115 43.4813 88.4886 43.654 88.4429 43.8267C88.3972 43.9944 88.3108 44.1722 88.1839 44.3601C88.0569 44.5481 87.8714 44.7589 87.6276 44.9925L85.8065 46.7222L85.6008 46.3488H88.7172V47.187H84.7855ZM91.5901 47.2632C91.1685 47.2632 90.7875 47.1565 90.4471 46.9432C90.1119 46.7298 89.8477 46.42 89.6547 46.0136C89.4617 45.6021 89.3651 45.1043 89.3651 44.5201C89.3651 43.9359 89.4617 43.4407 89.6547 43.0343C89.8477 42.6228 90.1119 42.3104 90.4471 42.0971C90.7875 41.8837 91.1685 41.777 91.5901 41.777C92.0168 41.777 92.3978 41.8837 92.733 42.0971C93.0683 42.3104 93.3325 42.6228 93.5255 43.0343C93.7236 43.4407 93.8227 43.9359 93.8227 44.5201C93.8227 45.1043 93.7236 45.6021 93.5255 46.0136C93.3325 46.42 93.0683 46.7298 92.733 46.9432C92.3978 47.1565 92.0168 47.2632 91.5901 47.2632ZM91.5901 46.4022C91.839 46.4022 92.0549 46.3361 92.2378 46.2041C92.4206 46.0669 92.5629 45.8586 92.6645 45.5793C92.7711 45.2999 92.8245 44.9468 92.8245 44.5201C92.8245 44.0883 92.7711 43.7353 92.6645 43.461C92.5629 43.1816 92.4206 42.9759 92.2378 42.8438C92.0549 42.7066 91.839 42.6381 91.5901 42.6381C91.3513 42.6381 91.138 42.7066 90.95 42.8438C90.7672 42.9759 90.6224 43.1816 90.5157 43.461C90.4141 43.7353 90.3633 44.0883 90.3633 44.5201C90.3633 44.9468 90.4141 45.2999 90.5157 45.5793C90.6224 45.8586 90.7672 46.0669 90.95 46.2041C91.138 46.3361 91.3513 46.4022 91.5901 46.4022ZM94.5171 48.3376L94.959 46.6536L95.0885 47.2175C94.9107 47.2175 94.7609 47.1642 94.639 47.0575C94.5221 46.9457 94.4637 46.7959 94.4637 46.6079C94.4637 46.4149 94.5221 46.2625 94.639 46.1507C94.7609 46.0339 94.9082 45.9755 95.0809 45.9755C95.2587 45.9755 95.406 46.0339 95.5229 46.1507C95.6397 46.2676 95.6981 46.42 95.6981 46.6079C95.6981 46.6587 95.693 46.7146 95.6829 46.7755C95.6727 46.8314 95.6549 46.8975 95.6295 46.9737C95.6092 47.0499 95.5737 47.1464 95.5229 47.2632L95.1343 48.3376H94.5171ZM98.5511 47.2632C98.1295 47.2632 97.7485 47.1565 97.4081 46.9432C97.0729 46.7298 96.8087 46.42 96.6157 46.0136C96.4227 45.6021 96.3261 45.1043 96.3261 44.5201C96.3261 43.9359 96.4227 43.4407 96.6157 43.0343C96.8087 42.6228 97.0729 42.3104 97.4081 42.0971C97.7485 41.8837 98.1295 41.777 98.5511 41.777C98.9778 41.777 99.3588 41.8837 99.694 42.0971C100.029 42.3104 100.293 42.6228 100.486 43.0343C100.685 43.4407 100.784 43.9359 100.784 44.5201C100.784 45.1043 100.685 45.6021 100.486 46.0136C100.293 46.42 100.029 46.7298 99.694 46.9432C99.3588 47.1565 98.9778 47.2632 98.5511 47.2632ZM98.5511 46.4022C98.8 46.4022 99.0159 46.3361 99.1988 46.2041C99.3816 46.0669 99.5239 45.8586 99.6255 45.5793C99.7321 45.2999 99.7855 44.9468 99.7855 44.5201C99.7855 44.0883 99.7321 43.7353 99.6255 43.461C99.5239 43.1816 99.3816 42.9759 99.1988 42.8438C99.0159 42.7066 98.8 42.6381 98.5511 42.6381C98.3123 42.6381 98.099 42.7066 97.911 42.8438C97.7282 42.9759 97.5834 43.1816 97.4767 43.461C97.3751 43.7353 97.3243 44.0883 97.3243 44.5201C97.3243 44.9468 97.3751 45.2999 97.4767 45.5793C97.5834 45.8586 97.7282 46.0669 97.911 46.2041C98.099 46.3361 98.3123 46.4022 98.5511 46.4022ZM103.754 47.2632C103.333 47.2632 102.952 47.1565 102.611 46.9432C102.276 46.7298 102.012 46.42 101.819 46.0136C101.626 45.6021 101.529 45.1043 101.529 44.5201C101.529 43.9359 101.626 43.4407 101.819 43.0343C102.012 42.6228 102.276 42.3104 102.611 42.0971C102.952 41.8837 103.333 41.777 103.754 41.777C104.181 41.777 104.562 41.8837 104.897 42.0971C105.232 42.3104 105.497 42.6228 105.69 43.0343C105.888 43.4407 105.987 43.9359 105.987 44.5201C105.987 45.1043 105.888 45.6021 105.69 46.0136C105.497 46.42 105.232 46.7298 104.897 46.9432C104.562 47.1565 104.181 47.2632 103.754 47.2632ZM103.754 46.4022C104.003 46.4022 104.219 46.3361 104.402 46.2041C104.585 46.0669 104.727 45.8586 104.829 45.5793C104.935 45.2999 104.989 44.9468 104.989 44.5201C104.989 44.0883 104.935 43.7353 104.829 43.461C104.727 43.1816 104.585 42.9759 104.402 42.8438C104.219 42.7066 104.003 42.6381 103.754 42.6381C103.515 42.6381 103.302 42.7066 103.114 42.8438C102.931 42.9759 102.787 43.1816 102.68 43.461C102.578 43.7353 102.527 44.0883 102.527 44.5201C102.527 44.9468 102.578 45.2999 102.68 45.5793C102.787 45.8586 102.931 46.0669 103.114 46.2041C103.302 46.3361 103.515 46.4022 103.754 46.4022ZM106.626 45.3126V44.7792H110.725V45.3126H106.626ZM106.626 44.2611V43.7277H110.725V44.2611H106.626ZM110.237 47.2632C109.826 47.2632 109.445 47.1972 109.094 47.0651C108.749 46.9279 108.449 46.7375 108.195 46.4936C107.941 46.2447 107.743 45.9526 107.601 45.6174C107.459 45.2821 107.388 44.9163 107.388 44.5201C107.388 44.1239 107.459 43.7582 107.601 43.4229C107.743 43.0876 107.941 42.7981 108.195 42.5542C108.449 42.3053 108.749 42.1148 109.094 41.9828C109.445 41.8456 109.826 41.777 110.237 41.777C110.674 41.777 111.073 41.8532 111.434 42.0056C111.799 42.1529 112.104 42.3739 112.348 42.6685L111.716 43.2705C111.523 43.0622 111.307 42.9073 111.068 42.8057C110.829 42.699 110.57 42.6457 110.291 42.6457C110.011 42.6457 109.755 42.6914 109.521 42.7828C109.293 42.8743 109.092 43.0038 108.919 43.1714C108.752 43.3391 108.62 43.5372 108.523 43.7658C108.426 43.9944 108.378 44.2458 108.378 44.5201C108.378 44.7944 108.426 45.0459 108.523 45.2745C108.62 45.5031 108.752 45.7012 108.919 45.8688C109.092 46.0364 109.293 46.166 109.521 46.2574C109.755 46.3488 110.011 46.3946 110.291 46.3946C110.57 46.3946 110.829 46.3438 111.068 46.2422C111.307 46.1355 111.523 45.9755 111.716 45.7621L112.348 46.3717C112.104 46.6613 111.799 46.8822 111.434 47.0346C111.073 47.187 110.674 47.2632 110.237 47.2632Z" fill="#6E6B7B"/>
<path d="M14.8568 89.6854C14.4606 89.6854 14.0796 89.6219 13.7139 89.4949C13.3532 89.3628 13.0738 89.1952 12.8757 88.992L13.0967 88.5577C13.2846 88.7405 13.5361 88.8955 13.851 89.0225C14.1711 89.1444 14.5063 89.2053 14.8568 89.2053C15.1921 89.2053 15.4639 89.1647 15.6721 89.0834C15.8855 88.9971 16.0404 88.8828 16.1369 88.7405C16.2385 88.5983 16.2893 88.4408 16.2893 88.2681C16.2893 88.0598 16.2284 87.8922 16.1065 87.7652C15.9896 87.6382 15.8347 87.5392 15.6417 87.468C15.4486 87.3918 15.2353 87.3258 15.0016 87.2699C14.7679 87.214 14.5343 87.1556 14.3006 87.0947C14.0669 87.0286 13.851 86.9423 13.6529 86.8356C13.4599 86.7289 13.3024 86.5892 13.1805 86.4165C13.0637 86.2387 13.0052 86.0076 13.0052 85.7231C13.0052 85.459 13.0738 85.2177 13.211 84.9993C13.3532 84.7757 13.5691 84.598 13.8586 84.4659C14.1482 84.3287 14.519 84.2601 14.9711 84.2601C15.2708 84.2601 15.568 84.3033 15.8626 84.3897C16.1572 84.471 16.4112 84.5853 16.6246 84.7326L16.4341 85.1821C16.2055 85.0297 15.9617 84.918 15.7026 84.8469C15.4486 84.7757 15.2022 84.7402 14.9635 84.7402C14.6435 84.7402 14.3793 84.7834 14.1711 84.8697C13.9628 84.9561 13.8078 85.0729 13.7062 85.2202C13.6097 85.3625 13.5615 85.525 13.5615 85.7079C13.5615 85.9162 13.6199 86.0838 13.7367 86.2108C13.8586 86.3378 14.0161 86.4368 14.2091 86.508C14.4073 86.5791 14.6232 86.6426 14.8568 86.6984C15.0905 86.7543 15.3216 86.8153 15.5502 86.8813C15.7839 86.9474 15.9972 87.0337 16.1903 87.1404C16.3884 87.242 16.5459 87.3791 16.6627 87.5519C16.7846 87.7246 16.8456 87.9506 16.8456 88.23C16.8456 88.4891 16.7744 88.7304 16.6322 88.9539C16.49 89.1723 16.2715 89.3501 15.9769 89.4873C15.6874 89.6193 15.314 89.6854 14.8568 89.6854ZM19.6895 89.6777C19.3491 89.6777 19.052 89.6142 18.798 89.4873C18.544 89.3603 18.3459 89.1698 18.2037 88.9158C18.0665 88.6618 17.9979 88.3443 17.9979 87.9633V85.6393H18.5389V87.9024C18.5389 88.3291 18.6431 88.6516 18.8513 88.8701C19.0647 89.0834 19.3618 89.1901 19.7428 89.1901C20.0222 89.1901 20.2635 89.1342 20.4667 89.0225C20.675 88.9056 20.8324 88.738 20.9391 88.5196C21.0509 88.3011 21.1068 88.0395 21.1068 87.7347V85.6393H21.6478V89.6396H21.1296V88.5424L21.2134 88.7405C21.0864 89.0352 20.8883 89.2663 20.6191 89.4339C20.3549 89.5965 20.0451 89.6777 19.6895 89.6777ZM25.2966 89.6777C24.9461 89.6777 24.6312 89.599 24.3518 89.4415C24.0724 89.279 23.8514 89.0453 23.6889 88.7405C23.5263 88.4357 23.445 88.0675 23.445 87.6357C23.445 87.1988 23.5263 86.8305 23.6889 86.5308C23.8565 86.226 24.08 85.9949 24.3594 85.8374C24.6388 85.68 24.9512 85.6012 25.2966 85.6012C25.6776 85.6012 26.018 85.6876 26.3177 85.8603C26.6225 86.0279 26.8612 86.2641 27.0339 86.5689C27.2066 86.8737 27.293 87.2293 27.293 87.6357C27.293 88.037 27.2066 88.3926 27.0339 88.7024C26.8612 89.0072 26.6225 89.246 26.3177 89.4187C26.018 89.5914 25.6776 89.6777 25.2966 89.6777ZM23.2317 89.6396V83.9858H23.7727V86.8204L23.6965 87.6281L23.7498 88.4357V89.6396H23.2317ZM25.2585 89.1977C25.543 89.1977 25.797 89.1342 26.0205 89.0072C26.244 88.8751 26.4218 88.6923 26.5539 88.4586C26.686 88.2198 26.752 87.9455 26.752 87.6357C26.752 87.3207 26.686 87.0464 26.5539 86.8127C26.4218 86.5791 26.244 86.3987 26.0205 86.2717C25.797 86.1397 25.543 86.0736 25.2585 86.0736C24.9741 86.0736 24.7175 86.1397 24.4889 86.2717C24.2654 86.3987 24.0876 86.5791 23.9556 86.8127C23.8286 87.0464 23.7651 87.3207 23.7651 87.6357C23.7651 87.9455 23.8286 88.2198 23.9556 88.4586C24.0876 88.6923 24.2654 88.8751 24.4889 89.0072C24.7175 89.1342 24.9741 89.1977 25.2585 89.1977ZM29.7369 89.6777C29.361 89.6777 29.0714 89.5762 28.8682 89.373C28.665 89.1698 28.5635 88.8828 28.5635 88.5119V84.7554H29.1044V88.4815C29.1044 88.7151 29.1629 88.8955 29.2797 89.0225C29.4016 89.1494 29.5743 89.2129 29.7978 89.2129C30.0366 89.2129 30.2347 89.1444 30.3922 89.0072L30.5827 89.3958C30.476 89.4923 30.3465 89.5635 30.1941 89.6092C30.0467 89.6549 29.8944 89.6777 29.7369 89.6777ZM27.8472 86.0889V85.6393H30.3236V86.0889H27.8472ZM33.1329 89.6777C32.7469 89.6777 32.3989 89.5914 32.089 89.4187C31.7843 89.2409 31.543 88.9996 31.3652 88.6948C31.1874 88.3849 31.0985 88.0319 31.0985 87.6357C31.0985 87.2344 31.1874 86.8813 31.3652 86.5765C31.543 86.2717 31.7843 86.033 32.089 85.8603C32.3938 85.6876 32.7418 85.6012 33.1329 85.6012C33.5292 85.6012 33.8797 85.6876 34.1845 85.8603C34.4943 86.033 34.7356 86.2717 34.9083 86.5765C35.0861 86.8813 35.175 87.2344 35.175 87.6357C35.175 88.0319 35.0861 88.3849 34.9083 88.6948C34.7356 88.9996 34.4943 89.2409 34.1845 89.4187C33.8746 89.5914 33.5241 89.6777 33.1329 89.6777ZM33.1329 89.1977C33.4225 89.1977 33.679 89.1342 33.9025 89.0072C34.126 88.8751 34.3013 88.6923 34.4283 88.4586C34.5604 88.2198 34.6264 87.9455 34.6264 87.6357C34.6264 87.3207 34.5604 87.0464 34.4283 86.8127C34.3013 86.5791 34.126 86.3987 33.9025 86.2717C33.679 86.1397 33.425 86.0736 33.1406 86.0736C32.8561 86.0736 32.6021 86.1397 32.3786 86.2717C32.1551 86.3987 31.9773 86.5791 31.8452 86.8127C31.7131 87.0464 31.6471 87.3207 31.6471 87.6357C31.6471 87.9455 31.7131 88.2198 31.8452 88.4586C31.9773 88.6923 32.1551 88.8751 32.3786 89.0072C32.6021 89.1342 32.8536 89.1977 33.1329 89.1977ZM37.6206 89.6777C37.2447 89.6777 36.9551 89.5762 36.7519 89.373C36.5487 89.1698 36.4471 88.8828 36.4471 88.5119V84.7554H36.9881V88.4815C36.9881 88.7151 37.0466 88.8955 37.1634 89.0225C37.2853 89.1494 37.458 89.2129 37.6815 89.2129C37.9203 89.2129 38.1184 89.1444 38.2759 89.0072L38.4664 89.3958C38.3597 89.4923 38.2302 89.5635 38.0778 89.6092C37.9304 89.6549 37.7781 89.6777 37.6206 89.6777ZM35.7309 86.0889V85.6393H38.2073V86.0889H35.7309ZM42.0343 89.6396V88.7558L42.0114 88.611V87.1328C42.0114 86.7924 41.9149 86.5308 41.7219 86.3479C41.5339 86.1651 41.252 86.0736 40.8761 86.0736C40.617 86.0736 40.3707 86.1168 40.137 86.2032C39.9033 86.2895 39.7052 86.4038 39.5426 86.5461L39.2988 86.1422C39.502 85.9695 39.7458 85.8374 40.0303 85.746C40.3148 85.6495 40.6145 85.6012 40.9294 85.6012C41.4476 85.6012 41.8463 85.7307 42.1257 85.9898C42.4102 86.2438 42.5524 86.6324 42.5524 87.1556V89.6396H42.0343ZM40.6551 89.6777C40.3554 89.6777 40.0938 89.6295 39.8703 89.533C39.6519 89.4314 39.4842 89.2942 39.3674 89.1215C39.2506 88.9437 39.1921 88.7405 39.1921 88.5119C39.1921 88.3037 39.2404 88.1157 39.3369 87.9481C39.4385 87.7754 39.6011 87.6382 39.8246 87.5366C40.0532 87.4299 40.358 87.3766 40.7389 87.3766H42.1181V87.7804H40.7542C40.3681 87.7804 40.0989 87.849 39.9465 87.9862C39.7992 88.1233 39.7255 88.2935 39.7255 88.4967C39.7255 88.7253 39.8144 88.9082 39.9922 89.0453C40.17 89.1825 40.4189 89.251 40.7389 89.251C41.0437 89.251 41.3053 89.1825 41.5238 89.0453C41.7473 88.9031 41.9098 88.6999 42.0114 88.4357L42.1333 88.8091C42.0317 89.0733 41.854 89.2841 41.6 89.4415C41.3511 89.599 41.0361 89.6777 40.6551 89.6777ZM44.098 89.6396V83.9858H44.639V89.6396H44.098ZM46.2739 86.4318C46.1621 86.4318 46.0656 86.3911 45.9843 86.3098C45.9081 86.2286 45.87 86.1295 45.87 86.0127C45.87 85.8908 45.9081 85.7917 45.9843 85.7155C46.0656 85.6393 46.1621 85.6012 46.2739 85.6012C46.3856 85.6012 46.4796 85.6393 46.5558 85.7155C46.6371 85.7917 46.6777 85.8908 46.6777 86.0127C46.6777 86.1295 46.6371 86.2286 46.5558 86.3098C46.4796 86.3911 46.3856 86.4318 46.2739 86.4318ZM46.2739 89.6777C46.1621 89.6777 46.0656 89.6371 45.9843 89.5558C45.9081 89.4746 45.87 89.3755 45.87 89.2587C45.87 89.1367 45.9081 89.0377 45.9843 88.9615C46.0656 88.8853 46.1621 88.8472 46.2739 88.8472C46.3856 88.8472 46.4796 88.8853 46.5558 88.9615C46.6371 89.0377 46.6777 89.1367 46.6777 89.2587C46.6777 89.3755 46.6371 89.4746 46.5558 89.5558C46.4796 89.6371 46.3856 89.6777 46.2739 89.6777Z" fill="#6E6B7B"/>
<path d="M83.3723 89.6396V84.6869L83.8066 85.1364H82.2446V84.3059H84.3628V89.6396H83.3723ZM87.6382 89.7158C87.1963 89.7158 86.8128 89.6498 86.4876 89.5177C86.1625 89.3857 85.9111 89.2002 85.7333 88.9615C85.5555 88.7177 85.4666 88.4332 85.4666 88.1081C85.4666 87.783 85.553 87.5087 85.7257 87.2852C85.8984 87.0617 86.1473 86.8915 86.4724 86.7746C86.7975 86.6578 87.1861 86.5994 87.6382 86.5994C88.0903 86.5994 88.4789 86.6578 88.804 86.7746C89.1342 86.8915 89.3857 87.0642 89.5584 87.2928C89.7362 87.5163 89.8251 87.7881 89.8251 88.1081C89.8251 88.4332 89.7336 88.7177 89.5508 88.9615C89.373 89.2002 89.119 89.3857 88.7888 89.5177C88.4637 89.6498 88.0802 89.7158 87.6382 89.7158ZM87.6382 88.9386C88.004 88.9386 88.2935 88.8624 88.5069 88.71C88.7202 88.5577 88.8269 88.3468 88.8269 88.0776C88.8269 87.8135 88.7202 87.6052 88.5069 87.4528C88.2935 87.3004 88.004 87.2242 87.6382 87.2242C87.2725 87.2242 86.9855 87.3004 86.7772 87.4528C86.5689 87.6052 86.4648 87.8135 86.4648 88.0776C86.4648 88.3468 86.5689 88.5577 86.7772 88.71C86.9855 88.8624 87.2725 88.9386 87.6382 88.9386ZM87.6382 87.1175C87.2268 87.1175 86.8737 87.0642 86.5791 86.9575C86.2845 86.8458 86.0559 86.6857 85.8933 86.4775C85.7358 86.2641 85.6571 86.0101 85.6571 85.7155C85.6571 85.4107 85.7384 85.1491 85.9009 84.9307C86.0686 84.7072 86.3022 84.5345 86.6019 84.4125C86.9016 84.2906 87.2471 84.2297 87.6382 84.2297C88.0344 84.2297 88.3824 84.2906 88.6821 84.4125C88.9818 84.5345 89.2155 84.7072 89.3831 84.9307C89.5508 85.1491 89.6346 85.4107 89.6346 85.7155C89.6346 86.0101 89.5533 86.2641 89.3907 86.4775C89.2333 86.6857 89.0047 86.8458 88.705 86.9575C88.4053 87.0642 88.0497 87.1175 87.6382 87.1175ZM87.6382 86.508C87.9532 86.508 88.2021 86.4419 88.3849 86.3098C88.5678 86.1727 88.6593 85.9898 88.6593 85.7612C88.6593 85.5225 88.5653 85.3371 88.3773 85.205C88.1894 85.0729 87.943 85.0069 87.6382 85.0069C87.3334 85.0069 87.0896 85.0729 86.9067 85.205C86.7239 85.3371 86.6324 85.5225 86.6324 85.7612C86.6324 85.9898 86.7213 86.1727 86.8991 86.3098C87.082 86.4419 87.3284 86.508 87.6382 86.508ZM92.7689 89.7158C92.3473 89.7158 91.9663 89.6092 91.6259 89.3958C91.2907 89.1825 91.0265 88.8726 90.8335 88.4662C90.6405 88.0548 90.5439 87.5569 90.5439 86.9728C90.5439 86.3886 90.6405 85.8933 90.8335 85.4869C91.0265 85.0755 91.2907 84.763 91.6259 84.5497C91.9663 84.3363 92.3473 84.2297 92.7689 84.2297C93.1956 84.2297 93.5766 84.3363 93.9118 84.5497C94.2471 84.763 94.5113 85.0755 94.7043 85.4869C94.9024 85.8933 95.0015 86.3886 95.0015 86.9728C95.0015 87.5569 94.9024 88.0548 94.7043 88.4662C94.5113 88.8726 94.2471 89.1825 93.9118 89.3958C93.5766 89.6092 93.1956 89.7158 92.7689 89.7158ZM92.7689 88.8548C93.0178 88.8548 93.2337 88.7888 93.4166 88.6567C93.5994 88.5196 93.7417 88.3113 93.8433 88.0319C93.9499 87.7525 94.0033 87.3995 94.0033 86.9728C94.0033 86.541 93.9499 86.1879 93.8433 85.9136C93.7417 85.6342 93.5994 85.4285 93.4166 85.2964C93.2337 85.1593 93.0178 85.0907 92.7689 85.0907C92.5301 85.0907 92.3168 85.1593 92.1288 85.2964C91.946 85.4285 91.8012 85.6342 91.6945 85.9136C91.5929 86.1879 91.5421 86.541 91.5421 86.9728C91.5421 87.3995 91.5929 87.7525 91.6945 88.0319C91.8012 88.3113 91.946 88.5196 92.1288 88.6567C92.3168 88.7888 92.5301 88.8548 92.7689 88.8548ZM95.6959 90.7902L96.1378 89.1063L96.2673 89.6701C96.0895 89.6701 95.9397 89.6168 95.8178 89.5101C95.7009 89.3984 95.6425 89.2485 95.6425 89.0606C95.6425 88.8675 95.7009 88.7151 95.8178 88.6034C95.9397 88.4865 96.087 88.4281 96.2597 88.4281C96.4375 88.4281 96.5848 88.4865 96.7017 88.6034C96.8185 88.7202 96.8769 88.8726 96.8769 89.0606C96.8769 89.1114 96.8718 89.1672 96.8617 89.2282C96.8515 89.2841 96.8337 89.3501 96.8083 89.4263C96.788 89.5025 96.7525 89.599 96.7017 89.7158L96.3131 90.7902H95.6959ZM99.7299 89.7158C99.3083 89.7158 98.9273 89.6092 98.5869 89.3958C98.2517 89.1825 97.9875 88.8726 97.7945 88.4662C97.6015 88.0548 97.5049 87.5569 97.5049 86.9728C97.5049 86.3886 97.6015 85.8933 97.7945 85.4869C97.9875 85.0755 98.2517 84.763 98.5869 84.5497C98.9273 84.3363 99.3083 84.2297 99.7299 84.2297C100.157 84.2297 100.538 84.3363 100.873 84.5497C101.208 84.763 101.472 85.0755 101.665 85.4869C101.863 85.8933 101.962 86.3886 101.962 86.9728C101.962 87.5569 101.863 88.0548 101.665 88.4662C101.472 88.8726 101.208 89.1825 100.873 89.3958C100.538 89.6092 100.157 89.7158 99.7299 89.7158ZM99.7299 88.8548C99.9788 88.8548 100.195 88.7888 100.378 88.6567C100.56 88.5196 100.703 88.3113 100.804 88.0319C100.911 87.7525 100.964 87.3995 100.964 86.9728C100.964 86.541 100.911 86.1879 100.804 85.9136C100.703 85.6342 100.56 85.4285 100.378 85.2964C100.195 85.1593 99.9788 85.0907 99.7299 85.0907C99.4911 85.0907 99.2778 85.1593 99.0898 85.2964C98.907 85.4285 98.7622 85.6342 98.6555 85.9136C98.5539 86.1879 98.5031 86.541 98.5031 86.9728C98.5031 87.3995 98.5539 87.7525 98.6555 88.0319C98.7622 88.3113 98.907 88.5196 99.0898 88.6567C99.2778 88.7888 99.4911 88.8548 99.7299 88.8548ZM104.933 89.7158C104.511 89.7158 104.13 89.6092 103.79 89.3958C103.455 89.1825 103.191 88.8726 102.998 88.4662C102.805 88.0548 102.708 87.5569 102.708 86.9728C102.708 86.3886 102.805 85.8933 102.998 85.4869C103.191 85.0755 103.455 84.763 103.79 84.5497C104.13 84.3363 104.511 84.2297 104.933 84.2297C105.36 84.2297 105.741 84.3363 106.076 84.5497C106.411 84.763 106.675 85.0755 106.868 85.4869C107.067 85.8933 107.166 86.3886 107.166 86.9728C107.166 87.5569 107.067 88.0548 106.868 88.4662C106.675 88.8726 106.411 89.1825 106.076 89.3958C105.741 89.6092 105.36 89.7158 104.933 89.7158ZM104.933 88.8548C105.182 88.8548 105.398 88.7888 105.581 88.6567C105.764 88.5196 105.906 88.3113 106.007 88.0319C106.114 87.7525 106.167 87.3995 106.167 86.9728C106.167 86.541 106.114 86.1879 106.007 85.9136C105.906 85.6342 105.764 85.4285 105.581 85.2964C105.398 85.1593 105.182 85.0907 104.933 85.0907C104.694 85.0907 104.481 85.1593 104.293 85.2964C104.11 85.4285 103.965 85.6342 103.859 85.9136C103.757 86.1879 103.706 86.541 103.706 86.9728C103.706 87.3995 103.757 87.7525 103.859 88.0319C103.965 88.3113 104.11 88.5196 104.293 88.6567C104.481 88.7888 104.694 88.8548 104.933 88.8548ZM107.804 87.7652V87.2318H111.904V87.7652H107.804ZM107.804 86.7137V86.1803H111.904V86.7137H107.804ZM111.416 89.7158C111.005 89.7158 110.624 89.6498 110.273 89.5177C109.928 89.3806 109.628 89.1901 109.374 88.9463C109.12 88.6973 108.922 88.4053 108.78 88.07C108.638 87.7347 108.566 87.369 108.566 86.9728C108.566 86.5765 108.638 86.2108 108.78 85.8755C108.922 85.5403 109.12 85.2507 109.374 85.0069C109.628 84.758 109.928 84.5675 110.273 84.4354C110.624 84.2982 111.005 84.2297 111.416 84.2297C111.853 84.2297 112.252 84.3059 112.613 84.4583C112.978 84.6056 113.283 84.8265 113.527 85.1212L112.894 85.7231C112.701 85.5149 112.486 85.3599 112.247 85.2583C112.008 85.1517 111.749 85.0983 111.47 85.0983C111.19 85.0983 110.934 85.144 110.7 85.2355C110.471 85.3269 110.271 85.4564 110.098 85.6241C109.93 85.7917 109.798 85.9898 109.702 86.2184C109.605 86.447 109.557 86.6984 109.557 86.9728C109.557 87.2471 109.605 87.4985 109.702 87.7271C109.798 87.9557 109.93 88.1538 110.098 88.3214C110.271 88.4891 110.471 88.6186 110.7 88.71C110.934 88.8015 111.19 88.8472 111.47 88.8472C111.749 88.8472 112.008 88.7964 112.247 88.6948C112.486 88.5881 112.701 88.4281 112.894 88.2148L113.527 88.8243C113.283 89.1139 112.978 89.3349 112.613 89.4873C112.252 89.6396 111.853 89.7158 111.416 89.7158Z" fill="#6E6B7B"/>
<path d="M14.9046 103.246L12.5425 97.9123H13.1521L15.3618 102.934H15.0265L17.2515 97.9123H17.823L15.4609 103.246H14.9046ZM17.6562 103.246L20.0945 97.9123H20.6507L23.089 103.246H22.4947L20.2545 98.24H20.4831L18.2429 103.246H17.6562ZM18.6162 101.821L18.7839 101.364H21.8851L22.0527 101.821H18.6162ZM24.8159 103.246V98.4H22.9415V97.9123H27.2542V98.4H25.3798V103.246H24.8159ZM31.1093 104.724C30.8299 104.262 30.6115 103.729 30.454 103.124C30.3016 102.515 30.2254 101.859 30.2254 101.158C30.2254 100.457 30.3016 99.802 30.454 99.1924C30.6115 98.5778 30.8299 98.0444 31.1093 97.5923H31.6274C31.3277 98.1155 31.1068 98.6717 30.9645 99.261C30.8274 99.8452 30.7588 100.478 30.7588 101.158C30.7588 101.839 30.8274 102.474 30.9645 103.063C31.1068 103.647 31.3277 104.201 31.6274 104.724H31.1093ZM33.4171 103.246V98.1409L33.6609 98.4H32.1598V97.9123H33.9657V103.246H33.4171ZM37.4428 103.292C37.0313 103.292 36.6656 103.185 36.3455 102.972C36.0255 102.753 35.774 102.443 35.5912 102.042C35.4083 101.636 35.3169 101.148 35.3169 100.579C35.3169 100.01 35.4083 99.5251 35.5912 99.1238C35.774 98.7175 36.0255 98.4076 36.3455 98.1942C36.6656 97.9758 37.0313 97.8666 37.4428 97.8666C37.8542 97.8666 38.22 97.9758 38.54 98.1942C38.86 98.4076 39.1115 98.7175 39.2943 99.1238C39.4823 99.5251 39.5763 100.01 39.5763 100.579C39.5763 101.148 39.4823 101.636 39.2943 102.042C39.1115 102.443 38.86 102.753 38.54 102.972C38.22 103.185 37.8542 103.292 37.4428 103.292ZM37.4428 102.789C37.7577 102.789 38.032 102.705 38.2657 102.537C38.4994 102.365 38.6822 102.116 38.8143 101.791C38.9464 101.461 39.0124 101.057 39.0124 100.579C39.0124 100.102 38.9464 99.7004 38.8143 99.3753C38.6822 99.0451 38.4994 98.7962 38.2657 98.6286C38.032 98.4558 37.7577 98.3695 37.4428 98.3695C37.138 98.3695 36.8662 98.4558 36.6275 98.6286C36.3887 98.7962 36.2033 99.0451 36.0712 99.3753C35.9391 99.7004 35.8731 100.102 35.8731 100.579C35.8731 101.057 35.9391 101.461 36.0712 101.791C36.2033 102.116 36.3887 102.365 36.6275 102.537C36.8662 102.705 37.138 102.789 37.4428 102.789ZM41.1544 103.246L44.7966 97.9123H45.2462L41.6039 103.246H41.1544ZM41.5658 100.77C41.3271 100.77 41.1163 100.711 40.9334 100.594C40.7505 100.473 40.6083 100.302 40.5067 100.084C40.4102 99.8655 40.3619 99.6115 40.3619 99.322C40.3619 99.0324 40.4102 98.7784 40.5067 98.56C40.6083 98.3416 40.7505 98.1739 40.9334 98.0571C41.1163 97.9352 41.3271 97.8742 41.5658 97.8742C41.8046 97.8742 42.0129 97.9352 42.1907 98.0571C42.3735 98.1739 42.5158 98.3416 42.6174 98.56C42.719 98.7784 42.7698 99.0324 42.7698 99.322C42.7698 99.6115 42.719 99.8655 42.6174 100.084C42.5158 100.302 42.3735 100.473 42.1907 100.594C42.0129 100.711 41.8046 100.77 41.5658 100.77ZM41.5658 100.427C41.8148 100.427 42.0129 100.33 42.1602 100.137C42.3126 99.9391 42.3888 99.6674 42.3888 99.322C42.3888 98.9765 42.3126 98.7073 42.1602 98.5143C42.0129 98.3162 41.8148 98.2171 41.5658 98.2171C41.3119 98.2171 41.1112 98.3162 40.9639 98.5143C40.8166 98.7073 40.7429 98.9765 40.7429 99.322C40.7429 99.6674 40.8166 99.9391 40.9639 100.137C41.1112 100.33 41.3119 100.427 41.5658 100.427ZM44.8347 103.284C44.601 103.284 44.3927 103.226 44.2099 103.109C44.027 102.987 43.8848 102.817 43.7832 102.598C43.6816 102.38 43.6308 102.126 43.6308 101.836C43.6308 101.547 43.6816 101.293 43.7832 101.074C43.8848 100.856 44.027 100.688 44.2099 100.572C44.3927 100.45 44.601 100.389 44.8347 100.389C45.0785 100.389 45.2893 100.45 45.4671 100.572C45.65 100.688 45.7897 100.856 45.8862 101.074C45.9878 101.293 46.0386 101.547 46.0386 101.836C46.0386 102.126 45.9878 102.38 45.8862 102.598C45.7897 102.817 45.65 102.987 45.4671 103.109C45.2893 103.226 45.0785 103.284 44.8347 103.284ZM44.8347 102.941C45.0836 102.941 45.2817 102.845 45.429 102.652C45.5814 102.454 45.6576 102.182 45.6576 101.836C45.6576 101.491 45.5814 101.222 45.429 101.029C45.2817 100.831 45.0836 100.732 44.8347 100.732C44.5858 100.732 44.3851 100.831 44.2327 101.029C44.0854 101.222 44.0118 101.491 44.0118 101.836C44.0118 102.182 44.0854 102.454 44.2327 102.652C44.3851 102.845 44.5858 102.941 44.8347 102.941ZM47.1097 104.724H46.5916C46.8964 104.201 47.1173 103.647 47.2545 103.063C47.3967 102.474 47.4678 101.839 47.4678 101.158C47.4678 100.478 47.3967 99.8452 47.2545 99.261C47.1173 98.6717 46.8964 98.1155 46.5916 97.5923H47.1097C47.3993 98.0444 47.6202 98.5778 47.7726 99.1924C47.925 99.802 48.0012 100.457 48.0012 101.158C48.0012 101.859 47.925 102.515 47.7726 103.124C47.6202 103.729 47.3993 104.262 47.1097 104.724ZM49.6783 100.038C49.5666 100.038 49.47 99.9976 49.3888 99.9163C49.3126 99.835 49.2745 99.736 49.2745 99.6191C49.2745 99.4972 49.3126 99.3982 49.3888 99.322C49.47 99.2458 49.5666 99.2077 49.6783 99.2077C49.7901 99.2077 49.884 99.2458 49.9602 99.322C50.0415 99.3982 50.0822 99.4972 50.0822 99.6191C50.0822 99.736 50.0415 99.835 49.9602 99.9163C49.884 99.9976 49.7901 100.038 49.6783 100.038ZM49.6783 103.284C49.5666 103.284 49.47 103.244 49.3888 103.162C49.3126 103.081 49.2745 102.982 49.2745 102.865C49.2745 102.743 49.3126 102.644 49.3888 102.568C49.47 102.492 49.5666 102.454 49.6783 102.454C49.7901 102.454 49.884 102.492 49.9602 102.568C50.0415 102.644 50.0822 102.743 50.0822 102.865C50.0822 102.982 50.0415 103.081 49.9602 103.162C49.884 103.244 49.7901 103.284 49.6783 103.284Z" fill="#6E6B7B"/>
<path d="M88.2728 103.246V98.2933L88.7071 98.7429H87.1451V97.9123H89.2633V103.246H88.2728ZM92.5387 103.322C92.0968 103.322 91.7133 103.256 91.3882 103.124C91.0631 102.992 90.8116 102.807 90.6338 102.568C90.456 102.324 90.3671 102.04 90.3671 101.715C90.3671 101.389 90.4535 101.115 90.6262 100.892C90.7989 100.668 91.0478 100.498 91.3729 100.381C91.698 100.264 92.0866 100.206 92.5387 100.206C92.9908 100.206 93.3794 100.264 93.7045 100.381C94.0347 100.498 94.2862 100.671 94.4589 100.899C94.6367 101.123 94.7256 101.395 94.7256 101.715C94.7256 102.04 94.6341 102.324 94.4513 102.568C94.2735 102.807 94.0195 102.992 93.6893 103.124C93.3642 103.256 92.9807 103.322 92.5387 103.322ZM92.5387 102.545C92.9045 102.545 93.194 102.469 93.4074 102.316C93.6207 102.164 93.7274 101.953 93.7274 101.684C93.7274 101.42 93.6207 101.212 93.4074 101.059C93.194 100.907 92.9045 100.831 92.5387 100.831C92.173 100.831 91.886 100.907 91.6777 101.059C91.4694 101.212 91.3653 101.42 91.3653 101.684C91.3653 101.953 91.4694 102.164 91.6777 102.316C91.886 102.469 92.173 102.545 92.5387 102.545ZM92.5387 100.724C92.1273 100.724 91.7742 100.671 91.4796 100.564C91.185 100.452 90.9564 100.292 90.7938 100.084C90.6363 99.8706 90.5576 99.6166 90.5576 99.322C90.5576 99.0172 90.6389 98.7556 90.8014 98.5371C90.9691 98.3136 91.2027 98.1409 91.5025 98.019C91.8022 97.8971 92.1476 97.8361 92.5387 97.8361C92.935 97.8361 93.2829 97.8971 93.5826 98.019C93.8823 98.1409 94.116 98.3136 94.2836 98.5371C94.4513 98.7556 94.5351 99.0172 94.5351 99.322C94.5351 99.6166 94.4538 99.8706 94.2913 100.084C94.1338 100.292 93.9052 100.452 93.6055 100.564C93.3058 100.671 92.9502 100.724 92.5387 100.724ZM92.5387 100.114C92.8537 100.114 93.1026 100.048 93.2855 99.9163C93.4683 99.7791 93.5598 99.5963 93.5598 99.3677C93.5598 99.1289 93.4658 98.9435 93.2778 98.8114C93.0899 98.6794 92.8435 98.6133 92.5387 98.6133C92.2339 98.6133 91.9901 98.6794 91.8072 98.8114C91.6244 98.9435 91.5329 99.1289 91.5329 99.3677C91.5329 99.5963 91.6218 99.7791 91.7996 99.9163C91.9825 100.048 92.2289 100.114 92.5387 100.114ZM95.557 104.397L95.9989 102.713L96.1284 103.277C95.9506 103.277 95.8008 103.223 95.6789 103.117C95.562 103.005 95.5036 102.855 95.5036 102.667C95.5036 102.474 95.562 102.322 95.6789 102.21C95.8008 102.093 95.9481 102.035 96.1208 102.035C96.2986 102.035 96.4459 102.093 96.5628 102.21C96.6796 102.327 96.738 102.479 96.738 102.667C96.738 102.718 96.7329 102.774 96.7228 102.835C96.7126 102.891 96.6948 102.957 96.6694 103.033C96.6491 103.109 96.6136 103.205 96.5628 103.322L96.1742 104.397H95.557ZM99.591 103.322C99.1694 103.322 98.7884 103.216 98.448 103.002C98.1128 102.789 97.8486 102.479 97.6556 102.073C97.4626 101.661 97.366 101.163 97.366 100.579C97.366 99.995 97.4626 99.4997 97.6556 99.0934C97.8486 98.6819 98.1128 98.3695 98.448 98.1561C98.7884 97.9428 99.1694 97.8361 99.591 97.8361C100.018 97.8361 100.399 97.9428 100.734 98.1561C101.069 98.3695 101.333 98.6819 101.526 99.0934C101.725 99.4997 101.824 99.995 101.824 100.579C101.824 101.163 101.725 101.661 101.526 102.073C101.333 102.479 101.069 102.789 100.734 103.002C100.399 103.216 100.018 103.322 99.591 103.322ZM99.591 102.461C99.8399 102.461 100.056 102.395 100.239 102.263C100.422 102.126 100.564 101.918 100.665 101.638C100.772 101.359 100.825 101.006 100.825 100.579C100.825 100.147 100.772 99.7944 100.665 99.5201C100.564 99.2407 100.422 99.0349 100.239 98.9029C100.056 98.7657 99.8399 98.6971 99.591 98.6971C99.3522 98.6971 99.1389 98.7657 98.9509 98.9029C98.7681 99.0349 98.6233 99.2407 98.5166 99.5201C98.415 99.7944 98.3642 100.147 98.3642 100.579C98.3642 101.006 98.415 101.359 98.5166 101.638C98.6233 101.918 98.7681 102.126 98.9509 102.263C99.1389 102.395 99.3522 102.461 99.591 102.461ZM104.794 103.322C104.372 103.322 103.991 103.216 103.651 103.002C103.316 102.789 103.052 102.479 102.859 102.073C102.666 101.661 102.569 101.163 102.569 100.579C102.569 99.995 102.666 99.4997 102.859 99.0934C103.052 98.6819 103.316 98.3695 103.651 98.1561C103.991 97.9428 104.372 97.8361 104.794 97.8361C105.221 97.8361 105.602 97.9428 105.937 98.1561C106.272 98.3695 106.536 98.6819 106.73 99.0934C106.928 99.4997 107.027 99.995 107.027 100.579C107.027 101.163 106.928 101.661 106.73 102.073C106.536 102.479 106.272 102.789 105.937 103.002C105.602 103.216 105.221 103.322 104.794 103.322ZM104.794 102.461C105.043 102.461 105.259 102.395 105.442 102.263C105.625 102.126 105.767 101.918 105.868 101.638C105.975 101.359 106.028 101.006 106.028 100.579C106.028 100.147 105.975 99.7944 105.868 99.5201C105.767 99.2407 105.625 99.0349 105.442 98.9029C105.259 98.7657 105.043 98.6971 104.794 98.6971C104.555 98.6971 104.342 98.7657 104.154 98.9029C103.971 99.0349 103.826 99.2407 103.72 99.5201C103.618 99.7944 103.567 100.147 103.567 100.579C103.567 101.006 103.618 101.359 103.72 101.638C103.826 101.918 103.971 102.126 104.154 102.263C104.342 102.395 104.555 102.461 104.794 102.461ZM107.666 101.372V100.838H111.765V101.372H107.666ZM107.666 100.32V99.7868H111.765V100.32H107.666ZM111.277 103.322C110.866 103.322 110.485 103.256 110.134 103.124C109.789 102.987 109.489 102.797 109.235 102.553C108.981 102.304 108.783 102.012 108.641 101.676C108.499 101.341 108.428 100.975 108.428 100.579C108.428 100.183 108.499 99.8172 108.641 99.482C108.783 99.1467 108.981 98.8572 109.235 98.6133C109.489 98.3644 109.789 98.1739 110.134 98.0418C110.485 97.9047 110.866 97.8361 111.277 97.8361C111.714 97.8361 112.113 97.9123 112.474 98.0647C112.839 98.212 113.144 98.433 113.388 98.7276L112.756 99.3296C112.563 99.1213 112.347 98.9664 112.108 98.8648C111.869 98.7581 111.61 98.7048 111.331 98.7048C111.051 98.7048 110.795 98.7505 110.561 98.8419C110.332 98.9334 110.132 99.0629 109.959 99.2305C109.791 99.3982 109.659 99.5963 109.563 99.8249C109.466 100.053 109.418 100.305 109.418 100.579C109.418 100.854 109.466 101.105 109.563 101.334C109.659 101.562 109.791 101.76 109.959 101.928C110.132 102.096 110.332 102.225 110.561 102.316C110.795 102.408 111.051 102.454 111.331 102.454C111.61 102.454 111.869 102.403 112.108 102.301C112.347 102.195 112.563 102.035 112.756 101.821L113.388 102.431C113.144 102.72 112.839 102.941 112.474 103.094C112.113 103.246 111.714 103.322 111.277 103.322Z" fill="#6E6B7B"/>
<path d="M13.8798 124.472V119.626H12.0053V119.139H16.3181V119.626H14.4436V124.472H13.8798ZM18.3947 124.511C18.0086 124.511 17.6606 124.424 17.3508 124.251C17.046 124.074 16.8047 123.832 16.6269 123.528C16.4491 123.218 16.3602 122.865 16.3602 122.468C16.3602 122.067 16.4491 121.714 16.6269 121.409C16.8047 121.105 17.046 120.866 17.3508 120.693C17.6556 120.52 18.0035 120.434 18.3947 120.434C18.7909 120.434 19.1414 120.52 19.4462 120.693C19.7561 120.866 19.9974 121.105 20.1701 121.409C20.3479 121.714 20.4368 122.067 20.4368 122.468C20.4368 122.865 20.3479 123.218 20.1701 123.528C19.9974 123.832 19.7561 124.074 19.4462 124.251C19.1363 124.424 18.7858 124.511 18.3947 124.511ZM18.3947 124.03C18.6842 124.03 18.9408 123.967 19.1643 123.84C19.3878 123.708 19.563 123.525 19.69 123.291C19.8221 123.053 19.8881 122.778 19.8881 122.468C19.8881 122.153 19.8221 121.879 19.69 121.646C19.563 121.412 19.3878 121.232 19.1643 121.105C18.9408 120.972 18.6868 120.906 18.4023 120.906C18.1178 120.906 17.8638 120.972 17.6403 121.105C17.4168 121.232 17.239 121.412 17.107 121.646C16.9749 121.879 16.9088 122.153 16.9088 122.468C16.9088 122.778 16.9749 123.053 17.107 123.291C17.239 123.525 17.4168 123.708 17.6403 123.84C17.8638 123.967 18.1153 124.03 18.3947 124.03ZM22.8823 124.511C22.5064 124.511 22.2169 124.409 22.0137 124.206C21.8105 124.003 21.7089 123.716 21.7089 123.345V119.588H22.2499V123.314C22.2499 123.548 22.3083 123.728 22.4251 123.855C22.5471 123.982 22.7198 124.046 22.9433 124.046C23.182 124.046 23.3801 123.977 23.5376 123.84L23.7281 124.229C23.6214 124.325 23.4919 124.396 23.3395 124.442C23.1922 124.488 23.0398 124.511 22.8823 124.511ZM20.9926 120.922V120.472H23.469V120.922H20.9926ZM27.296 124.472V123.589L27.2732 123.444V121.966C27.2732 121.625 27.1766 121.364 26.9836 121.181C26.7957 120.998 26.5137 120.906 26.1378 120.906C25.8788 120.906 25.6324 120.95 25.3987 121.036C25.165 121.122 24.9669 121.237 24.8044 121.379L24.5606 120.975C24.7637 120.802 25.0076 120.67 25.292 120.579C25.5765 120.482 25.8762 120.434 26.1912 120.434C26.7093 120.434 27.1081 120.564 27.3875 120.823C27.6719 121.077 27.8142 121.465 27.8142 121.988V124.472H27.296ZM25.9169 124.511C25.6172 124.511 25.3555 124.462 25.132 124.366C24.9136 124.264 24.746 124.127 24.6291 123.954C24.5123 123.776 24.4539 123.573 24.4539 123.345C24.4539 123.136 24.5021 122.948 24.5987 122.781C24.7002 122.608 24.8628 122.471 25.0863 122.369C25.3149 122.263 25.6197 122.209 26.0007 122.209H27.3798V122.613H26.0159C25.6299 122.613 25.3606 122.682 25.2082 122.819C25.0609 122.956 24.9873 123.126 24.9873 123.329C24.9873 123.558 25.0762 123.741 25.2539 123.878C25.4317 124.015 25.6806 124.084 26.0007 124.084C26.3055 124.084 26.5671 124.015 26.7855 123.878C27.009 123.736 27.1716 123.533 27.2732 123.269L27.3951 123.642C27.2935 123.906 27.1157 124.117 26.8617 124.274C26.6128 124.432 26.2978 124.511 25.9169 124.511ZM29.3598 124.472V118.819H29.9008V124.472H29.3598Z" fill="#6E6B7B"/>
<path d="M83.3743 124.472V119.52L83.8087 119.969H82.2466V119.139H84.3649V124.472H83.3743ZM87.2974 119.062C87.7851 119.062 88.1991 119.167 88.5394 119.375C88.8848 119.578 89.149 119.875 89.3319 120.266C89.5147 120.657 89.6062 121.14 89.6062 121.714C89.6062 122.324 89.4944 122.839 89.2709 123.261C89.0525 123.683 88.7477 124.003 88.3565 124.221C87.9654 124.439 87.5108 124.549 86.9926 124.549C86.7234 124.549 86.4669 124.521 86.223 124.465C85.9792 124.409 85.7684 124.323 85.5906 124.206L85.9563 123.459C86.1037 123.556 86.2637 123.624 86.4364 123.665C86.6091 123.7 86.7869 123.718 86.9698 123.718C87.4727 123.718 87.8714 123.563 88.1661 123.253C88.4607 122.943 88.608 122.486 88.608 121.882C88.608 121.785 88.6055 121.673 88.6004 121.546C88.5953 121.414 88.5775 121.282 88.547 121.15L88.8518 121.485C88.7655 121.694 88.641 121.869 88.4785 122.011C88.3159 122.148 88.1254 122.253 87.907 122.324C87.6886 122.395 87.4473 122.43 87.1831 122.43C86.8377 122.43 86.5253 122.364 86.2459 122.232C85.9716 122.095 85.7532 121.905 85.5906 121.661C85.428 121.412 85.3468 121.122 85.3468 120.792C85.3468 120.437 85.4331 120.132 85.6058 119.878C85.7786 119.619 86.0122 119.418 86.3068 119.276C86.6066 119.134 86.9367 119.062 87.2974 119.062ZM87.3507 119.84C87.1476 119.84 86.9672 119.878 86.8097 119.954C86.6523 120.025 86.5278 120.129 86.4364 120.266C86.35 120.398 86.3068 120.558 86.3068 120.746C86.3068 121.026 86.4034 121.247 86.5964 121.409C86.7894 121.572 87.0485 121.653 87.3736 121.653C87.587 121.653 87.7749 121.615 87.9375 121.539C88.1 121.458 88.227 121.348 88.3184 121.211C88.4099 121.069 88.4556 120.911 88.4556 120.739C88.4556 120.571 88.4124 120.421 88.3261 120.289C88.2397 120.152 88.1153 120.043 87.9527 119.962C87.7901 119.88 87.5895 119.84 87.3507 119.84ZM92.4937 124.549C92.0517 124.549 91.6682 124.483 91.3431 124.35C91.018 124.218 90.7665 124.033 90.5888 123.794C90.411 123.55 90.3221 123.266 90.3221 122.941C90.3221 122.616 90.4084 122.341 90.5811 122.118C90.7538 121.894 91.0028 121.724 91.3279 121.607C91.653 121.491 92.0416 121.432 92.4937 121.432C92.9458 121.432 93.3344 121.491 93.6595 121.607C93.9897 121.724 94.2411 121.897 94.4138 122.126C94.5916 122.349 94.6805 122.621 94.6805 122.941C94.6805 123.266 94.5891 123.55 94.4062 123.794C94.2284 124.033 93.9744 124.218 93.6443 124.35C93.3191 124.483 92.9356 124.549 92.4937 124.549ZM92.4937 123.771C92.8594 123.771 93.149 123.695 93.3623 123.543C93.5757 123.39 93.6823 123.18 93.6823 122.91C93.6823 122.646 93.5757 122.438 93.3623 122.286C93.149 122.133 92.8594 122.057 92.4937 122.057C92.1279 122.057 91.8409 122.133 91.6327 122.286C91.4244 122.438 91.3202 122.646 91.3202 122.91C91.3202 123.18 91.4244 123.39 91.6327 123.543C91.8409 123.695 92.1279 123.771 92.4937 123.771ZM92.4937 121.95C92.0822 121.95 91.7292 121.897 91.4345 121.79C91.1399 121.679 90.9113 121.519 90.7488 121.31C90.5913 121.097 90.5126 120.843 90.5126 120.548C90.5126 120.243 90.5938 119.982 90.7564 119.763C90.924 119.54 91.1577 119.367 91.4574 119.245C91.7571 119.123 92.1025 119.062 92.4937 119.062C92.8899 119.062 93.2379 119.123 93.5376 119.245C93.8373 119.367 94.071 119.54 94.2386 119.763C94.4062 119.982 94.49 120.243 94.49 120.548C94.49 120.843 94.4088 121.097 94.2462 121.31C94.0887 121.519 93.8601 121.679 93.5604 121.79C93.2607 121.897 92.9051 121.95 92.4937 121.95ZM92.4937 121.341C92.8086 121.341 93.0575 121.275 93.2404 121.143C93.4233 121.005 93.5147 120.823 93.5147 120.594C93.5147 120.355 93.4207 120.17 93.2328 120.038C93.0448 119.906 92.7985 119.84 92.4937 119.84C92.1889 119.84 91.9451 119.906 91.7622 120.038C91.5793 120.17 91.4879 120.355 91.4879 120.594C91.4879 120.823 91.5768 121.005 91.7546 121.143C91.9374 121.275 92.1838 121.341 92.4937 121.341ZM95.5119 125.623L95.9538 123.939L96.0834 124.503C95.9056 124.503 95.7557 124.45 95.6338 124.343C95.517 124.231 95.4586 124.081 95.4586 123.893C95.4586 123.7 95.517 123.548 95.6338 123.436C95.7557 123.319 95.9031 123.261 96.0758 123.261C96.2536 123.261 96.4009 123.319 96.5177 123.436C96.6345 123.553 96.693 123.705 96.693 123.893C96.693 123.944 96.6879 124 96.6777 124.061C96.6676 124.117 96.6498 124.183 96.6244 124.259C96.6041 124.335 96.5685 124.432 96.5177 124.549L96.1291 125.623H95.5119ZM99.5459 124.549C99.1243 124.549 98.7433 124.442 98.403 124.229C98.0677 124.015 97.8036 123.705 97.6105 123.299C97.4175 122.888 97.321 122.39 97.321 121.806C97.321 121.221 97.4175 120.726 97.6105 120.32C97.8036 119.908 98.0677 119.596 98.403 119.382C98.7433 119.169 99.1243 119.062 99.5459 119.062C99.9726 119.062 100.354 119.169 100.689 119.382C101.024 119.596 101.288 119.908 101.481 120.32C101.679 120.726 101.779 121.221 101.779 121.806C101.779 122.39 101.679 122.888 101.481 123.299C101.288 123.705 101.024 124.015 100.689 124.229C100.354 124.442 99.9726 124.549 99.5459 124.549ZM99.5459 123.688C99.7948 123.688 100.011 123.622 100.194 123.489C100.376 123.352 100.519 123.144 100.62 122.865C100.727 122.585 100.78 122.232 100.78 121.806C100.78 121.374 100.727 121.021 100.62 120.746C100.519 120.467 100.376 120.261 100.194 120.129C100.011 119.992 99.7948 119.923 99.5459 119.923C99.3072 119.923 99.0938 119.992 98.9059 120.129C98.723 120.261 98.5782 120.467 98.4716 120.746C98.37 121.021 98.3192 121.374 98.3192 121.806C98.3192 122.232 98.37 122.585 98.4716 122.865C98.5782 123.144 98.723 123.352 98.9059 123.489C99.0938 123.622 99.3072 123.688 99.5459 123.688ZM104.749 124.549C104.327 124.549 103.946 124.442 103.606 124.229C103.271 124.015 103.007 123.705 102.814 123.299C102.621 122.888 102.524 122.39 102.524 121.806C102.524 121.221 102.621 120.726 102.814 120.32C103.007 119.908 103.271 119.596 103.606 119.382C103.946 119.169 104.327 119.062 104.749 119.062C105.176 119.062 105.557 119.169 105.892 119.382C106.227 119.596 106.491 119.908 106.684 120.32C106.883 120.726 106.982 121.221 106.982 121.806C106.982 122.39 106.883 122.888 106.684 123.299C106.491 123.705 106.227 124.015 105.892 124.229C105.557 124.442 105.176 124.549 104.749 124.549ZM104.749 123.688C104.998 123.688 105.214 123.622 105.397 123.489C105.58 123.352 105.722 123.144 105.823 122.865C105.93 122.585 105.983 122.232 105.983 121.806C105.983 121.374 105.93 121.021 105.823 120.746C105.722 120.467 105.58 120.261 105.397 120.129C105.214 119.992 104.998 119.923 104.749 119.923C104.51 119.923 104.297 119.992 104.109 120.129C103.926 120.261 103.781 120.467 103.675 120.746C103.573 121.021 103.522 121.374 103.522 121.806C103.522 122.232 103.573 122.585 103.675 122.865C103.781 123.144 103.926 123.352 104.109 123.489C104.297 123.622 104.51 123.688 104.749 123.688ZM107.621 122.598V122.065H111.72V122.598H107.621ZM107.621 121.546V121.013H111.72V121.546H107.621ZM111.232 124.549C110.821 124.549 110.44 124.483 110.089 124.35C109.744 124.213 109.444 124.023 109.19 123.779C108.936 123.53 108.738 123.238 108.596 122.903C108.454 122.567 108.383 122.202 108.383 121.806C108.383 121.409 108.454 121.044 108.596 120.708C108.738 120.373 108.936 120.083 109.19 119.84C109.444 119.591 109.744 119.4 110.089 119.268C110.44 119.131 110.821 119.062 111.232 119.062C111.669 119.062 112.068 119.139 112.429 119.291C112.794 119.438 113.099 119.659 113.343 119.954L112.71 120.556C112.517 120.348 112.302 120.193 112.063 120.091C111.824 119.984 111.565 119.931 111.286 119.931C111.006 119.931 110.75 119.977 110.516 120.068C110.287 120.16 110.087 120.289 109.914 120.457C109.746 120.624 109.614 120.823 109.518 121.051C109.421 121.28 109.373 121.531 109.373 121.806C109.373 122.08 109.421 122.331 109.518 122.56C109.614 122.788 109.746 122.987 109.914 123.154C110.087 123.322 110.287 123.451 110.516 123.543C110.75 123.634 111.006 123.68 111.286 123.68C111.565 123.68 111.824 123.629 112.063 123.528C112.302 123.421 112.517 123.261 112.71 123.048L113.343 123.657C113.099 123.947 112.794 124.168 112.429 124.32C112.068 124.472 111.669 124.549 111.232 124.549Z" fill="#6E6B7B"/>
<path d="M12.5348 69.502L14.9731 64.1682H15.5293L17.9676 69.502H17.3733L15.1331 64.4958H15.3617L13.1215 69.502H12.5348ZM13.4949 68.0771L13.6625 67.6199H16.7637L16.9313 68.0771H13.4949ZM18.9033 69.502V64.9987C18.9033 64.6431 19.0074 64.3561 19.2157 64.1377C19.424 63.9193 19.7237 63.81 20.1148 63.81C20.2672 63.81 20.4145 63.8304 20.5568 63.871C20.699 63.9116 20.8184 63.9751 20.9149 64.0615L20.732 64.4653C20.6558 64.3993 20.5669 64.351 20.4653 64.3206C20.3637 64.285 20.2545 64.2672 20.1377 64.2672C19.9091 64.2672 19.7338 64.3307 19.6119 64.4577C19.49 64.5847 19.429 64.7727 19.429 65.0216V65.6312L19.4443 65.8826V69.502H18.9033ZM18.187 65.9512V65.5016H20.6634V65.9512H18.187ZM22.735 69.5401C22.3591 69.5401 22.0695 69.4385 21.8663 69.2353C21.6631 69.0321 21.5615 68.7451 21.5615 68.3742V64.6177H22.1025V68.3438C22.1025 68.5774 22.161 68.7578 22.2778 68.8848C22.3997 69.0118 22.5724 69.0753 22.7959 69.0753C23.0347 69.0753 23.2328 69.0067 23.3903 68.8695L23.5808 69.2581C23.4741 69.3546 23.3445 69.4258 23.1922 69.4715C23.0448 69.5172 22.8924 69.5401 22.735 69.5401ZM20.8453 65.9512V65.5016H23.3217V65.9512H20.8453ZM26.1996 69.5401C25.7831 69.5401 25.4173 69.4537 25.1024 69.281C24.7874 69.1032 24.5411 68.8619 24.3633 68.5571C24.1855 68.2472 24.0966 67.8942 24.0966 67.498C24.0966 67.1018 24.1804 66.7512 24.348 66.4465C24.5207 66.1417 24.7544 65.9029 25.049 65.7302C25.3487 65.5524 25.684 65.4635 26.0548 65.4635C26.4307 65.4635 26.7635 65.5499 27.053 65.7226C27.3476 65.8902 27.5788 66.129 27.7464 66.4388C27.914 66.7436 27.9979 67.0967 27.9979 67.498C27.9979 67.5234 27.9953 67.5513 27.9902 67.5818C27.9902 67.6072 27.9902 67.6351 27.9902 67.6656H24.508V67.2618H27.7007L27.4873 67.4218C27.4873 67.1322 27.4238 66.8757 27.2968 66.6522C27.1749 66.4236 27.0073 66.2458 26.7939 66.1188C26.5806 65.9918 26.3342 65.9283 26.0548 65.9283C25.7805 65.9283 25.5342 65.9918 25.3157 66.1188C25.0973 66.2458 24.9271 66.4236 24.8052 66.6522C24.6833 66.8808 24.6223 67.1424 24.6223 67.437V67.5208C24.6223 67.8256 24.6884 68.0949 24.8204 68.3285C24.9576 68.5571 25.1456 68.7374 25.3843 68.8695C25.6281 68.9965 25.905 69.06 26.2148 69.06C26.4587 69.06 26.6847 69.0168 26.893 68.9305C27.1064 68.8441 27.2892 68.712 27.4416 68.5343L27.7464 68.8848C27.5686 69.0981 27.3451 69.2607 27.0759 69.3724C26.8117 69.4842 26.5196 69.5401 26.1996 69.5401ZM29.1752 69.502V65.5016H29.6934V66.5912L29.64 66.4007C29.7518 66.096 29.9397 65.8648 30.2039 65.7073C30.468 65.5448 30.7957 65.4635 31.1868 65.4635V65.9893C31.1665 65.9893 31.1462 65.9893 31.1259 65.9893C31.1055 65.9842 31.0852 65.9817 31.0649 65.9817C30.6433 65.9817 30.3131 66.1112 30.0743 66.3703C29.8356 66.6243 29.7162 66.9875 29.7162 67.4599V69.502H29.1752ZM35.9726 69.5401C35.5917 69.5401 35.2488 69.4537 34.944 69.281C34.6443 69.1083 34.4081 68.8695 34.2353 68.5647C34.0626 68.2549 33.9763 67.8993 33.9763 67.498C33.9763 67.0916 34.0626 66.736 34.2353 66.4312C34.4081 66.1264 34.6443 65.8902 34.944 65.7226C35.2488 65.5499 35.5917 65.4635 35.9726 65.4635C36.3231 65.4635 36.6355 65.5423 36.9099 65.6997C37.1892 65.8572 37.4102 66.0883 37.5728 66.3931C37.7404 66.6928 37.8242 67.0611 37.8242 67.498C37.8242 67.9298 37.7429 68.298 37.5804 68.6028C37.4178 68.9076 37.1969 69.1413 36.9175 69.3038C36.6432 69.4613 36.3282 69.5401 35.9726 69.5401ZM36.0107 69.06C36.2952 69.06 36.5492 68.9965 36.7727 68.8695C37.0013 68.7374 37.1791 68.5546 37.3061 68.3209C37.4382 68.0822 37.5042 67.8078 37.5042 67.498C37.5042 67.183 37.4382 66.9087 37.3061 66.675C37.1791 66.4414 37.0013 66.261 36.7727 66.1341C36.5492 66.002 36.2952 65.9359 36.0107 65.9359C35.7313 65.9359 35.4799 66.002 35.2564 66.1341C35.0329 66.261 34.8551 66.4414 34.723 66.675C34.5909 66.9087 34.5249 67.183 34.5249 67.498C34.5249 67.8078 34.5909 68.0822 34.723 68.3209C34.8551 68.5546 35.0329 68.7374 35.2564 68.8695C35.4799 68.9965 35.7313 69.06 36.0107 69.06ZM37.5194 69.502V68.298L37.5728 67.4904L37.4966 66.6827V63.8481H38.0376V69.502H37.5194ZM39.6204 69.502V65.5016H40.1614V69.502H39.6204ZM39.8947 64.6177C39.783 64.6177 39.689 64.5796 39.6128 64.5034C39.5366 64.4272 39.4985 64.3358 39.4985 64.2291C39.4985 64.1225 39.5366 64.0336 39.6128 63.9624C39.689 63.8862 39.783 63.8481 39.8947 63.8481C40.0065 63.8481 40.1005 63.8837 40.1767 63.9548C40.2529 64.0259 40.291 64.1148 40.291 64.2215C40.291 64.3333 40.2529 64.4272 40.1767 64.5034C40.1056 64.5796 40.0116 64.6177 39.8947 64.6177ZM42.8173 69.5401C42.4871 69.5401 42.1747 69.4943 41.8801 69.4029C41.5855 69.3064 41.3543 69.187 41.1867 69.0448L41.4305 68.6181C41.5931 68.74 41.8014 68.8467 42.0553 68.9381C42.3093 69.0245 42.576 69.0676 42.8554 69.0676C43.2364 69.0676 43.5107 69.0092 43.6783 68.8924C43.846 68.7705 43.9298 68.6104 43.9298 68.4123C43.9298 68.265 43.8815 68.1507 43.785 68.0695C43.6936 67.9831 43.5717 67.9196 43.4193 67.879C43.2669 67.8332 43.0967 67.7951 42.9088 67.7647C42.7208 67.7342 42.5328 67.6986 42.3449 67.658C42.162 67.6174 41.9944 67.5589 41.842 67.4827C41.6896 67.4015 41.5651 67.2922 41.4686 67.1551C41.3772 67.0179 41.3315 66.8351 41.3315 66.6065C41.3315 66.388 41.3924 66.1925 41.5143 66.0198C41.6363 65.847 41.8141 65.7124 42.0477 65.6159C42.2865 65.5143 42.576 65.4635 42.9164 65.4635C43.1754 65.4635 43.4345 65.4991 43.6936 65.5702C43.9526 65.6362 44.166 65.7251 44.3336 65.8369L44.0974 66.2712C43.9196 66.1493 43.7291 66.0629 43.5259 66.0121C43.3228 65.9563 43.1196 65.9283 42.9164 65.9283C42.5557 65.9283 42.289 65.9918 42.1163 66.1188C41.9487 66.2407 41.8649 66.3982 41.8649 66.5912C41.8649 66.7436 41.9106 66.863 42.002 66.9494C42.0985 67.0357 42.223 67.1043 42.3754 67.1551C42.5328 67.2008 42.703 67.2389 42.8859 67.2694C43.0738 67.2999 43.2593 67.338 43.4421 67.3837C43.6301 67.4243 43.8003 67.4827 43.9526 67.5589C44.1101 67.63 44.2346 67.7342 44.326 67.8713C44.4225 68.0034 44.4708 68.1787 44.4708 68.3971C44.4708 68.6308 44.4048 68.834 44.2727 69.0067C44.1457 69.1743 43.9577 69.3064 43.7088 69.4029C43.465 69.4943 43.1678 69.5401 42.8173 69.5401ZM47.2008 69.5401C46.8046 69.5401 46.449 69.4537 46.134 69.281C45.8242 69.1032 45.5803 68.8619 45.4025 68.5571C45.2247 68.2472 45.1358 67.8942 45.1358 67.498C45.1358 67.0967 45.2247 66.7436 45.4025 66.4388C45.5803 66.1341 45.8242 65.8953 46.134 65.7226C46.449 65.5499 46.8046 65.4635 47.2008 65.4635C47.5411 65.4635 47.8485 65.5296 48.1228 65.6616C48.3971 65.7937 48.613 65.9918 48.7704 66.256L48.3666 66.5303C48.2294 66.3271 48.0593 66.1772 47.8561 66.0807C47.6529 65.9842 47.4319 65.9359 47.1932 65.9359C46.9087 65.9359 46.6522 66.002 46.4236 66.1341C46.195 66.261 46.0146 66.4414 45.8826 66.675C45.7505 66.9087 45.6845 67.183 45.6845 67.498C45.6845 67.8129 45.7505 68.0872 45.8826 68.3209C46.0146 68.5546 46.195 68.7374 46.4236 68.8695C46.6522 68.9965 46.9087 69.06 47.1932 69.06C47.4319 69.06 47.6529 69.0118 47.8561 68.9152C48.0593 68.8187 48.2294 68.6714 48.3666 68.4733L48.7704 68.7476C48.613 69.0067 48.3971 69.2048 48.1228 69.3419C47.8485 69.474 47.5411 69.5401 47.2008 69.5401ZM51.473 69.5401C51.087 69.5401 50.739 69.4537 50.4291 69.281C50.1244 69.1032 49.8831 68.8619 49.7053 68.5571C49.5275 68.2472 49.4386 67.8942 49.4386 67.498C49.4386 67.0967 49.5275 66.7436 49.7053 66.4388C49.8831 66.1341 50.1244 65.8953 50.4291 65.7226C50.7339 65.5499 51.0819 65.4635 51.473 65.4635C51.8693 65.4635 52.2198 65.5499 52.5246 65.7226C52.8344 65.8953 53.0757 66.1341 53.2484 66.4388C53.4262 66.7436 53.5151 67.0967 53.5151 67.498C53.5151 67.8942 53.4262 68.2472 53.2484 68.5571C53.0757 68.8619 52.8344 69.1032 52.5246 69.281C52.2147 69.4537 51.8642 69.5401 51.473 69.5401ZM51.473 69.06C51.7626 69.06 52.0191 68.9965 52.2426 68.8695C52.4661 68.7374 52.6414 68.5546 52.7684 68.3209C52.9005 68.0822 52.9665 67.8078 52.9665 67.498C52.9665 67.183 52.9005 66.9087 52.7684 66.675C52.6414 66.4414 52.4661 66.261 52.2426 66.1341C52.0191 66.002 51.7651 65.9359 51.4807 65.9359C51.1962 65.9359 50.9422 66.002 50.7187 66.1341C50.4952 66.261 50.3174 66.4414 50.1853 66.675C50.0532 66.9087 49.9872 67.183 49.9872 67.498C49.9872 67.8078 50.0532 68.0822 50.1853 68.3209C50.3174 68.5546 50.4952 68.7374 50.7187 68.8695C50.9422 68.9965 51.1937 69.06 51.473 69.06ZM56.3493 69.5401C56.0089 69.5401 55.7118 69.4766 55.4578 69.3496C55.2038 69.2226 55.0057 69.0321 54.8634 68.7781C54.7263 68.5241 54.6577 68.2066 54.6577 67.8256V65.5016H55.1987V67.7647C55.1987 68.1914 55.3029 68.5139 55.5111 68.7324C55.7245 68.9457 56.0216 69.0524 56.4026 69.0524C56.682 69.0524 56.9233 68.9965 57.1265 68.8848C57.3348 68.7679 57.4922 68.6003 57.5989 68.3819C57.7107 68.1634 57.7666 67.9018 57.7666 67.597V65.5016H58.3075V69.502H57.7894V68.4047L57.8732 68.6028C57.7462 68.8975 57.5481 69.1286 57.2789 69.2962C57.0147 69.4588 56.7049 69.5401 56.3493 69.5401ZM61.9336 65.4635C62.2587 65.4635 62.5431 65.527 62.787 65.654C63.0359 65.7759 63.2289 65.9639 63.3661 66.2179C63.5083 66.4719 63.5794 66.7919 63.5794 67.1779V69.502H63.0384V67.2313C63.0384 66.8097 62.9317 66.4922 62.7184 66.2788C62.5101 66.0604 62.2155 65.9512 61.8345 65.9512C61.55 65.9512 61.3011 66.0096 61.0878 66.1264C60.8795 66.2382 60.717 66.4033 60.6001 66.6217C60.4884 66.8351 60.4325 67.0941 60.4325 67.3989V69.502H59.8915V65.5016H60.4096V66.5989L60.3258 66.3931C60.4528 66.1036 60.656 65.8775 60.9354 65.715C61.2148 65.5473 61.5475 65.4635 61.9336 65.4635ZM66.3818 69.5401C66.0059 69.5401 65.7163 69.4385 65.5132 69.2353C65.31 69.0321 65.2084 68.7451 65.2084 68.3742V64.6177H65.7494V68.3438C65.7494 68.5774 65.8078 68.7578 65.9246 68.8848C66.0465 69.0118 66.2192 69.0753 66.4428 69.0753C66.6815 69.0753 66.8796 69.0067 67.0371 68.8695L67.2276 69.2581C67.1209 69.3546 66.9914 69.4258 66.839 69.4715C66.6917 69.5172 66.5393 69.5401 66.3818 69.5401ZM64.4921 65.9512V65.5016H66.9685V65.9512H64.4921Z" fill="#6E6B7B"/>
<path d="M12.5195 58.2363H112.664" stroke="#DBDBDB" stroke-width="0.544263"/>
<path d="M12.5195 77.2854H112.664" stroke="#DBDBDB" stroke-width="0.544263"/>
<path d="M12.5195 112.118H112.664" stroke="#DBDBDB" stroke-width="0.544263"/>
</svg>
