<svg width="206" height="105" viewBox="0 0 206 105" fill="none" xmlns="http://www.w3.org/2000/svg">
<rect width="205.732" height="104.499" rx="13.0623" fill="white"/>
<path d="M17.0627 59.7197V53.5247H18.4964V59.7197H17.0627ZM23.0298 59.8259C22.5519 59.8259 22.1065 59.7492 21.6935 59.5958C21.2864 59.4365 20.9324 59.2123 20.6315 58.9232C20.3306 58.6341 20.0946 58.2949 19.9235 57.9055C19.7583 57.5161 19.6757 57.0883 19.6757 56.6222C19.6757 56.1561 19.7583 55.7284 19.9235 55.339C20.0946 54.9496 20.3306 54.6103 20.6315 54.3212C20.9383 54.0321 21.2952 53.8109 21.7023 53.6575C22.1094 53.4982 22.5549 53.4185 23.0387 53.4185C23.5756 53.4185 24.0594 53.5129 24.4901 53.7017C24.9267 53.8846 25.2925 54.156 25.5875 54.5159L24.6671 55.3655C24.4547 55.1236 24.2187 54.9437 23.9591 54.8257C23.6995 54.7018 23.4163 54.6398 23.1095 54.6398C22.8204 54.6398 22.5549 54.687 22.313 54.7814C22.0711 54.8758 21.8616 55.0115 21.6846 55.1885C21.5076 55.3655 21.369 55.575 21.2687 55.8169C21.1743 56.0588 21.1271 56.3272 21.1271 56.6222C21.1271 56.9172 21.1743 57.1857 21.2687 57.4276C21.369 57.6695 21.5076 57.8789 21.6846 58.0559C21.8616 58.2329 22.0711 58.3686 22.313 58.463C22.5549 58.5574 22.8204 58.6046 23.1095 58.6046C23.4163 58.6046 23.6995 58.5456 23.9591 58.4276C24.2187 58.3037 24.4547 58.1179 24.6671 57.8701L25.5875 58.7197C25.2925 59.0796 24.9267 59.3539 24.4901 59.5427C24.0594 59.7315 23.5726 59.8259 23.0298 59.8259ZM22.3838 53.0203L21.2156 51.7459H22.2245L23.4458 52.799H22.5431L23.7644 51.7459H24.7733L23.6051 53.0203H22.3838ZM29.5336 59.8259C29.0439 59.8259 28.5896 59.7463 28.1707 59.587C27.7577 59.4277 27.3978 59.2035 27.091 58.9144C26.7901 58.6253 26.5541 58.286 26.383 57.8966C26.2178 57.5072 26.1352 57.0824 26.1352 56.6222C26.1352 56.162 26.2178 55.7372 26.383 55.3478C26.5541 54.9584 26.793 54.6192 27.0998 54.3301C27.4066 54.041 27.7665 53.8168 28.1795 53.6575C28.5925 53.4982 29.0409 53.4185 29.5247 53.4185C30.0144 53.4185 30.4628 53.4982 30.8699 53.6575C31.2829 53.8168 31.6399 54.041 31.9408 54.3301C32.2476 54.6192 32.4865 54.9584 32.6576 55.3478C32.8287 55.7313 32.9143 56.1561 32.9143 56.6222C32.9143 57.0824 32.8287 57.5102 32.6576 57.9055C32.4865 58.2949 32.2476 58.6341 31.9408 58.9232C31.6399 59.2064 31.2829 59.4277 30.8699 59.587C30.4628 59.7463 30.0174 59.8259 29.5336 59.8259ZM29.5247 58.6046C29.802 58.6046 30.0557 58.5574 30.2858 58.463C30.5218 58.3686 30.7283 58.2329 30.9053 58.0559C31.0823 57.8789 31.218 57.6695 31.3124 57.4276C31.4127 57.1857 31.4629 56.9172 31.4629 56.6222C31.4629 56.3272 31.4127 56.0588 31.3124 55.8169C31.218 55.575 31.0823 55.3655 30.9053 55.1885C30.7342 55.0115 30.5307 54.8758 30.2947 54.7814C30.0587 54.687 29.802 54.6398 29.5247 54.6398C29.2474 54.6398 28.9908 54.687 28.7548 54.7814C28.5247 54.8758 28.3211 55.0115 28.1441 55.1885C27.9671 55.3655 27.8285 55.575 27.7282 55.8169C27.6338 56.0588 27.5866 56.3272 27.5866 56.6222C27.5866 56.9113 27.6338 57.1798 27.7282 57.4276C27.8285 57.6695 27.9642 57.8789 28.1353 58.0559C28.3123 58.2329 28.5188 58.3686 28.7548 58.463C28.9908 58.5574 29.2474 58.6046 29.5247 58.6046ZM34.5151 56.6134C34.2791 56.6134 34.0755 56.5337 33.9044 56.3744C33.7392 56.2092 33.6566 55.9998 33.6566 55.7461C33.6566 55.4924 33.7392 55.2888 33.9044 55.1354C34.0755 54.9761 34.2791 54.8965 34.5151 54.8965C34.757 54.8965 34.9605 54.9761 35.1257 55.1354C35.2909 55.2888 35.3735 55.4924 35.3735 55.7461C35.3735 55.9998 35.2909 56.2092 35.1257 56.3744C34.9605 56.5337 34.757 56.6134 34.5151 56.6134ZM34.5151 59.7905C34.2791 59.7905 34.0755 59.7109 33.9044 59.5516C33.7392 59.3864 33.6566 59.1769 33.6566 58.9232C33.6566 58.6695 33.7392 58.466 33.9044 58.3126C34.0755 58.1533 34.2791 58.0736 34.5151 58.0736C34.757 58.0736 34.9605 58.1533 35.1257 58.3126C35.2909 58.466 35.3735 58.6695 35.3735 58.9232C35.3735 59.1769 35.2909 59.3864 35.1257 59.5516C34.9605 59.7109 34.757 59.7905 34.5151 59.7905ZM40.8268 59.8259C40.3961 59.8259 39.9683 59.7699 39.5435 59.6578C39.1246 59.5398 38.7647 59.3746 38.4638 59.1622L39.0302 58.0648C39.2662 58.2359 39.5376 58.3716 39.8444 58.4719C40.1571 58.5722 40.4728 58.6223 40.7914 58.6223C41.1513 58.6223 41.4345 58.5515 41.641 58.4099C41.8475 58.2683 41.9507 58.0707 41.9507 57.817C41.9507 57.6577 41.9094 57.5161 41.8268 57.3922C41.7442 57.2683 41.5967 57.1739 41.3843 57.109C41.1778 57.0441 40.8858 57.0116 40.5082 57.0116H38.924L39.2426 53.5247H43.0216V54.6752H39.7559L40.4993 54.0203L40.2781 56.5072L39.5347 55.8523H40.8445C41.4581 55.8523 41.9507 55.9378 42.3224 56.1089C42.7 56.2741 42.9744 56.5013 43.1455 56.7904C43.3166 57.0795 43.4021 57.4069 43.4021 57.7727C43.4021 58.1385 43.3107 58.4778 43.1278 58.7905C42.9449 59.0973 42.6617 59.348 42.2782 59.5427C41.9006 59.7315 41.4168 59.8259 40.8268 59.8259ZM46.7373 59.8259C46.2299 59.8259 45.7756 59.702 45.3744 59.4542C44.9732 59.2005 44.6575 58.8347 44.4274 58.3568C44.1973 57.8789 44.0823 57.3007 44.0823 56.6222C44.0823 55.9437 44.1973 55.3655 44.4274 54.8876C44.6575 54.4097 44.9732 54.0469 45.3744 53.7991C45.7756 53.5454 46.2299 53.4185 46.7373 53.4185C47.2506 53.4185 47.7049 53.5454 48.1002 53.7991C48.5014 54.0469 48.817 54.4097 49.0471 54.8876C49.2772 55.3655 49.3923 55.9437 49.3923 56.6222C49.3923 57.3007 49.2772 57.8789 49.0471 58.3568C48.817 58.8347 48.5014 59.2005 48.1002 59.4542C47.7049 59.702 47.2506 59.8259 46.7373 59.8259ZM46.7373 58.6135C46.9792 58.6135 47.1886 58.5456 47.3656 58.4099C47.5485 58.2742 47.6901 58.0589 47.7904 57.7639C47.8966 57.4689 47.9497 57.0883 47.9497 56.6222C47.9497 56.1561 47.8966 55.7756 47.7904 55.4806C47.6901 55.1856 47.5485 54.9702 47.3656 54.8345C47.1886 54.6988 46.9792 54.631 46.7373 54.631C46.5013 54.631 46.2918 54.6988 46.1089 54.8345C45.9319 54.9702 45.7903 55.1856 45.6841 55.4806C45.5838 55.7756 45.5337 56.1561 45.5337 56.6222C45.5337 57.0883 45.5838 57.4689 45.6841 57.7639C45.7903 58.0589 45.9319 58.2742 46.1089 58.4099C46.2918 58.5456 46.5013 58.6135 46.7373 58.6135ZM52.8424 59.8259C52.335 59.8259 51.8807 59.702 51.4795 59.4542C51.0783 59.2005 50.7627 58.8347 50.5326 58.3568C50.3025 57.8789 50.1874 57.3007 50.1874 56.6222C50.1874 55.9437 50.3025 55.3655 50.5326 54.8876C50.7627 54.4097 51.0783 54.0469 51.4795 53.7991C51.8807 53.5454 52.335 53.4185 52.8424 53.4185C53.3557 53.4185 53.81 53.5454 54.2053 53.7991C54.6065 54.0469 54.9222 54.4097 55.1523 54.8876C55.3824 55.3655 55.4974 55.9437 55.4974 56.6222C55.4974 57.3007 55.3824 57.8789 55.1523 58.3568C54.9222 58.8347 54.6065 59.2005 54.2053 59.4542C53.81 59.702 53.3557 59.8259 52.8424 59.8259ZM52.8424 58.6135C53.0843 58.6135 53.2938 58.5456 53.4708 58.4099C53.6537 58.2742 53.7953 58.0589 53.8956 57.7639C54.0018 57.4689 54.0549 57.0883 54.0549 56.6222C54.0549 56.1561 54.0018 55.7756 53.8956 55.4806C53.7953 55.1856 53.6537 54.9702 53.4708 54.8345C53.2938 54.6988 53.0843 54.631 52.8424 54.631C52.6064 54.631 52.397 54.6988 52.2141 54.8345C52.0371 54.9702 51.8955 55.1856 51.7893 55.4806C51.689 55.7756 51.6388 56.1561 51.6388 56.6222C51.6388 57.0883 51.689 57.4689 51.7893 57.7639C51.8955 58.0589 52.0371 58.2742 52.2141 58.4099C52.397 58.5456 52.6064 58.6135 52.8424 58.6135ZM58.9475 59.8259C58.4401 59.8259 57.9858 59.702 57.5846 59.4542C57.1834 59.2005 56.8678 58.8347 56.6377 58.3568C56.4076 57.8789 56.2925 57.3007 56.2925 56.6222C56.2925 55.9437 56.4076 55.3655 56.6377 54.8876C56.8678 54.4097 57.1834 54.0469 57.5846 53.7991C57.9858 53.5454 58.4401 53.4185 58.9475 53.4185C59.4608 53.4185 59.9151 53.5454 60.3104 53.7991C60.7116 54.0469 61.0273 54.4097 61.2574 54.8876C61.4875 55.3655 61.6025 55.9437 61.6025 56.6222C61.6025 57.3007 61.4875 57.8789 61.2574 58.3568C61.0273 58.8347 60.7116 59.2005 60.3104 59.4542C59.9151 59.702 59.4608 59.8259 58.9475 59.8259ZM58.9475 58.6135C59.1894 58.6135 59.3989 58.5456 59.5759 58.4099C59.7588 58.2742 59.9004 58.0589 60.0007 57.7639C60.1069 57.4689 60.16 57.0883 60.16 56.6222C60.16 56.1561 60.1069 55.7756 60.0007 55.4806C59.9004 55.1856 59.7588 54.9702 59.5759 54.8345C59.3989 54.6988 59.1894 54.631 58.9475 54.631C58.7115 54.631 58.5021 54.6988 58.3192 54.8345C58.1422 54.9702 58.0006 55.1856 57.8944 55.4806C57.7941 55.7756 57.7439 56.1561 57.7439 56.6222C57.7439 57.0883 57.7941 57.4689 57.8944 57.7639C58.0006 58.0589 58.1422 58.2742 58.3192 58.4099C58.5021 58.5456 58.7115 58.6135 58.9475 58.6135ZM65.0526 59.8259C64.5452 59.8259 64.0909 59.702 63.6897 59.4542C63.2885 59.2005 62.9729 58.8347 62.7428 58.3568C62.5127 57.8789 62.3976 57.3007 62.3976 56.6222C62.3976 55.9437 62.5127 55.3655 62.7428 54.8876C62.9729 54.4097 63.2885 54.0469 63.6897 53.7991C64.0909 53.5454 64.5452 53.4185 65.0526 53.4185C65.5659 53.4185 66.0202 53.5454 66.4155 53.7991C66.8167 54.0469 67.1324 54.4097 67.3625 54.8876C67.5926 55.3655 67.7076 55.9437 67.7076 56.6222C67.7076 57.3007 67.5926 57.8789 67.3625 58.3568C67.1324 58.8347 66.8167 59.2005 66.4155 59.4542C66.0202 59.702 65.5659 59.8259 65.0526 59.8259ZM65.0526 58.6135C65.2945 58.6135 65.504 58.5456 65.681 58.4099C65.8639 58.2742 66.0055 58.0589 66.1058 57.7639C66.212 57.4689 66.2651 57.0883 66.2651 56.6222C66.2651 56.1561 66.212 55.7756 66.1058 55.4806C66.0055 55.1856 65.8639 54.9702 65.681 54.8345C65.504 54.6988 65.2945 54.631 65.0526 54.631C64.8166 54.631 64.6072 54.6988 64.4243 54.8345C64.2473 54.9702 64.1057 55.1856 63.9995 55.4806C63.8992 55.7756 63.849 56.1561 63.849 56.6222C63.849 57.0883 63.8992 57.4689 63.9995 57.7639C64.1057 58.0589 64.2473 58.2742 64.4243 58.4099C64.6072 58.5456 64.8166 58.6135 65.0526 58.6135ZM71.1577 59.8259C70.6503 59.8259 70.196 59.702 69.7948 59.4542C69.3936 59.2005 69.078 58.8347 68.8479 58.3568C68.6178 57.8789 68.5027 57.3007 68.5027 56.6222C68.5027 55.9437 68.6178 55.3655 68.8479 54.8876C69.078 54.4097 69.3936 54.0469 69.7948 53.7991C70.196 53.5454 70.6503 53.4185 71.1577 53.4185C71.671 53.4185 72.1253 53.5454 72.5206 53.7991C72.9218 54.0469 73.2375 54.4097 73.4676 54.8876C73.6977 55.3655 73.8127 55.9437 73.8127 56.6222C73.8127 57.3007 73.6977 57.8789 73.4676 58.3568C73.2375 58.8347 72.9218 59.2005 72.5206 59.4542C72.1253 59.702 71.671 59.8259 71.1577 59.8259ZM71.1577 58.6135C71.3996 58.6135 71.6091 58.5456 71.7861 58.4099C71.969 58.2742 72.1106 58.0589 72.2109 57.7639C72.3171 57.4689 72.3702 57.0883 72.3702 56.6222C72.3702 56.1561 72.3171 55.7756 72.2109 55.4806C72.1106 55.1856 71.969 54.9702 71.7861 54.8345C71.6091 54.6988 71.3996 54.631 71.1577 54.631C70.9217 54.631 70.7123 54.6988 70.5294 54.8345C70.3524 54.9702 70.2108 55.1856 70.1046 55.4806C70.0043 55.7756 69.9541 56.1561 69.9541 56.6222C69.9541 57.0883 70.0043 57.4689 70.1046 57.7639C70.2108 58.0589 70.3524 58.2742 70.5294 58.4099C70.7123 58.5456 70.9217 58.6135 71.1577 58.6135ZM77.2628 59.8259C76.7554 59.8259 76.3011 59.702 75.8999 59.4542C75.4987 59.2005 75.1831 58.8347 74.953 58.3568C74.7229 57.8789 74.6078 57.3007 74.6078 56.6222C74.6078 55.9437 74.7229 55.3655 74.953 54.8876C75.1831 54.4097 75.4987 54.0469 75.8999 53.7991C76.3011 53.5454 76.7554 53.4185 77.2628 53.4185C77.7761 53.4185 78.2304 53.5454 78.6257 53.7991C79.0269 54.0469 79.3426 54.4097 79.5727 54.8876C79.8028 55.3655 79.9178 55.9437 79.9178 56.6222C79.9178 57.3007 79.8028 57.8789 79.5727 58.3568C79.3426 58.8347 79.0269 59.2005 78.6257 59.4542C78.2304 59.702 77.7761 59.8259 77.2628 59.8259ZM77.2628 58.6135C77.5047 58.6135 77.7142 58.5456 77.8912 58.4099C78.0741 58.2742 78.2157 58.0589 78.316 57.7639C78.4222 57.4689 78.4753 57.0883 78.4753 56.6222C78.4753 56.1561 78.4222 55.7756 78.316 55.4806C78.2157 55.1856 78.0741 54.9702 77.8912 54.8345C77.7142 54.6988 77.5047 54.631 77.2628 54.631C77.0268 54.631 76.8174 54.6988 76.6345 54.8345C76.4575 54.9702 76.3159 55.1856 76.2097 55.4806C76.1094 55.7756 76.0592 56.1561 76.0592 56.6222C76.0592 57.0883 76.1094 57.4689 76.2097 57.7639C76.3159 58.0589 76.4575 58.2742 76.6345 58.4099C76.8174 58.5456 77.0268 58.6135 77.2628 58.6135ZM83.368 59.8259C82.8606 59.8259 82.4063 59.702 82.0051 59.4542C81.6039 59.2005 81.2882 58.8347 81.0581 58.3568C80.828 57.8789 80.713 57.3007 80.713 56.6222C80.713 55.9437 80.828 55.3655 81.0581 54.8876C81.2882 54.4097 81.6039 54.0469 82.0051 53.7991C82.4063 53.5454 82.8606 53.4185 83.368 53.4185C83.8813 53.4185 84.3356 53.5454 84.7309 53.7991C85.1321 54.0469 85.4477 54.4097 85.6778 54.8876C85.9079 55.3655 86.023 55.9437 86.023 56.6222C86.023 57.3007 85.9079 57.8789 85.6778 58.3568C85.4477 58.8347 85.1321 59.2005 84.7309 59.4542C84.3356 59.702 83.8813 59.8259 83.368 59.8259ZM83.368 58.6135C83.6099 58.6135 83.8193 58.5456 83.9963 58.4099C84.1792 58.2742 84.3208 58.0589 84.4211 57.7639C84.5273 57.4689 84.5804 57.0883 84.5804 56.6222C84.5804 56.1561 84.5273 55.7756 84.4211 55.4806C84.3208 55.1856 84.1792 54.9702 83.9963 54.8345C83.8193 54.6988 83.6099 54.631 83.368 54.631C83.132 54.631 82.9225 54.6988 82.7396 54.8345C82.5626 54.9702 82.421 55.1856 82.3148 55.4806C82.2145 55.7756 82.1644 56.1561 82.1644 56.6222C82.1644 57.0883 82.2145 57.4689 82.3148 57.7639C82.421 58.0589 82.5626 58.2742 82.7396 58.4099C82.9225 58.5456 83.132 58.6135 83.368 58.6135ZM17.337 73.7197V67.5247H19.8593C20.5201 67.5247 21.0983 67.6575 21.5939 67.923C22.0954 68.1826 22.4848 68.5454 22.7621 69.0115C23.0394 69.4776 23.178 70.0145 23.178 70.6222C23.178 71.2299 23.0394 71.7668 22.7621 72.2329C22.4848 72.699 22.0954 73.0648 21.5939 73.3303C21.0983 73.5899 20.5201 73.7197 19.8593 73.7197H17.337ZM17.9919 73.1533H19.8239C20.3726 73.1533 20.8475 73.0471 21.2487 72.8347C21.6558 72.6164 21.9715 72.3185 22.1957 71.9409C22.4199 71.5574 22.532 71.1178 22.532 70.6222C22.532 70.1207 22.4199 69.6812 22.1957 69.3036C21.9715 68.926 21.6558 68.631 21.2487 68.4186C20.8475 68.2003 20.3726 68.0911 19.8239 68.0911H17.9919V73.1533ZM24.7472 73.7197V67.5247H25.4021V73.7197H24.7472ZM30.2066 73.7728C29.7405 73.7728 29.3098 73.6961 28.9145 73.5427C28.5192 73.3834 28.177 73.1622 27.8879 72.879C27.5988 72.5958 27.3717 72.2624 27.2065 71.8789C27.0472 71.4954 26.9675 71.0765 26.9675 70.6222C26.9675 70.1679 27.0472 69.749 27.2065 69.3655C27.3717 68.982 27.5988 68.6487 27.8879 68.3655C28.1829 68.0823 28.5281 67.864 28.9234 67.7106C29.3187 67.5513 29.7494 67.4716 30.2155 67.4716C30.6639 67.4716 31.0857 67.5483 31.481 67.7017C31.8763 67.8492 32.2097 68.0734 32.4811 68.3743L32.0651 68.7903C31.8114 68.5307 31.5312 68.3448 31.2244 68.2327C30.9176 68.1147 30.5872 68.0557 30.2332 68.0557C29.8615 68.0557 29.5163 68.1206 29.1977 68.2504C28.8791 68.3743 28.6018 68.5543 28.3658 68.7903C28.1298 69.0204 27.944 69.2918 27.8083 69.6045C27.6785 69.9113 27.6136 70.2505 27.6136 70.6222C27.6136 70.9939 27.6785 71.3361 27.8083 71.6488C27.944 71.9556 28.1298 72.227 28.3658 72.463C28.6018 72.6931 28.8791 72.8731 29.1977 73.0029C29.5163 73.1268 29.8615 73.1887 30.2332 73.1887C30.5872 73.1887 30.9176 73.1297 31.2244 73.0117C31.5312 72.8937 31.8114 72.7049 32.0651 72.4453L32.4811 72.8613C32.2097 73.1622 31.8763 73.3893 31.481 73.5427C31.0857 73.6961 30.6609 73.7728 30.2066 73.7728ZM29.8172 67.0203L28.6756 65.9229H29.2597L30.3836 66.8521H29.888L31.012 65.9229H31.5961L30.4544 67.0203H29.8172ZM33.8703 69.9939C33.7405 69.9939 33.6284 69.9467 33.534 69.8523C33.4455 69.7579 33.4013 69.6428 33.4013 69.5071C33.4013 69.3655 33.4455 69.2505 33.534 69.162C33.6284 69.0735 33.7405 69.0292 33.8703 69.0292C34.0001 69.0292 34.1093 69.0735 34.1978 69.162C34.2922 69.2505 34.3394 69.3655 34.3394 69.5071C34.3394 69.6428 34.2922 69.7579 34.1978 69.8523C34.1093 69.9467 34.0001 69.9939 33.8703 69.9939ZM33.8703 73.764C33.7405 73.764 33.6284 73.7168 33.534 73.6224C33.4455 73.528 33.4013 73.4129 33.4013 73.2772C33.4013 73.1356 33.4455 73.0206 33.534 72.9321C33.6284 72.8436 33.7405 72.7993 33.8703 72.7993C34.0001 72.7993 34.1093 72.8436 34.1978 72.9321C34.2922 73.0206 34.3394 73.1356 34.3394 73.2772C34.3394 73.4129 34.2922 73.528 34.1978 73.6224C34.1093 73.7168 34.0001 73.764 33.8703 73.764ZM37.6661 73.7197V73.2684L40.2414 70.7461C40.4774 70.516 40.6544 70.3154 40.7724 70.1443C40.8904 69.9673 40.9701 69.8021 41.0114 69.6487C41.0527 69.4953 41.0733 69.3508 41.0733 69.2151C41.0733 68.8552 40.9494 68.572 40.7016 68.3655C40.4597 68.159 40.0998 68.0557 39.6219 68.0557C39.2561 68.0557 38.9316 68.1118 38.6484 68.2239C38.3711 68.336 38.1322 68.51 37.9316 68.746L37.4802 68.3566C37.7221 68.0734 38.0319 67.8551 38.4095 67.7017C38.7871 67.5483 39.2089 67.4716 39.675 67.4716C40.0939 67.4716 40.4568 67.5395 40.7636 67.6752C41.0704 67.805 41.3064 67.9967 41.4716 68.2504C41.6427 68.5041 41.7282 68.8021 41.7282 69.1443C41.7282 69.3449 41.6987 69.5425 41.6397 69.7372C41.5866 69.9319 41.4863 70.1384 41.3388 70.3567C41.1972 70.5691 40.9878 70.811 40.7105 71.0824L38.3475 73.4011L38.1705 73.1533H42.0114V73.7197H37.6661ZM43.9893 73.7197V67.7902L44.2725 68.0911H42.5291V67.5247H44.6265V73.7197H43.9893ZM46.0908 73.7197V73.2684L48.6662 70.7461C48.9022 70.516 49.0792 70.3154 49.1972 70.1443C49.3152 69.9673 49.3948 69.8021 49.4361 69.6487C49.4774 69.4953 49.4981 69.3508 49.4981 69.2151C49.4981 68.8552 49.3742 68.572 49.1264 68.3655C48.8845 68.159 48.5246 68.0557 48.0467 68.0557C47.6809 68.0557 47.3564 68.1118 47.0732 68.2239C46.7959 68.336 46.5569 68.51 46.3563 68.746L45.905 68.3566C46.1469 68.0734 46.4566 67.8551 46.8342 67.7017C47.2118 67.5483 47.6337 67.4716 48.0998 67.4716C48.5187 67.4716 48.8815 67.5395 49.1883 67.6752C49.4951 67.805 49.7311 67.9967 49.8963 68.2504C50.0674 68.5041 50.153 68.8021 50.153 69.1443C50.153 69.3449 50.1235 69.5425 50.0645 69.7372C50.0114 69.9319 49.9111 70.1384 49.7636 70.3567C49.622 70.5691 49.4125 70.811 49.1352 71.0824L46.7723 73.4011L46.5953 73.1533H50.4362V73.7197H46.0908ZM52.4141 73.7197V67.7902L52.6973 68.0911H50.9538V67.5247H53.0513V73.7197H52.4141ZM57.0998 73.7728C56.6219 73.7728 56.1971 73.6489 55.8254 73.4011C55.4537 73.1474 55.1616 72.7875 54.9492 72.3214C54.7368 71.8494 54.6306 71.283 54.6306 70.6222C54.6306 69.9614 54.7368 69.398 54.9492 68.9319C55.1616 68.4599 55.4537 68.1 55.8254 67.8522C56.1971 67.5985 56.6219 67.4716 57.0998 67.4716C57.5777 67.4716 58.0025 67.5985 58.3742 67.8522C58.7459 68.1 59.0379 68.4599 59.2503 68.9319C59.4686 69.398 59.5778 69.9614 59.5778 70.6222C59.5778 71.283 59.4686 71.8494 59.2503 72.3214C59.0379 72.7875 58.7459 73.1474 58.3742 73.4011C58.0025 73.6489 57.5777 73.7728 57.0998 73.7728ZM57.0998 73.1887C57.4656 73.1887 57.7842 73.0914 58.0556 72.8967C58.327 72.6961 58.5394 72.407 58.6928 72.0294C58.8462 71.6459 58.9229 71.1768 58.9229 70.6222C58.9229 70.0676 58.8462 69.6015 58.6928 69.2239C58.5394 68.8404 58.327 68.5513 58.0556 68.3566C57.7842 68.156 57.4656 68.0557 57.0998 68.0557C56.7458 68.0557 56.4301 68.156 56.1528 68.3566C55.8755 68.5513 55.6602 68.8404 55.5068 69.2239C55.3534 69.6015 55.2767 70.0676 55.2767 70.6222C55.2767 71.1768 55.3534 71.6459 55.5068 72.0294C55.6602 72.407 55.8755 72.6961 56.1528 72.8967C56.4301 73.0914 56.7458 73.1887 57.0998 73.1887ZM63.058 73.7728C62.5801 73.7728 62.1553 73.6489 61.7836 73.4011C61.4119 73.1474 61.1198 72.7875 60.9074 72.3214C60.695 71.8494 60.5888 71.283 60.5888 70.6222C60.5888 69.9614 60.695 69.398 60.9074 68.9319C61.1198 68.4599 61.4119 68.1 61.7836 67.8522C62.1553 67.5985 62.5801 67.4716 63.058 67.4716C63.5359 67.4716 63.9607 67.5985 64.3324 67.8522C64.7041 68.1 64.9961 68.4599 65.2085 68.9319C65.4268 69.398 65.536 69.9614 65.536 70.6222C65.536 71.283 65.4268 71.8494 65.2085 72.3214C64.9961 72.7875 64.7041 73.1474 64.3324 73.4011C63.9607 73.6489 63.5359 73.7728 63.058 73.7728ZM63.058 73.1887C63.4238 73.1887 63.7424 73.0914 64.0138 72.8967C64.2852 72.6961 64.4976 72.407 64.651 72.0294C64.8044 71.6459 64.8811 71.1768 64.8811 70.6222C64.8811 70.0676 64.8044 69.6015 64.651 69.2239C64.4976 68.8404 64.2852 68.5513 64.0138 68.3566C63.7424 68.156 63.4238 68.0557 63.058 68.0557C62.704 68.0557 62.3883 68.156 62.111 68.3566C61.8337 68.5513 61.6184 68.8404 61.465 69.2239C61.3116 69.6015 61.2349 70.0676 61.2349 70.6222C61.2349 71.1768 61.3116 71.6459 61.465 72.0294C61.6184 72.407 61.8337 72.6961 62.111 72.8967C62.3883 73.0914 62.704 73.1887 63.058 73.1887ZM69.0162 73.7728C68.5383 73.7728 68.1135 73.6489 67.7418 73.4011C67.3701 73.1474 67.078 72.7875 66.8656 72.3214C66.6532 71.8494 66.547 71.283 66.547 70.6222C66.547 69.9614 66.6532 69.398 66.8656 68.9319C67.078 68.4599 67.3701 68.1 67.7418 67.8522C68.1135 67.5985 68.5383 67.4716 69.0162 67.4716C69.4941 67.4716 69.9189 67.5985 70.2906 67.8522C70.6623 68.1 70.9543 68.4599 71.1667 68.9319C71.385 69.398 71.4942 69.9614 71.4942 70.6222C71.4942 71.283 71.385 71.8494 71.1667 72.3214C70.9543 72.7875 70.6623 73.1474 70.2906 73.4011C69.9189 73.6489 69.4941 73.7728 69.0162 73.7728ZM69.0162 73.1887C69.382 73.1887 69.7006 73.0914 69.972 72.8967C70.2434 72.6961 70.4558 72.407 70.6092 72.0294C70.7626 71.6459 70.8393 71.1768 70.8393 70.6222C70.8393 70.0676 70.7626 69.6015 70.6092 69.2239C70.4558 68.8404 70.2434 68.5513 69.972 68.3566C69.7006 68.156 69.382 68.0557 69.0162 68.0557C68.6622 68.0557 68.3465 68.156 68.0692 68.3566C67.7919 68.5513 67.5766 68.8404 67.4232 69.2239C67.2698 69.6015 67.1931 70.0676 67.1931 70.6222C67.1931 71.1768 67.2698 71.6459 67.4232 72.0294C67.5766 72.407 67.7919 72.6961 68.0692 72.8967C68.3465 73.0914 68.6622 73.1887 69.0162 73.1887ZM74.9744 73.7728C74.4965 73.7728 74.0717 73.6489 73.7 73.4011C73.3283 73.1474 73.0362 72.7875 72.8238 72.3214C72.6114 71.8494 72.5052 71.283 72.5052 70.6222C72.5052 69.9614 72.6114 69.398 72.8238 68.9319C73.0362 68.4599 73.3283 68.1 73.7 67.8522C74.0717 67.5985 74.4965 67.4716 74.9744 67.4716C75.4523 67.4716 75.8771 67.5985 76.2488 67.8522C76.6205 68.1 76.9125 68.4599 77.1249 68.9319C77.3432 69.398 77.4524 69.9614 77.4524 70.6222C77.4524 71.283 77.3432 71.8494 77.1249 72.3214C76.9125 72.7875 76.6205 73.1474 76.2488 73.4011C75.8771 73.6489 75.4523 73.7728 74.9744 73.7728ZM74.9744 73.1887C75.3402 73.1887 75.6588 73.0914 75.9302 72.8967C76.2016 72.6961 76.414 72.407 76.5674 72.0294C76.7208 71.6459 76.7975 71.1768 76.7975 70.6222C76.7975 70.0676 76.7208 69.6015 76.5674 69.2239C76.414 68.8404 76.2016 68.5513 75.9302 68.3566C75.6588 68.156 75.3402 68.0557 74.9744 68.0557C74.6204 68.0557 74.3047 68.156 74.0274 68.3566C73.7501 68.5513 73.5348 68.8404 73.3814 69.2239C73.228 69.6015 73.1513 70.0676 73.1513 70.6222C73.1513 71.1768 73.228 71.6459 73.3814 72.0294C73.5348 72.407 73.7501 72.6961 74.0274 72.8967C74.3047 73.0914 74.6204 73.1887 74.9744 73.1887ZM80.9325 73.7728C80.4546 73.7728 80.0298 73.6489 79.6581 73.4011C79.2864 73.1474 78.9944 72.7875 78.782 72.3214C78.5696 71.8494 78.4634 71.283 78.4634 70.6222C78.4634 69.9614 78.5696 69.398 78.782 68.9319C78.9944 68.4599 79.2864 68.1 79.6581 67.8522C80.0298 67.5985 80.4546 67.4716 80.9325 67.4716C81.4104 67.4716 81.8352 67.5985 82.2069 67.8522C82.5786 68.1 82.8707 68.4599 83.0831 68.9319C83.3014 69.398 83.4105 69.9614 83.4105 70.6222C83.4105 71.283 83.3014 71.8494 83.0831 72.3214C82.8707 72.7875 82.5786 73.1474 82.2069 73.4011C81.8352 73.6489 81.4104 73.7728 80.9325 73.7728ZM80.9325 73.1887C81.2983 73.1887 81.6169 73.0914 81.8883 72.8967C82.1597 72.6961 82.3721 72.407 82.5255 72.0294C82.6789 71.6459 82.7556 71.1768 82.7556 70.6222C82.7556 70.0676 82.6789 69.6015 82.5255 69.2239C82.3721 68.8404 82.1597 68.5513 81.8883 68.3566C81.6169 68.156 81.2983 68.0557 80.9325 68.0557C80.5785 68.0557 80.2629 68.156 79.9856 68.3566C79.7083 68.5513 79.4929 68.8404 79.3395 69.2239C79.1861 69.6015 79.1094 70.0676 79.1094 70.6222C79.1094 71.1768 79.1861 71.6459 79.3395 72.0294C79.4929 72.407 79.7083 72.6961 79.9856 72.8967C80.2629 73.0914 80.5785 73.1887 80.9325 73.1887ZM86.8907 73.7728C86.4128 73.7728 85.988 73.6489 85.6163 73.4011C85.2446 73.1474 84.9526 72.7875 84.7402 72.3214C84.5278 71.8494 84.4216 71.283 84.4216 70.6222C84.4216 69.9614 84.5278 69.398 84.7402 68.9319C84.9526 68.4599 85.2446 68.1 85.6163 67.8522C85.988 67.5985 86.4128 67.4716 86.8907 67.4716C87.3686 67.4716 87.7934 67.5985 88.1651 67.8522C88.5368 68.1 88.8289 68.4599 89.0413 68.9319C89.2596 69.398 89.3687 69.9614 89.3687 70.6222C89.3687 71.283 89.2596 71.8494 89.0413 72.3214C88.8289 72.7875 88.5368 73.1474 88.1651 73.4011C87.7934 73.6489 87.3686 73.7728 86.8907 73.7728ZM86.8907 73.1887C87.2565 73.1887 87.5751 73.0914 87.8465 72.8967C88.1179 72.6961 88.3303 72.407 88.4837 72.0294C88.6371 71.6459 88.7138 71.1768 88.7138 70.6222C88.7138 70.0676 88.6371 69.6015 88.4837 69.2239C88.3303 68.8404 88.1179 68.5513 87.8465 68.3566C87.5751 68.156 87.2565 68.0557 86.8907 68.0557C86.5367 68.0557 86.2211 68.156 85.9438 68.3566C85.6665 68.5513 85.4511 68.8404 85.2977 69.2239C85.1443 69.6015 85.0676 70.0676 85.0676 70.6222C85.0676 71.1768 85.1443 71.6459 85.2977 72.0294C85.4511 72.407 85.6665 72.6961 85.9438 72.8967C86.2211 73.0914 86.5367 73.1887 86.8907 73.1887ZM17.337 88.7197V82.5247H17.9919V88.7197H17.337ZM22.7965 88.7728C22.3304 88.7728 21.8997 88.6961 21.5044 88.5427C21.1091 88.3834 20.7669 88.1622 20.4778 87.879C20.1887 87.5958 19.9615 87.2624 19.7963 86.8789C19.637 86.4954 19.5574 86.0765 19.5574 85.6222C19.5574 85.1679 19.637 84.749 19.7963 84.3655C19.9615 83.982 20.1887 83.6487 20.4778 83.3655C20.7728 83.0823 21.1179 82.864 21.5132 82.7106C21.9085 82.5513 22.3392 82.4716 22.8053 82.4716C23.2537 82.4716 23.6756 82.5483 24.0709 82.7017C24.4662 82.8492 24.7995 83.0734 25.0709 83.3743L24.655 83.7903C24.4013 83.5307 24.121 83.3448 23.8142 83.2327C23.5074 83.1147 23.177 83.0557 22.823 83.0557C22.4513 83.0557 22.1062 83.1206 21.7876 83.2504C21.469 83.3743 21.1917 83.5543 20.9557 83.7903C20.7197 84.0204 20.5338 84.2918 20.3981 84.6045C20.2683 84.9113 20.2034 85.2505 20.2034 85.6222C20.2034 85.9939 20.2683 86.3361 20.3981 86.6488C20.5338 86.9556 20.7197 87.227 20.9557 87.463C21.1917 87.6931 21.469 87.8731 21.7876 88.0029C22.1062 88.1268 22.4513 88.1887 22.823 88.1887C23.177 88.1887 23.5074 88.1297 23.8142 88.0117C24.121 87.8937 24.4013 87.7049 24.655 87.4453L25.0709 87.8613C24.7995 88.1622 24.4662 88.3893 24.0709 88.5427C23.6756 88.6961 23.2508 88.7728 22.7965 88.7728ZM22.4071 82.0203L21.2654 80.9229H21.8495L22.9735 81.8521H22.4779L23.6018 80.9229H24.1859L23.0443 82.0203H22.4071ZM28.9803 88.7197V82.5247H31.5025C32.1633 82.5247 32.7415 82.6575 33.2371 82.923C33.7386 83.1826 34.128 83.5454 34.4053 84.0115C34.6826 84.4776 34.8213 85.0145 34.8213 85.6222C34.8213 86.2299 34.6826 86.7668 34.4053 87.2329C34.128 87.699 33.7386 88.0648 33.2371 88.3303C32.7415 88.5899 32.1633 88.7197 31.5025 88.7197H28.9803ZM29.6352 88.1533H31.4671C32.0158 88.1533 32.4908 88.0471 32.892 87.8347C33.2991 87.6164 33.6147 87.3185 33.8389 86.9409C34.0631 86.5574 34.1752 86.1178 34.1752 85.6222C34.1752 85.1207 34.0631 84.6812 33.8389 84.3036C33.6147 83.926 33.2991 83.631 32.892 83.4186C32.4908 83.2003 32.0158 83.0911 31.4671 83.0911H29.6352V88.1533ZM36.3904 88.7197V82.5247H38.7091C39.2342 82.5247 39.6856 82.6103 40.0632 82.7814C40.4408 82.9466 40.7299 83.1885 40.9305 83.5071C41.137 83.8198 41.2402 84.2003 41.2402 84.6487C41.2402 85.0853 41.137 85.4629 40.9305 85.7815C40.7299 86.0942 40.4408 86.3361 40.0632 86.5072C39.6856 86.6783 39.2342 86.7639 38.7091 86.7639H36.7533L37.0453 86.4541V88.7197H36.3904ZM37.0453 86.5072L36.7533 86.1886H38.6914C39.3109 86.1886 39.78 86.0559 40.0986 85.7904C40.4231 85.519 40.5853 85.1384 40.5853 84.6487C40.5853 84.1531 40.4231 83.7696 40.0986 83.4982C39.78 83.2268 39.3109 83.0911 38.6914 83.0911H36.7533L37.0453 82.7814V86.5072ZM47.286 82.5247H47.9321V88.7197H47.286V82.5247ZM43.4097 88.7197H42.7548V82.5247H43.4097V88.7197ZM47.348 85.8612H43.3389V85.2859H47.348V85.8612ZM49.9818 84.9939C49.852 84.9939 49.7399 84.9467 49.6455 84.8523C49.557 84.7579 49.5127 84.6428 49.5127 84.5071C49.5127 84.3655 49.557 84.2505 49.6455 84.162C49.7399 84.0735 49.852 84.0292 49.9818 84.0292C50.1116 84.0292 50.2207 84.0735 50.3092 84.162C50.4036 84.2505 50.4508 84.3655 50.4508 84.5071C50.4508 84.6428 50.4036 84.7579 50.3092 84.8523C50.2207 84.9467 50.1116 84.9939 49.9818 84.9939ZM49.9818 88.764C49.852 88.764 49.7399 88.7168 49.6455 88.6224C49.557 88.528 49.5127 88.4129 49.5127 88.2772C49.5127 88.1356 49.557 88.0206 49.6455 87.9321C49.7399 87.8436 49.852 87.7993 49.9818 87.7993C50.1116 87.7993 50.2207 87.8436 50.3092 87.9321C50.4036 88.0206 50.4508 88.1356 50.4508 88.2772C50.4508 88.4129 50.4036 88.528 50.3092 88.6224C50.2207 88.7168 50.1116 88.764 49.9818 88.764ZM56.1493 88.7728C55.6891 88.7728 55.2466 88.6991 54.8218 88.5516C54.4029 88.3982 54.0784 88.2035 53.8483 87.9675L54.105 87.463C54.3233 87.6754 54.6153 87.8554 54.9811 88.0029C55.3528 88.1445 55.7422 88.2153 56.1493 88.2153C56.5387 88.2153 56.8544 88.1681 57.0963 88.0737C57.3441 87.9734 57.524 87.8406 57.6361 87.6754C57.7541 87.5102 57.8131 87.3273 57.8131 87.1267C57.8131 86.8848 57.7423 86.6901 57.6007 86.5426C57.465 86.3951 57.2851 86.2801 57.0609 86.1975C56.8367 86.109 56.5889 86.0323 56.3175 85.9674C56.0461 85.9025 55.7747 85.8346 55.5033 85.7638C55.2319 85.6871 54.9811 85.5868 54.751 85.4629C54.5268 85.339 54.3439 85.1768 54.2023 84.9762C54.0666 84.7697 53.9988 84.5012 53.9988 84.1708C53.9988 83.864 54.0784 83.5838 54.2377 83.3301C54.4029 83.0705 54.6537 82.864 54.99 82.7106C55.3263 82.5513 55.757 82.4716 56.2821 82.4716C56.6302 82.4716 56.9753 82.5218 57.3175 82.6221C57.6597 82.7165 57.9547 82.8492 58.2025 83.0203L57.9813 83.5425C57.7158 83.3655 57.4326 83.2357 57.1317 83.1531C56.8367 83.0705 56.5505 83.0292 56.2732 83.0292C55.9015 83.0292 55.5947 83.0793 55.3528 83.1796C55.1109 83.2799 54.931 83.4156 54.813 83.5867C54.7009 83.7519 54.6448 83.9407 54.6448 84.1531C54.6448 84.395 54.7127 84.5897 54.8484 84.7372C54.99 84.8847 55.1729 84.9998 55.3971 85.0824C55.6272 85.165 55.8779 85.2387 56.1493 85.3036C56.4207 85.3685 56.6892 85.4393 56.9547 85.516C57.2261 85.5927 57.4739 85.693 57.6981 85.8169C57.9282 85.9349 58.1111 86.0942 58.2468 86.2948C58.3884 86.4954 58.4592 86.758 58.4592 87.0825C58.4592 87.3834 58.3766 87.6636 58.2114 87.9232C58.0462 88.1769 57.7925 88.3834 57.4503 88.5427C57.114 88.6961 56.6803 88.7728 56.1493 88.7728ZM60.551 87.1798L60.5245 86.3833L64.2769 82.5247H65.0291L62.2945 85.3921L61.9228 85.7904L60.551 87.1798ZM59.9846 88.7197V82.5247H60.6395V88.7197H59.9846ZM64.4362 88.7197L61.7635 85.6399L62.206 85.162L65.215 88.7197H64.4362ZM65.7112 88.7197V88.2684L68.2865 85.7461C68.5225 85.516 68.6995 85.3154 68.8175 85.1443C68.9355 84.9673 69.0152 84.8021 69.0565 84.6487C69.0978 84.4953 69.1184 84.3508 69.1184 84.2151C69.1184 83.8552 68.9945 83.572 68.7467 83.3655C68.5048 83.159 68.1449 83.0557 67.667 83.0557C67.3012 83.0557 66.9767 83.1118 66.6935 83.2239C66.4162 83.336 66.1773 83.51 65.9767 83.746L65.5253 83.3566C65.7672 83.0734 66.077 82.8551 66.4546 82.7017C66.8322 82.5483 67.254 82.4716 67.7201 82.4716C68.139 82.4716 68.5019 82.5395 68.8087 82.6752C69.1155 82.805 69.3515 82.9967 69.5167 83.2504C69.6878 83.5041 69.7733 83.8021 69.7733 84.1443C69.7733 84.3449 69.7438 84.5425 69.6848 84.7372C69.6317 84.9319 69.5314 85.1384 69.3839 85.3567C69.2423 85.5691 69.0329 85.811 68.7556 86.0824L66.3926 88.4011L66.2156 88.1533H70.0565V88.7197H65.7112ZM72.0344 88.7197V82.7902L72.3176 83.0911H70.5742V82.5247H72.6716V88.7197H72.0344ZM74.136 88.7197V88.2684L76.7113 85.7461C76.9473 85.516 77.1243 85.3154 77.2423 85.1443C77.3603 84.9673 77.44 84.8021 77.4813 84.6487C77.5226 84.4953 77.5432 84.3508 77.5432 84.2151C77.5432 83.8552 77.4193 83.572 77.1715 83.3655C76.9296 83.159 76.5697 83.0557 76.0918 83.0557C75.726 83.0557 75.4015 83.1118 75.1183 83.2239C74.841 83.336 74.6021 83.51 74.4015 83.746L73.9501 83.3566C74.192 83.0734 74.5018 82.8551 74.8794 82.7017C75.257 82.5483 75.6788 82.4716 76.1449 82.4716C76.5638 82.4716 76.9267 82.5395 77.2335 82.6752C77.5403 82.805 77.7763 82.9967 77.9415 83.2504C78.1126 83.5041 78.1981 83.8021 78.1981 84.1443C78.1981 84.3449 78.1686 84.5425 78.1096 84.7372C78.0565 84.9319 77.9562 85.1384 77.8087 85.3567C77.6671 85.5691 77.4577 85.811 77.1804 86.0824L74.8174 88.4011L74.6404 88.1533H78.4813V88.7197H74.136ZM81.8314 88.7728C81.3535 88.7728 80.9287 88.6489 80.557 88.4011C80.1853 88.1474 79.8932 87.7875 79.6808 87.3214C79.4684 86.8494 79.3622 86.283 79.3622 85.6222C79.3622 84.9614 79.4684 84.398 79.6808 83.9319C79.8932 83.4599 80.1853 83.1 80.557 82.8522C80.9287 82.5985 81.3535 82.4716 81.8314 82.4716C82.3093 82.4716 82.7341 82.5985 83.1058 82.8522C83.4775 83.1 83.7695 83.4599 83.9819 83.9319C84.2002 84.398 84.3094 84.9614 84.3094 85.6222C84.3094 86.283 84.2002 86.8494 83.9819 87.3214C83.7695 87.7875 83.4775 88.1474 83.1058 88.4011C82.7341 88.6489 82.3093 88.7728 81.8314 88.7728ZM81.8314 88.1887C82.1972 88.1887 82.5158 88.0914 82.7872 87.8967C83.0586 87.6961 83.271 87.407 83.4244 87.0294C83.5778 86.6459 83.6545 86.1768 83.6545 85.6222C83.6545 85.0676 83.5778 84.6015 83.4244 84.2239C83.271 83.8404 83.0586 83.5513 82.7872 83.3566C82.5158 83.156 82.1972 83.0557 81.8314 83.0557C81.4774 83.0557 81.1617 83.156 80.8844 83.3566C80.6071 83.5513 80.3918 83.8404 80.2384 84.2239C80.085 84.6015 80.0083 85.0676 80.0083 85.6222C80.0083 86.1768 80.085 86.6459 80.2384 87.0294C80.3918 87.407 80.6071 87.6961 80.8844 87.8967C81.1617 88.0914 81.4774 88.1887 81.8314 88.1887ZM87.7895 88.7728C87.3116 88.7728 86.8868 88.6489 86.5151 88.4011C86.1434 88.1474 85.8514 87.7875 85.639 87.3214C85.4266 86.8494 85.3204 86.283 85.3204 85.6222C85.3204 84.9614 85.4266 84.398 85.639 83.9319C85.8514 83.4599 86.1434 83.1 86.5151 82.8522C86.8868 82.5985 87.3116 82.4716 87.7895 82.4716C88.2674 82.4716 88.6922 82.5985 89.0639 82.8522C89.4356 83.1 89.7277 83.4599 89.9401 83.9319C90.1584 84.398 90.2675 84.9614 90.2675 85.6222C90.2675 86.283 90.1584 86.8494 89.9401 87.3214C89.7277 87.7875 89.4356 88.1474 89.0639 88.4011C88.6922 88.6489 88.2674 88.7728 87.7895 88.7728ZM87.7895 88.1887C88.1553 88.1887 88.4739 88.0914 88.7453 87.8967C89.0167 87.6961 89.2291 87.407 89.3825 87.0294C89.5359 86.6459 89.6126 86.1768 89.6126 85.6222C89.6126 85.0676 89.5359 84.6015 89.3825 84.2239C89.2291 83.8404 89.0167 83.5513 88.7453 83.3566C88.4739 83.156 88.1553 83.0557 87.7895 83.0557C87.4355 83.0557 87.1199 83.156 86.8426 83.3566C86.5653 83.5513 86.3499 83.8404 86.1965 84.2239C86.0431 84.6015 85.9664 85.0676 85.9664 85.6222C85.9664 86.1768 86.0431 86.6459 86.1965 87.0294C86.3499 87.407 86.5653 87.6961 86.8426 87.8967C87.1199 88.0914 87.4355 88.1887 87.7895 88.1887ZM93.7477 88.7728C93.2698 88.7728 92.845 88.6489 92.4733 88.4011C92.1016 88.1474 91.8096 87.7875 91.5972 87.3214C91.3848 86.8494 91.2786 86.283 91.2786 85.6222C91.2786 84.9614 91.3848 84.398 91.5972 83.9319C91.8096 83.4599 92.1016 83.1 92.4733 82.8522C92.845 82.5985 93.2698 82.4716 93.7477 82.4716C94.2256 82.4716 94.6504 82.5985 95.0221 82.8522C95.3938 83.1 95.6859 83.4599 95.8983 83.9319C96.1166 84.398 96.2257 84.9614 96.2257 85.6222C96.2257 86.283 96.1166 86.8494 95.8983 87.3214C95.6859 87.7875 95.3938 88.1474 95.0221 88.4011C94.6504 88.6489 94.2256 88.7728 93.7477 88.7728ZM93.7477 88.1887C94.1135 88.1887 94.4321 88.0914 94.7035 87.8967C94.9749 87.6961 95.1873 87.407 95.3407 87.0294C95.4941 86.6459 95.5708 86.1768 95.5708 85.6222C95.5708 85.0676 95.4941 84.6015 95.3407 84.2239C95.1873 83.8404 94.9749 83.5513 94.7035 83.3566C94.4321 83.156 94.1135 83.0557 93.7477 83.0557C93.3937 83.0557 93.0781 83.156 92.8008 83.3566C92.5235 83.5513 92.3081 83.8404 92.1547 84.2239C92.0013 84.6015 91.9246 85.0676 91.9246 85.6222C91.9246 86.1768 92.0013 86.6459 92.1547 87.0294C92.3081 87.407 92.5235 87.6961 92.8008 87.8967C93.0781 88.0914 93.3937 88.1887 93.7477 88.1887ZM99.7059 88.7728C99.228 88.7728 98.8032 88.6489 98.4315 88.4011C98.0598 88.1474 97.7678 87.7875 97.5554 87.3214C97.343 86.8494 97.2368 86.283 97.2368 85.6222C97.2368 84.9614 97.343 84.398 97.5554 83.9319C97.7678 83.4599 98.0598 83.1 98.4315 82.8522C98.8032 82.5985 99.228 82.4716 99.7059 82.4716C100.184 82.4716 100.609 82.5985 100.98 82.8522C101.352 83.1 101.644 83.4599 101.856 83.9319C102.075 84.398 102.184 84.9614 102.184 85.6222C102.184 86.283 102.075 86.8494 101.856 87.3214C101.644 87.7875 101.352 88.1474 100.98 88.4011C100.609 88.6489 100.184 88.7728 99.7059 88.7728ZM99.7059 88.1887C100.072 88.1887 100.39 88.0914 100.662 87.8967C100.933 87.6961 101.146 87.407 101.299 87.0294C101.452 86.6459 101.529 86.1768 101.529 85.6222C101.529 85.0676 101.452 84.6015 101.299 84.2239C101.146 83.8404 100.933 83.5513 100.662 83.3566C100.39 83.156 100.072 83.0557 99.7059 83.0557C99.3519 83.0557 99.0363 83.156 98.759 83.3566C98.4817 83.5513 98.2663 83.8404 98.1129 84.2239C97.9595 84.6015 97.8828 85.0676 97.8828 85.6222C97.8828 86.1768 97.9595 86.6459 98.1129 87.0294C98.2663 87.407 98.4817 87.6961 98.759 87.8967C99.0363 88.0914 99.3519 88.1887 99.7059 88.1887ZM105.664 88.7728C105.186 88.7728 104.761 88.6489 104.39 88.4011C104.018 88.1474 103.726 87.7875 103.514 87.3214C103.301 86.8494 103.195 86.283 103.195 85.6222C103.195 84.9614 103.301 84.398 103.514 83.9319C103.726 83.4599 104.018 83.1 104.39 82.8522C104.761 82.5985 105.186 82.4716 105.664 82.4716C106.142 82.4716 106.567 82.5985 106.939 82.8522C107.31 83.1 107.602 83.4599 107.815 83.9319C108.033 84.398 108.142 84.9614 108.142 85.6222C108.142 86.283 108.033 86.8494 107.815 87.3214C107.602 87.7875 107.31 88.1474 106.939 88.4011C106.567 88.6489 106.142 88.7728 105.664 88.7728ZM105.664 88.1887C106.03 88.1887 106.349 88.0914 106.62 87.8967C106.891 87.6961 107.104 87.407 107.257 87.0294C107.411 86.6459 107.487 86.1768 107.487 85.6222C107.487 85.0676 107.411 84.6015 107.257 84.2239C107.104 83.8404 106.891 83.5513 106.62 83.3566C106.349 83.156 106.03 83.0557 105.664 83.0557C105.31 83.0557 104.994 83.156 104.717 83.3566C104.44 83.5513 104.225 83.8404 104.071 84.2239C103.918 84.6015 103.841 85.0676 103.841 85.6222C103.841 86.1768 103.918 86.6459 104.071 87.0294C104.225 87.407 104.44 87.6961 104.717 87.8967C104.994 88.0914 105.31 88.1887 105.664 88.1887ZM111.622 88.7728C111.144 88.7728 110.72 88.6489 110.348 88.4011C109.976 88.1474 109.684 87.7875 109.472 87.3214C109.259 86.8494 109.153 86.283 109.153 85.6222C109.153 84.9614 109.259 84.398 109.472 83.9319C109.684 83.4599 109.976 83.1 110.348 82.8522C110.72 82.5985 111.144 82.4716 111.622 82.4716C112.1 82.4716 112.525 82.5985 112.897 82.8522C113.268 83.1 113.56 83.4599 113.773 83.9319C113.991 84.398 114.1 84.9614 114.1 85.6222C114.1 86.283 113.991 86.8494 113.773 87.3214C113.56 87.7875 113.268 88.1474 112.897 88.4011C112.525 88.6489 112.1 88.7728 111.622 88.7728ZM111.622 88.1887C111.988 88.1887 112.307 88.0914 112.578 87.8967C112.849 87.6961 113.062 87.407 113.215 87.0294C113.369 86.6459 113.445 86.1768 113.445 85.6222C113.445 85.0676 113.369 84.6015 113.215 84.2239C113.062 83.8404 112.849 83.5513 112.578 83.3566C112.307 83.156 111.988 83.0557 111.622 83.0557C111.268 83.0557 110.953 83.156 110.675 83.3566C110.398 83.5513 110.183 83.8404 110.029 84.2239C109.876 84.6015 109.799 85.0676 109.799 85.6222C109.799 86.1768 109.876 86.6459 110.029 87.0294C110.183 87.407 110.398 87.6961 110.675 87.8967C110.953 88.0914 111.268 88.1887 111.622 88.1887ZM117.58 88.7728C117.103 88.7728 116.678 88.6489 116.306 88.4011C115.934 88.1474 115.642 87.7875 115.43 87.3214C115.218 86.8494 115.111 86.283 115.111 85.6222C115.111 84.9614 115.218 84.398 115.43 83.9319C115.642 83.4599 115.934 83.1 116.306 82.8522C116.678 82.5985 117.103 82.4716 117.58 82.4716C118.058 82.4716 118.483 82.5985 118.855 82.8522C119.227 83.1 119.519 83.4599 119.731 83.9319C119.949 84.398 120.058 84.9614 120.058 85.6222C120.058 86.283 119.949 86.8494 119.731 87.3214C119.519 87.7875 119.227 88.1474 118.855 88.4011C118.483 88.6489 118.058 88.7728 117.58 88.7728ZM117.58 88.1887C117.946 88.1887 118.265 88.0914 118.536 87.8967C118.808 87.6961 119.02 87.407 119.173 87.0294C119.327 86.6459 119.404 86.1768 119.404 85.6222C119.404 85.0676 119.327 84.6015 119.173 84.2239C119.02 83.8404 118.808 83.5513 118.536 83.3566C118.265 83.156 117.946 83.0557 117.58 83.0557C117.226 83.0557 116.911 83.156 116.634 83.3566C116.356 83.5513 116.141 83.8404 115.987 84.2239C115.834 84.6015 115.757 85.0676 115.757 85.6222C115.757 86.1768 115.834 86.6459 115.987 87.0294C116.141 87.407 116.356 87.6961 116.634 87.8967C116.911 88.0914 117.226 88.1887 117.58 88.1887Z" fill="#6E6B7B"/>
<path d="M56.3905 30.4609V27.0663L56.6819 27.8516L52.8693 21.5944H54.2246L57.4292 26.8763H56.6945L59.9118 21.5944H61.1658L57.3659 27.8516L57.6445 27.0663V30.4609H56.3905ZM64.4929 30.5369C63.8174 30.5369 63.2178 30.3892 62.6943 30.0936C62.1707 29.7981 61.7569 29.3927 61.4529 28.8776C61.1489 28.3541 60.9969 27.763 60.9969 27.1043C60.9969 26.4372 61.1489 25.8461 61.4529 25.331C61.7569 24.8159 62.1707 24.4148 62.6943 24.1277C63.2178 23.8321 63.8174 23.6844 64.4929 23.6844C65.16 23.6844 65.7553 23.8321 66.2789 24.1277C66.8109 24.4148 67.2246 24.8159 67.5202 25.331C67.8242 25.8377 67.9762 26.4288 67.9762 27.1043C67.9762 27.7714 67.8242 28.3625 67.5202 28.8776C67.2246 29.3927 66.8109 29.7981 66.2789 30.0936C65.7553 30.3892 65.16 30.5369 64.4929 30.5369ZM64.4929 29.473C64.9236 29.473 65.3078 29.3758 65.6455 29.1816C65.9918 28.9874 66.262 28.713 66.4562 28.3583C66.6504 27.9952 66.7475 27.5772 66.7475 27.1043C66.7475 26.623 66.6504 26.2092 66.4562 25.863C66.262 25.5083 65.9918 25.2339 65.6455 25.0397C65.3078 24.8455 64.9236 24.7483 64.4929 24.7483C64.0622 24.7483 63.678 24.8455 63.3402 25.0397C63.0025 25.2339 62.7323 25.5083 62.5296 25.863C62.3269 26.2092 62.2256 26.623 62.2256 27.1043C62.2256 27.5772 62.3269 27.9952 62.5296 28.3583C62.7323 28.713 63.0025 28.9874 63.3402 29.1816C63.678 29.3758 64.0622 29.473 64.4929 29.473ZM72.581 30.5369C72.0068 30.5369 71.5001 30.4314 71.061 30.2203C70.6304 30.0092 70.2926 29.6883 70.0477 29.2576C69.8113 28.8185 69.693 28.2696 69.693 27.611V23.7477H70.909V27.4716C70.909 28.1303 71.0652 28.6243 71.3777 28.9536C71.6986 29.283 72.1461 29.4476 72.7203 29.4476C73.1426 29.4476 73.5099 29.3632 73.8223 29.1943C74.1348 29.017 74.3754 28.7636 74.5443 28.4343C74.7132 28.0965 74.7976 27.6912 74.7976 27.2183V23.7477H76.0136V30.4609H74.861V28.6496L75.051 29.131C74.8314 29.5785 74.5021 29.9247 74.063 30.1696C73.6239 30.4145 73.1299 30.5369 72.581 30.5369ZM78.427 30.4609V23.7477H79.5924V25.5717L79.4784 25.1157C79.6641 24.6512 79.9766 24.2966 80.4157 24.0517C80.8548 23.8068 81.3952 23.6844 82.037 23.6844V24.8623C81.9863 24.8539 81.9357 24.8497 81.885 24.8497C81.8428 24.8497 81.8006 24.8497 81.7583 24.8497C81.1081 24.8497 80.593 25.0439 80.213 25.4323C79.833 25.8208 79.643 26.3823 79.643 27.117V30.4609H78.427ZM90.1469 30.5369C89.4629 30.5369 88.8507 30.3892 88.3103 30.0936C87.7783 29.7981 87.3603 29.3927 87.0563 28.8776C86.7523 28.3625 86.6003 27.7714 86.6003 27.1043C86.6003 26.4372 86.7523 25.8461 87.0563 25.331C87.3603 24.8159 87.7783 24.4148 88.3103 24.1277C88.8507 23.8321 89.4629 23.6844 90.1469 23.6844C90.7549 23.6844 91.2954 23.8068 91.7682 24.0517C92.2496 24.2881 92.6211 24.6428 92.8829 25.1157L91.9582 25.711C91.7387 25.3817 91.4685 25.141 91.1476 24.989C90.8351 24.8286 90.4974 24.7483 90.1343 24.7483C89.6952 24.7483 89.3025 24.8455 88.9563 25.0397C88.6101 25.2339 88.3356 25.5083 88.133 25.863C87.9303 26.2092 87.829 26.623 87.829 27.1043C87.829 27.5856 87.9303 28.0036 88.133 28.3583C88.3356 28.713 88.6101 28.9874 88.9563 29.1816C89.3025 29.3758 89.6952 29.473 90.1343 29.473C90.4974 29.473 90.8351 29.397 91.1476 29.245C91.4685 29.0845 91.7387 28.8396 91.9582 28.5103L92.8829 29.093C92.6211 29.5574 92.2496 29.9163 91.7682 30.1696C91.2954 30.4145 90.7549 30.5369 90.1469 30.5369ZM97.332 30.5369C96.6565 30.5369 96.057 30.3892 95.5334 30.0936C95.0099 29.7981 94.5961 29.3927 94.2921 28.8776C93.9881 28.3541 93.8361 27.763 93.8361 27.1043C93.8361 26.4372 93.9881 25.8461 94.2921 25.331C94.5961 24.8159 95.0099 24.4148 95.5334 24.1277C96.057 23.8321 96.6565 23.6844 97.332 23.6844C97.9992 23.6844 98.5945 23.8321 99.118 24.1277C99.65 24.4148 100.064 24.8159 100.359 25.331C100.663 25.8377 100.815 26.4288 100.815 27.1043C100.815 27.7714 100.663 28.3625 100.359 28.8776C100.064 29.3927 99.65 29.7981 99.118 30.0936C98.5945 30.3892 97.9992 30.5369 97.332 30.5369ZM97.332 29.473C97.7627 29.473 98.1469 29.3758 98.4847 29.1816C98.8309 28.9874 99.1011 28.713 99.2954 28.3583C99.4896 27.9952 99.5867 27.5772 99.5867 27.1043C99.5867 26.623 99.4896 26.2092 99.2954 25.863C99.1011 25.5083 98.8309 25.2339 98.4847 25.0397C98.1469 24.8455 97.7627 24.7483 97.332 24.7483C96.9014 24.7483 96.5172 24.8455 96.1794 25.0397C95.8416 25.2339 95.5714 25.5083 95.3687 25.863C95.1661 26.2092 95.0647 26.623 95.0647 27.1043C95.0647 27.5772 95.1661 27.9952 95.3687 28.3583C95.5714 28.713 95.8416 28.9874 96.1794 29.1816C96.5172 29.3758 96.9014 29.473 97.332 29.473ZM110.993 23.6844C111.534 23.6844 112.011 23.7899 112.425 24.001C112.838 24.2121 113.159 24.533 113.387 24.9637C113.624 25.3943 113.742 25.939 113.742 26.5977V30.4609H112.526V26.737C112.526 26.0868 112.374 25.597 112.07 25.2677C111.766 24.9383 111.34 24.7737 110.791 24.7737C110.385 24.7737 110.031 24.8581 109.727 25.027C109.423 25.1959 109.186 25.445 109.017 25.7743C108.857 26.1037 108.777 26.5132 108.777 27.003V30.4609H107.561V26.737C107.561 26.0868 107.409 25.597 107.105 25.2677C106.809 24.9383 106.383 24.7737 105.825 24.7737C105.429 24.7737 105.078 24.8581 104.774 25.027C104.47 25.1959 104.234 25.445 104.065 25.7743C103.896 26.1037 103.812 26.5132 103.812 27.003V30.4609H102.596V23.7477H103.761V25.5337L103.571 25.0777C103.782 24.6386 104.107 24.2966 104.546 24.0517C104.985 23.8068 105.496 23.6844 106.079 23.6844C106.721 23.6844 107.274 23.8448 107.738 24.1657C108.203 24.4781 108.507 24.9552 108.65 25.597L108.156 25.3943C108.359 24.8792 108.713 24.4655 109.22 24.153C109.727 23.8406 110.318 23.6844 110.993 23.6844ZM119.637 30.5369C119.08 30.5369 118.569 30.4103 118.105 30.1569C117.649 29.8952 117.281 29.511 117.003 29.0043C116.732 28.4976 116.597 27.8643 116.597 27.1043C116.597 26.3443 116.728 25.711 116.99 25.2043C117.26 24.6977 117.623 24.3177 118.079 24.0644C118.544 23.811 119.063 23.6844 119.637 23.6844C120.296 23.6844 120.879 23.8279 121.385 24.115C121.892 24.4021 122.293 24.8032 122.589 25.3183C122.884 25.825 123.032 26.4203 123.032 27.1043C123.032 27.7883 122.884 28.3879 122.589 28.903C122.293 29.4181 121.892 29.8192 121.385 30.1063C120.879 30.3934 120.296 30.5369 119.637 30.5369ZM116.078 32.9182V23.7477H117.243V25.559L117.167 27.117L117.294 28.675V32.9182H116.078ZM119.536 29.473C119.967 29.473 120.351 29.3758 120.689 29.1816C121.035 28.9874 121.305 28.713 121.499 28.3583C121.702 27.9952 121.803 27.5772 121.803 27.1043C121.803 26.623 121.702 26.2092 121.499 25.863C121.305 25.5083 121.035 25.2339 120.689 25.0397C120.351 24.8455 119.967 24.7483 119.536 24.7483C119.114 24.7483 118.729 24.8455 118.383 25.0397C118.046 25.2339 117.775 25.5083 117.573 25.863C117.378 26.2092 117.281 26.623 117.281 27.1043C117.281 27.5772 117.378 27.9952 117.573 28.3583C117.775 28.713 118.046 28.9874 118.383 29.1816C118.729 29.3758 119.114 29.473 119.536 29.473ZM128.916 30.4609V29.0423L128.853 28.7763V26.357C128.853 25.8419 128.701 25.445 128.397 25.1663C128.101 24.8792 127.653 24.7357 127.054 24.7357C126.657 24.7357 126.269 24.8032 125.889 24.9383C125.509 25.065 125.188 25.2381 124.926 25.4577L124.419 24.5457C124.766 24.267 125.179 24.0559 125.661 23.9124C126.15 23.7604 126.661 23.6844 127.193 23.6844C128.114 23.6844 128.823 23.9081 129.321 24.3557C129.819 24.8032 130.069 25.4872 130.069 26.4077V30.4609H128.916ZM126.712 30.5369C126.214 30.5369 125.775 30.4525 125.395 30.2836C125.023 30.1147 124.736 29.8825 124.533 29.5869C124.331 29.283 124.229 28.941 124.229 28.561C124.229 28.1979 124.314 27.8685 124.483 27.573C124.66 27.2774 124.943 27.041 125.331 26.8637C125.728 26.6863 126.26 26.5977 126.927 26.5977H129.055V27.4716H126.978C126.37 27.4716 125.96 27.573 125.749 27.7756C125.538 27.9783 125.433 28.2232 125.433 28.5103C125.433 28.8396 125.564 29.1056 125.825 29.3083C126.087 29.5025 126.45 29.5996 126.915 29.5996C127.371 29.5996 127.767 29.4983 128.105 29.2956C128.451 29.093 128.701 28.7974 128.853 28.409L129.093 29.245C128.933 29.6418 128.65 29.9585 128.245 30.1949C127.839 30.4229 127.328 30.5369 126.712 30.5369ZM136.002 23.6844C136.551 23.6844 137.032 23.7899 137.446 24.001C137.868 24.2121 138.198 24.533 138.434 24.9637C138.67 25.3943 138.789 25.939 138.789 26.5977V30.4609H137.573V26.737C137.573 26.0868 137.412 25.597 137.091 25.2677C136.779 24.9383 136.336 24.7737 135.761 24.7737C135.331 24.7737 134.955 24.8581 134.634 25.027C134.313 25.1959 134.064 25.445 133.887 25.7743C133.718 26.1037 133.633 26.5132 133.633 27.003V30.4609H132.417V23.7477H133.583V25.559L133.393 25.0777C133.612 24.6386 133.95 24.2966 134.406 24.0517C134.862 23.8068 135.394 23.6844 136.002 23.6844ZM141.305 32.9942C140.984 32.9942 140.672 32.9393 140.368 32.8296C140.064 32.7282 139.802 32.5762 139.583 32.3736L140.102 31.4616C140.271 31.622 140.456 31.7445 140.659 31.8289C140.862 31.9134 141.077 31.9556 141.305 31.9556C141.601 31.9556 141.846 31.8796 142.04 31.7276C142.234 31.5756 142.416 31.3054 142.584 30.9169L143.002 29.9923L143.129 29.8403L145.764 23.7477H146.954L143.699 31.1323C143.505 31.6051 143.285 31.9767 143.04 32.2469C142.804 32.5171 142.542 32.7071 142.255 32.8169C141.968 32.9351 141.651 32.9942 141.305 32.9942ZM142.901 30.6763L139.836 23.7477H141.102L143.712 29.7263L142.901 30.6763Z" fill="#5E5873"/>
</svg>
