<svg width="292" height="69" viewBox="0 0 292 69" fill="none" xmlns="http://www.w3.org/2000/svg">
<rect x="0.767822" y="0.0200195" width="290.253" height="68.4717" rx="10.7938" fill="#6663AC"/>
<path d="M19.1012 19.622C20.0247 19.622 20.8348 19.8025 21.5316 20.1635C22.2368 20.5245 22.7783 21.0408 23.1561 21.7124C23.5423 22.3757 23.7354 23.148 23.7354 24.0295C23.7354 24.911 23.5423 25.6834 23.1561 26.3466C22.7783 27.0014 22.2368 27.5093 21.5316 27.8703C20.8348 28.2313 20.0247 28.4118 19.1012 28.4118H16.0286V19.622H19.1012ZM19.0383 26.9133C19.9617 26.9133 20.6753 26.6614 21.179 26.1577C21.6827 25.654 21.9346 24.9446 21.9346 24.0295C21.9346 23.1144 21.6827 22.4008 21.179 21.8887C20.6753 21.3682 19.9617 21.108 19.0383 21.108H17.7916V26.9133H19.0383ZM28.1529 28.5251C27.4813 28.5251 26.8768 28.3782 26.3395 28.0844C25.8022 27.7822 25.3783 27.3582 25.0676 26.8125C24.7654 26.2668 24.6143 25.6372 24.6143 24.9236C24.6143 24.21 24.7696 23.5804 25.0802 23.0347C25.3993 22.489 25.8316 22.0692 26.3773 21.7754C26.923 21.4732 27.5316 21.3221 28.2033 21.3221C28.8749 21.3221 29.4835 21.4732 30.0292 21.7754C30.5749 22.0692 31.0031 22.489 31.3137 23.0347C31.6327 23.5804 31.7922 24.21 31.7922 24.9236C31.7922 25.6372 31.6285 26.2668 31.3011 26.8125C30.9821 27.3582 30.5455 27.7822 29.9914 28.0844C29.4457 28.3782 28.8329 28.5251 28.1529 28.5251ZM28.1529 26.9888C28.4719 26.9888 28.7699 26.9133 29.047 26.7621C29.3324 26.6026 29.5591 26.3676 29.727 26.057C29.8949 25.7463 29.9788 25.3685 29.9788 24.9236C29.9788 24.2604 29.8025 23.7525 29.4499 23.3999C29.1057 23.0389 28.6818 22.8584 28.1781 22.8584C27.6744 22.8584 27.2504 23.0389 26.9062 23.3999C26.5704 23.7525 26.4025 24.2604 26.4025 24.9236C26.4025 25.5868 26.5662 26.0989 26.8936 26.4599C27.2294 26.8125 27.6492 26.9888 28.1529 26.9888ZM42.7567 21.4354L40.7167 28.4118H38.8151L37.5433 23.5384L36.2714 28.4118H34.3573L32.3047 21.4354H34.0928L35.3269 26.7496L36.6618 21.4354H38.5255L39.8352 26.737L41.0693 21.4354H42.7567ZM47.5766 21.3346C48.4077 21.3346 49.0793 21.5991 49.5914 22.128C50.1035 22.6485 50.3596 23.3789 50.3596 24.3191V28.4118H48.5966V24.5584C48.5966 24.0043 48.4581 23.5804 48.181 23.2865C47.904 22.9843 47.5262 22.8332 47.0477 22.8332C46.5608 22.8332 46.1746 22.9843 45.8892 23.2865C45.6121 23.5804 45.4736 24.0043 45.4736 24.5584V28.4118H43.7106V21.4354H45.4736V22.3043C45.7087 22.0021 46.0067 21.767 46.3677 21.5991C46.7371 21.4228 47.14 21.3346 47.5766 21.3346ZM53.7991 19.0931V28.4118H52.0361V19.0931H53.7991ZM58.6388 28.5251C57.9672 28.5251 57.3627 28.3782 56.8254 28.0844C56.2881 27.7822 55.8642 27.3582 55.5535 26.8125C55.2513 26.2668 55.1002 25.6372 55.1002 24.9236C55.1002 24.21 55.2555 23.5804 55.5661 23.0347C55.8851 22.489 56.3175 22.0692 56.8632 21.7754C57.4089 21.4732 58.0175 21.3221 58.6891 21.3221C59.3608 21.3221 59.9694 21.4732 60.5151 21.7754C61.0608 22.0692 61.4889 22.489 61.7996 23.0347C62.1186 23.5804 62.2781 24.21 62.2781 24.9236C62.2781 25.6372 62.1144 26.2668 61.787 26.8125C61.468 27.3582 61.0314 27.7822 60.4773 28.0844C59.9316 28.3782 59.3188 28.5251 58.6388 28.5251ZM58.6388 26.9888C58.9578 26.9888 59.2558 26.9133 59.5329 26.7621C59.8183 26.6026 60.045 26.3676 60.2129 26.057C60.3808 25.7463 60.4647 25.3685 60.4647 24.9236C60.4647 24.2604 60.2884 23.7525 59.9358 23.3999C59.5916 23.0389 59.1677 22.8584 58.664 22.8584C58.1602 22.8584 57.7363 23.0389 57.3921 23.3999C57.0563 23.7525 56.8884 24.2604 56.8884 24.9236C56.8884 25.5868 57.0521 26.0989 57.3795 26.4599C57.7153 26.8125 58.1351 26.9888 58.6388 26.9888ZM63.118 24.8984C63.118 24.1932 63.2565 23.5678 63.5335 23.0221C63.819 22.4764 64.201 22.0566 64.6795 21.7628C65.1664 21.469 65.7079 21.3221 66.304 21.3221C66.8245 21.3221 67.2778 21.427 67.664 21.6369C68.0586 21.8468 68.3734 22.1112 68.6084 22.4302V21.4354H70.384V28.4118H68.6084V27.3918C68.3818 27.7192 68.0669 27.992 67.664 28.2103C67.2694 28.4202 66.8119 28.5251 66.2914 28.5251C65.7037 28.5251 65.1664 28.374 64.6795 28.0718C64.201 27.7696 63.819 27.3456 63.5335 26.7999C63.2565 26.2458 63.118 25.612 63.118 24.8984ZM68.6084 24.9236C68.6084 24.4954 68.5245 24.1303 68.3566 23.828C68.1887 23.5174 67.962 23.2823 67.6766 23.1228C67.3911 22.9549 67.0847 22.871 66.7573 22.871C66.4299 22.871 66.1277 22.9507 65.8506 23.1102C65.5736 23.2697 65.3469 23.5048 65.1706 23.8154C65.0027 24.1177 64.9187 24.4787 64.9187 24.8984C64.9187 25.3182 65.0027 25.6876 65.1706 26.0066C65.3469 26.3172 65.5736 26.5565 65.8506 26.7244C66.1361 26.8923 66.4383 26.9762 66.7573 26.9762C67.0847 26.9762 67.3911 26.8965 67.6766 26.737C67.962 26.5691 68.1887 26.334 68.3566 26.0318C68.5245 25.7211 68.6084 25.3518 68.6084 24.9236ZM71.6526 24.8984C71.6526 24.1932 71.7911 23.5678 72.0681 23.0221C72.3535 22.4764 72.7397 22.0566 73.2267 21.7628C73.7136 21.469 74.2551 21.3221 74.8511 21.3221C75.3045 21.3221 75.7368 21.4228 76.1482 21.6243C76.5595 21.8174 76.887 22.0776 77.1304 22.405V19.0931H78.9186V28.4118H77.1304V27.3792C76.9121 27.7234 76.6057 28.0004 76.2111 28.2103C75.8166 28.4202 75.359 28.5251 74.8385 28.5251C74.2509 28.5251 73.7136 28.374 73.2267 28.0718C72.7397 27.7696 72.3535 27.3456 72.0681 26.7999C71.7911 26.2458 71.6526 25.612 71.6526 24.8984ZM77.143 24.9236C77.143 24.4954 77.0591 24.1303 76.8912 23.828C76.7233 23.5174 76.4966 23.2823 76.2111 23.1228C75.9257 22.9549 75.6193 22.871 75.2919 22.871C74.9645 22.871 74.6622 22.9507 74.3852 23.1102C74.1081 23.2697 73.8815 23.5048 73.7052 23.8154C73.5373 24.1177 73.4533 24.4787 73.4533 24.8984C73.4533 25.3182 73.5373 25.6876 73.7052 26.0066C73.8815 26.3172 74.1081 26.5565 74.3852 26.7244C74.6706 26.8923 74.9729 26.9762 75.2919 26.9762C75.6193 26.9762 75.9257 26.8965 76.2111 26.737C76.4966 26.5691 76.7233 26.334 76.8912 26.0318C77.0591 25.7211 77.143 25.3518 77.143 24.9236ZM84.5352 20.6043C84.2246 20.6043 83.9643 20.5077 83.7544 20.3146C83.5529 20.1131 83.4522 19.8655 83.4522 19.5717C83.4522 19.2778 83.5529 19.0344 83.7544 18.8413C83.9643 18.6398 84.2246 18.539 84.5352 18.539C84.8458 18.539 85.1019 18.6398 85.3033 18.8413C85.5132 19.0344 85.6182 19.2778 85.6182 19.5717C85.6182 19.8655 85.5132 20.1131 85.3033 20.3146C85.1019 20.5077 84.8458 20.6043 84.5352 20.6043ZM85.4041 21.4354V28.4118H83.6411V21.4354H85.4041ZM91.0119 21.3346C91.843 21.3346 92.5147 21.5991 93.0268 22.128C93.5389 22.6485 93.7949 23.3789 93.7949 24.3191V28.4118H92.0319V24.5584C92.0319 24.0043 91.8934 23.5804 91.6164 23.2865C91.3393 22.9843 90.9615 22.8332 90.483 22.8332C89.9961 22.8332 89.6099 22.9843 89.3245 23.2865C89.0474 23.5804 88.9089 24.0043 88.9089 24.5584V28.4118H87.1459V21.4354H88.9089V22.3043C89.144 22.0021 89.442 21.767 89.803 21.5991C90.1724 21.4228 90.5754 21.3346 91.0119 21.3346ZM98.3804 26.7873L100.143 21.4354H102.02L99.4382 28.4118H97.2974L94.7285 21.4354H96.6174L98.3804 26.7873ZM106.108 28.5251C105.436 28.5251 104.832 28.3782 104.294 28.0844C103.757 27.7822 103.333 27.3582 103.023 26.8125C102.72 26.2668 102.569 25.6372 102.569 24.9236C102.569 24.21 102.724 23.5804 103.035 23.0347C103.354 22.489 103.786 22.0692 104.332 21.7754C104.878 21.4732 105.486 21.3221 106.158 21.3221C106.83 21.3221 107.438 21.4732 107.984 21.7754C108.53 22.0692 108.958 22.489 109.269 23.0347C109.588 23.5804 109.747 24.21 109.747 24.9236C109.747 25.6372 109.583 26.2668 109.256 26.8125C108.937 27.3582 108.5 27.7822 107.946 28.0844C107.401 28.3782 106.788 28.5251 106.108 28.5251ZM106.108 26.9888C106.427 26.9888 106.725 26.9133 107.002 26.7621C107.287 26.6026 107.514 26.3676 107.682 26.057C107.85 25.7463 107.934 25.3685 107.934 24.9236C107.934 24.2604 107.757 23.7525 107.405 23.3999C107.061 23.0389 106.637 22.8584 106.133 22.8584C105.629 22.8584 105.205 23.0389 104.861 23.3999C104.525 23.7525 104.357 24.2604 104.357 24.9236C104.357 25.5868 104.521 26.0989 104.848 26.4599C105.184 26.8125 105.604 26.9888 106.108 26.9888ZM111.934 20.6043C111.624 20.6043 111.363 20.5077 111.154 20.3146C110.952 20.1131 110.851 19.8655 110.851 19.5717C110.851 19.2778 110.952 19.0344 111.154 18.8413C111.363 18.6398 111.624 18.539 111.934 18.539C112.245 18.539 112.501 18.6398 112.703 18.8413C112.912 19.0344 113.017 19.2778 113.017 19.5717C113.017 19.8655 112.912 20.1131 112.703 20.3146C112.501 20.5077 112.245 20.6043 111.934 20.6043ZM112.803 21.4354V28.4118H111.04V21.4354H112.803ZM114.092 24.9236C114.092 24.2016 114.239 23.572 114.533 23.0347C114.826 22.489 115.234 22.0692 115.754 21.7754C116.275 21.4732 116.871 21.3221 117.542 21.3221C118.407 21.3221 119.12 21.5403 119.683 21.9769C120.254 22.405 120.636 23.0095 120.829 23.7902H118.927C118.827 23.488 118.655 23.253 118.411 23.085C118.176 22.9087 117.882 22.8206 117.53 22.8206C117.026 22.8206 116.627 23.0053 116.333 23.3747C116.039 23.7357 115.893 24.252 115.893 24.9236C115.893 25.5868 116.039 26.1031 116.333 26.4725C116.627 26.8335 117.026 27.014 117.53 27.014C118.243 27.014 118.709 26.695 118.927 26.057H120.829C120.636 26.8125 120.254 27.4128 119.683 27.8577C119.112 28.3027 118.399 28.5251 117.542 28.5251C116.871 28.5251 116.275 28.3782 115.754 28.0844C115.234 27.7822 114.826 27.3624 114.533 26.8251C114.239 26.2794 114.092 25.6456 114.092 24.9236ZM128.606 24.7725C128.606 25.0243 128.589 25.251 128.555 25.4525H123.455C123.497 25.9562 123.674 26.3508 123.984 26.6362C124.295 26.9217 124.677 27.0644 125.13 27.0644C125.785 27.0644 126.251 26.7831 126.528 26.2207H128.429C128.228 26.8923 127.842 27.4464 127.271 27.8829C126.7 28.3111 125.999 28.5251 125.168 28.5251C124.496 28.5251 123.892 28.3782 123.355 28.0844C122.826 27.7822 122.41 27.3582 122.108 26.8125C121.814 26.2668 121.667 25.6372 121.667 24.9236C121.667 24.2016 121.814 23.5678 122.108 23.0221C122.402 22.4764 122.813 22.0566 123.342 21.7628C123.871 21.469 124.48 21.3221 125.168 21.3221C125.831 21.3221 126.423 21.4648 126.944 21.7502C127.472 22.0356 127.88 22.4428 128.165 22.9717C128.459 23.4922 128.606 24.0925 128.606 24.7725ZM126.78 24.2688C126.771 23.8154 126.608 23.4544 126.289 23.1858C125.97 22.9087 125.579 22.7702 125.118 22.7702C124.681 22.7702 124.312 22.9046 124.009 23.1732C123.716 23.4334 123.535 23.7986 123.468 24.2688H126.78Z" fill="white"/>
<path d="M18.376 48.1754C17.8795 48.1754 17.4333 48.0891 17.0376 47.9164C16.649 47.7365 16.3431 47.4918 16.1201 47.1824C15.897 46.8658 15.7819 46.5024 15.7747 46.0922H16.8217C16.8577 46.4448 17.0016 46.7434 17.2534 46.9881C17.5125 47.2256 17.8867 47.3443 18.376 47.3443C18.8437 47.3443 19.2107 47.2292 19.477 46.9989C19.7504 46.7614 19.8871 46.4592 19.8871 46.0922C19.8871 45.8044 19.808 45.5705 19.6497 45.3906C19.4913 45.2107 19.2935 45.074 19.056 44.9804C18.8185 44.8869 18.4983 44.7861 18.0953 44.6782C17.5988 44.5487 17.1995 44.4192 16.8972 44.2896C16.6022 44.1601 16.3467 43.9586 16.1309 43.6852C15.9222 43.4045 15.8178 43.0304 15.8178 42.5626C15.8178 42.1525 15.9222 41.7891 16.1309 41.4724C16.3395 41.1558 16.631 40.9112 17.0052 40.7385C17.3866 40.5658 17.8219 40.4794 18.3112 40.4794C19.0164 40.4794 19.5921 40.6557 20.0382 41.0083C20.4916 41.3609 20.747 41.8286 20.8046 42.4115H19.7252C19.6892 42.1237 19.5381 41.8718 19.2719 41.6559C19.0056 41.4329 18.653 41.3213 18.2141 41.3213C17.8039 41.3213 17.4693 41.4293 17.2103 41.6451C16.9512 41.8538 16.8217 42.1489 16.8217 42.5302C16.8217 42.8037 16.8972 43.0268 17.0483 43.1995C17.2067 43.3722 17.3973 43.5053 17.6204 43.5988C17.8507 43.6852 18.1709 43.7859 18.5811 43.9011C19.0776 44.0378 19.477 44.1745 19.7792 44.3112C20.0814 44.4407 20.3405 44.6458 20.5563 44.9265C20.7722 45.1999 20.8802 45.5741 20.8802 46.049C20.8802 46.416 20.783 46.7614 20.5887 47.0852C20.3944 47.409 20.1066 47.6717 19.7252 47.8732C19.3438 48.0747 18.8941 48.1754 18.376 48.1754ZM22.8329 41.2242C22.6458 41.2242 22.4875 41.1594 22.358 41.0299C22.2285 40.9004 22.1637 40.7421 22.1637 40.555C22.1637 40.3679 22.2285 40.2096 22.358 40.08C22.4875 39.9505 22.6458 39.8857 22.8329 39.8857C23.0128 39.8857 23.1639 39.9505 23.2863 40.08C23.4158 40.2096 23.4805 40.3679 23.4805 40.555C23.4805 40.7421 23.4158 40.9004 23.2863 41.0299C23.1639 41.1594 23.0128 41.2242 22.8329 41.2242ZM23.3078 42.1848V48.0999H22.3256V42.1848H23.3078ZM32.095 42.0769C32.5556 42.0769 32.9657 42.174 33.3255 42.3683C33.6853 42.5554 33.9696 42.8397 34.1782 43.221C34.3869 43.6024 34.4913 44.0666 34.4913 44.6134V48.0999H33.5198V44.7538C33.5198 44.1637 33.3723 43.714 33.0773 43.4045C32.7894 43.0879 32.3973 42.9296 31.9007 42.9296C31.3898 42.9296 30.9833 43.0951 30.681 43.4261C30.3788 43.7499 30.2277 44.2213 30.2277 44.8401V48.0999H29.2563V44.7538C29.2563 44.1637 29.1087 43.714 28.8137 43.4045C28.5259 43.0879 28.1337 42.9296 27.6372 42.9296C27.1263 42.9296 26.7197 43.0951 26.4175 43.4261C26.1152 43.7499 25.9641 44.2213 25.9641 44.8401V48.0999H24.9819V42.1848H25.9641V43.0375C26.1584 42.7281 26.4175 42.4907 26.7413 42.3252C27.0723 42.1596 27.4357 42.0769 27.8315 42.0769C28.328 42.0769 28.7669 42.1884 29.1483 42.4115C29.5297 42.6346 29.8139 42.962 30.001 43.3937C30.1665 42.9764 30.44 42.6526 30.8214 42.4223C31.2027 42.192 31.6273 42.0769 32.095 42.0769ZM37.0847 43.275C37.279 42.9368 37.5669 42.6562 37.9482 42.4331C38.3368 42.2028 38.7866 42.0877 39.2975 42.0877C39.8228 42.0877 40.2977 42.2136 40.7223 42.4655C41.154 42.7173 41.4922 43.0735 41.7369 43.5341C41.9815 43.9874 42.1039 44.5163 42.1039 45.1208C42.1039 45.718 41.9815 46.2505 41.7369 46.7182C41.4922 47.186 41.154 47.5494 40.7223 47.8084C40.2977 48.0675 39.8228 48.197 39.2975 48.197C38.7938 48.197 38.3476 48.0855 37.959 47.8624C37.5776 47.6321 37.2862 47.3479 37.0847 47.0097V50.9062H36.1025V42.1848H37.0847V43.275ZM41.1 45.1208C41.1 44.6746 41.0101 44.286 40.8302 43.955C40.6503 43.624 40.4056 43.3722 40.0962 43.1995C39.794 43.0268 39.4594 42.9404 39.0924 42.9404C38.7326 42.9404 38.398 43.0304 38.0886 43.2102C37.7863 43.3829 37.5417 43.6384 37.3546 43.9766C37.1747 44.3076 37.0847 44.6926 37.0847 45.1315C37.0847 45.5777 37.1747 45.9699 37.3546 46.3081C37.5417 46.6391 37.7863 46.8945 38.0886 47.0744C38.398 47.2471 38.7326 47.3335 39.0924 47.3335C39.4594 47.3335 39.794 47.2471 40.0962 47.0744C40.4056 46.8945 40.6503 46.6391 40.8302 46.3081C41.0101 45.9699 41.1 45.5741 41.1 45.1208ZM44.379 40.1124V48.0999H43.3968V40.1124H44.379ZM51.1477 42.1848L47.5858 50.8847H46.5712L47.7369 48.0351L45.3515 42.1848H46.4416L48.2982 46.9773L50.1331 42.1848H51.1477ZM57.4522 42.0877C57.9631 42.0877 58.4092 42.1992 58.7906 42.4223C59.1792 42.6454 59.467 42.926 59.6541 43.2642V42.1848H60.6472V48.2294C60.6472 48.7691 60.532 49.2476 60.3018 49.665C60.0715 50.0895 59.7405 50.4205 59.3087 50.658C58.8842 50.8955 58.3876 51.0142 57.8192 51.0142C57.042 51.0142 56.3944 50.8307 55.8763 50.4637C55.3582 50.0967 55.0524 49.5966 54.9588 48.9634H55.9303C56.0382 49.3232 56.2613 49.611 56.5995 49.8269C56.9377 50.0499 57.3442 50.1615 57.8192 50.1615C58.3589 50.1615 58.7978 49.9924 59.136 49.6542C59.4814 49.316 59.6541 48.841 59.6541 48.2294V46.9881C59.4598 47.3335 59.172 47.6213 58.7906 47.8516C58.4092 48.0819 57.9631 48.197 57.4522 48.197C56.9269 48.197 56.4484 48.0675 56.0166 47.8084C55.592 47.5494 55.2574 47.186 55.0128 46.7182C54.7681 46.2505 54.6458 45.718 54.6458 45.1208C54.6458 44.5163 54.7681 43.9874 55.0128 43.5341C55.2574 43.0735 55.592 42.7173 56.0166 42.4655C56.4484 42.2136 56.9269 42.0877 57.4522 42.0877ZM59.6541 45.1315C59.6541 44.6854 59.5642 44.2968 59.3843 43.9658C59.2044 43.6348 58.9597 43.3829 58.6503 43.2102C58.3481 43.0304 58.0135 42.9404 57.6465 42.9404C57.2795 42.9404 56.9449 43.0268 56.6426 43.1995C56.3404 43.3722 56.0994 43.624 55.9195 43.955C55.7396 44.286 55.6496 44.6746 55.6496 45.1208C55.6496 45.5741 55.7396 45.9699 55.9195 46.3081C56.0994 46.6391 56.3404 46.8945 56.6426 47.0744C56.9449 47.2471 57.2795 47.3335 57.6465 47.3335C58.0135 47.3335 58.3481 47.2471 58.6503 47.0744C58.9597 46.8945 59.2044 46.6391 59.3843 46.3081C59.5642 45.9699 59.6541 45.5777 59.6541 45.1315ZM67.704 44.9157C67.704 45.1028 67.6932 45.3007 67.6716 45.5093H62.9439C62.9799 46.0922 63.1777 46.5491 63.5375 46.8802C63.9045 47.204 64.3471 47.3659 64.8652 47.3659C65.2897 47.3659 65.6423 47.2687 65.923 47.0744C66.2108 46.873 66.4123 46.6067 66.5274 46.2757H67.5852C67.4269 46.8442 67.1103 47.3083 66.6354 47.6681C66.1604 48.0207 65.5704 48.197 64.8652 48.197C64.3039 48.197 63.8002 48.0711 63.354 47.8192C62.9151 47.5674 62.5697 47.2112 62.3178 46.7506C62.066 46.2829 61.9401 45.7432 61.9401 45.1315C61.9401 44.5199 62.0624 43.9838 62.307 43.5233C62.5517 43.0627 62.8935 42.7101 63.3325 42.4655C63.7786 42.2136 64.2895 42.0877 64.8652 42.0877C65.4265 42.0877 65.923 42.21 66.3547 42.4547C66.7865 42.6993 67.1175 43.0375 67.3478 43.4693C67.5852 43.8939 67.704 44.376 67.704 44.9157ZM66.6893 44.7106C66.6893 44.3364 66.6066 44.0162 66.4411 43.7499C66.2756 43.4765 66.0489 43.2714 65.7611 43.1347C65.4804 42.9908 65.1674 42.9188 64.822 42.9188C64.3255 42.9188 63.9009 43.0771 63.5483 43.3937C63.2029 43.7104 63.005 44.1493 62.9547 44.7106H66.6893ZM70.1986 42.9944V46.4808C70.1986 46.7686 70.2598 46.9737 70.3821 47.096C70.5044 47.2112 70.7167 47.2687 71.0189 47.2687H71.7421V48.0999H70.857C70.3101 48.0999 69.9 47.9739 69.6265 47.7221C69.3531 47.4702 69.2164 47.0564 69.2164 46.4808V42.9944H68.45V42.1848H69.2164V40.6953H70.1986V42.1848H71.7421V42.9944H70.1986ZM77.008 42.9944V46.4808C77.008 46.7686 77.0692 46.9737 77.1915 47.096C77.3138 47.2112 77.5261 47.2687 77.8283 47.2687H78.5515V48.0999H77.6664C77.1195 48.0999 76.7094 47.9739 76.4359 47.7221C76.1625 47.4702 76.0257 47.0564 76.0257 46.4808V42.9944H75.2594V42.1848H76.0257V40.6953H77.008V42.1848H78.5515V42.9944H77.008ZM82.6775 42.0769C83.1237 42.0769 83.5266 42.174 83.8864 42.3683C84.2462 42.5554 84.5269 42.8397 84.7284 43.221C84.937 43.6024 85.0414 44.0666 85.0414 44.6134V48.0999H84.0699V44.7538C84.0699 44.1637 83.9224 43.714 83.6274 43.4045C83.3324 43.0879 82.9294 42.9296 82.4185 42.9296C81.9004 42.9296 81.4866 43.0915 81.1772 43.4153C80.875 43.7391 80.7239 44.2105 80.7239 44.8293V48.0999H79.7416V40.1124H80.7239V43.0268C80.9181 42.7245 81.1844 42.4907 81.5226 42.3252C81.868 42.1596 82.253 42.0769 82.6775 42.0769ZM92.0428 44.9157C92.0428 45.1028 92.032 45.3007 92.0104 45.5093H87.2827C87.3187 46.0922 87.5166 46.5491 87.8764 46.8802C88.2434 47.204 88.6859 47.3659 89.204 47.3659C89.6286 47.3659 89.9812 47.2687 90.2618 47.0744C90.5496 46.873 90.7511 46.6067 90.8663 46.2757H91.9241C91.7657 46.8442 91.4491 47.3083 90.9742 47.6681C90.4993 48.0207 89.9092 48.197 89.204 48.197C88.6427 48.197 88.139 48.0711 87.6929 47.8192C87.2539 47.5674 86.9085 47.2112 86.6567 46.7506C86.4048 46.2829 86.2789 45.7432 86.2789 45.1315C86.2789 44.5199 86.4012 43.9838 86.6459 43.5233C86.8905 43.0627 87.2323 42.7101 87.6713 42.4655C88.1174 42.2136 88.6283 42.0877 89.204 42.0877C89.7653 42.0877 90.2618 42.21 90.6936 42.4547C91.1253 42.6993 91.4563 43.0375 91.6866 43.4693C91.9241 43.8939 92.0428 44.376 92.0428 44.9157ZM91.0282 44.7106C91.0282 44.3364 90.9454 44.0162 90.7799 43.7499C90.6144 43.4765 90.3877 43.2714 90.0999 43.1347C89.8193 42.9908 89.5062 42.9188 89.1608 42.9188C88.6643 42.9188 88.2398 43.0771 87.8872 43.3937C87.5418 43.7104 87.3439 44.1493 87.2935 44.7106H91.0282ZM96.7243 41.2242C96.5372 41.2242 96.3789 41.1594 96.2493 41.0299C96.1198 40.9004 96.0551 40.7421 96.0551 40.555C96.0551 40.3679 96.1198 40.2096 96.2493 40.08C96.3789 39.9505 96.5372 39.8857 96.7243 39.8857C96.9042 39.8857 97.0553 39.9505 97.1776 40.08C97.3071 40.2096 97.3719 40.3679 97.3719 40.555C97.3719 40.7421 97.3071 40.9004 97.1776 41.0299C97.0553 41.1594 96.9042 41.2242 96.7243 41.2242ZM97.1992 42.1848V48.0999H96.217V42.1848H97.1992ZM101.755 42.0769C102.475 42.0769 103.058 42.2964 103.504 42.7353C103.95 43.1671 104.173 43.7931 104.173 44.6134V48.0999H103.202V44.7538C103.202 44.1637 103.054 43.714 102.759 43.4045C102.464 43.0879 102.061 42.9296 101.55 42.9296C101.032 42.9296 100.618 43.0915 100.309 43.4153C100.007 43.7391 99.8555 44.2105 99.8555 44.8293V48.0999H98.8733V42.1848H99.8555V43.0268C100.05 42.7245 100.312 42.4907 100.643 42.3252C100.982 42.1596 101.352 42.0769 101.755 42.0769ZM107.979 47.1932L109.814 42.1848H110.861L108.541 48.0999H107.397L105.076 42.1848H106.134L107.979 47.1932ZM114.408 48.197C113.854 48.197 113.35 48.0711 112.897 47.8192C112.45 47.5674 112.098 47.2112 111.839 46.7506C111.587 46.2829 111.461 45.7432 111.461 45.1315C111.461 44.5271 111.59 43.9946 111.85 43.5341C112.116 43.0663 112.476 42.7101 112.929 42.4655C113.382 42.2136 113.89 42.0877 114.451 42.0877C115.012 42.0877 115.519 42.2136 115.973 42.4655C116.426 42.7101 116.782 43.0627 117.041 43.5233C117.308 43.9838 117.441 44.5199 117.441 45.1315C117.441 45.7432 117.304 46.2829 117.031 46.7506C116.764 47.2112 116.401 47.5674 115.94 47.8192C115.48 48.0711 114.969 48.197 114.408 48.197ZM114.408 47.3335C114.76 47.3335 115.091 47.2507 115.401 47.0852C115.71 46.9197 115.958 46.6715 116.145 46.3405C116.34 46.0094 116.437 45.6065 116.437 45.1315C116.437 44.6566 116.343 44.2537 116.156 43.9226C115.969 43.5916 115.725 43.347 115.422 43.1887C115.12 43.0232 114.793 42.9404 114.44 42.9404C114.08 42.9404 113.749 43.0232 113.447 43.1887C113.152 43.347 112.915 43.5916 112.735 43.9226C112.555 44.2537 112.465 44.6566 112.465 45.1315C112.465 45.6137 112.551 46.0202 112.724 46.3513C112.904 46.6823 113.141 46.9305 113.436 47.096C113.731 47.2543 114.055 47.3335 114.408 47.3335ZM119.24 41.2242C119.052 41.2242 118.894 41.1594 118.765 41.0299C118.635 40.9004 118.57 40.7421 118.57 40.555C118.57 40.3679 118.635 40.2096 118.765 40.08C118.894 39.9505 119.052 39.8857 119.24 39.8857C119.419 39.8857 119.571 39.9505 119.693 40.08C119.822 40.2096 119.887 40.3679 119.887 40.555C119.887 40.7421 119.822 40.9004 119.693 41.0299C119.571 41.1594 119.419 41.2242 119.24 41.2242ZM119.714 42.1848V48.0999H118.732V42.1848H119.714ZM121.022 45.1315C121.022 44.5199 121.144 43.9874 121.389 43.5341C121.633 43.0735 121.971 42.7173 122.403 42.4655C122.842 42.2136 123.342 42.0877 123.903 42.0877C124.63 42.0877 125.228 42.264 125.695 42.6166C126.17 42.9692 126.483 43.4585 126.634 44.0845H125.577C125.476 43.7248 125.278 43.4405 124.983 43.2318C124.695 43.0232 124.335 42.9188 123.903 42.9188C123.342 42.9188 122.889 43.1131 122.543 43.5017C122.198 43.8831 122.025 44.4264 122.025 45.1315C122.025 45.8439 122.198 46.3944 122.543 46.783C122.889 47.1716 123.342 47.3659 123.903 47.3659C124.335 47.3659 124.695 47.2651 124.983 47.0636C125.271 46.8622 125.469 46.5743 125.577 46.2001H126.634C126.476 46.8046 126.159 47.2903 125.684 47.6573C125.21 48.0171 124.616 48.197 123.903 48.197C123.342 48.197 122.842 48.0711 122.403 47.8192C121.971 47.5674 121.633 47.2112 121.389 46.7506C121.144 46.2901 121.022 45.7504 121.022 45.1315ZM133.342 44.9157C133.342 45.1028 133.331 45.3007 133.309 45.5093H128.582C128.618 46.0922 128.816 46.5491 129.175 46.8802C129.542 47.204 129.985 47.3659 130.503 47.3659C130.928 47.3659 131.28 47.2687 131.561 47.0744C131.849 46.873 132.05 46.6067 132.165 46.2757H133.223C133.065 46.8442 132.748 47.3083 132.273 47.6681C131.798 48.0207 131.208 48.197 130.503 48.197C129.942 48.197 129.438 48.0711 128.992 47.8192C128.553 47.5674 128.208 47.2112 127.956 46.7506C127.704 46.2829 127.578 45.7432 127.578 45.1315C127.578 44.5199 127.7 43.9838 127.945 43.5233C128.19 43.0627 128.531 42.7101 128.97 42.4655C129.416 42.2136 129.927 42.0877 130.503 42.0877C131.064 42.0877 131.561 42.21 131.993 42.4547C132.424 42.6993 132.755 43.0375 132.986 43.4693C133.223 43.8939 133.342 44.376 133.342 44.9157ZM132.327 44.7106C132.327 44.3364 132.244 44.0162 132.079 43.7499C131.913 43.4765 131.687 43.2714 131.399 43.1347C131.118 42.9908 130.805 42.9188 130.46 42.9188C129.963 42.9188 129.539 43.0771 129.186 43.3937C128.841 43.7104 128.643 44.1493 128.593 44.7106H132.327ZM138.023 41.2242C137.836 41.2242 137.678 41.1594 137.548 41.0299C137.419 40.9004 137.354 40.7421 137.354 40.555C137.354 40.3679 137.419 40.2096 137.548 40.08C137.678 39.9505 137.836 39.8857 138.023 39.8857C138.203 39.8857 138.354 39.9505 138.477 40.08C138.606 40.2096 138.671 40.3679 138.671 40.555C138.671 40.7421 138.606 40.9004 138.477 41.0299C138.354 41.1594 138.203 41.2242 138.023 41.2242ZM138.498 42.1848V48.0999H137.516V42.1848H138.498ZM143.054 42.0769C143.774 42.0769 144.357 42.2964 144.803 42.7353C145.249 43.1671 145.472 43.7931 145.472 44.6134V48.0999H144.501V44.7538C144.501 44.1637 144.353 43.714 144.058 43.4045C143.763 43.0879 143.36 42.9296 142.849 42.9296C142.331 42.9296 141.917 43.0915 141.608 43.4153C141.306 43.7391 141.155 44.2105 141.155 44.8293V48.0999H140.172V42.1848H141.155V43.0268C141.349 42.7245 141.611 42.4907 141.942 42.3252C142.281 42.1596 142.651 42.0769 143.054 42.0769ZM154.984 42.7785C154.984 43.4045 154.768 43.9262 154.337 44.3436C153.912 44.7538 153.261 44.9588 152.383 44.9588H150.936V48.0999H149.954V40.5766H152.383C153.232 40.5766 153.876 40.7816 154.315 41.1918C154.761 41.602 154.984 42.1309 154.984 42.7785ZM152.383 44.1493C152.93 44.1493 153.333 44.0306 153.592 43.7931C153.851 43.5557 153.98 43.2174 153.98 42.7785C153.98 41.8502 153.448 41.3861 152.383 41.3861H150.936V44.1493H152.383ZM158.547 40.5766C159.368 40.5766 160.076 40.7313 160.674 41.0407C161.278 41.3429 161.739 41.7783 162.055 42.3467C162.379 42.9152 162.541 43.5844 162.541 44.3544C162.541 45.1244 162.379 45.7936 162.055 46.362C161.739 46.9233 161.278 47.3551 160.674 47.6573C160.076 47.9523 159.368 48.0999 158.547 48.0999H156.205V40.5766H158.547ZM158.547 47.2903C159.519 47.2903 160.26 47.0349 160.771 46.524C161.282 46.0059 161.537 45.2827 161.537 44.3544C161.537 43.4189 161.278 42.6885 160.76 42.1632C160.249 41.6379 159.511 41.3753 158.547 41.3753H157.187V47.2903H158.547ZM168.089 40.5766V41.3753H164.819V43.9118H167.474V44.7106H164.819V48.0999H163.837V40.5766H168.089Z" fill="#DDDFE1"/>
</svg>
